G04 #@! TF.GenerationSoftware,KiCad,Pcbnew,(5.1.6)-1*
G04 #@! TF.CreationDate,2020-05-23T09:23:12-05:00*
G04 #@! TF.ProjectId,nrf,6e72662e-6b69-4636-9164-5f7063625858,rev?*
G04 #@! TF.SameCoordinates,Original*
G04 #@! TF.FileFunction,Legend,Bot*
G04 #@! TF.FilePolarity,Positive*
%FSLAX46Y46*%
G04 Gerber Fmt 4.6, Leading zero omitted, Abs format (unit mm)*
G04 Created by KiCad (PCBNEW (5.1.6)-1) date 2020-05-23 09:23:12*
%MOMM*%
%LPD*%
G01*
G04 APERTURE LIST*
%ADD10C,0.100000*%
%ADD11C,0.150000*%
G04 APERTURE END LIST*
D10*
X144706155Y-123650000D02*
G75*
G03*
X144706155Y-123650000I-206155J0D01*
G01*
X144611803Y-123650000D02*
G75*
G03*
X144611803Y-123650000I-111803J0D01*
G01*
X144550000Y-123650000D02*
G75*
G03*
X144550000Y-123650000I-50000J0D01*
G01*
X134950000Y-121700000D02*
X134950000Y-123750000D01*
X144100000Y-121700000D02*
X144100000Y-123600000D01*
X135250000Y-124050000D02*
X143650000Y-124050000D01*
X144900000Y-122450000D02*
X144900000Y-124000000D01*
X134100000Y-122600000D02*
X134100000Y-124000000D01*
X139500000Y-121700000D02*
X144150000Y-121700000D01*
X139500000Y-121700000D02*
X135000000Y-121700000D01*
X135000000Y-121700000D02*
G75*
G03*
X134100000Y-122600000I0J-900000D01*
G01*
X144900000Y-122450000D02*
G75*
G03*
X144150000Y-121700000I-750000J0D01*
G01*
X143650000Y-124050000D02*
G75*
G03*
X144100000Y-123600000I0J450000D01*
G01*
X134950000Y-123750000D02*
G75*
G03*
X135250000Y-124050000I300000J0D01*
G01*
D11*
X139833333Y-100452380D02*
X139833333Y-101166666D01*
X139880952Y-101309523D01*
X139976190Y-101404761D01*
X140119047Y-101452380D01*
X140214285Y-101452380D01*
X139452380Y-100452380D02*
X138785714Y-100452380D01*
X139214285Y-101452380D01*
X143814285Y-125152380D02*
X144385714Y-125152380D01*
X144100000Y-125152380D02*
X144100000Y-124152380D01*
X144195238Y-124295238D01*
X144290476Y-124390476D01*
X144385714Y-124438095D01*
X135290476Y-125202380D02*
X135861904Y-125202380D01*
X135576190Y-125202380D02*
X135576190Y-124202380D01*
X135671428Y-124345238D01*
X135766666Y-124440476D01*
X135861904Y-124488095D01*
X134909523Y-124297619D02*
X134861904Y-124250000D01*
X134766666Y-124202380D01*
X134528571Y-124202380D01*
X134433333Y-124250000D01*
X134385714Y-124297619D01*
X134338095Y-124392857D01*
X134338095Y-124488095D01*
X134385714Y-124630952D01*
X134957142Y-125202380D01*
X134338095Y-125202380D01*
X141261904Y-94652380D02*
X140690476Y-94652380D01*
X140976190Y-95652380D02*
X140976190Y-94652380D01*
X140357142Y-95652380D02*
X140357142Y-94652380D01*
X139976190Y-94652380D01*
X139880952Y-94700000D01*
X139833333Y-94747619D01*
X139785714Y-94842857D01*
X139785714Y-94985714D01*
X139833333Y-95080952D01*
X139880952Y-95128571D01*
X139976190Y-95176190D01*
X140357142Y-95176190D01*
X139452380Y-94652380D02*
X138833333Y-94652380D01*
X139166666Y-95033333D01*
X139023809Y-95033333D01*
X138928571Y-95080952D01*
X138880952Y-95128571D01*
X138833333Y-95223809D01*
X138833333Y-95461904D01*
X138880952Y-95557142D01*
X138928571Y-95604761D01*
X139023809Y-95652380D01*
X139309523Y-95652380D01*
X139404761Y-95604761D01*
X139452380Y-95557142D01*
M02*
