G04 #@! TF.GenerationSoftware,KiCad,Pcbnew,(5.1.6)-1*
G04 #@! TF.CreationDate,2020-05-24T14:26:43-05:00*
G04 #@! TF.ProjectId,nrf,6e72662e-6b69-4636-9164-5f7063625858,rev?*
G04 #@! TF.SameCoordinates,Original*
G04 #@! TF.FileFunction,Paste,Bot*
G04 #@! TF.FilePolarity,Positive*
%FSLAX46Y46*%
G04 Gerber Fmt 4.6, Leading zero omitted, Abs format (unit mm)*
G04 Created by KiCad (PCBNEW (5.1.6)-1) date 2020-05-24 14:26:43*
%MOMM*%
%LPD*%
G01*
G04 APERTURE LIST*
G04 APERTURE END LIST*
G36*
G01*
X138975000Y-123912500D02*
X138975000Y-122087500D01*
G75*
G02*
X139062500Y-122000000I87500J0D01*
G01*
X139237500Y-122000000D01*
G75*
G02*
X139325000Y-122087500I0J-87500D01*
G01*
X139325000Y-123912500D01*
G75*
G02*
X139237500Y-124000000I-87500J0D01*
G01*
X139062500Y-124000000D01*
G75*
G02*
X138975000Y-123912500I0J87500D01*
G01*
G37*
G36*
G01*
X138275000Y-123912500D02*
X138275000Y-122087500D01*
G75*
G02*
X138362500Y-122000000I87500J0D01*
G01*
X138537500Y-122000000D01*
G75*
G02*
X138625000Y-122087500I0J-87500D01*
G01*
X138625000Y-123912500D01*
G75*
G02*
X138537500Y-124000000I-87500J0D01*
G01*
X138362500Y-124000000D01*
G75*
G02*
X138275000Y-123912500I0J87500D01*
G01*
G37*
G36*
G01*
X139675000Y-123912500D02*
X139675000Y-122087500D01*
G75*
G02*
X139762500Y-122000000I87500J0D01*
G01*
X139937500Y-122000000D01*
G75*
G02*
X140025000Y-122087500I0J-87500D01*
G01*
X140025000Y-123912500D01*
G75*
G02*
X139937500Y-124000000I-87500J0D01*
G01*
X139762500Y-124000000D01*
G75*
G02*
X139675000Y-123912500I0J87500D01*
G01*
G37*
G36*
G01*
X140375000Y-123912500D02*
X140375000Y-122087500D01*
G75*
G02*
X140462500Y-122000000I87500J0D01*
G01*
X140637500Y-122000000D01*
G75*
G02*
X140725000Y-122087500I0J-87500D01*
G01*
X140725000Y-123912500D01*
G75*
G02*
X140637500Y-124000000I-87500J0D01*
G01*
X140462500Y-124000000D01*
G75*
G02*
X140375000Y-123912500I0J87500D01*
G01*
G37*
G36*
G01*
X141075000Y-123912500D02*
X141075000Y-122087500D01*
G75*
G02*
X141162500Y-122000000I87500J0D01*
G01*
X141337500Y-122000000D01*
G75*
G02*
X141425000Y-122087500I0J-87500D01*
G01*
X141425000Y-123912500D01*
G75*
G02*
X141337500Y-124000000I-87500J0D01*
G01*
X141162500Y-124000000D01*
G75*
G02*
X141075000Y-123912500I0J87500D01*
G01*
G37*
G36*
G01*
X141775000Y-123912500D02*
X141775000Y-122087500D01*
G75*
G02*
X141862500Y-122000000I87500J0D01*
G01*
X142037500Y-122000000D01*
G75*
G02*
X142125000Y-122087500I0J-87500D01*
G01*
X142125000Y-123912500D01*
G75*
G02*
X142037500Y-124000000I-87500J0D01*
G01*
X141862500Y-124000000D01*
G75*
G02*
X141775000Y-123912500I0J87500D01*
G01*
G37*
G36*
G01*
X137575000Y-123912500D02*
X137575000Y-122087500D01*
G75*
G02*
X137662500Y-122000000I87500J0D01*
G01*
X137837500Y-122000000D01*
G75*
G02*
X137925000Y-122087500I0J-87500D01*
G01*
X137925000Y-123912500D01*
G75*
G02*
X137837500Y-124000000I-87500J0D01*
G01*
X137662500Y-124000000D01*
G75*
G02*
X137575000Y-123912500I0J87500D01*
G01*
G37*
G36*
G01*
X136875000Y-123912500D02*
X136875000Y-122087500D01*
G75*
G02*
X136962500Y-122000000I87500J0D01*
G01*
X137137500Y-122000000D01*
G75*
G02*
X137225000Y-122087500I0J-87500D01*
G01*
X137225000Y-123912500D01*
G75*
G02*
X137137500Y-124000000I-87500J0D01*
G01*
X136962500Y-124000000D01*
G75*
G02*
X136875000Y-123912500I0J87500D01*
G01*
G37*
G36*
G01*
X136175000Y-123912500D02*
X136175000Y-122087500D01*
G75*
G02*
X136262500Y-122000000I87500J0D01*
G01*
X136437500Y-122000000D01*
G75*
G02*
X136525000Y-122087500I0J-87500D01*
G01*
X136525000Y-123912500D01*
G75*
G02*
X136437500Y-124000000I-87500J0D01*
G01*
X136262500Y-124000000D01*
G75*
G02*
X136175000Y-123912500I0J87500D01*
G01*
G37*
G36*
G01*
X135475000Y-123912500D02*
X135475000Y-122087500D01*
G75*
G02*
X135562500Y-122000000I87500J0D01*
G01*
X135737500Y-122000000D01*
G75*
G02*
X135825000Y-122087500I0J-87500D01*
G01*
X135825000Y-123912500D01*
G75*
G02*
X135737500Y-124000000I-87500J0D01*
G01*
X135562500Y-124000000D01*
G75*
G02*
X135475000Y-123912500I0J87500D01*
G01*
G37*
G36*
G01*
X142475000Y-123912500D02*
X142475000Y-122087500D01*
G75*
G02*
X142562500Y-122000000I87500J0D01*
G01*
X142737500Y-122000000D01*
G75*
G02*
X142825000Y-122087500I0J-87500D01*
G01*
X142825000Y-123912500D01*
G75*
G02*
X142737500Y-124000000I-87500J0D01*
G01*
X142562500Y-124000000D01*
G75*
G02*
X142475000Y-123912500I0J87500D01*
G01*
G37*
G36*
G01*
X143175000Y-123912500D02*
X143175000Y-122087500D01*
G75*
G02*
X143262500Y-122000000I87500J0D01*
G01*
X143437500Y-122000000D01*
G75*
G02*
X143525000Y-122087500I0J-87500D01*
G01*
X143525000Y-123912500D01*
G75*
G02*
X143437500Y-124000000I-87500J0D01*
G01*
X143262500Y-124000000D01*
G75*
G02*
X143175000Y-123912500I0J87500D01*
G01*
G37*
M02*
