G04 #@! TF.GenerationSoftware,KiCad,Pcbnew,(5.1.6)-1*
G04 #@! TF.CreationDate,2020-05-23T09:23:12-05:00*
G04 #@! TF.ProjectId,nrf,6e72662e-6b69-4636-9164-5f7063625858,rev?*
G04 #@! TF.SameCoordinates,Original*
G04 #@! TF.FileFunction,Soldermask,Bot*
G04 #@! TF.FilePolarity,Negative*
%FSLAX46Y46*%
G04 Gerber Fmt 4.6, Leading zero omitted, Abs format (unit mm)*
G04 Created by KiCad (PCBNEW (5.1.6)-1) date 2020-05-23 09:23:12*
%MOMM*%
%LPD*%
G01*
G04 APERTURE LIST*
%ADD10C,0.100000*%
G04 APERTURE END LIST*
D10*
G36*
X135835113Y-121950761D02*
G01*
X135844455Y-121953595D01*
X135853064Y-121958197D01*
X135860610Y-121964390D01*
X135866803Y-121971936D01*
X135871405Y-121980545D01*
X135874239Y-121989887D01*
X135875603Y-122003738D01*
X135880383Y-122027771D01*
X135889760Y-122050410D01*
X135903374Y-122070785D01*
X135920701Y-122088112D01*
X135941075Y-122101726D01*
X135963714Y-122111103D01*
X135987747Y-122115884D01*
X136012251Y-122115884D01*
X136036284Y-122111104D01*
X136058923Y-122101727D01*
X136079298Y-122088113D01*
X136096625Y-122070786D01*
X136110239Y-122050412D01*
X136119616Y-122027773D01*
X136124397Y-122003738D01*
X136125761Y-121989887D01*
X136128595Y-121980545D01*
X136133197Y-121971936D01*
X136139390Y-121964390D01*
X136146936Y-121958197D01*
X136155545Y-121953595D01*
X136164887Y-121950761D01*
X136180738Y-121949200D01*
X136519262Y-121949200D01*
X136535113Y-121950761D01*
X136544455Y-121953595D01*
X136553064Y-121958197D01*
X136560610Y-121964390D01*
X136566803Y-121971936D01*
X136571405Y-121980545D01*
X136574239Y-121989887D01*
X136575603Y-122003738D01*
X136580383Y-122027771D01*
X136589760Y-122050410D01*
X136603374Y-122070785D01*
X136620701Y-122088112D01*
X136641075Y-122101726D01*
X136663714Y-122111103D01*
X136687747Y-122115884D01*
X136712251Y-122115884D01*
X136736284Y-122111104D01*
X136758923Y-122101727D01*
X136779298Y-122088113D01*
X136796625Y-122070786D01*
X136810239Y-122050412D01*
X136819616Y-122027773D01*
X136824397Y-122003738D01*
X136825761Y-121989887D01*
X136828595Y-121980545D01*
X136833197Y-121971936D01*
X136839390Y-121964390D01*
X136846936Y-121958197D01*
X136855545Y-121953595D01*
X136864887Y-121950761D01*
X136880738Y-121949200D01*
X137219262Y-121949200D01*
X137235113Y-121950761D01*
X137244455Y-121953595D01*
X137253064Y-121958197D01*
X137260610Y-121964390D01*
X137266803Y-121971936D01*
X137271405Y-121980545D01*
X137274239Y-121989887D01*
X137275603Y-122003738D01*
X137280383Y-122027771D01*
X137289760Y-122050410D01*
X137303374Y-122070785D01*
X137320701Y-122088112D01*
X137341075Y-122101726D01*
X137363714Y-122111103D01*
X137387747Y-122115884D01*
X137412251Y-122115884D01*
X137436284Y-122111104D01*
X137458923Y-122101727D01*
X137479298Y-122088113D01*
X137496625Y-122070786D01*
X137510239Y-122050412D01*
X137519616Y-122027773D01*
X137524397Y-122003738D01*
X137525761Y-121989887D01*
X137528595Y-121980545D01*
X137533197Y-121971936D01*
X137539390Y-121964390D01*
X137546936Y-121958197D01*
X137555545Y-121953595D01*
X137564887Y-121950761D01*
X137580738Y-121949200D01*
X137919262Y-121949200D01*
X137935113Y-121950761D01*
X137944455Y-121953595D01*
X137953064Y-121958197D01*
X137960610Y-121964390D01*
X137966803Y-121971936D01*
X137971405Y-121980545D01*
X137974239Y-121989887D01*
X137975603Y-122003738D01*
X137980383Y-122027771D01*
X137989760Y-122050410D01*
X138003374Y-122070785D01*
X138020701Y-122088112D01*
X138041075Y-122101726D01*
X138063714Y-122111103D01*
X138087747Y-122115884D01*
X138112251Y-122115884D01*
X138136284Y-122111104D01*
X138158923Y-122101727D01*
X138179298Y-122088113D01*
X138196625Y-122070786D01*
X138210239Y-122050412D01*
X138219616Y-122027773D01*
X138224397Y-122003738D01*
X138225761Y-121989887D01*
X138228595Y-121980545D01*
X138233197Y-121971936D01*
X138239390Y-121964390D01*
X138246936Y-121958197D01*
X138255545Y-121953595D01*
X138264887Y-121950761D01*
X138280738Y-121949200D01*
X138619262Y-121949200D01*
X138635113Y-121950761D01*
X138644455Y-121953595D01*
X138653064Y-121958197D01*
X138660610Y-121964390D01*
X138666803Y-121971936D01*
X138671405Y-121980545D01*
X138674239Y-121989887D01*
X138675603Y-122003738D01*
X138680383Y-122027771D01*
X138689760Y-122050410D01*
X138703374Y-122070785D01*
X138720701Y-122088112D01*
X138741075Y-122101726D01*
X138763714Y-122111103D01*
X138787747Y-122115884D01*
X138812251Y-122115884D01*
X138836284Y-122111104D01*
X138858923Y-122101727D01*
X138879298Y-122088113D01*
X138896625Y-122070786D01*
X138910239Y-122050412D01*
X138919616Y-122027773D01*
X138924397Y-122003738D01*
X138925761Y-121989887D01*
X138928595Y-121980545D01*
X138933197Y-121971936D01*
X138939390Y-121964390D01*
X138946936Y-121958197D01*
X138955545Y-121953595D01*
X138964887Y-121950761D01*
X138980738Y-121949200D01*
X139319262Y-121949200D01*
X139335113Y-121950761D01*
X139344455Y-121953595D01*
X139353064Y-121958197D01*
X139360610Y-121964390D01*
X139366803Y-121971936D01*
X139371405Y-121980545D01*
X139374239Y-121989887D01*
X139375603Y-122003738D01*
X139380383Y-122027771D01*
X139389760Y-122050410D01*
X139403374Y-122070785D01*
X139420701Y-122088112D01*
X139441075Y-122101726D01*
X139463714Y-122111103D01*
X139487747Y-122115884D01*
X139512251Y-122115884D01*
X139536284Y-122111104D01*
X139558923Y-122101727D01*
X139579298Y-122088113D01*
X139596625Y-122070786D01*
X139610239Y-122050412D01*
X139619616Y-122027773D01*
X139624397Y-122003738D01*
X139625761Y-121989887D01*
X139628595Y-121980545D01*
X139633197Y-121971936D01*
X139639390Y-121964390D01*
X139646936Y-121958197D01*
X139655545Y-121953595D01*
X139664887Y-121950761D01*
X139680738Y-121949200D01*
X140019262Y-121949200D01*
X140035113Y-121950761D01*
X140044455Y-121953595D01*
X140053064Y-121958197D01*
X140060610Y-121964390D01*
X140066803Y-121971936D01*
X140071405Y-121980545D01*
X140074239Y-121989887D01*
X140075603Y-122003738D01*
X140080383Y-122027771D01*
X140089760Y-122050410D01*
X140103374Y-122070785D01*
X140120701Y-122088112D01*
X140141075Y-122101726D01*
X140163714Y-122111103D01*
X140187747Y-122115884D01*
X140212251Y-122115884D01*
X140236284Y-122111104D01*
X140258923Y-122101727D01*
X140279298Y-122088113D01*
X140296625Y-122070786D01*
X140310239Y-122050412D01*
X140319616Y-122027773D01*
X140324397Y-122003738D01*
X140325761Y-121989887D01*
X140328595Y-121980545D01*
X140333197Y-121971936D01*
X140339390Y-121964390D01*
X140346936Y-121958197D01*
X140355545Y-121953595D01*
X140364887Y-121950761D01*
X140380738Y-121949200D01*
X140719262Y-121949200D01*
X140735113Y-121950761D01*
X140744455Y-121953595D01*
X140753064Y-121958197D01*
X140760610Y-121964390D01*
X140766803Y-121971936D01*
X140771405Y-121980545D01*
X140774239Y-121989887D01*
X140775603Y-122003738D01*
X140780383Y-122027771D01*
X140789760Y-122050410D01*
X140803374Y-122070785D01*
X140820701Y-122088112D01*
X140841075Y-122101726D01*
X140863714Y-122111103D01*
X140887747Y-122115884D01*
X140912251Y-122115884D01*
X140936284Y-122111104D01*
X140958923Y-122101727D01*
X140979298Y-122088113D01*
X140996625Y-122070786D01*
X141010239Y-122050412D01*
X141019616Y-122027773D01*
X141024397Y-122003738D01*
X141025761Y-121989887D01*
X141028595Y-121980545D01*
X141033197Y-121971936D01*
X141039390Y-121964390D01*
X141046936Y-121958197D01*
X141055545Y-121953595D01*
X141064887Y-121950761D01*
X141080738Y-121949200D01*
X141419262Y-121949200D01*
X141435113Y-121950761D01*
X141444455Y-121953595D01*
X141453064Y-121958197D01*
X141460610Y-121964390D01*
X141466803Y-121971936D01*
X141471405Y-121980545D01*
X141474239Y-121989887D01*
X141475603Y-122003738D01*
X141480383Y-122027771D01*
X141489760Y-122050410D01*
X141503374Y-122070785D01*
X141520701Y-122088112D01*
X141541075Y-122101726D01*
X141563714Y-122111103D01*
X141587747Y-122115884D01*
X141612251Y-122115884D01*
X141636284Y-122111104D01*
X141658923Y-122101727D01*
X141679298Y-122088113D01*
X141696625Y-122070786D01*
X141710239Y-122050412D01*
X141719616Y-122027773D01*
X141724397Y-122003738D01*
X141725761Y-121989887D01*
X141728595Y-121980545D01*
X141733197Y-121971936D01*
X141739390Y-121964390D01*
X141746936Y-121958197D01*
X141755545Y-121953595D01*
X141764887Y-121950761D01*
X141780738Y-121949200D01*
X142119262Y-121949200D01*
X142135113Y-121950761D01*
X142144455Y-121953595D01*
X142153064Y-121958197D01*
X142160610Y-121964390D01*
X142166803Y-121971936D01*
X142171405Y-121980545D01*
X142174239Y-121989887D01*
X142175603Y-122003738D01*
X142180383Y-122027771D01*
X142189760Y-122050410D01*
X142203374Y-122070785D01*
X142220701Y-122088112D01*
X142241075Y-122101726D01*
X142263714Y-122111103D01*
X142287747Y-122115884D01*
X142312251Y-122115884D01*
X142336284Y-122111104D01*
X142358923Y-122101727D01*
X142379298Y-122088113D01*
X142396625Y-122070786D01*
X142410239Y-122050412D01*
X142419616Y-122027773D01*
X142424397Y-122003738D01*
X142425761Y-121989887D01*
X142428595Y-121980545D01*
X142433197Y-121971936D01*
X142439390Y-121964390D01*
X142446936Y-121958197D01*
X142455545Y-121953595D01*
X142464887Y-121950761D01*
X142480738Y-121949200D01*
X142819262Y-121949200D01*
X142835113Y-121950761D01*
X142844455Y-121953595D01*
X142853064Y-121958197D01*
X142860610Y-121964390D01*
X142866803Y-121971936D01*
X142871405Y-121980545D01*
X142874239Y-121989887D01*
X142875603Y-122003738D01*
X142880383Y-122027771D01*
X142889760Y-122050410D01*
X142903374Y-122070785D01*
X142920701Y-122088112D01*
X142941075Y-122101726D01*
X142963714Y-122111103D01*
X142987747Y-122115884D01*
X143012251Y-122115884D01*
X143036284Y-122111104D01*
X143058923Y-122101727D01*
X143079298Y-122088113D01*
X143096625Y-122070786D01*
X143110239Y-122050412D01*
X143119616Y-122027773D01*
X143124397Y-122003738D01*
X143125761Y-121989887D01*
X143128595Y-121980545D01*
X143133197Y-121971936D01*
X143139390Y-121964390D01*
X143146936Y-121958197D01*
X143155545Y-121953595D01*
X143164887Y-121950761D01*
X143180738Y-121949200D01*
X143519262Y-121949200D01*
X143535113Y-121950761D01*
X143544455Y-121953595D01*
X143553064Y-121958197D01*
X143560610Y-121964390D01*
X143566803Y-121971936D01*
X143571405Y-121980545D01*
X143574239Y-121989887D01*
X143575800Y-122005738D01*
X143575800Y-123994262D01*
X143574239Y-124010113D01*
X143571405Y-124019455D01*
X143566803Y-124028064D01*
X143560610Y-124035610D01*
X143553064Y-124041803D01*
X143544455Y-124046405D01*
X143535113Y-124049239D01*
X143519262Y-124050800D01*
X143180738Y-124050800D01*
X143164887Y-124049239D01*
X143155545Y-124046405D01*
X143146936Y-124041803D01*
X143139390Y-124035610D01*
X143133197Y-124028064D01*
X143128595Y-124019455D01*
X143125761Y-124010113D01*
X143124397Y-123996262D01*
X143119617Y-123972229D01*
X143110240Y-123949590D01*
X143096626Y-123929215D01*
X143079299Y-123911888D01*
X143058925Y-123898274D01*
X143036286Y-123888897D01*
X143012253Y-123884116D01*
X142987749Y-123884116D01*
X142963716Y-123888896D01*
X142941077Y-123898273D01*
X142920702Y-123911887D01*
X142903375Y-123929214D01*
X142889761Y-123949588D01*
X142880384Y-123972227D01*
X142875603Y-123996262D01*
X142874239Y-124010113D01*
X142871405Y-124019455D01*
X142866803Y-124028064D01*
X142860610Y-124035610D01*
X142853064Y-124041803D01*
X142844455Y-124046405D01*
X142835113Y-124049239D01*
X142819262Y-124050800D01*
X142480738Y-124050800D01*
X142464887Y-124049239D01*
X142455545Y-124046405D01*
X142446936Y-124041803D01*
X142439390Y-124035610D01*
X142433197Y-124028064D01*
X142428595Y-124019455D01*
X142425761Y-124010113D01*
X142424397Y-123996262D01*
X142419617Y-123972229D01*
X142410240Y-123949590D01*
X142396626Y-123929215D01*
X142379299Y-123911888D01*
X142358925Y-123898274D01*
X142336286Y-123888897D01*
X142312253Y-123884116D01*
X142287749Y-123884116D01*
X142263716Y-123888896D01*
X142241077Y-123898273D01*
X142220702Y-123911887D01*
X142203375Y-123929214D01*
X142189761Y-123949588D01*
X142180384Y-123972227D01*
X142175603Y-123996262D01*
X142174239Y-124010113D01*
X142171405Y-124019455D01*
X142166803Y-124028064D01*
X142160610Y-124035610D01*
X142153064Y-124041803D01*
X142144455Y-124046405D01*
X142135113Y-124049239D01*
X142119262Y-124050800D01*
X141780738Y-124050800D01*
X141764887Y-124049239D01*
X141755545Y-124046405D01*
X141746936Y-124041803D01*
X141739390Y-124035610D01*
X141733197Y-124028064D01*
X141728595Y-124019455D01*
X141725761Y-124010113D01*
X141724397Y-123996262D01*
X141719617Y-123972229D01*
X141710240Y-123949590D01*
X141696626Y-123929215D01*
X141679299Y-123911888D01*
X141658925Y-123898274D01*
X141636286Y-123888897D01*
X141612253Y-123884116D01*
X141587749Y-123884116D01*
X141563716Y-123888896D01*
X141541077Y-123898273D01*
X141520702Y-123911887D01*
X141503375Y-123929214D01*
X141489761Y-123949588D01*
X141480384Y-123972227D01*
X141475603Y-123996262D01*
X141474239Y-124010113D01*
X141471405Y-124019455D01*
X141466803Y-124028064D01*
X141460610Y-124035610D01*
X141453064Y-124041803D01*
X141444455Y-124046405D01*
X141435113Y-124049239D01*
X141419262Y-124050800D01*
X141080738Y-124050800D01*
X141064887Y-124049239D01*
X141055545Y-124046405D01*
X141046936Y-124041803D01*
X141039390Y-124035610D01*
X141033197Y-124028064D01*
X141028595Y-124019455D01*
X141025761Y-124010113D01*
X141024397Y-123996262D01*
X141019617Y-123972229D01*
X141010240Y-123949590D01*
X140996626Y-123929215D01*
X140979299Y-123911888D01*
X140958925Y-123898274D01*
X140936286Y-123888897D01*
X140912253Y-123884116D01*
X140887749Y-123884116D01*
X140863716Y-123888896D01*
X140841077Y-123898273D01*
X140820702Y-123911887D01*
X140803375Y-123929214D01*
X140789761Y-123949588D01*
X140780384Y-123972227D01*
X140775603Y-123996262D01*
X140774239Y-124010113D01*
X140771405Y-124019455D01*
X140766803Y-124028064D01*
X140760610Y-124035610D01*
X140753064Y-124041803D01*
X140744455Y-124046405D01*
X140735113Y-124049239D01*
X140719262Y-124050800D01*
X140380738Y-124050800D01*
X140364887Y-124049239D01*
X140355545Y-124046405D01*
X140346936Y-124041803D01*
X140339390Y-124035610D01*
X140333197Y-124028064D01*
X140328595Y-124019455D01*
X140325761Y-124010113D01*
X140324397Y-123996262D01*
X140319617Y-123972229D01*
X140310240Y-123949590D01*
X140296626Y-123929215D01*
X140279299Y-123911888D01*
X140258925Y-123898274D01*
X140236286Y-123888897D01*
X140212253Y-123884116D01*
X140187749Y-123884116D01*
X140163716Y-123888896D01*
X140141077Y-123898273D01*
X140120702Y-123911887D01*
X140103375Y-123929214D01*
X140089761Y-123949588D01*
X140080384Y-123972227D01*
X140075603Y-123996262D01*
X140074239Y-124010113D01*
X140071405Y-124019455D01*
X140066803Y-124028064D01*
X140060610Y-124035610D01*
X140053064Y-124041803D01*
X140044455Y-124046405D01*
X140035113Y-124049239D01*
X140019262Y-124050800D01*
X139680738Y-124050800D01*
X139664887Y-124049239D01*
X139655545Y-124046405D01*
X139646936Y-124041803D01*
X139639390Y-124035610D01*
X139633197Y-124028064D01*
X139628595Y-124019455D01*
X139625761Y-124010113D01*
X139624397Y-123996262D01*
X139619617Y-123972229D01*
X139610240Y-123949590D01*
X139596626Y-123929215D01*
X139579299Y-123911888D01*
X139558925Y-123898274D01*
X139536286Y-123888897D01*
X139512253Y-123884116D01*
X139487749Y-123884116D01*
X139463716Y-123888896D01*
X139441077Y-123898273D01*
X139420702Y-123911887D01*
X139403375Y-123929214D01*
X139389761Y-123949588D01*
X139380384Y-123972227D01*
X139375603Y-123996262D01*
X139374239Y-124010113D01*
X139371405Y-124019455D01*
X139366803Y-124028064D01*
X139360610Y-124035610D01*
X139353064Y-124041803D01*
X139344455Y-124046405D01*
X139335113Y-124049239D01*
X139319262Y-124050800D01*
X138980738Y-124050800D01*
X138964887Y-124049239D01*
X138955545Y-124046405D01*
X138946936Y-124041803D01*
X138939390Y-124035610D01*
X138933197Y-124028064D01*
X138928595Y-124019455D01*
X138925761Y-124010113D01*
X138924397Y-123996262D01*
X138919617Y-123972229D01*
X138910240Y-123949590D01*
X138896626Y-123929215D01*
X138879299Y-123911888D01*
X138858925Y-123898274D01*
X138836286Y-123888897D01*
X138812253Y-123884116D01*
X138787749Y-123884116D01*
X138763716Y-123888896D01*
X138741077Y-123898273D01*
X138720702Y-123911887D01*
X138703375Y-123929214D01*
X138689761Y-123949588D01*
X138680384Y-123972227D01*
X138675603Y-123996262D01*
X138674239Y-124010113D01*
X138671405Y-124019455D01*
X138666803Y-124028064D01*
X138660610Y-124035610D01*
X138653064Y-124041803D01*
X138644455Y-124046405D01*
X138635113Y-124049239D01*
X138619262Y-124050800D01*
X138280738Y-124050800D01*
X138264887Y-124049239D01*
X138255545Y-124046405D01*
X138246936Y-124041803D01*
X138239390Y-124035610D01*
X138233197Y-124028064D01*
X138228595Y-124019455D01*
X138225761Y-124010113D01*
X138224397Y-123996262D01*
X138219617Y-123972229D01*
X138210240Y-123949590D01*
X138196626Y-123929215D01*
X138179299Y-123911888D01*
X138158925Y-123898274D01*
X138136286Y-123888897D01*
X138112253Y-123884116D01*
X138087749Y-123884116D01*
X138063716Y-123888896D01*
X138041077Y-123898273D01*
X138020702Y-123911887D01*
X138003375Y-123929214D01*
X137989761Y-123949588D01*
X137980384Y-123972227D01*
X137975603Y-123996262D01*
X137974239Y-124010113D01*
X137971405Y-124019455D01*
X137966803Y-124028064D01*
X137960610Y-124035610D01*
X137953064Y-124041803D01*
X137944455Y-124046405D01*
X137935113Y-124049239D01*
X137919262Y-124050800D01*
X137580738Y-124050800D01*
X137564887Y-124049239D01*
X137555545Y-124046405D01*
X137546936Y-124041803D01*
X137539390Y-124035610D01*
X137533197Y-124028064D01*
X137528595Y-124019455D01*
X137525761Y-124010113D01*
X137524397Y-123996262D01*
X137519617Y-123972229D01*
X137510240Y-123949590D01*
X137496626Y-123929215D01*
X137479299Y-123911888D01*
X137458925Y-123898274D01*
X137436286Y-123888897D01*
X137412253Y-123884116D01*
X137387749Y-123884116D01*
X137363716Y-123888896D01*
X137341077Y-123898273D01*
X137320702Y-123911887D01*
X137303375Y-123929214D01*
X137289761Y-123949588D01*
X137280384Y-123972227D01*
X137275603Y-123996262D01*
X137274239Y-124010113D01*
X137271405Y-124019455D01*
X137266803Y-124028064D01*
X137260610Y-124035610D01*
X137253064Y-124041803D01*
X137244455Y-124046405D01*
X137235113Y-124049239D01*
X137219262Y-124050800D01*
X136880738Y-124050800D01*
X136864887Y-124049239D01*
X136855545Y-124046405D01*
X136846936Y-124041803D01*
X136839390Y-124035610D01*
X136833197Y-124028064D01*
X136828595Y-124019455D01*
X136825761Y-124010113D01*
X136824397Y-123996262D01*
X136819617Y-123972229D01*
X136810240Y-123949590D01*
X136796626Y-123929215D01*
X136779299Y-123911888D01*
X136758925Y-123898274D01*
X136736286Y-123888897D01*
X136712253Y-123884116D01*
X136687749Y-123884116D01*
X136663716Y-123888896D01*
X136641077Y-123898273D01*
X136620702Y-123911887D01*
X136603375Y-123929214D01*
X136589761Y-123949588D01*
X136580384Y-123972227D01*
X136575603Y-123996262D01*
X136574239Y-124010113D01*
X136571405Y-124019455D01*
X136566803Y-124028064D01*
X136560610Y-124035610D01*
X136553064Y-124041803D01*
X136544455Y-124046405D01*
X136535113Y-124049239D01*
X136519262Y-124050800D01*
X136180738Y-124050800D01*
X136164887Y-124049239D01*
X136155545Y-124046405D01*
X136146936Y-124041803D01*
X136139390Y-124035610D01*
X136133197Y-124028064D01*
X136128595Y-124019455D01*
X136125761Y-124010113D01*
X136124397Y-123996262D01*
X136119617Y-123972229D01*
X136110240Y-123949590D01*
X136096626Y-123929215D01*
X136079299Y-123911888D01*
X136058925Y-123898274D01*
X136036286Y-123888897D01*
X136012253Y-123884116D01*
X135987749Y-123884116D01*
X135963716Y-123888896D01*
X135941077Y-123898273D01*
X135920702Y-123911887D01*
X135903375Y-123929214D01*
X135889761Y-123949588D01*
X135880384Y-123972227D01*
X135875603Y-123996262D01*
X135874239Y-124010113D01*
X135871405Y-124019455D01*
X135866803Y-124028064D01*
X135860610Y-124035610D01*
X135853064Y-124041803D01*
X135844455Y-124046405D01*
X135835113Y-124049239D01*
X135819262Y-124050800D01*
X135480738Y-124050800D01*
X135464887Y-124049239D01*
X135455545Y-124046405D01*
X135446936Y-124041803D01*
X135439390Y-124035610D01*
X135433197Y-124028064D01*
X135428595Y-124019455D01*
X135425761Y-124010113D01*
X135424200Y-123994262D01*
X135424200Y-122005738D01*
X135425761Y-121989887D01*
X135428595Y-121980545D01*
X135433197Y-121971936D01*
X135439390Y-121964390D01*
X135446936Y-121958197D01*
X135455545Y-121953595D01*
X135464887Y-121950761D01*
X135480738Y-121949200D01*
X135819262Y-121949200D01*
X135835113Y-121950761D01*
G37*
G36*
X155486464Y-121460470D02*
G01*
X155577603Y-121498221D01*
X155577605Y-121498222D01*
X155659628Y-121553028D01*
X155729384Y-121622784D01*
X155784191Y-121704809D01*
X155821942Y-121795948D01*
X155841187Y-121892699D01*
X155841187Y-121991351D01*
X155821942Y-122088102D01*
X155812414Y-122111104D01*
X155784190Y-122179243D01*
X155729384Y-122261266D01*
X155659628Y-122331022D01*
X155577605Y-122385828D01*
X155577604Y-122385829D01*
X155577603Y-122385829D01*
X155486464Y-122423580D01*
X155389713Y-122442825D01*
X155291061Y-122442825D01*
X155194310Y-122423580D01*
X155103171Y-122385829D01*
X155103170Y-122385829D01*
X155103169Y-122385828D01*
X155021146Y-122331022D01*
X154951390Y-122261266D01*
X154896584Y-122179243D01*
X154868360Y-122111104D01*
X154858832Y-122088102D01*
X154839587Y-121991351D01*
X154839587Y-121892699D01*
X154858832Y-121795948D01*
X154896583Y-121704809D01*
X154951390Y-121622784D01*
X155021146Y-121553028D01*
X155103169Y-121498222D01*
X155103171Y-121498221D01*
X155194310Y-121460470D01*
X155291061Y-121441225D01*
X155389713Y-121441225D01*
X155486464Y-121460470D01*
G37*
G36*
X124805690Y-121460470D02*
G01*
X124896829Y-121498221D01*
X124896831Y-121498222D01*
X124978854Y-121553028D01*
X125048610Y-121622784D01*
X125103417Y-121704809D01*
X125141168Y-121795948D01*
X125160413Y-121892699D01*
X125160413Y-121991351D01*
X125141168Y-122088102D01*
X125131640Y-122111104D01*
X125103416Y-122179243D01*
X125048610Y-122261266D01*
X124978854Y-122331022D01*
X124896831Y-122385828D01*
X124896830Y-122385829D01*
X124896829Y-122385829D01*
X124805690Y-122423580D01*
X124708939Y-122442825D01*
X124610287Y-122442825D01*
X124513536Y-122423580D01*
X124422397Y-122385829D01*
X124422396Y-122385829D01*
X124422395Y-122385828D01*
X124340372Y-122331022D01*
X124270616Y-122261266D01*
X124215810Y-122179243D01*
X124187586Y-122111104D01*
X124178058Y-122088102D01*
X124158813Y-121991351D01*
X124158813Y-121892699D01*
X124178058Y-121795948D01*
X124215809Y-121704809D01*
X124270616Y-121622784D01*
X124340372Y-121553028D01*
X124422395Y-121498222D01*
X124422397Y-121498221D01*
X124513536Y-121460470D01*
X124610287Y-121441225D01*
X124708939Y-121441225D01*
X124805690Y-121460470D01*
G37*
G36*
X156805690Y-119576420D02*
G01*
X156896829Y-119614171D01*
X156896831Y-119614172D01*
X156978854Y-119668978D01*
X157048610Y-119738734D01*
X157103417Y-119820759D01*
X157141168Y-119911898D01*
X157160413Y-120008649D01*
X157160413Y-120107301D01*
X157141168Y-120204052D01*
X157103417Y-120295191D01*
X157103416Y-120295193D01*
X157048610Y-120377216D01*
X156978854Y-120446972D01*
X156896831Y-120501778D01*
X156896830Y-120501779D01*
X156896829Y-120501779D01*
X156805690Y-120539530D01*
X156708939Y-120558775D01*
X156610287Y-120558775D01*
X156513536Y-120539530D01*
X156422397Y-120501779D01*
X156422396Y-120501779D01*
X156422395Y-120501778D01*
X156340372Y-120446972D01*
X156270616Y-120377216D01*
X156215810Y-120295193D01*
X156215809Y-120295191D01*
X156178058Y-120204052D01*
X156158813Y-120107301D01*
X156158813Y-120008649D01*
X156178058Y-119911898D01*
X156215809Y-119820759D01*
X156270616Y-119738734D01*
X156340372Y-119668978D01*
X156422395Y-119614172D01*
X156422397Y-119614171D01*
X156513536Y-119576420D01*
X156610287Y-119557175D01*
X156708939Y-119557175D01*
X156805690Y-119576420D01*
G37*
G36*
X123486464Y-119576420D02*
G01*
X123577603Y-119614171D01*
X123577605Y-119614172D01*
X123659628Y-119668978D01*
X123729384Y-119738734D01*
X123784191Y-119820759D01*
X123821942Y-119911898D01*
X123841187Y-120008649D01*
X123841187Y-120107301D01*
X123821942Y-120204052D01*
X123784191Y-120295191D01*
X123784190Y-120295193D01*
X123729384Y-120377216D01*
X123659628Y-120446972D01*
X123577605Y-120501778D01*
X123577604Y-120501779D01*
X123577603Y-120501779D01*
X123486464Y-120539530D01*
X123389713Y-120558775D01*
X123291061Y-120558775D01*
X123194310Y-120539530D01*
X123103171Y-120501779D01*
X123103170Y-120501779D01*
X123103169Y-120501778D01*
X123021146Y-120446972D01*
X122951390Y-120377216D01*
X122896584Y-120295193D01*
X122896583Y-120295191D01*
X122858832Y-120204052D01*
X122839587Y-120107301D01*
X122839587Y-120008649D01*
X122858832Y-119911898D01*
X122896583Y-119820759D01*
X122951390Y-119738734D01*
X123021146Y-119668978D01*
X123103169Y-119614172D01*
X123103171Y-119614171D01*
X123194310Y-119576420D01*
X123291061Y-119557175D01*
X123389713Y-119557175D01*
X123486464Y-119576420D01*
G37*
G36*
X159646077Y-110668445D02*
G01*
X159737216Y-110706196D01*
X159737218Y-110706197D01*
X159819241Y-110761003D01*
X159888997Y-110830759D01*
X159943804Y-110912784D01*
X159981555Y-111003923D01*
X160000800Y-111100674D01*
X160000800Y-111199326D01*
X159981555Y-111296077D01*
X159943804Y-111387216D01*
X159943803Y-111387218D01*
X159888997Y-111469241D01*
X159819241Y-111538997D01*
X159737218Y-111593803D01*
X159737217Y-111593804D01*
X159737216Y-111593804D01*
X159646077Y-111631555D01*
X159549326Y-111650800D01*
X159450674Y-111650800D01*
X159353923Y-111631555D01*
X159262784Y-111593804D01*
X159262783Y-111593804D01*
X159262782Y-111593803D01*
X159180759Y-111538997D01*
X159111003Y-111469241D01*
X159056197Y-111387218D01*
X159056196Y-111387216D01*
X159018445Y-111296077D01*
X158999200Y-111199326D01*
X158999200Y-111100674D01*
X159018445Y-111003923D01*
X159056196Y-110912784D01*
X159111003Y-110830759D01*
X159180759Y-110761003D01*
X159262782Y-110706197D01*
X159262784Y-110706196D01*
X159353923Y-110668445D01*
X159450674Y-110649200D01*
X159549326Y-110649200D01*
X159646077Y-110668445D01*
G37*
G36*
X159646077Y-108368445D02*
G01*
X159737216Y-108406196D01*
X159737218Y-108406197D01*
X159819241Y-108461003D01*
X159888997Y-108530759D01*
X159943804Y-108612784D01*
X159981555Y-108703923D01*
X160000800Y-108800674D01*
X160000800Y-108899326D01*
X159981555Y-108996077D01*
X159943804Y-109087216D01*
X159943803Y-109087218D01*
X159888997Y-109169241D01*
X159819241Y-109238997D01*
X159737218Y-109293803D01*
X159737217Y-109293804D01*
X159737216Y-109293804D01*
X159646077Y-109331555D01*
X159549326Y-109350800D01*
X159450674Y-109350800D01*
X159353923Y-109331555D01*
X159262784Y-109293804D01*
X159262783Y-109293804D01*
X159262782Y-109293803D01*
X159180759Y-109238997D01*
X159111003Y-109169241D01*
X159056197Y-109087218D01*
X159056196Y-109087216D01*
X159018445Y-108996077D01*
X158999200Y-108899326D01*
X158999200Y-108800674D01*
X159018445Y-108703923D01*
X159056196Y-108612784D01*
X159111003Y-108530759D01*
X159180759Y-108461003D01*
X159262782Y-108406197D01*
X159262784Y-108406196D01*
X159353923Y-108368445D01*
X159450674Y-108349200D01*
X159549326Y-108349200D01*
X159646077Y-108368445D01*
G37*
G36*
X128475000Y-98603949D02*
G01*
X127696051Y-99382898D01*
X127537881Y-99224728D01*
X127518945Y-99209188D01*
X127497334Y-99197637D01*
X127473885Y-99190524D01*
X127449499Y-99188122D01*
X127425113Y-99190524D01*
X127401664Y-99197637D01*
X127380053Y-99209188D01*
X127361111Y-99224733D01*
X127345566Y-99243675D01*
X127334015Y-99265286D01*
X127326902Y-99288735D01*
X127324500Y-99313121D01*
X127326902Y-99337506D01*
X127348825Y-99447724D01*
X127348825Y-99556224D01*
X127327658Y-99662637D01*
X127286138Y-99762877D01*
X127225859Y-99853089D01*
X127149139Y-99929809D01*
X127058927Y-99990088D01*
X126958687Y-100031608D01*
X126958686Y-100031608D01*
X126958684Y-100031609D01*
X126852275Y-100052775D01*
X126743775Y-100052775D01*
X126637366Y-100031609D01*
X126637364Y-100031608D01*
X126637363Y-100031608D01*
X126561543Y-100000203D01*
X126538101Y-99993092D01*
X126513715Y-99990690D01*
X126489329Y-99993092D01*
X126465880Y-100000205D01*
X126444269Y-100011756D01*
X126425327Y-100027301D01*
X126409782Y-100046243D01*
X126398230Y-100067853D01*
X126391117Y-100091302D01*
X126388715Y-100115688D01*
X126391117Y-100140074D01*
X126398228Y-100163518D01*
X126424627Y-100227253D01*
X126429634Y-100239341D01*
X126450800Y-100345750D01*
X126450800Y-100454250D01*
X126438956Y-100513795D01*
X126429633Y-100560662D01*
X126388113Y-100660902D01*
X126327834Y-100751114D01*
X126251114Y-100827834D01*
X126160902Y-100888113D01*
X126060662Y-100929633D01*
X126060661Y-100929633D01*
X126060659Y-100929634D01*
X125954250Y-100950800D01*
X125845750Y-100950800D01*
X125739341Y-100929634D01*
X125739339Y-100929633D01*
X125739338Y-100929633D01*
X125663514Y-100898226D01*
X125640074Y-100891116D01*
X125615688Y-100888714D01*
X125591302Y-100891116D01*
X125567853Y-100898229D01*
X125546242Y-100909780D01*
X125527300Y-100925325D01*
X125511755Y-100944267D01*
X125500203Y-100965877D01*
X125493090Y-100989326D01*
X125490688Y-101013712D01*
X125493090Y-101038098D01*
X125500200Y-101061540D01*
X125531607Y-101137364D01*
X125552774Y-101243777D01*
X125552774Y-101352275D01*
X125531607Y-101458688D01*
X125490087Y-101558928D01*
X125429808Y-101649140D01*
X125353088Y-101725860D01*
X125262876Y-101786139D01*
X125162636Y-101827659D01*
X125162635Y-101827659D01*
X125162633Y-101827660D01*
X125056224Y-101848826D01*
X124947724Y-101848826D01*
X124841315Y-101827660D01*
X124841313Y-101827659D01*
X124841312Y-101827659D01*
X124765492Y-101796254D01*
X124742050Y-101789143D01*
X124717664Y-101786741D01*
X124693278Y-101789143D01*
X124669829Y-101796256D01*
X124648218Y-101807807D01*
X124629276Y-101823352D01*
X124613731Y-101842294D01*
X124602179Y-101863904D01*
X124595066Y-101887353D01*
X124592664Y-101911739D01*
X124595066Y-101936125D01*
X124602177Y-101959569D01*
X124633582Y-102035389D01*
X124654749Y-102141802D01*
X124654749Y-102250300D01*
X124633582Y-102356713D01*
X124592062Y-102456953D01*
X124531783Y-102547165D01*
X124455063Y-102623885D01*
X124364851Y-102684164D01*
X124264611Y-102725684D01*
X124264610Y-102725684D01*
X124264608Y-102725685D01*
X124158199Y-102746851D01*
X124049699Y-102746851D01*
X123943290Y-102725685D01*
X123943288Y-102725684D01*
X123943287Y-102725684D01*
X123843047Y-102684164D01*
X123752835Y-102623885D01*
X123676115Y-102547165D01*
X123615836Y-102456953D01*
X123574316Y-102356713D01*
X123553149Y-102250300D01*
X123553149Y-102141802D01*
X123574316Y-102035389D01*
X123615836Y-101935149D01*
X123676115Y-101844937D01*
X123752835Y-101768217D01*
X123843047Y-101707938D01*
X123943287Y-101666418D01*
X123943288Y-101666418D01*
X123943290Y-101666417D01*
X124049699Y-101645251D01*
X124158199Y-101645251D01*
X124264608Y-101666417D01*
X124264610Y-101666418D01*
X124264611Y-101666418D01*
X124340431Y-101697823D01*
X124363873Y-101704934D01*
X124388259Y-101707336D01*
X124412645Y-101704934D01*
X124436094Y-101697821D01*
X124457705Y-101686270D01*
X124476647Y-101670725D01*
X124492192Y-101651783D01*
X124503744Y-101630173D01*
X124510857Y-101606724D01*
X124513259Y-101582338D01*
X124510857Y-101557952D01*
X124503746Y-101534508D01*
X124472341Y-101458688D01*
X124451174Y-101352275D01*
X124451174Y-101243777D01*
X124472341Y-101137364D01*
X124513861Y-101037124D01*
X124574140Y-100946912D01*
X124650860Y-100870192D01*
X124741072Y-100809913D01*
X124841312Y-100768393D01*
X124841313Y-100768393D01*
X124841315Y-100768392D01*
X124947724Y-100747226D01*
X125056224Y-100747226D01*
X125162633Y-100768392D01*
X125162635Y-100768393D01*
X125162636Y-100768393D01*
X125238460Y-100799800D01*
X125261900Y-100806910D01*
X125286286Y-100809312D01*
X125310672Y-100806910D01*
X125334121Y-100799797D01*
X125355732Y-100788246D01*
X125374674Y-100772701D01*
X125390219Y-100753759D01*
X125401771Y-100732149D01*
X125408884Y-100708700D01*
X125411286Y-100684314D01*
X125408884Y-100659928D01*
X125401774Y-100636486D01*
X125370367Y-100560662D01*
X125361045Y-100513795D01*
X125349200Y-100454250D01*
X125349200Y-100345750D01*
X125370366Y-100239341D01*
X125375373Y-100227253D01*
X125411887Y-100139098D01*
X125472166Y-100048886D01*
X125548886Y-99972166D01*
X125639098Y-99911887D01*
X125739338Y-99870367D01*
X125739339Y-99870367D01*
X125739341Y-99870366D01*
X125845750Y-99849200D01*
X125954250Y-99849200D01*
X126060659Y-99870366D01*
X126060661Y-99870367D01*
X126060662Y-99870367D01*
X126136482Y-99901772D01*
X126159924Y-99908883D01*
X126184310Y-99911285D01*
X126208696Y-99908883D01*
X126232145Y-99901770D01*
X126253756Y-99890219D01*
X126272698Y-99874674D01*
X126288243Y-99855732D01*
X126299795Y-99834122D01*
X126306908Y-99810673D01*
X126309310Y-99786287D01*
X126306908Y-99761901D01*
X126299797Y-99738457D01*
X126268392Y-99662637D01*
X126247225Y-99556224D01*
X126247225Y-99447726D01*
X126268392Y-99341313D01*
X126309912Y-99241073D01*
X126370191Y-99150861D01*
X126446911Y-99074141D01*
X126537123Y-99013862D01*
X126637363Y-98972342D01*
X126637364Y-98972342D01*
X126637366Y-98972341D01*
X126743775Y-98951175D01*
X126852276Y-98951175D01*
X126962494Y-98973098D01*
X126986880Y-98975500D01*
X127011266Y-98973098D01*
X127034715Y-98965985D01*
X127056325Y-98954433D01*
X127075267Y-98938888D01*
X127090812Y-98919946D01*
X127102363Y-98898335D01*
X127109476Y-98874886D01*
X127111878Y-98850500D01*
X127109476Y-98826114D01*
X127102363Y-98802665D01*
X127090811Y-98781055D01*
X127075272Y-98762119D01*
X126917102Y-98603949D01*
X127696051Y-97825000D01*
X128475000Y-98603949D01*
G37*
G36*
X157272412Y-99982916D02*
G01*
X157363551Y-100020667D01*
X157363553Y-100020668D01*
X157434170Y-100067853D01*
X157445576Y-100075474D01*
X157515332Y-100145230D01*
X157570139Y-100227255D01*
X157607890Y-100318394D01*
X157627135Y-100415145D01*
X157627135Y-100513797D01*
X157607890Y-100610548D01*
X157577335Y-100684314D01*
X157570138Y-100701689D01*
X157515332Y-100783712D01*
X157445576Y-100853468D01*
X157363553Y-100908274D01*
X157363552Y-100908275D01*
X157363551Y-100908275D01*
X157272412Y-100946026D01*
X157175661Y-100965271D01*
X157077009Y-100965271D01*
X156980258Y-100946026D01*
X156889119Y-100908275D01*
X156889118Y-100908275D01*
X156889117Y-100908274D01*
X156807094Y-100853468D01*
X156737338Y-100783712D01*
X156682532Y-100701689D01*
X156675335Y-100684314D01*
X156644780Y-100610548D01*
X156625535Y-100513797D01*
X156625535Y-100415145D01*
X156644780Y-100318394D01*
X156682531Y-100227255D01*
X156737338Y-100145230D01*
X156807094Y-100075474D01*
X156818500Y-100067853D01*
X156889117Y-100020668D01*
X156889119Y-100020667D01*
X156980258Y-99982916D01*
X157077009Y-99963671D01*
X157175661Y-99963671D01*
X157272412Y-99982916D01*
G37*
G36*
X156019742Y-98053974D02*
G01*
X156110881Y-98091725D01*
X156110883Y-98091726D01*
X156192906Y-98146532D01*
X156262662Y-98216288D01*
X156317469Y-98298313D01*
X156355220Y-98389452D01*
X156374465Y-98486203D01*
X156374465Y-98584855D01*
X156355220Y-98681606D01*
X156321873Y-98762113D01*
X156317468Y-98772747D01*
X156262662Y-98854770D01*
X156192906Y-98924526D01*
X156110883Y-98979332D01*
X156110882Y-98979333D01*
X156110881Y-98979333D01*
X156019742Y-99017084D01*
X155922991Y-99036329D01*
X155824339Y-99036329D01*
X155727588Y-99017084D01*
X155636449Y-98979333D01*
X155636448Y-98979333D01*
X155636447Y-98979332D01*
X155554424Y-98924526D01*
X155484668Y-98854770D01*
X155429862Y-98772747D01*
X155425457Y-98762113D01*
X155392110Y-98681606D01*
X155372865Y-98584855D01*
X155372865Y-98486203D01*
X155392110Y-98389452D01*
X155429861Y-98298313D01*
X155484668Y-98216288D01*
X155554424Y-98146532D01*
X155636447Y-98091726D01*
X155636449Y-98091725D01*
X155727588Y-98053974D01*
X155824339Y-98034729D01*
X155922991Y-98034729D01*
X156019742Y-98053974D01*
G37*
G36*
X152550800Y-97050800D02*
G01*
X149449200Y-97050800D01*
X149449200Y-93949200D01*
X152550800Y-93949200D01*
X152550800Y-97050800D01*
G37*
G36*
X141550800Y-93750800D02*
G01*
X138449200Y-93750800D01*
X138449200Y-90649200D01*
X141550800Y-90649200D01*
X141550800Y-93750800D01*
G37*
M02*
