G04 #@! TF.GenerationSoftware,KiCad,Pcbnew,(5.1.6)-1*
G04 #@! TF.CreationDate,2020-05-23T09:23:12-05:00*
G04 #@! TF.ProjectId,nrf,6e72662e-6b69-4636-9164-5f7063625858,rev?*
G04 #@! TF.SameCoordinates,Original*
G04 #@! TF.FileFunction,Copper,L1,Top*
G04 #@! TF.FilePolarity,Positive*
%FSLAX46Y46*%
G04 Gerber Fmt 4.6, Leading zero omitted, Abs format (unit mm)*
G04 Created by KiCad (PCBNEW (5.1.6)-1) date 2020-05-23 09:23:12*
%MOMM*%
%LPD*%
G01*
G04 APERTURE LIST*
G04 #@! TA.AperFunction,SMDPad,CuDef*
%ADD10R,1.200000X0.750000*%
G04 #@! TD*
G04 #@! TA.AperFunction,SMDPad,CuDef*
%ADD11R,0.400000X0.600000*%
G04 #@! TD*
G04 #@! TA.AperFunction,SMDPad,CuDef*
%ADD12R,0.600000X0.400000*%
G04 #@! TD*
G04 #@! TA.AperFunction,SMDPad,CuDef*
%ADD13R,0.600000X0.300000*%
G04 #@! TD*
G04 #@! TA.AperFunction,SMDPad,CuDef*
%ADD14R,0.750000X1.200000*%
G04 #@! TD*
G04 #@! TA.AperFunction,SMDPad,CuDef*
%ADD15R,0.600000X0.450000*%
G04 #@! TD*
G04 #@! TA.AperFunction,ComponentPad*
%ADD16C,0.100000*%
G04 #@! TD*
G04 #@! TA.AperFunction,SMDPad,CuDef*
%ADD17C,0.100000*%
G04 #@! TD*
G04 #@! TA.AperFunction,SMDPad,CuDef*
%ADD18R,1.200000X1.200000*%
G04 #@! TD*
G04 #@! TA.AperFunction,SMDPad,CuDef*
%ADD19R,0.800000X1.500000*%
G04 #@! TD*
G04 #@! TA.AperFunction,SMDPad,CuDef*
%ADD20R,1.300000X0.800000*%
G04 #@! TD*
G04 #@! TA.AperFunction,SMDPad,CuDef*
%ADD21R,0.800000X0.900000*%
G04 #@! TD*
G04 #@! TA.AperFunction,SMDPad,CuDef*
%ADD22R,0.900000X0.800000*%
G04 #@! TD*
G04 #@! TA.AperFunction,SMDPad,CuDef*
%ADD23R,1.200000X0.900000*%
G04 #@! TD*
G04 #@! TA.AperFunction,SMDPad,CuDef*
%ADD24R,0.900000X1.200000*%
G04 #@! TD*
G04 #@! TA.AperFunction,SMDPad,CuDef*
%ADD25R,0.300000X0.350000*%
G04 #@! TD*
G04 #@! TA.AperFunction,SMDPad,CuDef*
%ADD26R,0.350000X0.300000*%
G04 #@! TD*
G04 #@! TA.AperFunction,SMDPad,CuDef*
%ADD27R,0.300000X0.730000*%
G04 #@! TD*
G04 #@! TA.AperFunction,SMDPad,CuDef*
%ADD28R,0.730000X0.300000*%
G04 #@! TD*
G04 #@! TA.AperFunction,SMDPad,CuDef*
%ADD29R,1.250000X1.250000*%
G04 #@! TD*
G04 #@! TA.AperFunction,SMDPad,CuDef*
%ADD30R,1.060000X0.650000*%
G04 #@! TD*
G04 #@! TA.AperFunction,SMDPad,CuDef*
%ADD31R,1.800000X1.750000*%
G04 #@! TD*
G04 #@! TA.AperFunction,SMDPad,CuDef*
%ADD32R,3.000000X3.000000*%
G04 #@! TD*
G04 #@! TA.AperFunction,SMDPad,CuDef*
%ADD33R,1.500000X1.500000*%
G04 #@! TD*
G04 #@! TA.AperFunction,ViaPad*
%ADD34C,0.685800*%
G04 #@! TD*
G04 #@! TA.AperFunction,Conductor*
%ADD35C,0.300000*%
G04 #@! TD*
G04 #@! TA.AperFunction,Conductor*
%ADD36C,0.400000*%
G04 #@! TD*
G04 #@! TA.AperFunction,Conductor*
%ADD37C,0.200000*%
G04 #@! TD*
G04 #@! TA.AperFunction,Conductor*
%ADD38C,0.152400*%
G04 #@! TD*
G04 #@! TA.AperFunction,Conductor*
%ADD39C,0.254000*%
G04 #@! TD*
G04 APERTURE END LIST*
D10*
X147850000Y-99150000D03*
X145950000Y-99150000D03*
D11*
X123750000Y-114650000D03*
X124850000Y-114650000D03*
X125650000Y-114650000D03*
X127250000Y-114650000D03*
X127650000Y-113750000D03*
X128050000Y-114650000D03*
X128450000Y-113750000D03*
X128850000Y-114650000D03*
X129250000Y-113750000D03*
X129650000Y-114650000D03*
X130050000Y-113750000D03*
X130450000Y-114650000D03*
X130850000Y-113750000D03*
X131250000Y-114650000D03*
D12*
X134650000Y-114800000D03*
X134650000Y-114000000D03*
X134650000Y-113200000D03*
X134650000Y-112400000D03*
X133750000Y-112000000D03*
X134650000Y-111600000D03*
X133750000Y-111200000D03*
X134650000Y-110800000D03*
X133750000Y-110400000D03*
X134650000Y-110000000D03*
X133750000Y-109600000D03*
X134650000Y-109200000D03*
X133750000Y-108800000D03*
X134650000Y-108400000D03*
X133750000Y-108000000D03*
X134650000Y-107600000D03*
X134650000Y-106800000D03*
X134650000Y-106000000D03*
X134650000Y-105200000D03*
D11*
X133650000Y-105350000D03*
X132850000Y-105350000D03*
X132450000Y-106250000D03*
X132050000Y-105350000D03*
X131650000Y-106250000D03*
X131250000Y-105350000D03*
X130850000Y-106250000D03*
X130450000Y-105350000D03*
X130050000Y-106250000D03*
X129250000Y-106250000D03*
X128850000Y-105350000D03*
X128450000Y-106250000D03*
X128050000Y-105350000D03*
X127650000Y-106250000D03*
X127250000Y-105350000D03*
X126850000Y-106250000D03*
X126050000Y-106250000D03*
X125650000Y-105350000D03*
X125250000Y-106250000D03*
X124850000Y-105350000D03*
X124450000Y-106250000D03*
X123750000Y-105350000D03*
D12*
X128050000Y-112000000D03*
X128050000Y-111200000D03*
X128050000Y-110400000D03*
X128050000Y-109600000D03*
X128050000Y-108800000D03*
X128050000Y-108000000D03*
D13*
X130648880Y-101084080D03*
X130648880Y-101884080D03*
X130648880Y-102684080D03*
X130648880Y-103484080D03*
X128248880Y-103484080D03*
X128248880Y-101084080D03*
X128248880Y-101884080D03*
X128248880Y-102684080D03*
D14*
X139900000Y-114650000D03*
X139900000Y-116550000D03*
X125900000Y-118700000D03*
X125900000Y-116800000D03*
D10*
X141300000Y-124950000D03*
X143200000Y-124950000D03*
D14*
X139850000Y-111100000D03*
X139850000Y-113000000D03*
X127100000Y-118650000D03*
X127100000Y-116750000D03*
D10*
X138450000Y-107600000D03*
X136550000Y-107600000D03*
D15*
X149250000Y-114900000D03*
X147150000Y-114900000D03*
G04 #@! TA.AperFunction,ComponentPad*
D16*
G36*
X126988944Y-98603949D02*
G01*
X127696051Y-97896842D01*
X128403158Y-98603949D01*
X127696051Y-99311056D01*
X126988944Y-98603949D01*
G37*
G04 #@! TD.AperFunction*
G04 #@! TA.AperFunction,ComponentPad*
G36*
G01*
X126444472Y-99148422D02*
X126444472Y-99148422D01*
G75*
G02*
X127151578Y-99148422I353553J-353553D01*
G01*
X127151578Y-99148422D01*
G75*
G02*
X127151578Y-99855528I-353553J-353553D01*
G01*
X127151578Y-99855528D01*
G75*
G02*
X126444472Y-99855528I-353553J353553D01*
G01*
X126444472Y-99855528D01*
G75*
G02*
X126444472Y-99148422I353553J353553D01*
G01*
G37*
G04 #@! TD.AperFunction*
G04 #@! TA.AperFunction,ComponentPad*
G36*
G01*
X125446846Y-100188691D02*
X125446846Y-100188691D01*
G75*
G02*
X126111309Y-99946846I453154J-211309D01*
G01*
X126111309Y-99946846D01*
G75*
G02*
X126353154Y-100611309I-211309J-453154D01*
G01*
X126353154Y-100611309D01*
G75*
G02*
X125688691Y-100853154I-453154J211309D01*
G01*
X125688691Y-100853154D01*
G75*
G02*
X125446846Y-100188691I211309J453154D01*
G01*
G37*
G04 #@! TD.AperFunction*
G04 #@! TA.AperFunction,ComponentPad*
G36*
G01*
X124648421Y-100944473D02*
X124648421Y-100944473D01*
G75*
G02*
X125355527Y-100944473I353553J-353553D01*
G01*
X125355527Y-100944473D01*
G75*
G02*
X125355527Y-101651579I-353553J-353553D01*
G01*
X125355527Y-101651579D01*
G75*
G02*
X124648421Y-101651579I-353553J353553D01*
G01*
X124648421Y-101651579D01*
G75*
G02*
X124648421Y-100944473I353553J353553D01*
G01*
G37*
G04 #@! TD.AperFunction*
G04 #@! TA.AperFunction,ComponentPad*
G36*
G01*
X123750396Y-101842498D02*
X123750396Y-101842498D01*
G75*
G02*
X124457502Y-101842498I353553J-353553D01*
G01*
X124457502Y-101842498D01*
G75*
G02*
X124457502Y-102549604I-353553J-353553D01*
G01*
X124457502Y-102549604D01*
G75*
G02*
X123750396Y-102549604I-353553J353553D01*
G01*
X123750396Y-102549604D01*
G75*
G02*
X123750396Y-101842498I353553J353553D01*
G01*
G37*
G04 #@! TD.AperFunction*
G04 #@! TA.AperFunction,SMDPad,CuDef*
D17*
G36*
X153990319Y-96002644D02*
G01*
X155080590Y-95294613D01*
X155516301Y-95965550D01*
X154426030Y-96673581D01*
X153990319Y-96002644D01*
G37*
G04 #@! TD.AperFunction*
G04 #@! TA.AperFunction,SMDPad,CuDef*
G36*
X158238503Y-102544275D02*
G01*
X159328774Y-101836244D01*
X159764485Y-102507181D01*
X158674214Y-103215212D01*
X158238503Y-102544275D01*
G37*
G04 #@! TD.AperFunction*
G04 #@! TA.AperFunction,SMDPad,CuDef*
G36*
X154409653Y-95730325D02*
G01*
X155080590Y-95294613D01*
X155897549Y-96552619D01*
X155226612Y-96988331D01*
X154409653Y-95730325D01*
G37*
G04 #@! TD.AperFunction*
G04 #@! TA.AperFunction,SMDPad,CuDef*
G36*
X158276590Y-101684886D02*
G01*
X158947527Y-101249174D01*
X159764486Y-102507180D01*
X159093549Y-102942892D01*
X158276590Y-101684886D01*
G37*
G04 #@! TD.AperFunction*
G04 #@! TA.AperFunction,SMDPad,CuDef*
G36*
X153310200Y-98352099D02*
G01*
X154316605Y-97698532D01*
X154970172Y-98704937D01*
X153963767Y-99358504D01*
X153310200Y-98352099D01*
G37*
G04 #@! TD.AperFunction*
G04 #@! TA.AperFunction,SMDPad,CuDef*
G36*
X155597684Y-101874516D02*
G01*
X156604089Y-101220949D01*
X157257656Y-102227354D01*
X156251251Y-102880921D01*
X155597684Y-101874516D01*
G37*
G04 #@! TD.AperFunction*
D18*
X158050000Y-112100000D03*
X158050000Y-107900000D03*
D19*
X160200000Y-113550000D03*
X160200000Y-106450000D03*
D20*
X159950000Y-113900000D03*
X159950000Y-106100000D03*
G04 #@! TA.AperFunction,SMDPad,CuDef*
D17*
G36*
X158302549Y-117362930D02*
G01*
X159367446Y-118108580D01*
X158908585Y-118763902D01*
X157843688Y-118018252D01*
X158302549Y-117362930D01*
G37*
G04 #@! TD.AperFunction*
G04 #@! TA.AperFunction,SMDPad,CuDef*
G36*
X153828652Y-123752316D02*
G01*
X154893549Y-124497966D01*
X154434688Y-125153288D01*
X153369791Y-124407638D01*
X153828652Y-123752316D01*
G37*
G04 #@! TD.AperFunction*
G04 #@! TA.AperFunction,SMDPad,CuDef*
G36*
X158712125Y-117649719D02*
G01*
X159367446Y-118108581D01*
X158507081Y-119337309D01*
X157851760Y-118878447D01*
X158712125Y-117649719D01*
G37*
G04 #@! TD.AperFunction*
G04 #@! TA.AperFunction,SMDPad,CuDef*
G36*
X154639732Y-123465698D02*
G01*
X155295053Y-123924560D01*
X154434688Y-125153288D01*
X153779367Y-124694426D01*
X154639732Y-123465698D01*
G37*
G04 #@! TD.AperFunction*
G04 #@! TA.AperFunction,SMDPad,CuDef*
G36*
X155869395Y-117612458D02*
G01*
X156852377Y-118300750D01*
X156164085Y-119283732D01*
X155181103Y-118595440D01*
X155869395Y-117612458D01*
G37*
G04 #@! TD.AperFunction*
G04 #@! TA.AperFunction,SMDPad,CuDef*
G36*
X153460374Y-121052896D02*
G01*
X154443356Y-121741188D01*
X153755064Y-122724170D01*
X152772082Y-122035878D01*
X153460374Y-121052896D01*
G37*
G04 #@! TD.AperFunction*
G04 #@! TA.AperFunction,SMDPad,CuDef*
G36*
G01*
X148450000Y-117400000D02*
X148750000Y-117400000D01*
G75*
G02*
X148900000Y-117550000I0J-150000D01*
G01*
X148900000Y-118450000D01*
G75*
G02*
X148750000Y-118600000I-150000J0D01*
G01*
X148450000Y-118600000D01*
G75*
G02*
X148300000Y-118450000I0J150000D01*
G01*
X148300000Y-117550000D01*
G75*
G02*
X148450000Y-117400000I150000J0D01*
G01*
G37*
G04 #@! TD.AperFunction*
G04 #@! TA.AperFunction,SMDPad,CuDef*
G36*
G01*
X147250000Y-117400000D02*
X147550000Y-117400000D01*
G75*
G02*
X147700000Y-117550000I0J-150000D01*
G01*
X147700000Y-118450000D01*
G75*
G02*
X147550000Y-118600000I-150000J0D01*
G01*
X147250000Y-118600000D01*
G75*
G02*
X147100000Y-118450000I0J150000D01*
G01*
X147100000Y-117550000D01*
G75*
G02*
X147250000Y-117400000I150000J0D01*
G01*
G37*
G04 #@! TD.AperFunction*
D21*
X134150000Y-118000000D03*
X132250000Y-118000000D03*
X133200000Y-120000000D03*
D22*
X148000000Y-116100000D03*
X146000000Y-117050000D03*
X146000000Y-115150000D03*
D21*
X136500000Y-120000000D03*
X135550000Y-118000000D03*
X137450000Y-118000000D03*
X130850000Y-118000000D03*
X128950000Y-118000000D03*
X129900000Y-120000000D03*
D23*
X144900000Y-113800000D03*
X147100000Y-113800000D03*
X132300000Y-116600000D03*
X134500000Y-116600000D03*
D24*
X131700000Y-123700000D03*
X131700000Y-121500000D03*
D23*
X138300000Y-116600000D03*
X136100000Y-116600000D03*
X128500000Y-116600000D03*
X130700000Y-116600000D03*
D24*
X133100000Y-121500000D03*
X133100000Y-123700000D03*
X130300000Y-123700000D03*
X130300000Y-121500000D03*
X144700000Y-115300000D03*
X144700000Y-117500000D03*
X136400000Y-125200000D03*
X136400000Y-127400000D03*
X138400000Y-127400000D03*
X138400000Y-125200000D03*
D10*
X144800000Y-108800000D03*
X142900000Y-108800000D03*
X144150000Y-105000000D03*
X146050000Y-105000000D03*
D25*
X143850000Y-107425000D03*
X144350000Y-107425000D03*
X144850000Y-107425000D03*
X145350000Y-107425000D03*
D26*
X145375000Y-106900000D03*
X145375000Y-106400000D03*
D25*
X145350000Y-105875000D03*
X144850000Y-105875000D03*
X144350000Y-105875000D03*
X143850000Y-105875000D03*
D26*
X143825000Y-106400000D03*
X143825000Y-106900000D03*
D23*
X142600000Y-110050000D03*
X144800000Y-110050000D03*
D24*
X141750000Y-104400000D03*
X141750000Y-106600000D03*
D10*
X140650000Y-100200000D03*
X142550000Y-100200000D03*
D14*
X149550000Y-98950000D03*
X149550000Y-97050000D03*
D10*
X145950000Y-97950000D03*
X147850000Y-97950000D03*
D23*
X132750000Y-97500000D03*
X134950000Y-97500000D03*
X138050000Y-95000000D03*
X140250000Y-95000000D03*
X141850000Y-95000000D03*
X144050000Y-95000000D03*
X137950000Y-102000000D03*
X135750000Y-102000000D03*
X141900000Y-102000000D03*
X139700000Y-102000000D03*
X133850000Y-96100000D03*
X136050000Y-96100000D03*
D27*
X139425000Y-96210000D03*
X138925000Y-96210000D03*
X138425000Y-96210000D03*
X137925000Y-96210000D03*
X137425000Y-96210000D03*
D28*
X136460000Y-97175000D03*
X136460000Y-97675000D03*
X136460000Y-98175000D03*
X136460000Y-98675000D03*
X136460000Y-99175000D03*
D27*
X137425000Y-100140000D03*
X137925000Y-100140000D03*
X138425000Y-100140000D03*
X138925000Y-100140000D03*
X139425000Y-100140000D03*
D28*
X140390000Y-99175000D03*
X140390000Y-98675000D03*
X140390000Y-98175000D03*
X140390000Y-97675000D03*
X140390000Y-97175000D03*
D29*
X137800000Y-98800000D03*
X139050000Y-98800000D03*
X137800000Y-97550000D03*
X139050000Y-97550000D03*
D30*
X145950000Y-94900000D03*
X145950000Y-95850000D03*
X145950000Y-96800000D03*
X148150000Y-96800000D03*
X148150000Y-94900000D03*
D31*
X141750000Y-112425000D03*
X141750000Y-115675000D03*
G04 #@! TA.AperFunction,SMDPad,CuDef*
D17*
G36*
X126630209Y-124407638D02*
G01*
X125565312Y-125153288D01*
X125106451Y-124497966D01*
X126171348Y-123752316D01*
X126630209Y-124407638D01*
G37*
G04 #@! TD.AperFunction*
G04 #@! TA.AperFunction,SMDPad,CuDef*
G36*
X122156312Y-118018252D02*
G01*
X121091415Y-118763902D01*
X120632554Y-118108580D01*
X121697451Y-117362930D01*
X122156312Y-118018252D01*
G37*
G04 #@! TD.AperFunction*
G04 #@! TA.AperFunction,SMDPad,CuDef*
G36*
X126220633Y-124694426D02*
G01*
X125565312Y-125153288D01*
X124704947Y-123924560D01*
X125360268Y-123465698D01*
X126220633Y-124694426D01*
G37*
G04 #@! TD.AperFunction*
G04 #@! TA.AperFunction,SMDPad,CuDef*
G36*
X122148240Y-118878447D02*
G01*
X121492919Y-119337309D01*
X120632554Y-118108581D01*
X121287875Y-117649719D01*
X122148240Y-118878447D01*
G37*
G04 #@! TD.AperFunction*
G04 #@! TA.AperFunction,SMDPad,CuDef*
G36*
X127227918Y-122035878D02*
G01*
X126244936Y-122724170D01*
X125556644Y-121741188D01*
X126539626Y-121052896D01*
X127227918Y-122035878D01*
G37*
G04 #@! TD.AperFunction*
G04 #@! TA.AperFunction,SMDPad,CuDef*
G36*
X124818897Y-118595440D02*
G01*
X123835915Y-119283732D01*
X123147623Y-118300750D01*
X124130605Y-117612458D01*
X124818897Y-118595440D01*
G37*
G04 #@! TD.AperFunction*
G04 #@! TA.AperFunction,SMDPad,CuDef*
G36*
X124963090Y-99798716D02*
G01*
X123570531Y-98823636D01*
X124086750Y-98086400D01*
X125479309Y-99061480D01*
X124963090Y-99798716D01*
G37*
G04 #@! TD.AperFunction*
G04 #@! TA.AperFunction,SMDPad,CuDef*
G36*
X126913250Y-97013600D02*
G01*
X125520691Y-96038520D01*
X126036910Y-95301284D01*
X127429469Y-96276364D01*
X126913250Y-97013600D01*
G37*
G04 #@! TD.AperFunction*
D32*
X135200000Y-92200000D03*
X140000000Y-92200000D03*
D10*
X140700000Y-96200000D03*
X142600000Y-96200000D03*
D33*
X130150000Y-94100000D03*
D34*
X153000000Y-98900000D03*
X143000000Y-105000000D03*
X157700000Y-109100000D03*
X156600000Y-117200000D03*
X136400000Y-128600000D03*
X138400000Y-128600000D03*
X143200000Y-125900000D03*
X135600000Y-114800000D03*
X138800000Y-113000000D03*
X138900000Y-114500000D03*
X125900000Y-119900000D03*
X127000000Y-119800000D03*
X127300000Y-121200000D03*
X123700000Y-115600000D03*
X124900000Y-115600000D03*
X136500000Y-100100000D03*
X142500000Y-99250000D03*
X143100000Y-102000000D03*
X135800000Y-100950000D03*
X133700000Y-94950000D03*
X143850000Y-96300000D03*
X144050000Y-93950000D03*
X144800000Y-96100000D03*
X144800000Y-97950000D03*
X144800000Y-99150000D03*
X149550000Y-100250000D03*
X142800000Y-107750000D03*
X134700000Y-104350000D03*
X135650000Y-106000000D03*
X135650000Y-105150000D03*
X138450000Y-106600000D03*
X123700000Y-106300000D03*
X123750000Y-104400000D03*
X126350000Y-103750000D03*
X145850000Y-118100000D03*
X136550000Y-94800000D03*
X142000000Y-98150000D03*
X130536000Y-107475840D03*
X127198440Y-102873360D03*
X134950000Y-97500000D03*
X130200000Y-96300000D03*
D35*
X153371482Y-98528518D02*
X153000000Y-98900000D01*
X154140186Y-98528518D02*
X153371482Y-98528518D01*
X144350000Y-105875000D02*
X144350000Y-105250000D01*
X144350000Y-105250000D02*
X144100000Y-105000000D01*
X144850000Y-105875000D02*
X144425000Y-105875000D01*
X144425000Y-105875000D02*
X144400000Y-105900000D01*
X143850000Y-107425000D02*
X143775000Y-107425000D01*
X144150000Y-105000000D02*
X143000000Y-105000000D01*
X158050000Y-107900000D02*
X157900000Y-107900000D01*
X157700000Y-108100000D02*
X157700000Y-109100000D01*
X157900000Y-107900000D02*
X157700000Y-108100000D01*
X156016740Y-117783260D02*
X156600000Y-117200000D01*
X156016740Y-118448095D02*
X156016740Y-117783260D01*
X146000000Y-117050000D02*
X145550000Y-117050000D01*
X145550000Y-117050000D02*
X145100000Y-117500000D01*
X145100000Y-117500000D02*
X144700000Y-117500000D01*
X138400000Y-128600000D02*
X138400000Y-127400000D01*
X136400000Y-128600000D02*
X136400000Y-127400000D01*
X143200000Y-125900000D02*
X143200000Y-125100000D01*
X134600000Y-114800000D02*
X135600000Y-114800000D01*
X139850000Y-113000000D02*
X138800000Y-113000000D01*
X139050000Y-114650000D02*
X138900000Y-114500000D01*
X139900000Y-114650000D02*
X139050000Y-114650000D01*
X125900000Y-118700000D02*
X125900000Y-119900000D01*
X127100000Y-119700000D02*
X127000000Y-119800000D01*
X127100000Y-118650000D02*
X127100000Y-119700000D01*
X126611467Y-121888533D02*
X127300000Y-121200000D01*
X126392281Y-121888533D02*
X126611467Y-121888533D01*
X123750000Y-115550000D02*
X123700000Y-115600000D01*
X123750000Y-114650000D02*
X123750000Y-115550000D01*
X124850000Y-115550000D02*
X124900000Y-115600000D01*
X124850000Y-114650000D02*
X124850000Y-115550000D01*
X123750000Y-105350000D02*
X123750000Y-104400000D01*
X123750000Y-102550000D02*
X124100000Y-102200000D01*
X133750000Y-96000000D02*
X133850000Y-96100000D01*
D36*
X136500000Y-100100000D02*
X137400000Y-100100000D01*
X136500000Y-100100000D02*
X136500000Y-99177410D01*
X142350000Y-96400000D02*
X142600000Y-96200000D01*
X142500000Y-99250000D02*
X142550000Y-100200000D01*
D35*
X143100000Y-102000000D02*
X142050000Y-102000000D01*
X135750000Y-101000000D02*
X135800000Y-100950000D01*
X135750000Y-102000000D02*
X135750000Y-101000000D01*
D36*
X133700000Y-94950000D02*
X133700000Y-96050000D01*
X143850000Y-96300000D02*
X142650000Y-96300000D01*
X144050000Y-95000000D02*
X144050000Y-93950000D01*
X145050000Y-95850000D02*
X144800000Y-96100000D01*
X145950000Y-95850000D02*
X145050000Y-95850000D01*
X145950000Y-97950000D02*
X144800000Y-97950000D01*
X145950000Y-99150000D02*
X144800000Y-99150000D01*
X149550000Y-98950000D02*
X149550000Y-100250000D01*
X142800000Y-107750000D02*
X142800000Y-108850000D01*
D35*
X143125000Y-107425000D02*
X142800000Y-107750000D01*
X143850000Y-107425000D02*
X143125000Y-107425000D01*
D36*
X134650000Y-104400000D02*
X134700000Y-104350000D01*
X134650000Y-105200000D02*
X134650000Y-104400000D01*
X134650000Y-106000000D02*
X135650000Y-106000000D01*
X135650000Y-105150000D02*
X134650000Y-105150000D01*
X138450000Y-107600000D02*
X138450000Y-106600000D01*
D35*
X123750000Y-104400000D02*
X123750000Y-102550000D01*
D36*
X123700000Y-106300000D02*
X123700000Y-105350000D01*
X127982960Y-103750000D02*
X128248880Y-103484080D01*
X126350000Y-103750000D02*
X127982960Y-103750000D01*
X145850000Y-118100000D02*
X145350000Y-118100000D01*
X145350000Y-118100000D02*
X144750000Y-117500000D01*
X141750000Y-115675000D02*
X141750000Y-116150000D01*
X139900000Y-116550000D02*
X136550000Y-113200000D01*
X136550000Y-113200000D02*
X134600000Y-113200000D01*
X139900000Y-116550000D02*
X139900000Y-116500000D01*
X139900000Y-116500000D02*
X140500000Y-115900000D01*
X140500000Y-115900000D02*
X141700000Y-115900000D01*
D35*
X144897599Y-107727401D02*
X144897599Y-107400000D01*
X144800000Y-108500000D02*
X144900000Y-108300000D01*
X144900000Y-108300000D02*
X144897599Y-107727401D01*
X128950000Y-118000000D02*
X129950000Y-119000000D01*
X129950000Y-119000000D02*
X131800000Y-119000000D01*
X131800000Y-119000000D02*
X131900000Y-119000000D01*
X131900000Y-119000000D02*
X132200000Y-118700000D01*
X132200000Y-118700000D02*
X132200000Y-118000000D01*
X132200000Y-118000000D02*
X132200000Y-118400000D01*
X132200000Y-118400000D02*
X132800000Y-119000000D01*
X132800000Y-119000000D02*
X135000000Y-119000000D01*
X135000000Y-119000000D02*
X135300000Y-119000000D01*
X135300000Y-119000000D02*
X135500000Y-118800000D01*
X135500000Y-118800000D02*
X135500000Y-118000000D01*
D36*
X128950000Y-118000000D02*
X128950000Y-117150000D01*
X128950000Y-117150000D02*
X128400000Y-116600000D01*
X132300000Y-116600000D02*
X132300000Y-117900000D01*
X132300000Y-117900000D02*
X132300000Y-118100000D01*
X136100000Y-116600000D02*
X136100000Y-116900000D01*
X136100000Y-116900000D02*
X135500000Y-117500000D01*
X135500000Y-117500000D02*
X135500000Y-118100000D01*
X128500000Y-116600000D02*
X127300000Y-116600000D01*
X127300000Y-116600000D02*
X127200000Y-116700000D01*
X127200000Y-116700000D02*
X125900000Y-116700000D01*
X134650000Y-107600000D02*
X136500000Y-107600000D01*
D35*
X145350000Y-105875000D02*
X145325000Y-105875000D01*
X145325000Y-105875000D02*
X145302401Y-105852401D01*
X145350000Y-105875000D02*
X145725000Y-105875000D01*
X145725000Y-105875000D02*
X146100000Y-105500000D01*
X146100000Y-105500000D02*
X146100000Y-105000000D01*
D36*
X147850000Y-97950000D02*
X147850000Y-99100000D01*
X134650000Y-108400000D02*
X135750000Y-108400000D01*
X135750000Y-108400000D02*
X136500000Y-107650000D01*
X141750000Y-112425000D02*
X141750000Y-111850000D01*
X141750000Y-111850000D02*
X141100000Y-111200000D01*
X141100000Y-111200000D02*
X140000000Y-111200000D01*
X134650000Y-112400000D02*
X136500000Y-112400000D01*
X136500000Y-112400000D02*
X137800000Y-111100000D01*
X137800000Y-111100000D02*
X139800000Y-111100000D01*
X147150000Y-114900000D02*
X147150000Y-115350000D01*
X147150000Y-115350000D02*
X147900000Y-116100000D01*
X147400000Y-118000000D02*
X147400000Y-116600000D01*
X147400000Y-116600000D02*
X147900000Y-116100000D01*
D35*
X134500000Y-116600000D02*
X134500000Y-116800000D01*
X134500000Y-116800000D02*
X134200000Y-117100000D01*
X134200000Y-117100000D02*
X134200000Y-117900000D01*
D36*
X130897599Y-115797599D02*
X133597599Y-115797599D01*
X130450000Y-114650000D02*
X130450000Y-115350000D01*
X130450000Y-115350000D02*
X130897599Y-115797599D01*
X133597599Y-115797599D02*
X134450000Y-116650000D01*
D35*
X137400000Y-117900000D02*
X137300000Y-117800000D01*
X131250000Y-114650000D02*
X131250000Y-114750000D01*
X138300000Y-116600000D02*
X138200000Y-116600000D01*
X138200000Y-116600000D02*
X137400000Y-117400000D01*
X137400000Y-117400000D02*
X137400000Y-117900000D01*
D36*
X134513277Y-115797599D02*
X137747599Y-115797599D01*
X131250000Y-114650000D02*
X133365678Y-114650000D01*
X133365678Y-114650000D02*
X134513277Y-115797599D01*
X137747599Y-115797599D02*
X138200000Y-116250000D01*
D35*
X130700000Y-116600000D02*
X130700000Y-116700000D01*
X130700000Y-116700000D02*
X130800000Y-116800000D01*
X130800000Y-116800000D02*
X130800000Y-118000000D01*
D36*
X128063277Y-115797599D02*
X129897599Y-115797599D01*
X127250000Y-114650000D02*
X127250000Y-114984322D01*
X127250000Y-114984322D02*
X128063277Y-115797599D01*
X129897599Y-115797599D02*
X130600000Y-116500000D01*
X125650000Y-103331224D02*
X126800000Y-102181224D01*
X125650000Y-105350000D02*
X125650000Y-103331224D01*
X126800000Y-102181224D02*
X126800000Y-99500000D01*
X124850000Y-105350000D02*
X124850000Y-103350000D01*
X124850000Y-103350000D02*
X126100000Y-102100000D01*
X126100000Y-102100000D02*
X126100000Y-100600000D01*
X126100000Y-100600000D02*
X125900000Y-100400000D01*
X144700000Y-115300000D02*
X145900000Y-115300000D01*
X145900000Y-115300000D02*
X146100000Y-115100000D01*
X146100000Y-115100000D02*
X146100000Y-114790678D01*
X146100000Y-114790678D02*
X146100000Y-114300000D01*
X146100000Y-114300000D02*
X146600000Y-113800000D01*
X146600000Y-113800000D02*
X147000000Y-113800000D01*
X130300000Y-123700000D02*
X131800000Y-123700000D01*
X131800000Y-123700000D02*
X133200000Y-123700000D01*
D35*
X139575678Y-95000000D02*
X138972599Y-95603079D01*
X140250000Y-95000000D02*
X139575678Y-95000000D01*
X138972599Y-95603079D02*
X138972599Y-96250000D01*
D36*
X140250000Y-95000000D02*
X141750000Y-95000000D01*
X141750000Y-95000000D02*
X141800000Y-94950000D01*
D35*
X137925000Y-100140000D02*
X137925000Y-101875000D01*
X138425000Y-100805000D02*
X138670000Y-101050000D01*
X138425000Y-100140000D02*
X138425000Y-100805000D01*
X138670000Y-101050000D02*
X138850000Y-101050000D01*
X138850000Y-101050000D02*
X139650000Y-101850000D01*
X136050000Y-96100000D02*
X136850000Y-96100000D01*
X136850000Y-96100000D02*
X136950000Y-96200000D01*
X136950000Y-96200000D02*
X137350000Y-96200000D01*
D36*
X134500000Y-92800000D02*
X135100000Y-92200000D01*
D35*
X140390000Y-97675000D02*
X141075000Y-97675000D01*
X141075000Y-97675000D02*
X141250000Y-97850000D01*
X141250000Y-97850000D02*
X141250000Y-98000000D01*
X141250000Y-98000000D02*
X141150000Y-98100000D01*
X141150000Y-98100000D02*
X141050000Y-98200000D01*
X141050000Y-98200000D02*
X140450000Y-98200000D01*
X141050000Y-98200000D02*
X141250000Y-98400000D01*
X141250000Y-98400000D02*
X141250000Y-98600000D01*
X141250000Y-98600000D02*
X141150000Y-98700000D01*
X141150000Y-98700000D02*
X140450000Y-98700000D01*
X138250000Y-95400000D02*
X138450000Y-95675000D01*
X138050000Y-95400000D02*
X138250000Y-95400000D01*
X138450000Y-95675000D02*
X138450000Y-96200000D01*
X137925000Y-96210000D02*
X137925000Y-95525000D01*
X137925000Y-95525000D02*
X138050000Y-95400000D01*
X136460000Y-98675000D02*
X135275000Y-98675000D01*
D36*
X135200000Y-92200000D02*
X136150000Y-92200000D01*
X136150000Y-92200000D02*
X137650000Y-93700000D01*
X137700000Y-95300000D02*
X137925000Y-95525000D01*
X137650000Y-93700000D02*
X137650000Y-94300000D01*
X137650000Y-94300000D02*
X137650000Y-94600000D01*
X137650000Y-94600000D02*
X138100000Y-95050000D01*
X132750000Y-97500000D02*
X132750000Y-94450000D01*
X132750000Y-94450000D02*
X134450000Y-92750000D01*
D35*
X135275000Y-98675000D02*
X133225000Y-98675000D01*
X133225000Y-98675000D02*
X132750000Y-98200000D01*
X132750000Y-97500000D02*
X132750000Y-98200000D01*
D36*
X138050000Y-95000000D02*
X136750000Y-95000000D01*
X136750000Y-95000000D02*
X136550000Y-94800000D01*
X142000000Y-98150000D02*
X141300000Y-98150000D01*
D35*
X131700000Y-121500000D02*
X131700000Y-120300000D01*
X131700000Y-120300000D02*
X131900000Y-120100000D01*
X131900000Y-120100000D02*
X133100000Y-120100000D01*
X133100000Y-120100000D02*
X133200000Y-120100000D01*
X136500000Y-120000000D02*
X135500000Y-120000000D01*
X135500000Y-120000000D02*
X134600000Y-120900000D01*
X134600000Y-120900000D02*
X134000000Y-121500000D01*
X134000000Y-121500000D02*
X133100000Y-121500000D01*
X129900000Y-120000000D02*
X129900000Y-120200000D01*
X129900000Y-120200000D02*
X130300000Y-120600000D01*
X130300000Y-120600000D02*
X130300000Y-121400000D01*
X143825000Y-106900000D02*
X143150000Y-106900000D01*
X143150000Y-106900000D02*
X141800000Y-106900000D01*
D36*
X149550000Y-97050000D02*
X149500000Y-97050000D01*
X149500000Y-97050000D02*
X149250000Y-96800000D01*
X149250000Y-96800000D02*
X148150000Y-96800000D01*
D37*
X140690000Y-96210000D02*
X140700000Y-96200000D01*
D36*
X146489322Y-96800000D02*
X147000000Y-96289322D01*
X145950000Y-96800000D02*
X146489322Y-96800000D01*
X147000000Y-95410678D02*
X146489322Y-94900000D01*
X146489322Y-94900000D02*
X145900000Y-94900000D01*
X147000000Y-96289322D02*
X147000000Y-95800000D01*
X147000000Y-95800000D02*
X147000000Y-95410678D01*
X140700000Y-96200000D02*
X141450000Y-96950000D01*
X141450000Y-96950000D02*
X141650000Y-97150000D01*
X141650000Y-97150000D02*
X144150000Y-97150000D01*
X144504699Y-96795301D02*
X145995301Y-96795301D01*
X144150000Y-97150000D02*
X144504699Y-96795301D01*
X145995301Y-96795301D02*
X146000000Y-96800000D01*
X140700000Y-96200000D02*
X139475009Y-96200000D01*
X140700000Y-96200000D02*
X140650000Y-96200000D01*
X140650000Y-96200000D02*
X140400000Y-96450000D01*
X140400000Y-96450000D02*
X140400000Y-97100000D01*
D37*
X130406160Y-105166680D02*
X130403920Y-105164440D01*
X130406160Y-105306200D02*
X130406160Y-105166680D01*
X130403920Y-105164440D02*
X130403920Y-103660760D01*
X130403920Y-103660760D02*
X130607120Y-103457560D01*
X129953759Y-106053799D02*
X129953759Y-102830761D01*
X130006160Y-106206200D02*
X130006160Y-106106200D01*
X130006160Y-106106200D02*
X129953759Y-106053799D01*
X129953759Y-102830761D02*
X130109280Y-102675240D01*
X130109280Y-102675240D02*
X130663000Y-102675240D01*
X129509840Y-105902520D02*
X129509840Y-102609200D01*
X129206160Y-106206200D02*
X129509840Y-105902520D01*
X129509840Y-102609200D02*
X130215960Y-101903080D01*
X130215960Y-101903080D02*
X130607120Y-101903080D01*
X128850000Y-105250000D02*
X129157430Y-104942570D01*
X128620840Y-101090280D02*
X128168720Y-101090280D01*
X128850000Y-105350000D02*
X128850000Y-105250000D01*
X129157430Y-104942570D02*
X129157430Y-101257430D01*
X129157430Y-101257430D02*
X128990280Y-101090280D01*
X128990280Y-101090280D02*
X128620840Y-101090280D01*
X129575800Y-107475840D02*
X130536000Y-107475840D01*
X128406160Y-106206200D02*
X128406160Y-106306200D01*
X128406160Y-106306200D02*
X129575800Y-107475840D01*
X127683373Y-102873360D02*
X127896733Y-102660000D01*
X127198440Y-102873360D02*
X127683373Y-102873360D01*
X127896733Y-102660000D02*
X128270320Y-102660000D01*
X138925000Y-100140000D02*
X139440000Y-100140000D01*
D38*
X139440000Y-100140000D02*
X139450000Y-100150000D01*
X139450000Y-100150000D02*
X139500000Y-100200000D01*
D37*
X139500000Y-100200000D02*
X140650000Y-100200000D01*
X140390000Y-99477400D02*
X140600000Y-99687400D01*
X140390000Y-99175000D02*
X140390000Y-99477400D01*
X140600000Y-99687400D02*
X140600000Y-100150000D01*
X128801281Y-103836001D02*
X128801281Y-102001281D01*
X128050000Y-105350000D02*
X128050000Y-104587282D01*
X128050000Y-104587282D02*
X128801281Y-103836001D01*
X128801281Y-102001281D02*
X128700000Y-101900000D01*
X128700000Y-101900000D02*
X128200000Y-101900000D01*
D35*
X134950000Y-97500000D02*
X135577401Y-98127401D01*
X135624322Y-98200000D02*
X135900000Y-98200000D01*
X135903079Y-98200000D02*
X136600000Y-98200000D01*
D36*
X130200000Y-95300000D02*
X130200000Y-94150000D01*
X130200000Y-96300000D02*
X130200000Y-95300000D01*
D39*
G36*
X142648376Y-89883584D02*
G01*
X144391560Y-90190954D01*
X146101321Y-90649083D01*
X147764647Y-91254484D01*
X149368879Y-92002550D01*
X150901809Y-92887588D01*
X152351769Y-93902861D01*
X153707725Y-95040643D01*
X153940964Y-95273882D01*
X153642800Y-95467512D01*
X153545079Y-95545592D01*
X153464467Y-95641236D01*
X153404064Y-95750769D01*
X153366190Y-95869981D01*
X153352302Y-95994292D01*
X153362932Y-96118923D01*
X153397671Y-96239086D01*
X153455187Y-96350163D01*
X153890898Y-97021100D01*
X153968978Y-97118822D01*
X154001782Y-97146470D01*
X153969086Y-97163400D01*
X152962681Y-97816967D01*
X152864959Y-97895047D01*
X152829766Y-97936803D01*
X152714757Y-97959680D01*
X152536790Y-98033396D01*
X152376625Y-98140415D01*
X152240415Y-98276625D01*
X152133396Y-98436790D01*
X152059680Y-98614757D01*
X152022100Y-98803685D01*
X152022100Y-98996315D01*
X152059680Y-99185243D01*
X152133396Y-99363210D01*
X152240415Y-99523375D01*
X152376625Y-99659585D01*
X152536790Y-99766604D01*
X152714757Y-99840320D01*
X152903685Y-99877900D01*
X153096315Y-99877900D01*
X153285243Y-99840320D01*
X153463210Y-99766604D01*
X153472226Y-99760580D01*
X153506715Y-99803745D01*
X153602359Y-99884356D01*
X153711892Y-99944759D01*
X153831104Y-99982633D01*
X153955415Y-99996521D01*
X154080046Y-99985891D01*
X154200209Y-99951151D01*
X154311286Y-99893636D01*
X155151627Y-99347913D01*
X155182018Y-99378304D01*
X155359725Y-99497044D01*
X155557182Y-99578833D01*
X155766802Y-99620529D01*
X155980528Y-99620529D01*
X156190148Y-99578833D01*
X156387605Y-99497044D01*
X156565312Y-99378304D01*
X156716440Y-99227176D01*
X156835180Y-99049469D01*
X156916969Y-98852012D01*
X156922072Y-98826357D01*
X157112412Y-99098191D01*
X157280208Y-99388822D01*
X157233198Y-99379471D01*
X157019472Y-99379471D01*
X156809852Y-99421167D01*
X156612395Y-99502956D01*
X156434688Y-99621696D01*
X156283560Y-99772824D01*
X156164820Y-99950531D01*
X156083031Y-100147988D01*
X156041335Y-100357608D01*
X156041335Y-100571334D01*
X156083031Y-100780954D01*
X156088763Y-100794792D01*
X155250165Y-101339384D01*
X155152443Y-101417464D01*
X155071832Y-101513108D01*
X155011429Y-101622641D01*
X154973555Y-101741853D01*
X154959667Y-101866164D01*
X154970297Y-101990795D01*
X155005037Y-102110958D01*
X155062552Y-102222035D01*
X155716119Y-103228440D01*
X155794199Y-103326162D01*
X155889843Y-103406773D01*
X155999376Y-103467176D01*
X156118588Y-103505050D01*
X156242899Y-103518938D01*
X156367530Y-103508308D01*
X156487693Y-103473568D01*
X156598770Y-103416053D01*
X157605175Y-102762486D01*
X157633940Y-102739503D01*
X157645855Y-102780717D01*
X157703371Y-102891794D01*
X158139082Y-103562731D01*
X158217162Y-103660453D01*
X158312806Y-103741064D01*
X158422339Y-103801467D01*
X158541552Y-103839341D01*
X158665862Y-103853229D01*
X158790494Y-103842599D01*
X158910657Y-103807859D01*
X159021733Y-103750344D01*
X159244316Y-103605796D01*
X159350917Y-103898679D01*
X159662609Y-105061928D01*
X159300000Y-105061928D01*
X159175518Y-105074188D01*
X159055820Y-105110498D01*
X158945506Y-105169463D01*
X158848815Y-105248815D01*
X158769463Y-105345506D01*
X158710498Y-105455820D01*
X158674188Y-105575518D01*
X158661928Y-105700000D01*
X158661928Y-106500000D01*
X158674188Y-106624482D01*
X158686642Y-106665537D01*
X158650000Y-106661928D01*
X157450000Y-106661928D01*
X157325518Y-106674188D01*
X157205820Y-106710498D01*
X157095506Y-106769463D01*
X156998815Y-106848815D01*
X156919463Y-106945506D01*
X156860498Y-107055820D01*
X156824188Y-107175518D01*
X156811928Y-107300000D01*
X156811928Y-108500000D01*
X156824188Y-108624482D01*
X156830236Y-108644419D01*
X156759680Y-108814757D01*
X156722100Y-109003685D01*
X156722100Y-109196315D01*
X156759680Y-109385243D01*
X156833396Y-109563210D01*
X156940415Y-109723375D01*
X157076625Y-109859585D01*
X157236790Y-109966604D01*
X157414757Y-110040320D01*
X157603685Y-110077900D01*
X157796315Y-110077900D01*
X157985243Y-110040320D01*
X158163210Y-109966604D01*
X158323375Y-109859585D01*
X158459585Y-109723375D01*
X158566604Y-109563210D01*
X158606797Y-109466176D01*
X158657225Y-109541647D01*
X158808353Y-109692775D01*
X158986060Y-109811515D01*
X159183517Y-109893304D01*
X159393137Y-109935000D01*
X159606863Y-109935000D01*
X159816483Y-109893304D01*
X160013940Y-109811515D01*
X160191647Y-109692775D01*
X160270688Y-109613734D01*
X160270688Y-110386266D01*
X160191647Y-110307225D01*
X160013940Y-110188485D01*
X159816483Y-110106696D01*
X159606863Y-110065000D01*
X159393137Y-110065000D01*
X159183517Y-110106696D01*
X158986060Y-110188485D01*
X158808353Y-110307225D01*
X158657225Y-110458353D01*
X158538485Y-110636060D01*
X158456696Y-110833517D01*
X158451045Y-110861928D01*
X157450000Y-110861928D01*
X157325518Y-110874188D01*
X157205820Y-110910498D01*
X157095506Y-110969463D01*
X156998815Y-111048815D01*
X156919463Y-111145506D01*
X156860498Y-111255820D01*
X156824188Y-111375518D01*
X156811928Y-111500000D01*
X156811928Y-112700000D01*
X156824188Y-112824482D01*
X156860498Y-112944180D01*
X156919463Y-113054494D01*
X156998815Y-113151185D01*
X157095506Y-113230537D01*
X157205820Y-113289502D01*
X157325518Y-113325812D01*
X157450000Y-113338072D01*
X158650000Y-113338072D01*
X158686642Y-113334463D01*
X158674188Y-113375518D01*
X158661928Y-113500000D01*
X158661928Y-114300000D01*
X158674188Y-114424482D01*
X158710498Y-114544180D01*
X158769463Y-114654494D01*
X158848815Y-114751185D01*
X158945506Y-114830537D01*
X159055820Y-114889502D01*
X159175518Y-114925812D01*
X159300000Y-114938072D01*
X159662609Y-114938072D01*
X159350917Y-116101321D01*
X158998001Y-117070949D01*
X158668532Y-116840252D01*
X158559530Y-116778895D01*
X158440653Y-116739983D01*
X158316468Y-116725010D01*
X158191749Y-116734552D01*
X158071287Y-116768242D01*
X157959713Y-116824786D01*
X157861314Y-116902010D01*
X157779871Y-116996947D01*
X157577900Y-117285392D01*
X157577900Y-117103685D01*
X157540320Y-116914757D01*
X157466604Y-116736790D01*
X157359585Y-116576625D01*
X157223375Y-116440415D01*
X157063210Y-116333396D01*
X156885243Y-116259680D01*
X156696315Y-116222100D01*
X156503685Y-116222100D01*
X156314757Y-116259680D01*
X156136790Y-116333396D01*
X155976625Y-116440415D01*
X155840415Y-116576625D01*
X155733396Y-116736790D01*
X155659680Y-116914757D01*
X155639252Y-117017457D01*
X155638134Y-117017770D01*
X155526559Y-117074313D01*
X155428160Y-117151538D01*
X155346717Y-117246475D01*
X154658425Y-118229457D01*
X154597068Y-118338458D01*
X154558156Y-118457336D01*
X154543183Y-118581520D01*
X154552725Y-118706240D01*
X154586415Y-118826701D01*
X154642958Y-118938276D01*
X154720183Y-119036675D01*
X154815120Y-119118118D01*
X155636337Y-119693141D01*
X155616309Y-119741492D01*
X155574613Y-119951112D01*
X155574613Y-120164838D01*
X155616309Y-120374458D01*
X155698098Y-120571915D01*
X155816838Y-120749622D01*
X155967966Y-120900750D01*
X156145673Y-121019490D01*
X156343130Y-121101279D01*
X156552750Y-121142975D01*
X156766476Y-121142975D01*
X156972199Y-121102054D01*
X156425387Y-121882982D01*
X156425387Y-121835162D01*
X156383691Y-121625542D01*
X156301902Y-121428085D01*
X156183162Y-121250378D01*
X156032034Y-121099250D01*
X155854327Y-120980510D01*
X155656870Y-120898721D01*
X155447250Y-120857025D01*
X155233524Y-120857025D01*
X155023904Y-120898721D01*
X154826447Y-120980510D01*
X154648740Y-121099250D01*
X154644736Y-121103254D01*
X153826357Y-120530218D01*
X153717356Y-120468861D01*
X153598478Y-120429949D01*
X153474294Y-120414976D01*
X153349574Y-120424518D01*
X153229113Y-120458208D01*
X153117538Y-120514751D01*
X153019139Y-120591976D01*
X152937696Y-120686913D01*
X152249404Y-121669895D01*
X152188047Y-121778896D01*
X152149135Y-121897774D01*
X152134162Y-122021958D01*
X152143704Y-122146678D01*
X152177394Y-122267139D01*
X152233937Y-122378714D01*
X152311162Y-122477113D01*
X152406099Y-122558556D01*
X153389081Y-123246848D01*
X153421167Y-123264909D01*
X153387417Y-123291396D01*
X153305974Y-123386333D01*
X152847113Y-124041655D01*
X152785757Y-124150656D01*
X152746844Y-124269534D01*
X152731871Y-124393718D01*
X152741413Y-124518438D01*
X152775103Y-124638899D01*
X152831646Y-124750473D01*
X152908870Y-124848873D01*
X153003808Y-124930316D01*
X153406390Y-125212207D01*
X152351769Y-126097139D01*
X150901809Y-127112412D01*
X149368879Y-127997450D01*
X147764647Y-128745516D01*
X146101321Y-129350917D01*
X144391560Y-129809046D01*
X142648376Y-130116416D01*
X140885037Y-130270688D01*
X139114963Y-130270688D01*
X137351624Y-130116416D01*
X135608440Y-129809046D01*
X133898679Y-129350917D01*
X132235353Y-128745516D01*
X130631121Y-127997450D01*
X129098191Y-127112412D01*
X127648231Y-126097139D01*
X126593610Y-125212207D01*
X126996192Y-124930316D01*
X127091129Y-124848873D01*
X127168353Y-124750474D01*
X127224897Y-124638900D01*
X127258587Y-124518438D01*
X127268129Y-124393719D01*
X127253156Y-124269534D01*
X127214244Y-124150657D01*
X127152887Y-124041655D01*
X126694026Y-123386333D01*
X126612583Y-123291395D01*
X126578834Y-123264909D01*
X126610919Y-123246848D01*
X127593901Y-122558556D01*
X127688838Y-122477113D01*
X127766063Y-122378714D01*
X127822606Y-122267139D01*
X127856296Y-122146678D01*
X127865838Y-122021958D01*
X127863168Y-121999814D01*
X127923375Y-121959585D01*
X128059585Y-121823375D01*
X128166604Y-121663210D01*
X128240320Y-121485243D01*
X128277900Y-121296315D01*
X128277900Y-121103685D01*
X128240320Y-120914757D01*
X128166604Y-120736790D01*
X128059585Y-120576625D01*
X127923375Y-120440415D01*
X127802269Y-120359494D01*
X127866604Y-120263210D01*
X127940320Y-120085243D01*
X127977900Y-119896315D01*
X127977900Y-119703685D01*
X127967411Y-119650951D01*
X128005537Y-119604494D01*
X128064502Y-119494180D01*
X128100812Y-119374482D01*
X128113072Y-119250000D01*
X128113072Y-118912885D01*
X128195506Y-118980537D01*
X128305820Y-119039502D01*
X128425518Y-119075812D01*
X128550000Y-119088072D01*
X128664250Y-119085000D01*
X128823000Y-118926250D01*
X128823000Y-118127000D01*
X128803000Y-118127000D01*
X128803000Y-117873000D01*
X128823000Y-117873000D01*
X128823000Y-117853000D01*
X129077000Y-117853000D01*
X129077000Y-117873000D01*
X129097000Y-117873000D01*
X129097000Y-118127000D01*
X129077000Y-118127000D01*
X129077000Y-118926250D01*
X129161607Y-119010857D01*
X129145506Y-119019463D01*
X129048815Y-119098815D01*
X128969463Y-119195506D01*
X128910498Y-119305820D01*
X128874188Y-119425518D01*
X128861928Y-119550000D01*
X128861928Y-120450000D01*
X128874188Y-120574482D01*
X128910498Y-120694180D01*
X128969463Y-120804494D01*
X129048815Y-120901185D01*
X129145506Y-120980537D01*
X129211928Y-121016041D01*
X129211928Y-122100000D01*
X129224188Y-122224482D01*
X129260498Y-122344180D01*
X129319463Y-122454494D01*
X129398815Y-122551185D01*
X129458296Y-122600000D01*
X129398815Y-122648815D01*
X129319463Y-122745506D01*
X129260498Y-122855820D01*
X129224188Y-122975518D01*
X129211928Y-123100000D01*
X129211928Y-124300000D01*
X129224188Y-124424482D01*
X129260498Y-124544180D01*
X129319463Y-124654494D01*
X129398815Y-124751185D01*
X129495506Y-124830537D01*
X129605820Y-124889502D01*
X129725518Y-124925812D01*
X129850000Y-124938072D01*
X130750000Y-124938072D01*
X130874482Y-124925812D01*
X130994180Y-124889502D01*
X131000000Y-124886391D01*
X131005820Y-124889502D01*
X131125518Y-124925812D01*
X131250000Y-124938072D01*
X132150000Y-124938072D01*
X132274482Y-124925812D01*
X132394180Y-124889502D01*
X132400000Y-124886391D01*
X132405820Y-124889502D01*
X132525518Y-124925812D01*
X132650000Y-124938072D01*
X133550000Y-124938072D01*
X133674482Y-124925812D01*
X133794180Y-124889502D01*
X133904494Y-124830537D01*
X134001185Y-124751185D01*
X134080537Y-124654494D01*
X134109665Y-124600000D01*
X135311928Y-124600000D01*
X135311928Y-125800000D01*
X135324188Y-125924482D01*
X135360498Y-126044180D01*
X135419463Y-126154494D01*
X135498815Y-126251185D01*
X135558296Y-126300000D01*
X135498815Y-126348815D01*
X135419463Y-126445506D01*
X135360498Y-126555820D01*
X135324188Y-126675518D01*
X135311928Y-126800000D01*
X135311928Y-128000000D01*
X135324188Y-128124482D01*
X135360498Y-128244180D01*
X135419463Y-128354494D01*
X135445472Y-128386186D01*
X135422100Y-128503685D01*
X135422100Y-128696315D01*
X135459680Y-128885243D01*
X135533396Y-129063210D01*
X135640415Y-129223375D01*
X135776625Y-129359585D01*
X135936790Y-129466604D01*
X136114757Y-129540320D01*
X136303685Y-129577900D01*
X136496315Y-129577900D01*
X136685243Y-129540320D01*
X136863210Y-129466604D01*
X137023375Y-129359585D01*
X137159585Y-129223375D01*
X137266604Y-129063210D01*
X137340320Y-128885243D01*
X137377900Y-128696315D01*
X137377900Y-128503685D01*
X137354528Y-128386186D01*
X137380537Y-128354494D01*
X137400000Y-128318082D01*
X137419463Y-128354494D01*
X137445472Y-128386186D01*
X137422100Y-128503685D01*
X137422100Y-128696315D01*
X137459680Y-128885243D01*
X137533396Y-129063210D01*
X137640415Y-129223375D01*
X137776625Y-129359585D01*
X137936790Y-129466604D01*
X138114757Y-129540320D01*
X138303685Y-129577900D01*
X138496315Y-129577900D01*
X138685243Y-129540320D01*
X138863210Y-129466604D01*
X139023375Y-129359585D01*
X139159585Y-129223375D01*
X139266604Y-129063210D01*
X139340320Y-128885243D01*
X139377900Y-128696315D01*
X139377900Y-128503685D01*
X139354528Y-128386186D01*
X139380537Y-128354494D01*
X139439502Y-128244180D01*
X139475812Y-128124482D01*
X139488072Y-128000000D01*
X139488072Y-126800000D01*
X139475812Y-126675518D01*
X139439502Y-126555820D01*
X139380537Y-126445506D01*
X139301185Y-126348815D01*
X139241704Y-126300000D01*
X139301185Y-126251185D01*
X139380537Y-126154494D01*
X139439502Y-126044180D01*
X139475812Y-125924482D01*
X139488072Y-125800000D01*
X139488072Y-125325000D01*
X140061928Y-125325000D01*
X140074188Y-125449482D01*
X140110498Y-125569180D01*
X140169463Y-125679494D01*
X140248815Y-125776185D01*
X140345506Y-125855537D01*
X140455820Y-125914502D01*
X140575518Y-125950812D01*
X140700000Y-125963072D01*
X141014250Y-125960000D01*
X141173000Y-125801250D01*
X141173000Y-125077000D01*
X140223750Y-125077000D01*
X140065000Y-125235750D01*
X140061928Y-125325000D01*
X139488072Y-125325000D01*
X139488072Y-124600000D01*
X139485610Y-124575000D01*
X140061928Y-124575000D01*
X140065000Y-124664250D01*
X140223750Y-124823000D01*
X141173000Y-124823000D01*
X141173000Y-124098750D01*
X141427000Y-124098750D01*
X141427000Y-124823000D01*
X141447000Y-124823000D01*
X141447000Y-125077000D01*
X141427000Y-125077000D01*
X141427000Y-125801250D01*
X141585750Y-125960000D01*
X141900000Y-125963072D01*
X142024482Y-125950812D01*
X142144180Y-125914502D01*
X142222100Y-125872852D01*
X142222100Y-125996315D01*
X142259680Y-126185243D01*
X142333396Y-126363210D01*
X142440415Y-126523375D01*
X142576625Y-126659585D01*
X142736790Y-126766604D01*
X142914757Y-126840320D01*
X143103685Y-126877900D01*
X143296315Y-126877900D01*
X143485243Y-126840320D01*
X143663210Y-126766604D01*
X143823375Y-126659585D01*
X143959585Y-126523375D01*
X144066604Y-126363210D01*
X144140320Y-126185243D01*
X144177900Y-125996315D01*
X144177900Y-125836328D01*
X144251185Y-125776185D01*
X144330537Y-125679494D01*
X144389502Y-125569180D01*
X144425812Y-125449482D01*
X144438072Y-125325000D01*
X144438072Y-124575000D01*
X144425812Y-124450518D01*
X144389502Y-124330820D01*
X144330537Y-124220506D01*
X144251185Y-124123815D01*
X144154494Y-124044463D01*
X144044180Y-123985498D01*
X143924482Y-123949188D01*
X143800000Y-123936928D01*
X142600000Y-123936928D01*
X142475518Y-123949188D01*
X142355820Y-123985498D01*
X142250000Y-124042061D01*
X142144180Y-123985498D01*
X142024482Y-123949188D01*
X141900000Y-123936928D01*
X141585750Y-123940000D01*
X141427000Y-124098750D01*
X141173000Y-124098750D01*
X141014250Y-123940000D01*
X140700000Y-123936928D01*
X140575518Y-123949188D01*
X140455820Y-123985498D01*
X140345506Y-124044463D01*
X140248815Y-124123815D01*
X140169463Y-124220506D01*
X140110498Y-124330820D01*
X140074188Y-124450518D01*
X140061928Y-124575000D01*
X139485610Y-124575000D01*
X139475812Y-124475518D01*
X139439502Y-124355820D01*
X139380537Y-124245506D01*
X139301185Y-124148815D01*
X139204494Y-124069463D01*
X139094180Y-124010498D01*
X138974482Y-123974188D01*
X138850000Y-123961928D01*
X137950000Y-123961928D01*
X137825518Y-123974188D01*
X137705820Y-124010498D01*
X137595506Y-124069463D01*
X137498815Y-124148815D01*
X137419463Y-124245506D01*
X137400000Y-124281918D01*
X137380537Y-124245506D01*
X137301185Y-124148815D01*
X137204494Y-124069463D01*
X137094180Y-124010498D01*
X136974482Y-123974188D01*
X136850000Y-123961928D01*
X135950000Y-123961928D01*
X135825518Y-123974188D01*
X135705820Y-124010498D01*
X135595506Y-124069463D01*
X135498815Y-124148815D01*
X135419463Y-124245506D01*
X135360498Y-124355820D01*
X135324188Y-124475518D01*
X135311928Y-124600000D01*
X134109665Y-124600000D01*
X134139502Y-124544180D01*
X134175812Y-124424482D01*
X134188072Y-124300000D01*
X134188072Y-123100000D01*
X134175812Y-122975518D01*
X134139502Y-122855820D01*
X134080537Y-122745506D01*
X134001185Y-122648815D01*
X133941704Y-122600000D01*
X134001185Y-122551185D01*
X134080537Y-122454494D01*
X134139502Y-122344180D01*
X134161610Y-122271298D01*
X134301860Y-122228754D01*
X134438233Y-122155862D01*
X134557764Y-122057764D01*
X134582346Y-122027811D01*
X135182345Y-121427813D01*
X135182349Y-121427808D01*
X135681856Y-120928301D01*
X135745506Y-120980537D01*
X135855820Y-121039502D01*
X135975518Y-121075812D01*
X136100000Y-121088072D01*
X136900000Y-121088072D01*
X137024482Y-121075812D01*
X137144180Y-121039502D01*
X137254494Y-120980537D01*
X137351185Y-120901185D01*
X137430537Y-120804494D01*
X137489502Y-120694180D01*
X137525812Y-120574482D01*
X137538072Y-120450000D01*
X137538072Y-119550000D01*
X137525812Y-119425518D01*
X137489502Y-119305820D01*
X137430537Y-119195506D01*
X137351185Y-119098815D01*
X137338095Y-119088072D01*
X137850000Y-119088072D01*
X137974482Y-119075812D01*
X138094180Y-119039502D01*
X138204494Y-118980537D01*
X138301185Y-118901185D01*
X138380537Y-118804494D01*
X138439502Y-118694180D01*
X138475812Y-118574482D01*
X138488072Y-118450000D01*
X138488072Y-117688072D01*
X138900000Y-117688072D01*
X139024482Y-117675812D01*
X139126894Y-117644746D01*
X139170506Y-117680537D01*
X139280820Y-117739502D01*
X139400518Y-117775812D01*
X139525000Y-117788072D01*
X140275000Y-117788072D01*
X140399482Y-117775812D01*
X140519180Y-117739502D01*
X140629494Y-117680537D01*
X140726185Y-117601185D01*
X140805537Y-117504494D01*
X140864502Y-117394180D01*
X140900812Y-117274482D01*
X140909322Y-117188072D01*
X142650000Y-117188072D01*
X142774482Y-117175812D01*
X142894180Y-117139502D01*
X143004494Y-117080537D01*
X143101185Y-117001185D01*
X143180537Y-116904494D01*
X143239502Y-116794180D01*
X143275812Y-116674482D01*
X143288072Y-116550000D01*
X143288072Y-114800000D01*
X143278224Y-114700000D01*
X143611928Y-114700000D01*
X143611928Y-115900000D01*
X143624188Y-116024482D01*
X143660498Y-116144180D01*
X143719463Y-116254494D01*
X143798815Y-116351185D01*
X143858296Y-116400000D01*
X143798815Y-116448815D01*
X143719463Y-116545506D01*
X143660498Y-116655820D01*
X143624188Y-116775518D01*
X143611928Y-116900000D01*
X143611928Y-118100000D01*
X143624188Y-118224482D01*
X143660498Y-118344180D01*
X143719463Y-118454494D01*
X143798815Y-118551185D01*
X143895506Y-118630537D01*
X144005820Y-118689502D01*
X144125518Y-118725812D01*
X144250000Y-118738072D01*
X144811275Y-118738072D01*
X144873085Y-118788798D01*
X144883854Y-118797636D01*
X145028913Y-118875172D01*
X145186311Y-118922918D01*
X145344766Y-118938525D01*
X145386790Y-118966604D01*
X145564757Y-119040320D01*
X145753685Y-119077900D01*
X145946315Y-119077900D01*
X146135243Y-119040320D01*
X146313210Y-118966604D01*
X146473375Y-118859585D01*
X146542628Y-118790332D01*
X146594742Y-118887829D01*
X146692749Y-119007251D01*
X146812171Y-119105258D01*
X146948418Y-119178084D01*
X147096255Y-119222929D01*
X147250000Y-119238072D01*
X147550000Y-119238072D01*
X147703745Y-119222929D01*
X147851582Y-119178084D01*
X147943546Y-119128928D01*
X147945506Y-119130537D01*
X148055820Y-119189502D01*
X148175518Y-119225812D01*
X148300000Y-119238072D01*
X148314250Y-119235000D01*
X148473000Y-119076250D01*
X148473000Y-118127000D01*
X148727000Y-118127000D01*
X148727000Y-119076250D01*
X148885750Y-119235000D01*
X148900000Y-119238072D01*
X149024482Y-119225812D01*
X149144180Y-119189502D01*
X149254494Y-119130537D01*
X149351185Y-119051185D01*
X149430537Y-118954494D01*
X149489502Y-118844180D01*
X149525812Y-118724482D01*
X149538072Y-118600000D01*
X149535000Y-118285750D01*
X149376250Y-118127000D01*
X148727000Y-118127000D01*
X148473000Y-118127000D01*
X148453000Y-118127000D01*
X148453000Y-117873000D01*
X148473000Y-117873000D01*
X148473000Y-117853000D01*
X148727000Y-117853000D01*
X148727000Y-117873000D01*
X149376250Y-117873000D01*
X149535000Y-117714250D01*
X149538072Y-117400000D01*
X149525812Y-117275518D01*
X149489502Y-117155820D01*
X149430537Y-117045506D01*
X149351185Y-116948815D01*
X149254494Y-116869463D01*
X149144180Y-116810498D01*
X149024482Y-116774188D01*
X149023513Y-116774093D01*
X149039502Y-116744180D01*
X149075812Y-116624482D01*
X149088072Y-116500000D01*
X149088072Y-115700000D01*
X149082350Y-115641900D01*
X149123000Y-115601250D01*
X149123000Y-114998000D01*
X149377000Y-114998000D01*
X149377000Y-115601250D01*
X149535750Y-115760000D01*
X149658357Y-115753804D01*
X149778949Y-115720582D01*
X149890742Y-115664473D01*
X149989441Y-115587631D01*
X150071252Y-115493012D01*
X150133032Y-115384249D01*
X150172406Y-115265524D01*
X150185000Y-115156750D01*
X150026250Y-114998000D01*
X149377000Y-114998000D01*
X149123000Y-114998000D01*
X148473750Y-114998000D01*
X148409822Y-115061928D01*
X148088072Y-115061928D01*
X148088072Y-114752980D01*
X148151185Y-114701185D01*
X148198730Y-114643250D01*
X148315000Y-114643250D01*
X148473750Y-114802000D01*
X149123000Y-114802000D01*
X149123000Y-114198750D01*
X149377000Y-114198750D01*
X149377000Y-114802000D01*
X150026250Y-114802000D01*
X150185000Y-114643250D01*
X150172406Y-114534476D01*
X150133032Y-114415751D01*
X150071252Y-114306988D01*
X149989441Y-114212369D01*
X149890742Y-114135527D01*
X149778949Y-114079418D01*
X149658357Y-114046196D01*
X149535750Y-114040000D01*
X149377000Y-114198750D01*
X149123000Y-114198750D01*
X148964250Y-114040000D01*
X148841643Y-114046196D01*
X148721051Y-114079418D01*
X148609258Y-114135527D01*
X148510559Y-114212369D01*
X148428748Y-114306988D01*
X148366968Y-114415751D01*
X148327594Y-114534476D01*
X148315000Y-114643250D01*
X148198730Y-114643250D01*
X148230537Y-114604494D01*
X148289502Y-114494180D01*
X148325812Y-114374482D01*
X148338072Y-114250000D01*
X148338072Y-113350000D01*
X148325812Y-113225518D01*
X148289502Y-113105820D01*
X148230537Y-112995506D01*
X148151185Y-112898815D01*
X148054494Y-112819463D01*
X147944180Y-112760498D01*
X147824482Y-112724188D01*
X147700000Y-112711928D01*
X146500000Y-112711928D01*
X146375518Y-112724188D01*
X146255820Y-112760498D01*
X146145506Y-112819463D01*
X146048815Y-112898815D01*
X146000000Y-112958296D01*
X145951185Y-112898815D01*
X145854494Y-112819463D01*
X145744180Y-112760498D01*
X145624482Y-112724188D01*
X145500000Y-112711928D01*
X144300000Y-112711928D01*
X144175518Y-112724188D01*
X144055820Y-112760498D01*
X143945506Y-112819463D01*
X143848815Y-112898815D01*
X143769463Y-112995506D01*
X143710498Y-113105820D01*
X143674188Y-113225518D01*
X143661928Y-113350000D01*
X143661928Y-114250000D01*
X143674188Y-114374482D01*
X143684972Y-114410033D01*
X143660498Y-114455820D01*
X143624188Y-114575518D01*
X143611928Y-114700000D01*
X143278224Y-114700000D01*
X143275812Y-114675518D01*
X143239502Y-114555820D01*
X143180537Y-114445506D01*
X143101185Y-114348815D01*
X143004494Y-114269463D01*
X142894180Y-114210498D01*
X142774482Y-114174188D01*
X142650000Y-114161928D01*
X140913072Y-114161928D01*
X140913072Y-114050000D01*
X140902048Y-113938072D01*
X142650000Y-113938072D01*
X142774482Y-113925812D01*
X142894180Y-113889502D01*
X143004494Y-113830537D01*
X143101185Y-113751185D01*
X143180537Y-113654494D01*
X143239502Y-113544180D01*
X143275812Y-113424482D01*
X143288072Y-113300000D01*
X143288072Y-111550000D01*
X143275812Y-111425518D01*
X143239502Y-111305820D01*
X143180537Y-111195506D01*
X143133402Y-111138072D01*
X143200000Y-111138072D01*
X143324482Y-111125812D01*
X143444180Y-111089502D01*
X143554494Y-111030537D01*
X143651185Y-110951185D01*
X143700000Y-110891704D01*
X143748815Y-110951185D01*
X143845506Y-111030537D01*
X143955820Y-111089502D01*
X144075518Y-111125812D01*
X144200000Y-111138072D01*
X144514250Y-111135000D01*
X144673000Y-110976250D01*
X144673000Y-110177000D01*
X144927000Y-110177000D01*
X144927000Y-110976250D01*
X145085750Y-111135000D01*
X145400000Y-111138072D01*
X145524482Y-111125812D01*
X145644180Y-111089502D01*
X145754494Y-111030537D01*
X145851185Y-110951185D01*
X145930537Y-110854494D01*
X145989502Y-110744180D01*
X146025812Y-110624482D01*
X146038072Y-110500000D01*
X146035000Y-110335750D01*
X145876250Y-110177000D01*
X144927000Y-110177000D01*
X144673000Y-110177000D01*
X144653000Y-110177000D01*
X144653000Y-109923000D01*
X144673000Y-109923000D01*
X144673000Y-108927000D01*
X144927000Y-108927000D01*
X144927000Y-109923000D01*
X145876250Y-109923000D01*
X146035000Y-109764250D01*
X146038072Y-109600000D01*
X146025812Y-109475518D01*
X145999112Y-109387500D01*
X146025812Y-109299482D01*
X146038072Y-109175000D01*
X146035000Y-109085750D01*
X145876250Y-108927000D01*
X144927000Y-108927000D01*
X144673000Y-108927000D01*
X144653000Y-108927000D01*
X144653000Y-108673000D01*
X144673000Y-108673000D01*
X144673000Y-108653000D01*
X144927000Y-108653000D01*
X144927000Y-108673000D01*
X145876250Y-108673000D01*
X146035000Y-108514250D01*
X146038072Y-108425000D01*
X146025812Y-108300518D01*
X145989502Y-108180820D01*
X145930537Y-108070506D01*
X145929372Y-108069086D01*
X145951185Y-108051185D01*
X146030537Y-107954494D01*
X146089502Y-107844180D01*
X146125812Y-107724482D01*
X146138072Y-107600000D01*
X146138072Y-107296855D01*
X146139502Y-107294180D01*
X146175812Y-107174482D01*
X146188072Y-107050000D01*
X146188072Y-106750000D01*
X146178223Y-106650000D01*
X146188072Y-106550000D01*
X146188072Y-106250000D01*
X146175812Y-106125518D01*
X146140770Y-106010000D01*
X146177002Y-106010000D01*
X146177002Y-105851252D01*
X146335750Y-106010000D01*
X146650000Y-106013072D01*
X146774482Y-106000812D01*
X146894180Y-105964502D01*
X147004494Y-105905537D01*
X147101185Y-105826185D01*
X147180537Y-105729494D01*
X147239502Y-105619180D01*
X147275812Y-105499482D01*
X147288072Y-105375000D01*
X147285000Y-105285750D01*
X147126250Y-105127000D01*
X146177000Y-105127000D01*
X146177000Y-105147000D01*
X145923000Y-105147000D01*
X145923000Y-105127000D01*
X145903000Y-105127000D01*
X145903000Y-104873000D01*
X145923000Y-104873000D01*
X145923000Y-104148750D01*
X146177000Y-104148750D01*
X146177000Y-104873000D01*
X147126250Y-104873000D01*
X147285000Y-104714250D01*
X147288072Y-104625000D01*
X147275812Y-104500518D01*
X147239502Y-104380820D01*
X147180537Y-104270506D01*
X147101185Y-104173815D01*
X147004494Y-104094463D01*
X146894180Y-104035498D01*
X146774482Y-103999188D01*
X146650000Y-103986928D01*
X146335750Y-103990000D01*
X146177000Y-104148750D01*
X145923000Y-104148750D01*
X145764250Y-103990000D01*
X145450000Y-103986928D01*
X145325518Y-103999188D01*
X145205820Y-104035498D01*
X145100000Y-104092061D01*
X144994180Y-104035498D01*
X144874482Y-103999188D01*
X144750000Y-103986928D01*
X143550000Y-103986928D01*
X143425518Y-103999188D01*
X143305820Y-104035498D01*
X143267268Y-104056105D01*
X143096315Y-104022100D01*
X142903685Y-104022100D01*
X142835769Y-104035609D01*
X142838072Y-103800000D01*
X142825812Y-103675518D01*
X142789502Y-103555820D01*
X142730537Y-103445506D01*
X142651185Y-103348815D01*
X142554494Y-103269463D01*
X142444180Y-103210498D01*
X142324482Y-103174188D01*
X142200000Y-103161928D01*
X142035750Y-103165000D01*
X141877000Y-103323750D01*
X141877000Y-104273000D01*
X141897000Y-104273000D01*
X141897000Y-104527000D01*
X141877000Y-104527000D01*
X141877000Y-104547000D01*
X141623000Y-104547000D01*
X141623000Y-104527000D01*
X140823750Y-104527000D01*
X140665000Y-104685750D01*
X140661928Y-105000000D01*
X140674188Y-105124482D01*
X140710498Y-105244180D01*
X140769463Y-105354494D01*
X140848815Y-105451185D01*
X140908296Y-105500000D01*
X140848815Y-105548815D01*
X140769463Y-105645506D01*
X140710498Y-105755820D01*
X140674188Y-105875518D01*
X140661928Y-106000000D01*
X140661928Y-107200000D01*
X140674188Y-107324482D01*
X140710498Y-107444180D01*
X140769463Y-107554494D01*
X140848815Y-107651185D01*
X140945506Y-107730537D01*
X141055820Y-107789502D01*
X141175518Y-107825812D01*
X141300000Y-107838072D01*
X141822100Y-107838072D01*
X141822100Y-107846315D01*
X141847725Y-107975143D01*
X141769463Y-108070506D01*
X141710498Y-108180820D01*
X141674188Y-108300518D01*
X141661928Y-108425000D01*
X141661928Y-109060685D01*
X141645506Y-109069463D01*
X141548815Y-109148815D01*
X141469463Y-109245506D01*
X141410498Y-109355820D01*
X141374188Y-109475518D01*
X141361928Y-109600000D01*
X141361928Y-110406882D01*
X141263689Y-110377082D01*
X141141019Y-110365000D01*
X141141018Y-110365000D01*
X141100000Y-110360960D01*
X141058982Y-110365000D01*
X140847621Y-110365000D01*
X140814502Y-110255820D01*
X140755537Y-110145506D01*
X140676185Y-110048815D01*
X140579494Y-109969463D01*
X140469180Y-109910498D01*
X140349482Y-109874188D01*
X140225000Y-109861928D01*
X139475000Y-109861928D01*
X139350518Y-109874188D01*
X139230820Y-109910498D01*
X139120506Y-109969463D01*
X139023815Y-110048815D01*
X138944463Y-110145506D01*
X138885498Y-110255820D01*
X138882713Y-110265000D01*
X137841018Y-110265000D01*
X137800000Y-110260960D01*
X137758982Y-110265000D01*
X137758981Y-110265000D01*
X137636311Y-110277082D01*
X137536943Y-110307225D01*
X137478913Y-110324828D01*
X137333854Y-110402364D01*
X137290344Y-110438072D01*
X137206709Y-110506709D01*
X137180563Y-110538568D01*
X136154133Y-111565000D01*
X135588072Y-111565000D01*
X135588072Y-111400000D01*
X135575812Y-111275518D01*
X135552904Y-111200000D01*
X135575812Y-111124482D01*
X135588072Y-111000000D01*
X135588072Y-110600000D01*
X135575812Y-110475518D01*
X135552904Y-110400000D01*
X135575812Y-110324482D01*
X135588072Y-110200000D01*
X135588072Y-109800000D01*
X135575812Y-109675518D01*
X135552904Y-109600000D01*
X135575812Y-109524482D01*
X135588072Y-109400000D01*
X135588072Y-109000000D01*
X135575812Y-108875518D01*
X135552798Y-108799650D01*
X135572406Y-108740524D01*
X135585000Y-108631750D01*
X135480252Y-108527002D01*
X135585000Y-108527002D01*
X135585000Y-108496915D01*
X135595506Y-108505537D01*
X135705820Y-108564502D01*
X135825518Y-108600812D01*
X135950000Y-108613072D01*
X136264250Y-108610000D01*
X136423000Y-108451250D01*
X136423000Y-107727000D01*
X135480250Y-107727000D01*
X135426250Y-107673000D01*
X135306763Y-107673000D01*
X135290742Y-107660527D01*
X135178949Y-107604418D01*
X135161162Y-107599518D01*
X135194180Y-107589502D01*
X135304494Y-107530537D01*
X135308804Y-107527000D01*
X135426250Y-107527000D01*
X135480250Y-107473000D01*
X136423000Y-107473000D01*
X136423000Y-106748750D01*
X136677000Y-106748750D01*
X136677000Y-107473000D01*
X136697000Y-107473000D01*
X136697000Y-107727000D01*
X136677000Y-107727000D01*
X136677000Y-108451250D01*
X136835750Y-108610000D01*
X137150000Y-108613072D01*
X137274482Y-108600812D01*
X137394180Y-108564502D01*
X137500000Y-108507939D01*
X137605820Y-108564502D01*
X137725518Y-108600812D01*
X137850000Y-108613072D01*
X139050000Y-108613072D01*
X139174482Y-108600812D01*
X139294180Y-108564502D01*
X139404494Y-108505537D01*
X139501185Y-108426185D01*
X139580537Y-108329494D01*
X139639502Y-108219180D01*
X139675812Y-108099482D01*
X139688072Y-107975000D01*
X139688072Y-107225000D01*
X139675812Y-107100518D01*
X139639502Y-106980820D01*
X139580537Y-106870506D01*
X139501185Y-106773815D01*
X139424932Y-106711236D01*
X139427900Y-106696315D01*
X139427900Y-106503685D01*
X139390320Y-106314757D01*
X139316604Y-106136790D01*
X139209585Y-105976625D01*
X139073375Y-105840415D01*
X138913210Y-105733396D01*
X138735243Y-105659680D01*
X138546315Y-105622100D01*
X138353685Y-105622100D01*
X138164757Y-105659680D01*
X137986790Y-105733396D01*
X137826625Y-105840415D01*
X137690415Y-105976625D01*
X137583396Y-106136790D01*
X137509680Y-106314757D01*
X137472100Y-106503685D01*
X137472100Y-106677148D01*
X137394180Y-106635498D01*
X137274482Y-106599188D01*
X137150000Y-106586928D01*
X136835750Y-106590000D01*
X136677000Y-106748750D01*
X136423000Y-106748750D01*
X136353605Y-106679355D01*
X136409585Y-106623375D01*
X136516604Y-106463210D01*
X136590320Y-106285243D01*
X136627900Y-106096315D01*
X136627900Y-105903685D01*
X136590320Y-105714757D01*
X136532431Y-105575000D01*
X136590320Y-105435243D01*
X136627900Y-105246315D01*
X136627900Y-105053685D01*
X136590320Y-104864757D01*
X136516604Y-104686790D01*
X136409585Y-104526625D01*
X136273375Y-104390415D01*
X136113210Y-104283396D01*
X135935243Y-104209680D01*
X135746315Y-104172100D01*
X135661672Y-104172100D01*
X135640320Y-104064757D01*
X135566604Y-103886790D01*
X135508613Y-103800000D01*
X140661928Y-103800000D01*
X140665000Y-104114250D01*
X140823750Y-104273000D01*
X141623000Y-104273000D01*
X141623000Y-103323750D01*
X141464250Y-103165000D01*
X141300000Y-103161928D01*
X141175518Y-103174188D01*
X141055820Y-103210498D01*
X140945506Y-103269463D01*
X140848815Y-103348815D01*
X140769463Y-103445506D01*
X140710498Y-103555820D01*
X140674188Y-103675518D01*
X140661928Y-103800000D01*
X135508613Y-103800000D01*
X135459585Y-103726625D01*
X135323375Y-103590415D01*
X135163210Y-103483396D01*
X134985243Y-103409680D01*
X134796315Y-103372100D01*
X134603685Y-103372100D01*
X134414757Y-103409680D01*
X134236790Y-103483396D01*
X134076625Y-103590415D01*
X133940415Y-103726625D01*
X133833396Y-103886790D01*
X133759680Y-104064757D01*
X133722100Y-104253685D01*
X133722100Y-104411928D01*
X133450000Y-104411928D01*
X133325518Y-104424188D01*
X133250000Y-104447096D01*
X133174482Y-104424188D01*
X133050000Y-104411928D01*
X132650000Y-104411928D01*
X132525518Y-104424188D01*
X132450000Y-104447096D01*
X132374482Y-104424188D01*
X132250000Y-104411928D01*
X131850000Y-104411928D01*
X131725518Y-104424188D01*
X131650000Y-104447096D01*
X131574482Y-104424188D01*
X131450000Y-104411928D01*
X131138920Y-104411928D01*
X131138920Y-104240005D01*
X131193060Y-104223582D01*
X131303374Y-104164617D01*
X131400065Y-104085265D01*
X131479417Y-103988574D01*
X131538382Y-103878260D01*
X131574692Y-103758562D01*
X131586952Y-103634080D01*
X131586952Y-103334080D01*
X131574692Y-103209598D01*
X131538382Y-103089900D01*
X131535271Y-103084080D01*
X131538382Y-103078260D01*
X131574692Y-102958562D01*
X131586952Y-102834080D01*
X131586952Y-102534080D01*
X131574692Y-102409598D01*
X131538382Y-102289900D01*
X131535271Y-102284080D01*
X131538382Y-102278260D01*
X131574692Y-102158562D01*
X131586952Y-102034080D01*
X131586952Y-101734080D01*
X131574692Y-101609598D01*
X131538382Y-101489900D01*
X131535091Y-101483743D01*
X131571286Y-101374604D01*
X131583880Y-101265830D01*
X131425130Y-101107080D01*
X131061300Y-101107080D01*
X130948880Y-101096008D01*
X130501880Y-101096008D01*
X130501880Y-101061080D01*
X130521880Y-101061080D01*
X130521880Y-100457830D01*
X130775880Y-100457830D01*
X130775880Y-101061080D01*
X131425130Y-101061080D01*
X131583880Y-100902330D01*
X131571286Y-100793556D01*
X131531912Y-100674831D01*
X131470132Y-100566068D01*
X131388321Y-100471449D01*
X131289622Y-100394607D01*
X131177829Y-100338498D01*
X131057237Y-100305276D01*
X130934630Y-100299080D01*
X130775880Y-100457830D01*
X130521880Y-100457830D01*
X130363130Y-100299080D01*
X130240523Y-100305276D01*
X130119931Y-100338498D01*
X130008138Y-100394607D01*
X129909439Y-100471449D01*
X129827628Y-100566068D01*
X129765848Y-100674831D01*
X129726788Y-100792608D01*
X129679668Y-100735192D01*
X129651617Y-100712171D01*
X129535539Y-100596093D01*
X129512518Y-100568042D01*
X129400600Y-100476193D01*
X129272913Y-100407943D01*
X129134365Y-100365915D01*
X129026385Y-100355280D01*
X128990280Y-100351724D01*
X128954175Y-100355280D01*
X128813082Y-100355280D01*
X128793060Y-100344578D01*
X128673362Y-100308268D01*
X128548880Y-100296008D01*
X127948880Y-100296008D01*
X127824398Y-100308268D01*
X127704700Y-100344578D01*
X127635000Y-100381834D01*
X127635000Y-100270132D01*
X127679637Y-100225495D01*
X127803849Y-100039599D01*
X127850120Y-99927892D01*
X127940231Y-99900558D01*
X128050545Y-99841594D01*
X128147236Y-99762241D01*
X128296561Y-99608571D01*
X128296561Y-99384065D01*
X127696051Y-98783554D01*
X127688254Y-98791351D01*
X127679637Y-98778455D01*
X127521545Y-98620363D01*
X127508649Y-98611746D01*
X127516446Y-98603949D01*
X127875656Y-98603949D01*
X128476167Y-99204459D01*
X128700673Y-99204459D01*
X128854343Y-99055134D01*
X128933696Y-98958443D01*
X128992660Y-98848129D01*
X129028969Y-98728430D01*
X129041230Y-98603949D01*
X129028969Y-98479468D01*
X128992660Y-98359769D01*
X128933696Y-98249455D01*
X128854343Y-98152764D01*
X128700673Y-98003439D01*
X128476167Y-98003439D01*
X127875656Y-98603949D01*
X127516446Y-98603949D01*
X126915935Y-98003439D01*
X126691429Y-98003439D01*
X126537759Y-98152764D01*
X126458406Y-98249455D01*
X126399442Y-98359769D01*
X126372108Y-98449880D01*
X126260401Y-98496151D01*
X126074505Y-98620363D01*
X125999324Y-98695544D01*
X125940229Y-98620245D01*
X125845292Y-98538802D01*
X124452733Y-97563722D01*
X124343732Y-97502366D01*
X124224855Y-97463453D01*
X124100670Y-97448480D01*
X124068400Y-97450949D01*
X124976277Y-96368984D01*
X124982547Y-96381356D01*
X125059771Y-96479755D01*
X125154708Y-96561198D01*
X126547267Y-97536278D01*
X126656268Y-97597634D01*
X126775145Y-97636547D01*
X126899330Y-97651520D01*
X127024050Y-97641978D01*
X127095541Y-97621984D01*
X127095541Y-97823833D01*
X127696051Y-98424344D01*
X128296561Y-97823833D01*
X128296561Y-97599327D01*
X128147236Y-97445657D01*
X128050545Y-97366304D01*
X127940231Y-97307340D01*
X127820532Y-97271031D01*
X127696051Y-97258770D01*
X127571570Y-97271031D01*
X127495855Y-97293998D01*
X127952147Y-96642347D01*
X128013504Y-96533345D01*
X128052416Y-96414468D01*
X128067389Y-96290283D01*
X128057847Y-96165564D01*
X128024157Y-96045102D01*
X127967613Y-95933528D01*
X127890389Y-95835129D01*
X127795452Y-95753686D01*
X126512824Y-94855580D01*
X127648231Y-93902861D01*
X128824838Y-93078992D01*
X128810498Y-93105820D01*
X128774188Y-93225518D01*
X128761928Y-93350000D01*
X128761928Y-94850000D01*
X128774188Y-94974482D01*
X128810498Y-95094180D01*
X128869463Y-95204494D01*
X128948815Y-95301185D01*
X129045506Y-95380537D01*
X129155820Y-95439502D01*
X129275518Y-95475812D01*
X129365001Y-95484625D01*
X129365001Y-95789491D01*
X129333396Y-95836790D01*
X129259680Y-96014757D01*
X129222100Y-96203685D01*
X129222100Y-96396315D01*
X129259680Y-96585243D01*
X129333396Y-96763210D01*
X129440415Y-96923375D01*
X129576625Y-97059585D01*
X129736790Y-97166604D01*
X129914757Y-97240320D01*
X130103685Y-97277900D01*
X130296315Y-97277900D01*
X130485243Y-97240320D01*
X130663210Y-97166604D01*
X130823375Y-97059585D01*
X130959585Y-96923375D01*
X131066604Y-96763210D01*
X131140320Y-96585243D01*
X131177900Y-96396315D01*
X131177900Y-96203685D01*
X131140320Y-96014757D01*
X131066604Y-95836790D01*
X131035000Y-95789491D01*
X131035000Y-95472621D01*
X131144180Y-95439502D01*
X131254494Y-95380537D01*
X131351185Y-95301185D01*
X131430537Y-95204494D01*
X131489502Y-95094180D01*
X131525812Y-94974482D01*
X131538072Y-94850000D01*
X131538072Y-93350000D01*
X131525812Y-93225518D01*
X131489502Y-93105820D01*
X131430537Y-92995506D01*
X131351185Y-92898815D01*
X131254494Y-92819463D01*
X131144180Y-92760498D01*
X131024482Y-92724188D01*
X130900000Y-92711928D01*
X129402443Y-92711928D01*
X130631121Y-92002550D01*
X132235353Y-91254484D01*
X133061928Y-90953635D01*
X133061928Y-92957204D01*
X132188574Y-93830559D01*
X132156710Y-93856709D01*
X132130562Y-93888571D01*
X132052364Y-93983855D01*
X131974828Y-94128914D01*
X131927082Y-94286312D01*
X131910960Y-94450000D01*
X131915001Y-94491028D01*
X131915000Y-96457713D01*
X131905820Y-96460498D01*
X131795506Y-96519463D01*
X131698815Y-96598815D01*
X131619463Y-96695506D01*
X131560498Y-96805820D01*
X131524188Y-96925518D01*
X131511928Y-97050000D01*
X131511928Y-97950000D01*
X131524188Y-98074482D01*
X131560498Y-98194180D01*
X131619463Y-98304494D01*
X131698815Y-98401185D01*
X131795506Y-98480537D01*
X131905820Y-98539502D01*
X132025518Y-98575812D01*
X132062734Y-98579477D01*
X132094139Y-98638233D01*
X132126022Y-98677082D01*
X132167655Y-98727812D01*
X132167659Y-98727816D01*
X132192237Y-98757764D01*
X132222185Y-98782342D01*
X132642653Y-99202810D01*
X132667236Y-99232764D01*
X132786767Y-99330862D01*
X132923140Y-99403754D01*
X133028617Y-99435750D01*
X133071112Y-99448641D01*
X133085490Y-99450057D01*
X133186439Y-99460000D01*
X133186446Y-99460000D01*
X133224999Y-99463797D01*
X133263552Y-99460000D01*
X135472379Y-99460000D01*
X135505498Y-99569180D01*
X135564463Y-99679494D01*
X135598519Y-99720991D01*
X135559680Y-99814757D01*
X135522100Y-100003685D01*
X135522100Y-100008219D01*
X135514757Y-100009680D01*
X135336790Y-100083396D01*
X135176625Y-100190415D01*
X135040415Y-100326625D01*
X134933396Y-100486790D01*
X134859680Y-100664757D01*
X134822100Y-100853685D01*
X134822100Y-101005248D01*
X134795506Y-101019463D01*
X134698815Y-101098815D01*
X134619463Y-101195506D01*
X134560498Y-101305820D01*
X134524188Y-101425518D01*
X134511928Y-101550000D01*
X134511928Y-102450000D01*
X134524188Y-102574482D01*
X134560498Y-102694180D01*
X134619463Y-102804494D01*
X134698815Y-102901185D01*
X134795506Y-102980537D01*
X134905820Y-103039502D01*
X135025518Y-103075812D01*
X135150000Y-103088072D01*
X136350000Y-103088072D01*
X136474482Y-103075812D01*
X136594180Y-103039502D01*
X136704494Y-102980537D01*
X136801185Y-102901185D01*
X136850000Y-102841704D01*
X136898815Y-102901185D01*
X136995506Y-102980537D01*
X137105820Y-103039502D01*
X137225518Y-103075812D01*
X137350000Y-103088072D01*
X138550000Y-103088072D01*
X138674482Y-103075812D01*
X138794180Y-103039502D01*
X138825000Y-103023028D01*
X138855820Y-103039502D01*
X138975518Y-103075812D01*
X139100000Y-103088072D01*
X140300000Y-103088072D01*
X140424482Y-103075812D01*
X140544180Y-103039502D01*
X140654494Y-102980537D01*
X140751185Y-102901185D01*
X140800000Y-102841704D01*
X140848815Y-102901185D01*
X140945506Y-102980537D01*
X141055820Y-103039502D01*
X141175518Y-103075812D01*
X141300000Y-103088072D01*
X142500000Y-103088072D01*
X142624482Y-103075812D01*
X142744180Y-103039502D01*
X142854494Y-102980537D01*
X142886186Y-102954528D01*
X143003685Y-102977900D01*
X143196315Y-102977900D01*
X143385243Y-102940320D01*
X143563210Y-102866604D01*
X143723375Y-102759585D01*
X143859585Y-102623375D01*
X143966604Y-102463210D01*
X144040320Y-102285243D01*
X144077900Y-102096315D01*
X144077900Y-101903685D01*
X144040320Y-101714757D01*
X143966604Y-101536790D01*
X143859585Y-101376625D01*
X143723375Y-101240415D01*
X143563210Y-101133396D01*
X143500765Y-101107530D01*
X143504494Y-101105537D01*
X143601185Y-101026185D01*
X143680537Y-100929494D01*
X143739502Y-100819180D01*
X143775812Y-100699482D01*
X143788072Y-100575000D01*
X143788072Y-99825000D01*
X143775812Y-99700518D01*
X143739502Y-99580820D01*
X143680537Y-99470506D01*
X143601185Y-99373815D01*
X143504494Y-99294463D01*
X143477900Y-99280248D01*
X143477900Y-99153685D01*
X143440320Y-98964757D01*
X143366604Y-98786790D01*
X143259585Y-98626625D01*
X143123375Y-98490415D01*
X142963210Y-98383396D01*
X142951590Y-98378583D01*
X142977900Y-98246315D01*
X142977900Y-98053685D01*
X142964238Y-97985000D01*
X143822100Y-97985000D01*
X143822100Y-98046315D01*
X143859680Y-98235243D01*
X143933396Y-98413210D01*
X144024796Y-98550000D01*
X143933396Y-98686790D01*
X143859680Y-98864757D01*
X143822100Y-99053685D01*
X143822100Y-99246315D01*
X143859680Y-99435243D01*
X143933396Y-99613210D01*
X144040415Y-99773375D01*
X144176625Y-99909585D01*
X144336790Y-100016604D01*
X144514757Y-100090320D01*
X144703685Y-100127900D01*
X144896315Y-100127900D01*
X145067268Y-100093895D01*
X145105820Y-100114502D01*
X145225518Y-100150812D01*
X145350000Y-100163072D01*
X146550000Y-100163072D01*
X146674482Y-100150812D01*
X146794180Y-100114502D01*
X146900000Y-100057939D01*
X147005820Y-100114502D01*
X147125518Y-100150812D01*
X147250000Y-100163072D01*
X147564250Y-100160000D01*
X147723000Y-100001250D01*
X147723000Y-99277000D01*
X147703000Y-99277000D01*
X147703000Y-99023000D01*
X147723000Y-99023000D01*
X147723000Y-98077000D01*
X147703000Y-98077000D01*
X147703000Y-97823000D01*
X147723000Y-97823000D01*
X147723000Y-97803000D01*
X147977000Y-97803000D01*
X147977000Y-97823000D01*
X147997000Y-97823000D01*
X147997000Y-98077000D01*
X147977000Y-98077000D01*
X147977000Y-99023000D01*
X147997000Y-99023000D01*
X147997000Y-99277000D01*
X147977000Y-99277000D01*
X147977000Y-100001250D01*
X148135750Y-100160000D01*
X148450000Y-100163072D01*
X148572635Y-100150994D01*
X148572100Y-100153685D01*
X148572100Y-100346315D01*
X148609680Y-100535243D01*
X148683396Y-100713210D01*
X148790415Y-100873375D01*
X148926625Y-101009585D01*
X149086790Y-101116604D01*
X149264757Y-101190320D01*
X149453685Y-101227900D01*
X149646315Y-101227900D01*
X149835243Y-101190320D01*
X150013210Y-101116604D01*
X150173375Y-101009585D01*
X150309585Y-100873375D01*
X150416604Y-100713210D01*
X150490320Y-100535243D01*
X150527900Y-100346315D01*
X150527900Y-100153685D01*
X150490320Y-99964757D01*
X150461070Y-99894142D01*
X150514502Y-99794180D01*
X150550812Y-99674482D01*
X150563072Y-99550000D01*
X150563072Y-98350000D01*
X150550812Y-98225518D01*
X150514502Y-98105820D01*
X150457939Y-98000000D01*
X150514502Y-97894180D01*
X150550812Y-97774482D01*
X150563072Y-97650000D01*
X150563072Y-96450000D01*
X150550812Y-96325518D01*
X150514502Y-96205820D01*
X150455537Y-96095506D01*
X150376185Y-95998815D01*
X150279494Y-95919463D01*
X150169180Y-95860498D01*
X150049482Y-95824188D01*
X149925000Y-95811928D01*
X149175000Y-95811928D01*
X149050518Y-95824188D01*
X148930820Y-95860498D01*
X148898578Y-95877732D01*
X148807159Y-95850000D01*
X148924180Y-95814502D01*
X149034494Y-95755537D01*
X149131185Y-95676185D01*
X149210537Y-95579494D01*
X149269502Y-95469180D01*
X149305812Y-95349482D01*
X149318072Y-95225000D01*
X149315000Y-95185750D01*
X149156250Y-95027000D01*
X148277000Y-95027000D01*
X148277000Y-95047000D01*
X148023000Y-95047000D01*
X148023000Y-95027000D01*
X148003000Y-95027000D01*
X148003000Y-94773000D01*
X148023000Y-94773000D01*
X148023000Y-94098750D01*
X148277000Y-94098750D01*
X148277000Y-94773000D01*
X149156250Y-94773000D01*
X149315000Y-94614250D01*
X149318072Y-94575000D01*
X149305812Y-94450518D01*
X149269502Y-94330820D01*
X149210537Y-94220506D01*
X149131185Y-94123815D01*
X149034494Y-94044463D01*
X148924180Y-93985498D01*
X148804482Y-93949188D01*
X148680000Y-93936928D01*
X148435750Y-93940000D01*
X148277000Y-94098750D01*
X148023000Y-94098750D01*
X147864250Y-93940000D01*
X147620000Y-93936928D01*
X147495518Y-93949188D01*
X147375820Y-93985498D01*
X147265506Y-94044463D01*
X147168815Y-94123815D01*
X147089463Y-94220506D01*
X147055347Y-94284332D01*
X147036297Y-94268698D01*
X147010537Y-94220506D01*
X146931185Y-94123815D01*
X146834494Y-94044463D01*
X146724180Y-93985498D01*
X146604482Y-93949188D01*
X146480000Y-93936928D01*
X145420000Y-93936928D01*
X145295518Y-93949188D01*
X145175820Y-93985498D01*
X145065506Y-94044463D01*
X145050231Y-94056999D01*
X145027900Y-94038672D01*
X145027900Y-93853685D01*
X144990320Y-93664757D01*
X144916604Y-93486790D01*
X144809585Y-93326625D01*
X144673375Y-93190415D01*
X144513210Y-93083396D01*
X144335243Y-93009680D01*
X144146315Y-92972100D01*
X143953685Y-92972100D01*
X143764757Y-93009680D01*
X143586790Y-93083396D01*
X143426625Y-93190415D01*
X143290415Y-93326625D01*
X143183396Y-93486790D01*
X143109680Y-93664757D01*
X143072100Y-93853685D01*
X143072100Y-94038672D01*
X142998815Y-94098815D01*
X142950000Y-94158296D01*
X142901185Y-94098815D01*
X142804494Y-94019463D01*
X142694180Y-93960498D01*
X142574482Y-93924188D01*
X142450000Y-93911928D01*
X142099286Y-93911928D01*
X142125812Y-93824482D01*
X142138072Y-93700000D01*
X142138072Y-90700000D01*
X142125812Y-90575518D01*
X142089502Y-90455820D01*
X142030537Y-90345506D01*
X141951185Y-90248815D01*
X141854494Y-90169463D01*
X141744180Y-90110498D01*
X141624482Y-90074188D01*
X141500000Y-90061928D01*
X138500000Y-90061928D01*
X138375518Y-90074188D01*
X138255820Y-90110498D01*
X138145506Y-90169463D01*
X138048815Y-90248815D01*
X137969463Y-90345506D01*
X137910498Y-90455820D01*
X137874188Y-90575518D01*
X137861928Y-90700000D01*
X137861928Y-92731060D01*
X137338072Y-92207205D01*
X137338072Y-90700000D01*
X137325812Y-90575518D01*
X137289502Y-90455820D01*
X137230537Y-90345506D01*
X137151185Y-90248815D01*
X137054494Y-90169463D01*
X136944180Y-90110498D01*
X136824482Y-90074188D01*
X136700000Y-90061928D01*
X136340184Y-90061928D01*
X137351624Y-89883584D01*
X139114963Y-89729312D01*
X140885037Y-89729312D01*
X142648376Y-89883584D01*
G37*
X142648376Y-89883584D02*
X144391560Y-90190954D01*
X146101321Y-90649083D01*
X147764647Y-91254484D01*
X149368879Y-92002550D01*
X150901809Y-92887588D01*
X152351769Y-93902861D01*
X153707725Y-95040643D01*
X153940964Y-95273882D01*
X153642800Y-95467512D01*
X153545079Y-95545592D01*
X153464467Y-95641236D01*
X153404064Y-95750769D01*
X153366190Y-95869981D01*
X153352302Y-95994292D01*
X153362932Y-96118923D01*
X153397671Y-96239086D01*
X153455187Y-96350163D01*
X153890898Y-97021100D01*
X153968978Y-97118822D01*
X154001782Y-97146470D01*
X153969086Y-97163400D01*
X152962681Y-97816967D01*
X152864959Y-97895047D01*
X152829766Y-97936803D01*
X152714757Y-97959680D01*
X152536790Y-98033396D01*
X152376625Y-98140415D01*
X152240415Y-98276625D01*
X152133396Y-98436790D01*
X152059680Y-98614757D01*
X152022100Y-98803685D01*
X152022100Y-98996315D01*
X152059680Y-99185243D01*
X152133396Y-99363210D01*
X152240415Y-99523375D01*
X152376625Y-99659585D01*
X152536790Y-99766604D01*
X152714757Y-99840320D01*
X152903685Y-99877900D01*
X153096315Y-99877900D01*
X153285243Y-99840320D01*
X153463210Y-99766604D01*
X153472226Y-99760580D01*
X153506715Y-99803745D01*
X153602359Y-99884356D01*
X153711892Y-99944759D01*
X153831104Y-99982633D01*
X153955415Y-99996521D01*
X154080046Y-99985891D01*
X154200209Y-99951151D01*
X154311286Y-99893636D01*
X155151627Y-99347913D01*
X155182018Y-99378304D01*
X155359725Y-99497044D01*
X155557182Y-99578833D01*
X155766802Y-99620529D01*
X155980528Y-99620529D01*
X156190148Y-99578833D01*
X156387605Y-99497044D01*
X156565312Y-99378304D01*
X156716440Y-99227176D01*
X156835180Y-99049469D01*
X156916969Y-98852012D01*
X156922072Y-98826357D01*
X157112412Y-99098191D01*
X157280208Y-99388822D01*
X157233198Y-99379471D01*
X157019472Y-99379471D01*
X156809852Y-99421167D01*
X156612395Y-99502956D01*
X156434688Y-99621696D01*
X156283560Y-99772824D01*
X156164820Y-99950531D01*
X156083031Y-100147988D01*
X156041335Y-100357608D01*
X156041335Y-100571334D01*
X156083031Y-100780954D01*
X156088763Y-100794792D01*
X155250165Y-101339384D01*
X155152443Y-101417464D01*
X155071832Y-101513108D01*
X155011429Y-101622641D01*
X154973555Y-101741853D01*
X154959667Y-101866164D01*
X154970297Y-101990795D01*
X155005037Y-102110958D01*
X155062552Y-102222035D01*
X155716119Y-103228440D01*
X155794199Y-103326162D01*
X155889843Y-103406773D01*
X155999376Y-103467176D01*
X156118588Y-103505050D01*
X156242899Y-103518938D01*
X156367530Y-103508308D01*
X156487693Y-103473568D01*
X156598770Y-103416053D01*
X157605175Y-102762486D01*
X157633940Y-102739503D01*
X157645855Y-102780717D01*
X157703371Y-102891794D01*
X158139082Y-103562731D01*
X158217162Y-103660453D01*
X158312806Y-103741064D01*
X158422339Y-103801467D01*
X158541552Y-103839341D01*
X158665862Y-103853229D01*
X158790494Y-103842599D01*
X158910657Y-103807859D01*
X159021733Y-103750344D01*
X159244316Y-103605796D01*
X159350917Y-103898679D01*
X159662609Y-105061928D01*
X159300000Y-105061928D01*
X159175518Y-105074188D01*
X159055820Y-105110498D01*
X158945506Y-105169463D01*
X158848815Y-105248815D01*
X158769463Y-105345506D01*
X158710498Y-105455820D01*
X158674188Y-105575518D01*
X158661928Y-105700000D01*
X158661928Y-106500000D01*
X158674188Y-106624482D01*
X158686642Y-106665537D01*
X158650000Y-106661928D01*
X157450000Y-106661928D01*
X157325518Y-106674188D01*
X157205820Y-106710498D01*
X157095506Y-106769463D01*
X156998815Y-106848815D01*
X156919463Y-106945506D01*
X156860498Y-107055820D01*
X156824188Y-107175518D01*
X156811928Y-107300000D01*
X156811928Y-108500000D01*
X156824188Y-108624482D01*
X156830236Y-108644419D01*
X156759680Y-108814757D01*
X156722100Y-109003685D01*
X156722100Y-109196315D01*
X156759680Y-109385243D01*
X156833396Y-109563210D01*
X156940415Y-109723375D01*
X157076625Y-109859585D01*
X157236790Y-109966604D01*
X157414757Y-110040320D01*
X157603685Y-110077900D01*
X157796315Y-110077900D01*
X157985243Y-110040320D01*
X158163210Y-109966604D01*
X158323375Y-109859585D01*
X158459585Y-109723375D01*
X158566604Y-109563210D01*
X158606797Y-109466176D01*
X158657225Y-109541647D01*
X158808353Y-109692775D01*
X158986060Y-109811515D01*
X159183517Y-109893304D01*
X159393137Y-109935000D01*
X159606863Y-109935000D01*
X159816483Y-109893304D01*
X160013940Y-109811515D01*
X160191647Y-109692775D01*
X160270688Y-109613734D01*
X160270688Y-110386266D01*
X160191647Y-110307225D01*
X160013940Y-110188485D01*
X159816483Y-110106696D01*
X159606863Y-110065000D01*
X159393137Y-110065000D01*
X159183517Y-110106696D01*
X158986060Y-110188485D01*
X158808353Y-110307225D01*
X158657225Y-110458353D01*
X158538485Y-110636060D01*
X158456696Y-110833517D01*
X158451045Y-110861928D01*
X157450000Y-110861928D01*
X157325518Y-110874188D01*
X157205820Y-110910498D01*
X157095506Y-110969463D01*
X156998815Y-111048815D01*
X156919463Y-111145506D01*
X156860498Y-111255820D01*
X156824188Y-111375518D01*
X156811928Y-111500000D01*
X156811928Y-112700000D01*
X156824188Y-112824482D01*
X156860498Y-112944180D01*
X156919463Y-113054494D01*
X156998815Y-113151185D01*
X157095506Y-113230537D01*
X157205820Y-113289502D01*
X157325518Y-113325812D01*
X157450000Y-113338072D01*
X158650000Y-113338072D01*
X158686642Y-113334463D01*
X158674188Y-113375518D01*
X158661928Y-113500000D01*
X158661928Y-114300000D01*
X158674188Y-114424482D01*
X158710498Y-114544180D01*
X158769463Y-114654494D01*
X158848815Y-114751185D01*
X158945506Y-114830537D01*
X159055820Y-114889502D01*
X159175518Y-114925812D01*
X159300000Y-114938072D01*
X159662609Y-114938072D01*
X159350917Y-116101321D01*
X158998001Y-117070949D01*
X158668532Y-116840252D01*
X158559530Y-116778895D01*
X158440653Y-116739983D01*
X158316468Y-116725010D01*
X158191749Y-116734552D01*
X158071287Y-116768242D01*
X157959713Y-116824786D01*
X157861314Y-116902010D01*
X157779871Y-116996947D01*
X157577900Y-117285392D01*
X157577900Y-117103685D01*
X157540320Y-116914757D01*
X157466604Y-116736790D01*
X157359585Y-116576625D01*
X157223375Y-116440415D01*
X157063210Y-116333396D01*
X156885243Y-116259680D01*
X156696315Y-116222100D01*
X156503685Y-116222100D01*
X156314757Y-116259680D01*
X156136790Y-116333396D01*
X155976625Y-116440415D01*
X155840415Y-116576625D01*
X155733396Y-116736790D01*
X155659680Y-116914757D01*
X155639252Y-117017457D01*
X155638134Y-117017770D01*
X155526559Y-117074313D01*
X155428160Y-117151538D01*
X155346717Y-117246475D01*
X154658425Y-118229457D01*
X154597068Y-118338458D01*
X154558156Y-118457336D01*
X154543183Y-118581520D01*
X154552725Y-118706240D01*
X154586415Y-118826701D01*
X154642958Y-118938276D01*
X154720183Y-119036675D01*
X154815120Y-119118118D01*
X155636337Y-119693141D01*
X155616309Y-119741492D01*
X155574613Y-119951112D01*
X155574613Y-120164838D01*
X155616309Y-120374458D01*
X155698098Y-120571915D01*
X155816838Y-120749622D01*
X155967966Y-120900750D01*
X156145673Y-121019490D01*
X156343130Y-121101279D01*
X156552750Y-121142975D01*
X156766476Y-121142975D01*
X156972199Y-121102054D01*
X156425387Y-121882982D01*
X156425387Y-121835162D01*
X156383691Y-121625542D01*
X156301902Y-121428085D01*
X156183162Y-121250378D01*
X156032034Y-121099250D01*
X155854327Y-120980510D01*
X155656870Y-120898721D01*
X155447250Y-120857025D01*
X155233524Y-120857025D01*
X155023904Y-120898721D01*
X154826447Y-120980510D01*
X154648740Y-121099250D01*
X154644736Y-121103254D01*
X153826357Y-120530218D01*
X153717356Y-120468861D01*
X153598478Y-120429949D01*
X153474294Y-120414976D01*
X153349574Y-120424518D01*
X153229113Y-120458208D01*
X153117538Y-120514751D01*
X153019139Y-120591976D01*
X152937696Y-120686913D01*
X152249404Y-121669895D01*
X152188047Y-121778896D01*
X152149135Y-121897774D01*
X152134162Y-122021958D01*
X152143704Y-122146678D01*
X152177394Y-122267139D01*
X152233937Y-122378714D01*
X152311162Y-122477113D01*
X152406099Y-122558556D01*
X153389081Y-123246848D01*
X153421167Y-123264909D01*
X153387417Y-123291396D01*
X153305974Y-123386333D01*
X152847113Y-124041655D01*
X152785757Y-124150656D01*
X152746844Y-124269534D01*
X152731871Y-124393718D01*
X152741413Y-124518438D01*
X152775103Y-124638899D01*
X152831646Y-124750473D01*
X152908870Y-124848873D01*
X153003808Y-124930316D01*
X153406390Y-125212207D01*
X152351769Y-126097139D01*
X150901809Y-127112412D01*
X149368879Y-127997450D01*
X147764647Y-128745516D01*
X146101321Y-129350917D01*
X144391560Y-129809046D01*
X142648376Y-130116416D01*
X140885037Y-130270688D01*
X139114963Y-130270688D01*
X137351624Y-130116416D01*
X135608440Y-129809046D01*
X133898679Y-129350917D01*
X132235353Y-128745516D01*
X130631121Y-127997450D01*
X129098191Y-127112412D01*
X127648231Y-126097139D01*
X126593610Y-125212207D01*
X126996192Y-124930316D01*
X127091129Y-124848873D01*
X127168353Y-124750474D01*
X127224897Y-124638900D01*
X127258587Y-124518438D01*
X127268129Y-124393719D01*
X127253156Y-124269534D01*
X127214244Y-124150657D01*
X127152887Y-124041655D01*
X126694026Y-123386333D01*
X126612583Y-123291395D01*
X126578834Y-123264909D01*
X126610919Y-123246848D01*
X127593901Y-122558556D01*
X127688838Y-122477113D01*
X127766063Y-122378714D01*
X127822606Y-122267139D01*
X127856296Y-122146678D01*
X127865838Y-122021958D01*
X127863168Y-121999814D01*
X127923375Y-121959585D01*
X128059585Y-121823375D01*
X128166604Y-121663210D01*
X128240320Y-121485243D01*
X128277900Y-121296315D01*
X128277900Y-121103685D01*
X128240320Y-120914757D01*
X128166604Y-120736790D01*
X128059585Y-120576625D01*
X127923375Y-120440415D01*
X127802269Y-120359494D01*
X127866604Y-120263210D01*
X127940320Y-120085243D01*
X127977900Y-119896315D01*
X127977900Y-119703685D01*
X127967411Y-119650951D01*
X128005537Y-119604494D01*
X128064502Y-119494180D01*
X128100812Y-119374482D01*
X128113072Y-119250000D01*
X128113072Y-118912885D01*
X128195506Y-118980537D01*
X128305820Y-119039502D01*
X128425518Y-119075812D01*
X128550000Y-119088072D01*
X128664250Y-119085000D01*
X128823000Y-118926250D01*
X128823000Y-118127000D01*
X128803000Y-118127000D01*
X128803000Y-117873000D01*
X128823000Y-117873000D01*
X128823000Y-117853000D01*
X129077000Y-117853000D01*
X129077000Y-117873000D01*
X129097000Y-117873000D01*
X129097000Y-118127000D01*
X129077000Y-118127000D01*
X129077000Y-118926250D01*
X129161607Y-119010857D01*
X129145506Y-119019463D01*
X129048815Y-119098815D01*
X128969463Y-119195506D01*
X128910498Y-119305820D01*
X128874188Y-119425518D01*
X128861928Y-119550000D01*
X128861928Y-120450000D01*
X128874188Y-120574482D01*
X128910498Y-120694180D01*
X128969463Y-120804494D01*
X129048815Y-120901185D01*
X129145506Y-120980537D01*
X129211928Y-121016041D01*
X129211928Y-122100000D01*
X129224188Y-122224482D01*
X129260498Y-122344180D01*
X129319463Y-122454494D01*
X129398815Y-122551185D01*
X129458296Y-122600000D01*
X129398815Y-122648815D01*
X129319463Y-122745506D01*
X129260498Y-122855820D01*
X129224188Y-122975518D01*
X129211928Y-123100000D01*
X129211928Y-124300000D01*
X129224188Y-124424482D01*
X129260498Y-124544180D01*
X129319463Y-124654494D01*
X129398815Y-124751185D01*
X129495506Y-124830537D01*
X129605820Y-124889502D01*
X129725518Y-124925812D01*
X129850000Y-124938072D01*
X130750000Y-124938072D01*
X130874482Y-124925812D01*
X130994180Y-124889502D01*
X131000000Y-124886391D01*
X131005820Y-124889502D01*
X131125518Y-124925812D01*
X131250000Y-124938072D01*
X132150000Y-124938072D01*
X132274482Y-124925812D01*
X132394180Y-124889502D01*
X132400000Y-124886391D01*
X132405820Y-124889502D01*
X132525518Y-124925812D01*
X132650000Y-124938072D01*
X133550000Y-124938072D01*
X133674482Y-124925812D01*
X133794180Y-124889502D01*
X133904494Y-124830537D01*
X134001185Y-124751185D01*
X134080537Y-124654494D01*
X134109665Y-124600000D01*
X135311928Y-124600000D01*
X135311928Y-125800000D01*
X135324188Y-125924482D01*
X135360498Y-126044180D01*
X135419463Y-126154494D01*
X135498815Y-126251185D01*
X135558296Y-126300000D01*
X135498815Y-126348815D01*
X135419463Y-126445506D01*
X135360498Y-126555820D01*
X135324188Y-126675518D01*
X135311928Y-126800000D01*
X135311928Y-128000000D01*
X135324188Y-128124482D01*
X135360498Y-128244180D01*
X135419463Y-128354494D01*
X135445472Y-128386186D01*
X135422100Y-128503685D01*
X135422100Y-128696315D01*
X135459680Y-128885243D01*
X135533396Y-129063210D01*
X135640415Y-129223375D01*
X135776625Y-129359585D01*
X135936790Y-129466604D01*
X136114757Y-129540320D01*
X136303685Y-129577900D01*
X136496315Y-129577900D01*
X136685243Y-129540320D01*
X136863210Y-129466604D01*
X137023375Y-129359585D01*
X137159585Y-129223375D01*
X137266604Y-129063210D01*
X137340320Y-128885243D01*
X137377900Y-128696315D01*
X137377900Y-128503685D01*
X137354528Y-128386186D01*
X137380537Y-128354494D01*
X137400000Y-128318082D01*
X137419463Y-128354494D01*
X137445472Y-128386186D01*
X137422100Y-128503685D01*
X137422100Y-128696315D01*
X137459680Y-128885243D01*
X137533396Y-129063210D01*
X137640415Y-129223375D01*
X137776625Y-129359585D01*
X137936790Y-129466604D01*
X138114757Y-129540320D01*
X138303685Y-129577900D01*
X138496315Y-129577900D01*
X138685243Y-129540320D01*
X138863210Y-129466604D01*
X139023375Y-129359585D01*
X139159585Y-129223375D01*
X139266604Y-129063210D01*
X139340320Y-128885243D01*
X139377900Y-128696315D01*
X139377900Y-128503685D01*
X139354528Y-128386186D01*
X139380537Y-128354494D01*
X139439502Y-128244180D01*
X139475812Y-128124482D01*
X139488072Y-128000000D01*
X139488072Y-126800000D01*
X139475812Y-126675518D01*
X139439502Y-126555820D01*
X139380537Y-126445506D01*
X139301185Y-126348815D01*
X139241704Y-126300000D01*
X139301185Y-126251185D01*
X139380537Y-126154494D01*
X139439502Y-126044180D01*
X139475812Y-125924482D01*
X139488072Y-125800000D01*
X139488072Y-125325000D01*
X140061928Y-125325000D01*
X140074188Y-125449482D01*
X140110498Y-125569180D01*
X140169463Y-125679494D01*
X140248815Y-125776185D01*
X140345506Y-125855537D01*
X140455820Y-125914502D01*
X140575518Y-125950812D01*
X140700000Y-125963072D01*
X141014250Y-125960000D01*
X141173000Y-125801250D01*
X141173000Y-125077000D01*
X140223750Y-125077000D01*
X140065000Y-125235750D01*
X140061928Y-125325000D01*
X139488072Y-125325000D01*
X139488072Y-124600000D01*
X139485610Y-124575000D01*
X140061928Y-124575000D01*
X140065000Y-124664250D01*
X140223750Y-124823000D01*
X141173000Y-124823000D01*
X141173000Y-124098750D01*
X141427000Y-124098750D01*
X141427000Y-124823000D01*
X141447000Y-124823000D01*
X141447000Y-125077000D01*
X141427000Y-125077000D01*
X141427000Y-125801250D01*
X141585750Y-125960000D01*
X141900000Y-125963072D01*
X142024482Y-125950812D01*
X142144180Y-125914502D01*
X142222100Y-125872852D01*
X142222100Y-125996315D01*
X142259680Y-126185243D01*
X142333396Y-126363210D01*
X142440415Y-126523375D01*
X142576625Y-126659585D01*
X142736790Y-126766604D01*
X142914757Y-126840320D01*
X143103685Y-126877900D01*
X143296315Y-126877900D01*
X143485243Y-126840320D01*
X143663210Y-126766604D01*
X143823375Y-126659585D01*
X143959585Y-126523375D01*
X144066604Y-126363210D01*
X144140320Y-126185243D01*
X144177900Y-125996315D01*
X144177900Y-125836328D01*
X144251185Y-125776185D01*
X144330537Y-125679494D01*
X144389502Y-125569180D01*
X144425812Y-125449482D01*
X144438072Y-125325000D01*
X144438072Y-124575000D01*
X144425812Y-124450518D01*
X144389502Y-124330820D01*
X144330537Y-124220506D01*
X144251185Y-124123815D01*
X144154494Y-124044463D01*
X144044180Y-123985498D01*
X143924482Y-123949188D01*
X143800000Y-123936928D01*
X142600000Y-123936928D01*
X142475518Y-123949188D01*
X142355820Y-123985498D01*
X142250000Y-124042061D01*
X142144180Y-123985498D01*
X142024482Y-123949188D01*
X141900000Y-123936928D01*
X141585750Y-123940000D01*
X141427000Y-124098750D01*
X141173000Y-124098750D01*
X141014250Y-123940000D01*
X140700000Y-123936928D01*
X140575518Y-123949188D01*
X140455820Y-123985498D01*
X140345506Y-124044463D01*
X140248815Y-124123815D01*
X140169463Y-124220506D01*
X140110498Y-124330820D01*
X140074188Y-124450518D01*
X140061928Y-124575000D01*
X139485610Y-124575000D01*
X139475812Y-124475518D01*
X139439502Y-124355820D01*
X139380537Y-124245506D01*
X139301185Y-124148815D01*
X139204494Y-124069463D01*
X139094180Y-124010498D01*
X138974482Y-123974188D01*
X138850000Y-123961928D01*
X137950000Y-123961928D01*
X137825518Y-123974188D01*
X137705820Y-124010498D01*
X137595506Y-124069463D01*
X137498815Y-124148815D01*
X137419463Y-124245506D01*
X137400000Y-124281918D01*
X137380537Y-124245506D01*
X137301185Y-124148815D01*
X137204494Y-124069463D01*
X137094180Y-124010498D01*
X136974482Y-123974188D01*
X136850000Y-123961928D01*
X135950000Y-123961928D01*
X135825518Y-123974188D01*
X135705820Y-124010498D01*
X135595506Y-124069463D01*
X135498815Y-124148815D01*
X135419463Y-124245506D01*
X135360498Y-124355820D01*
X135324188Y-124475518D01*
X135311928Y-124600000D01*
X134109665Y-124600000D01*
X134139502Y-124544180D01*
X134175812Y-124424482D01*
X134188072Y-124300000D01*
X134188072Y-123100000D01*
X134175812Y-122975518D01*
X134139502Y-122855820D01*
X134080537Y-122745506D01*
X134001185Y-122648815D01*
X133941704Y-122600000D01*
X134001185Y-122551185D01*
X134080537Y-122454494D01*
X134139502Y-122344180D01*
X134161610Y-122271298D01*
X134301860Y-122228754D01*
X134438233Y-122155862D01*
X134557764Y-122057764D01*
X134582346Y-122027811D01*
X135182345Y-121427813D01*
X135182349Y-121427808D01*
X135681856Y-120928301D01*
X135745506Y-120980537D01*
X135855820Y-121039502D01*
X135975518Y-121075812D01*
X136100000Y-121088072D01*
X136900000Y-121088072D01*
X137024482Y-121075812D01*
X137144180Y-121039502D01*
X137254494Y-120980537D01*
X137351185Y-120901185D01*
X137430537Y-120804494D01*
X137489502Y-120694180D01*
X137525812Y-120574482D01*
X137538072Y-120450000D01*
X137538072Y-119550000D01*
X137525812Y-119425518D01*
X137489502Y-119305820D01*
X137430537Y-119195506D01*
X137351185Y-119098815D01*
X137338095Y-119088072D01*
X137850000Y-119088072D01*
X137974482Y-119075812D01*
X138094180Y-119039502D01*
X138204494Y-118980537D01*
X138301185Y-118901185D01*
X138380537Y-118804494D01*
X138439502Y-118694180D01*
X138475812Y-118574482D01*
X138488072Y-118450000D01*
X138488072Y-117688072D01*
X138900000Y-117688072D01*
X139024482Y-117675812D01*
X139126894Y-117644746D01*
X139170506Y-117680537D01*
X139280820Y-117739502D01*
X139400518Y-117775812D01*
X139525000Y-117788072D01*
X140275000Y-117788072D01*
X140399482Y-117775812D01*
X140519180Y-117739502D01*
X140629494Y-117680537D01*
X140726185Y-117601185D01*
X140805537Y-117504494D01*
X140864502Y-117394180D01*
X140900812Y-117274482D01*
X140909322Y-117188072D01*
X142650000Y-117188072D01*
X142774482Y-117175812D01*
X142894180Y-117139502D01*
X143004494Y-117080537D01*
X143101185Y-117001185D01*
X143180537Y-116904494D01*
X143239502Y-116794180D01*
X143275812Y-116674482D01*
X143288072Y-116550000D01*
X143288072Y-114800000D01*
X143278224Y-114700000D01*
X143611928Y-114700000D01*
X143611928Y-115900000D01*
X143624188Y-116024482D01*
X143660498Y-116144180D01*
X143719463Y-116254494D01*
X143798815Y-116351185D01*
X143858296Y-116400000D01*
X143798815Y-116448815D01*
X143719463Y-116545506D01*
X143660498Y-116655820D01*
X143624188Y-116775518D01*
X143611928Y-116900000D01*
X143611928Y-118100000D01*
X143624188Y-118224482D01*
X143660498Y-118344180D01*
X143719463Y-118454494D01*
X143798815Y-118551185D01*
X143895506Y-118630537D01*
X144005820Y-118689502D01*
X144125518Y-118725812D01*
X144250000Y-118738072D01*
X144811275Y-118738072D01*
X144873085Y-118788798D01*
X144883854Y-118797636D01*
X145028913Y-118875172D01*
X145186311Y-118922918D01*
X145344766Y-118938525D01*
X145386790Y-118966604D01*
X145564757Y-119040320D01*
X145753685Y-119077900D01*
X145946315Y-119077900D01*
X146135243Y-119040320D01*
X146313210Y-118966604D01*
X146473375Y-118859585D01*
X146542628Y-118790332D01*
X146594742Y-118887829D01*
X146692749Y-119007251D01*
X146812171Y-119105258D01*
X146948418Y-119178084D01*
X147096255Y-119222929D01*
X147250000Y-119238072D01*
X147550000Y-119238072D01*
X147703745Y-119222929D01*
X147851582Y-119178084D01*
X147943546Y-119128928D01*
X147945506Y-119130537D01*
X148055820Y-119189502D01*
X148175518Y-119225812D01*
X148300000Y-119238072D01*
X148314250Y-119235000D01*
X148473000Y-119076250D01*
X148473000Y-118127000D01*
X148727000Y-118127000D01*
X148727000Y-119076250D01*
X148885750Y-119235000D01*
X148900000Y-119238072D01*
X149024482Y-119225812D01*
X149144180Y-119189502D01*
X149254494Y-119130537D01*
X149351185Y-119051185D01*
X149430537Y-118954494D01*
X149489502Y-118844180D01*
X149525812Y-118724482D01*
X149538072Y-118600000D01*
X149535000Y-118285750D01*
X149376250Y-118127000D01*
X148727000Y-118127000D01*
X148473000Y-118127000D01*
X148453000Y-118127000D01*
X148453000Y-117873000D01*
X148473000Y-117873000D01*
X148473000Y-117853000D01*
X148727000Y-117853000D01*
X148727000Y-117873000D01*
X149376250Y-117873000D01*
X149535000Y-117714250D01*
X149538072Y-117400000D01*
X149525812Y-117275518D01*
X149489502Y-117155820D01*
X149430537Y-117045506D01*
X149351185Y-116948815D01*
X149254494Y-116869463D01*
X149144180Y-116810498D01*
X149024482Y-116774188D01*
X149023513Y-116774093D01*
X149039502Y-116744180D01*
X149075812Y-116624482D01*
X149088072Y-116500000D01*
X149088072Y-115700000D01*
X149082350Y-115641900D01*
X149123000Y-115601250D01*
X149123000Y-114998000D01*
X149377000Y-114998000D01*
X149377000Y-115601250D01*
X149535750Y-115760000D01*
X149658357Y-115753804D01*
X149778949Y-115720582D01*
X149890742Y-115664473D01*
X149989441Y-115587631D01*
X150071252Y-115493012D01*
X150133032Y-115384249D01*
X150172406Y-115265524D01*
X150185000Y-115156750D01*
X150026250Y-114998000D01*
X149377000Y-114998000D01*
X149123000Y-114998000D01*
X148473750Y-114998000D01*
X148409822Y-115061928D01*
X148088072Y-115061928D01*
X148088072Y-114752980D01*
X148151185Y-114701185D01*
X148198730Y-114643250D01*
X148315000Y-114643250D01*
X148473750Y-114802000D01*
X149123000Y-114802000D01*
X149123000Y-114198750D01*
X149377000Y-114198750D01*
X149377000Y-114802000D01*
X150026250Y-114802000D01*
X150185000Y-114643250D01*
X150172406Y-114534476D01*
X150133032Y-114415751D01*
X150071252Y-114306988D01*
X149989441Y-114212369D01*
X149890742Y-114135527D01*
X149778949Y-114079418D01*
X149658357Y-114046196D01*
X149535750Y-114040000D01*
X149377000Y-114198750D01*
X149123000Y-114198750D01*
X148964250Y-114040000D01*
X148841643Y-114046196D01*
X148721051Y-114079418D01*
X148609258Y-114135527D01*
X148510559Y-114212369D01*
X148428748Y-114306988D01*
X148366968Y-114415751D01*
X148327594Y-114534476D01*
X148315000Y-114643250D01*
X148198730Y-114643250D01*
X148230537Y-114604494D01*
X148289502Y-114494180D01*
X148325812Y-114374482D01*
X148338072Y-114250000D01*
X148338072Y-113350000D01*
X148325812Y-113225518D01*
X148289502Y-113105820D01*
X148230537Y-112995506D01*
X148151185Y-112898815D01*
X148054494Y-112819463D01*
X147944180Y-112760498D01*
X147824482Y-112724188D01*
X147700000Y-112711928D01*
X146500000Y-112711928D01*
X146375518Y-112724188D01*
X146255820Y-112760498D01*
X146145506Y-112819463D01*
X146048815Y-112898815D01*
X146000000Y-112958296D01*
X145951185Y-112898815D01*
X145854494Y-112819463D01*
X145744180Y-112760498D01*
X145624482Y-112724188D01*
X145500000Y-112711928D01*
X144300000Y-112711928D01*
X144175518Y-112724188D01*
X144055820Y-112760498D01*
X143945506Y-112819463D01*
X143848815Y-112898815D01*
X143769463Y-112995506D01*
X143710498Y-113105820D01*
X143674188Y-113225518D01*
X143661928Y-113350000D01*
X143661928Y-114250000D01*
X143674188Y-114374482D01*
X143684972Y-114410033D01*
X143660498Y-114455820D01*
X143624188Y-114575518D01*
X143611928Y-114700000D01*
X143278224Y-114700000D01*
X143275812Y-114675518D01*
X143239502Y-114555820D01*
X143180537Y-114445506D01*
X143101185Y-114348815D01*
X143004494Y-114269463D01*
X142894180Y-114210498D01*
X142774482Y-114174188D01*
X142650000Y-114161928D01*
X140913072Y-114161928D01*
X140913072Y-114050000D01*
X140902048Y-113938072D01*
X142650000Y-113938072D01*
X142774482Y-113925812D01*
X142894180Y-113889502D01*
X143004494Y-113830537D01*
X143101185Y-113751185D01*
X143180537Y-113654494D01*
X143239502Y-113544180D01*
X143275812Y-113424482D01*
X143288072Y-113300000D01*
X143288072Y-111550000D01*
X143275812Y-111425518D01*
X143239502Y-111305820D01*
X143180537Y-111195506D01*
X143133402Y-111138072D01*
X143200000Y-111138072D01*
X143324482Y-111125812D01*
X143444180Y-111089502D01*
X143554494Y-111030537D01*
X143651185Y-110951185D01*
X143700000Y-110891704D01*
X143748815Y-110951185D01*
X143845506Y-111030537D01*
X143955820Y-111089502D01*
X144075518Y-111125812D01*
X144200000Y-111138072D01*
X144514250Y-111135000D01*
X144673000Y-110976250D01*
X144673000Y-110177000D01*
X144927000Y-110177000D01*
X144927000Y-110976250D01*
X145085750Y-111135000D01*
X145400000Y-111138072D01*
X145524482Y-111125812D01*
X145644180Y-111089502D01*
X145754494Y-111030537D01*
X145851185Y-110951185D01*
X145930537Y-110854494D01*
X145989502Y-110744180D01*
X146025812Y-110624482D01*
X146038072Y-110500000D01*
X146035000Y-110335750D01*
X145876250Y-110177000D01*
X144927000Y-110177000D01*
X144673000Y-110177000D01*
X144653000Y-110177000D01*
X144653000Y-109923000D01*
X144673000Y-109923000D01*
X144673000Y-108927000D01*
X144927000Y-108927000D01*
X144927000Y-109923000D01*
X145876250Y-109923000D01*
X146035000Y-109764250D01*
X146038072Y-109600000D01*
X146025812Y-109475518D01*
X145999112Y-109387500D01*
X146025812Y-109299482D01*
X146038072Y-109175000D01*
X146035000Y-109085750D01*
X145876250Y-108927000D01*
X144927000Y-108927000D01*
X144673000Y-108927000D01*
X144653000Y-108927000D01*
X144653000Y-108673000D01*
X144673000Y-108673000D01*
X144673000Y-108653000D01*
X144927000Y-108653000D01*
X144927000Y-108673000D01*
X145876250Y-108673000D01*
X146035000Y-108514250D01*
X146038072Y-108425000D01*
X146025812Y-108300518D01*
X145989502Y-108180820D01*
X145930537Y-108070506D01*
X145929372Y-108069086D01*
X145951185Y-108051185D01*
X146030537Y-107954494D01*
X146089502Y-107844180D01*
X146125812Y-107724482D01*
X146138072Y-107600000D01*
X146138072Y-107296855D01*
X146139502Y-107294180D01*
X146175812Y-107174482D01*
X146188072Y-107050000D01*
X146188072Y-106750000D01*
X146178223Y-106650000D01*
X146188072Y-106550000D01*
X146188072Y-106250000D01*
X146175812Y-106125518D01*
X146140770Y-106010000D01*
X146177002Y-106010000D01*
X146177002Y-105851252D01*
X146335750Y-106010000D01*
X146650000Y-106013072D01*
X146774482Y-106000812D01*
X146894180Y-105964502D01*
X147004494Y-105905537D01*
X147101185Y-105826185D01*
X147180537Y-105729494D01*
X147239502Y-105619180D01*
X147275812Y-105499482D01*
X147288072Y-105375000D01*
X147285000Y-105285750D01*
X147126250Y-105127000D01*
X146177000Y-105127000D01*
X146177000Y-105147000D01*
X145923000Y-105147000D01*
X145923000Y-105127000D01*
X145903000Y-105127000D01*
X145903000Y-104873000D01*
X145923000Y-104873000D01*
X145923000Y-104148750D01*
X146177000Y-104148750D01*
X146177000Y-104873000D01*
X147126250Y-104873000D01*
X147285000Y-104714250D01*
X147288072Y-104625000D01*
X147275812Y-104500518D01*
X147239502Y-104380820D01*
X147180537Y-104270506D01*
X147101185Y-104173815D01*
X147004494Y-104094463D01*
X146894180Y-104035498D01*
X146774482Y-103999188D01*
X146650000Y-103986928D01*
X146335750Y-103990000D01*
X146177000Y-104148750D01*
X145923000Y-104148750D01*
X145764250Y-103990000D01*
X145450000Y-103986928D01*
X145325518Y-103999188D01*
X145205820Y-104035498D01*
X145100000Y-104092061D01*
X144994180Y-104035498D01*
X144874482Y-103999188D01*
X144750000Y-103986928D01*
X143550000Y-103986928D01*
X143425518Y-103999188D01*
X143305820Y-104035498D01*
X143267268Y-104056105D01*
X143096315Y-104022100D01*
X142903685Y-104022100D01*
X142835769Y-104035609D01*
X142838072Y-103800000D01*
X142825812Y-103675518D01*
X142789502Y-103555820D01*
X142730537Y-103445506D01*
X142651185Y-103348815D01*
X142554494Y-103269463D01*
X142444180Y-103210498D01*
X142324482Y-103174188D01*
X142200000Y-103161928D01*
X142035750Y-103165000D01*
X141877000Y-103323750D01*
X141877000Y-104273000D01*
X141897000Y-104273000D01*
X141897000Y-104527000D01*
X141877000Y-104527000D01*
X141877000Y-104547000D01*
X141623000Y-104547000D01*
X141623000Y-104527000D01*
X140823750Y-104527000D01*
X140665000Y-104685750D01*
X140661928Y-105000000D01*
X140674188Y-105124482D01*
X140710498Y-105244180D01*
X140769463Y-105354494D01*
X140848815Y-105451185D01*
X140908296Y-105500000D01*
X140848815Y-105548815D01*
X140769463Y-105645506D01*
X140710498Y-105755820D01*
X140674188Y-105875518D01*
X140661928Y-106000000D01*
X140661928Y-107200000D01*
X140674188Y-107324482D01*
X140710498Y-107444180D01*
X140769463Y-107554494D01*
X140848815Y-107651185D01*
X140945506Y-107730537D01*
X141055820Y-107789502D01*
X141175518Y-107825812D01*
X141300000Y-107838072D01*
X141822100Y-107838072D01*
X141822100Y-107846315D01*
X141847725Y-107975143D01*
X141769463Y-108070506D01*
X141710498Y-108180820D01*
X141674188Y-108300518D01*
X141661928Y-108425000D01*
X141661928Y-109060685D01*
X141645506Y-109069463D01*
X141548815Y-109148815D01*
X141469463Y-109245506D01*
X141410498Y-109355820D01*
X141374188Y-109475518D01*
X141361928Y-109600000D01*
X141361928Y-110406882D01*
X141263689Y-110377082D01*
X141141019Y-110365000D01*
X141141018Y-110365000D01*
X141100000Y-110360960D01*
X141058982Y-110365000D01*
X140847621Y-110365000D01*
X140814502Y-110255820D01*
X140755537Y-110145506D01*
X140676185Y-110048815D01*
X140579494Y-109969463D01*
X140469180Y-109910498D01*
X140349482Y-109874188D01*
X140225000Y-109861928D01*
X139475000Y-109861928D01*
X139350518Y-109874188D01*
X139230820Y-109910498D01*
X139120506Y-109969463D01*
X139023815Y-110048815D01*
X138944463Y-110145506D01*
X138885498Y-110255820D01*
X138882713Y-110265000D01*
X137841018Y-110265000D01*
X137800000Y-110260960D01*
X137758982Y-110265000D01*
X137758981Y-110265000D01*
X137636311Y-110277082D01*
X137536943Y-110307225D01*
X137478913Y-110324828D01*
X137333854Y-110402364D01*
X137290344Y-110438072D01*
X137206709Y-110506709D01*
X137180563Y-110538568D01*
X136154133Y-111565000D01*
X135588072Y-111565000D01*
X135588072Y-111400000D01*
X135575812Y-111275518D01*
X135552904Y-111200000D01*
X135575812Y-111124482D01*
X135588072Y-111000000D01*
X135588072Y-110600000D01*
X135575812Y-110475518D01*
X135552904Y-110400000D01*
X135575812Y-110324482D01*
X135588072Y-110200000D01*
X135588072Y-109800000D01*
X135575812Y-109675518D01*
X135552904Y-109600000D01*
X135575812Y-109524482D01*
X135588072Y-109400000D01*
X135588072Y-109000000D01*
X135575812Y-108875518D01*
X135552798Y-108799650D01*
X135572406Y-108740524D01*
X135585000Y-108631750D01*
X135480252Y-108527002D01*
X135585000Y-108527002D01*
X135585000Y-108496915D01*
X135595506Y-108505537D01*
X135705820Y-108564502D01*
X135825518Y-108600812D01*
X135950000Y-108613072D01*
X136264250Y-108610000D01*
X136423000Y-108451250D01*
X136423000Y-107727000D01*
X135480250Y-107727000D01*
X135426250Y-107673000D01*
X135306763Y-107673000D01*
X135290742Y-107660527D01*
X135178949Y-107604418D01*
X135161162Y-107599518D01*
X135194180Y-107589502D01*
X135304494Y-107530537D01*
X135308804Y-107527000D01*
X135426250Y-107527000D01*
X135480250Y-107473000D01*
X136423000Y-107473000D01*
X136423000Y-106748750D01*
X136677000Y-106748750D01*
X136677000Y-107473000D01*
X136697000Y-107473000D01*
X136697000Y-107727000D01*
X136677000Y-107727000D01*
X136677000Y-108451250D01*
X136835750Y-108610000D01*
X137150000Y-108613072D01*
X137274482Y-108600812D01*
X137394180Y-108564502D01*
X137500000Y-108507939D01*
X137605820Y-108564502D01*
X137725518Y-108600812D01*
X137850000Y-108613072D01*
X139050000Y-108613072D01*
X139174482Y-108600812D01*
X139294180Y-108564502D01*
X139404494Y-108505537D01*
X139501185Y-108426185D01*
X139580537Y-108329494D01*
X139639502Y-108219180D01*
X139675812Y-108099482D01*
X139688072Y-107975000D01*
X139688072Y-107225000D01*
X139675812Y-107100518D01*
X139639502Y-106980820D01*
X139580537Y-106870506D01*
X139501185Y-106773815D01*
X139424932Y-106711236D01*
X139427900Y-106696315D01*
X139427900Y-106503685D01*
X139390320Y-106314757D01*
X139316604Y-106136790D01*
X139209585Y-105976625D01*
X139073375Y-105840415D01*
X138913210Y-105733396D01*
X138735243Y-105659680D01*
X138546315Y-105622100D01*
X138353685Y-105622100D01*
X138164757Y-105659680D01*
X137986790Y-105733396D01*
X137826625Y-105840415D01*
X137690415Y-105976625D01*
X137583396Y-106136790D01*
X137509680Y-106314757D01*
X137472100Y-106503685D01*
X137472100Y-106677148D01*
X137394180Y-106635498D01*
X137274482Y-106599188D01*
X137150000Y-106586928D01*
X136835750Y-106590000D01*
X136677000Y-106748750D01*
X136423000Y-106748750D01*
X136353605Y-106679355D01*
X136409585Y-106623375D01*
X136516604Y-106463210D01*
X136590320Y-106285243D01*
X136627900Y-106096315D01*
X136627900Y-105903685D01*
X136590320Y-105714757D01*
X136532431Y-105575000D01*
X136590320Y-105435243D01*
X136627900Y-105246315D01*
X136627900Y-105053685D01*
X136590320Y-104864757D01*
X136516604Y-104686790D01*
X136409585Y-104526625D01*
X136273375Y-104390415D01*
X136113210Y-104283396D01*
X135935243Y-104209680D01*
X135746315Y-104172100D01*
X135661672Y-104172100D01*
X135640320Y-104064757D01*
X135566604Y-103886790D01*
X135508613Y-103800000D01*
X140661928Y-103800000D01*
X140665000Y-104114250D01*
X140823750Y-104273000D01*
X141623000Y-104273000D01*
X141623000Y-103323750D01*
X141464250Y-103165000D01*
X141300000Y-103161928D01*
X141175518Y-103174188D01*
X141055820Y-103210498D01*
X140945506Y-103269463D01*
X140848815Y-103348815D01*
X140769463Y-103445506D01*
X140710498Y-103555820D01*
X140674188Y-103675518D01*
X140661928Y-103800000D01*
X135508613Y-103800000D01*
X135459585Y-103726625D01*
X135323375Y-103590415D01*
X135163210Y-103483396D01*
X134985243Y-103409680D01*
X134796315Y-103372100D01*
X134603685Y-103372100D01*
X134414757Y-103409680D01*
X134236790Y-103483396D01*
X134076625Y-103590415D01*
X133940415Y-103726625D01*
X133833396Y-103886790D01*
X133759680Y-104064757D01*
X133722100Y-104253685D01*
X133722100Y-104411928D01*
X133450000Y-104411928D01*
X133325518Y-104424188D01*
X133250000Y-104447096D01*
X133174482Y-104424188D01*
X133050000Y-104411928D01*
X132650000Y-104411928D01*
X132525518Y-104424188D01*
X132450000Y-104447096D01*
X132374482Y-104424188D01*
X132250000Y-104411928D01*
X131850000Y-104411928D01*
X131725518Y-104424188D01*
X131650000Y-104447096D01*
X131574482Y-104424188D01*
X131450000Y-104411928D01*
X131138920Y-104411928D01*
X131138920Y-104240005D01*
X131193060Y-104223582D01*
X131303374Y-104164617D01*
X131400065Y-104085265D01*
X131479417Y-103988574D01*
X131538382Y-103878260D01*
X131574692Y-103758562D01*
X131586952Y-103634080D01*
X131586952Y-103334080D01*
X131574692Y-103209598D01*
X131538382Y-103089900D01*
X131535271Y-103084080D01*
X131538382Y-103078260D01*
X131574692Y-102958562D01*
X131586952Y-102834080D01*
X131586952Y-102534080D01*
X131574692Y-102409598D01*
X131538382Y-102289900D01*
X131535271Y-102284080D01*
X131538382Y-102278260D01*
X131574692Y-102158562D01*
X131586952Y-102034080D01*
X131586952Y-101734080D01*
X131574692Y-101609598D01*
X131538382Y-101489900D01*
X131535091Y-101483743D01*
X131571286Y-101374604D01*
X131583880Y-101265830D01*
X131425130Y-101107080D01*
X131061300Y-101107080D01*
X130948880Y-101096008D01*
X130501880Y-101096008D01*
X130501880Y-101061080D01*
X130521880Y-101061080D01*
X130521880Y-100457830D01*
X130775880Y-100457830D01*
X130775880Y-101061080D01*
X131425130Y-101061080D01*
X131583880Y-100902330D01*
X131571286Y-100793556D01*
X131531912Y-100674831D01*
X131470132Y-100566068D01*
X131388321Y-100471449D01*
X131289622Y-100394607D01*
X131177829Y-100338498D01*
X131057237Y-100305276D01*
X130934630Y-100299080D01*
X130775880Y-100457830D01*
X130521880Y-100457830D01*
X130363130Y-100299080D01*
X130240523Y-100305276D01*
X130119931Y-100338498D01*
X130008138Y-100394607D01*
X129909439Y-100471449D01*
X129827628Y-100566068D01*
X129765848Y-100674831D01*
X129726788Y-100792608D01*
X129679668Y-100735192D01*
X129651617Y-100712171D01*
X129535539Y-100596093D01*
X129512518Y-100568042D01*
X129400600Y-100476193D01*
X129272913Y-100407943D01*
X129134365Y-100365915D01*
X129026385Y-100355280D01*
X128990280Y-100351724D01*
X128954175Y-100355280D01*
X128813082Y-100355280D01*
X128793060Y-100344578D01*
X128673362Y-100308268D01*
X128548880Y-100296008D01*
X127948880Y-100296008D01*
X127824398Y-100308268D01*
X127704700Y-100344578D01*
X127635000Y-100381834D01*
X127635000Y-100270132D01*
X127679637Y-100225495D01*
X127803849Y-100039599D01*
X127850120Y-99927892D01*
X127940231Y-99900558D01*
X128050545Y-99841594D01*
X128147236Y-99762241D01*
X128296561Y-99608571D01*
X128296561Y-99384065D01*
X127696051Y-98783554D01*
X127688254Y-98791351D01*
X127679637Y-98778455D01*
X127521545Y-98620363D01*
X127508649Y-98611746D01*
X127516446Y-98603949D01*
X127875656Y-98603949D01*
X128476167Y-99204459D01*
X128700673Y-99204459D01*
X128854343Y-99055134D01*
X128933696Y-98958443D01*
X128992660Y-98848129D01*
X129028969Y-98728430D01*
X129041230Y-98603949D01*
X129028969Y-98479468D01*
X128992660Y-98359769D01*
X128933696Y-98249455D01*
X128854343Y-98152764D01*
X128700673Y-98003439D01*
X128476167Y-98003439D01*
X127875656Y-98603949D01*
X127516446Y-98603949D01*
X126915935Y-98003439D01*
X126691429Y-98003439D01*
X126537759Y-98152764D01*
X126458406Y-98249455D01*
X126399442Y-98359769D01*
X126372108Y-98449880D01*
X126260401Y-98496151D01*
X126074505Y-98620363D01*
X125999324Y-98695544D01*
X125940229Y-98620245D01*
X125845292Y-98538802D01*
X124452733Y-97563722D01*
X124343732Y-97502366D01*
X124224855Y-97463453D01*
X124100670Y-97448480D01*
X124068400Y-97450949D01*
X124976277Y-96368984D01*
X124982547Y-96381356D01*
X125059771Y-96479755D01*
X125154708Y-96561198D01*
X126547267Y-97536278D01*
X126656268Y-97597634D01*
X126775145Y-97636547D01*
X126899330Y-97651520D01*
X127024050Y-97641978D01*
X127095541Y-97621984D01*
X127095541Y-97823833D01*
X127696051Y-98424344D01*
X128296561Y-97823833D01*
X128296561Y-97599327D01*
X128147236Y-97445657D01*
X128050545Y-97366304D01*
X127940231Y-97307340D01*
X127820532Y-97271031D01*
X127696051Y-97258770D01*
X127571570Y-97271031D01*
X127495855Y-97293998D01*
X127952147Y-96642347D01*
X128013504Y-96533345D01*
X128052416Y-96414468D01*
X128067389Y-96290283D01*
X128057847Y-96165564D01*
X128024157Y-96045102D01*
X127967613Y-95933528D01*
X127890389Y-95835129D01*
X127795452Y-95753686D01*
X126512824Y-94855580D01*
X127648231Y-93902861D01*
X128824838Y-93078992D01*
X128810498Y-93105820D01*
X128774188Y-93225518D01*
X128761928Y-93350000D01*
X128761928Y-94850000D01*
X128774188Y-94974482D01*
X128810498Y-95094180D01*
X128869463Y-95204494D01*
X128948815Y-95301185D01*
X129045506Y-95380537D01*
X129155820Y-95439502D01*
X129275518Y-95475812D01*
X129365001Y-95484625D01*
X129365001Y-95789491D01*
X129333396Y-95836790D01*
X129259680Y-96014757D01*
X129222100Y-96203685D01*
X129222100Y-96396315D01*
X129259680Y-96585243D01*
X129333396Y-96763210D01*
X129440415Y-96923375D01*
X129576625Y-97059585D01*
X129736790Y-97166604D01*
X129914757Y-97240320D01*
X130103685Y-97277900D01*
X130296315Y-97277900D01*
X130485243Y-97240320D01*
X130663210Y-97166604D01*
X130823375Y-97059585D01*
X130959585Y-96923375D01*
X131066604Y-96763210D01*
X131140320Y-96585243D01*
X131177900Y-96396315D01*
X131177900Y-96203685D01*
X131140320Y-96014757D01*
X131066604Y-95836790D01*
X131035000Y-95789491D01*
X131035000Y-95472621D01*
X131144180Y-95439502D01*
X131254494Y-95380537D01*
X131351185Y-95301185D01*
X131430537Y-95204494D01*
X131489502Y-95094180D01*
X131525812Y-94974482D01*
X131538072Y-94850000D01*
X131538072Y-93350000D01*
X131525812Y-93225518D01*
X131489502Y-93105820D01*
X131430537Y-92995506D01*
X131351185Y-92898815D01*
X131254494Y-92819463D01*
X131144180Y-92760498D01*
X131024482Y-92724188D01*
X130900000Y-92711928D01*
X129402443Y-92711928D01*
X130631121Y-92002550D01*
X132235353Y-91254484D01*
X133061928Y-90953635D01*
X133061928Y-92957204D01*
X132188574Y-93830559D01*
X132156710Y-93856709D01*
X132130562Y-93888571D01*
X132052364Y-93983855D01*
X131974828Y-94128914D01*
X131927082Y-94286312D01*
X131910960Y-94450000D01*
X131915001Y-94491028D01*
X131915000Y-96457713D01*
X131905820Y-96460498D01*
X131795506Y-96519463D01*
X131698815Y-96598815D01*
X131619463Y-96695506D01*
X131560498Y-96805820D01*
X131524188Y-96925518D01*
X131511928Y-97050000D01*
X131511928Y-97950000D01*
X131524188Y-98074482D01*
X131560498Y-98194180D01*
X131619463Y-98304494D01*
X131698815Y-98401185D01*
X131795506Y-98480537D01*
X131905820Y-98539502D01*
X132025518Y-98575812D01*
X132062734Y-98579477D01*
X132094139Y-98638233D01*
X132126022Y-98677082D01*
X132167655Y-98727812D01*
X132167659Y-98727816D01*
X132192237Y-98757764D01*
X132222185Y-98782342D01*
X132642653Y-99202810D01*
X132667236Y-99232764D01*
X132786767Y-99330862D01*
X132923140Y-99403754D01*
X133028617Y-99435750D01*
X133071112Y-99448641D01*
X133085490Y-99450057D01*
X133186439Y-99460000D01*
X133186446Y-99460000D01*
X133224999Y-99463797D01*
X133263552Y-99460000D01*
X135472379Y-99460000D01*
X135505498Y-99569180D01*
X135564463Y-99679494D01*
X135598519Y-99720991D01*
X135559680Y-99814757D01*
X135522100Y-100003685D01*
X135522100Y-100008219D01*
X135514757Y-100009680D01*
X135336790Y-100083396D01*
X135176625Y-100190415D01*
X135040415Y-100326625D01*
X134933396Y-100486790D01*
X134859680Y-100664757D01*
X134822100Y-100853685D01*
X134822100Y-101005248D01*
X134795506Y-101019463D01*
X134698815Y-101098815D01*
X134619463Y-101195506D01*
X134560498Y-101305820D01*
X134524188Y-101425518D01*
X134511928Y-101550000D01*
X134511928Y-102450000D01*
X134524188Y-102574482D01*
X134560498Y-102694180D01*
X134619463Y-102804494D01*
X134698815Y-102901185D01*
X134795506Y-102980537D01*
X134905820Y-103039502D01*
X135025518Y-103075812D01*
X135150000Y-103088072D01*
X136350000Y-103088072D01*
X136474482Y-103075812D01*
X136594180Y-103039502D01*
X136704494Y-102980537D01*
X136801185Y-102901185D01*
X136850000Y-102841704D01*
X136898815Y-102901185D01*
X136995506Y-102980537D01*
X137105820Y-103039502D01*
X137225518Y-103075812D01*
X137350000Y-103088072D01*
X138550000Y-103088072D01*
X138674482Y-103075812D01*
X138794180Y-103039502D01*
X138825000Y-103023028D01*
X138855820Y-103039502D01*
X138975518Y-103075812D01*
X139100000Y-103088072D01*
X140300000Y-103088072D01*
X140424482Y-103075812D01*
X140544180Y-103039502D01*
X140654494Y-102980537D01*
X140751185Y-102901185D01*
X140800000Y-102841704D01*
X140848815Y-102901185D01*
X140945506Y-102980537D01*
X141055820Y-103039502D01*
X141175518Y-103075812D01*
X141300000Y-103088072D01*
X142500000Y-103088072D01*
X142624482Y-103075812D01*
X142744180Y-103039502D01*
X142854494Y-102980537D01*
X142886186Y-102954528D01*
X143003685Y-102977900D01*
X143196315Y-102977900D01*
X143385243Y-102940320D01*
X143563210Y-102866604D01*
X143723375Y-102759585D01*
X143859585Y-102623375D01*
X143966604Y-102463210D01*
X144040320Y-102285243D01*
X144077900Y-102096315D01*
X144077900Y-101903685D01*
X144040320Y-101714757D01*
X143966604Y-101536790D01*
X143859585Y-101376625D01*
X143723375Y-101240415D01*
X143563210Y-101133396D01*
X143500765Y-101107530D01*
X143504494Y-101105537D01*
X143601185Y-101026185D01*
X143680537Y-100929494D01*
X143739502Y-100819180D01*
X143775812Y-100699482D01*
X143788072Y-100575000D01*
X143788072Y-99825000D01*
X143775812Y-99700518D01*
X143739502Y-99580820D01*
X143680537Y-99470506D01*
X143601185Y-99373815D01*
X143504494Y-99294463D01*
X143477900Y-99280248D01*
X143477900Y-99153685D01*
X143440320Y-98964757D01*
X143366604Y-98786790D01*
X143259585Y-98626625D01*
X143123375Y-98490415D01*
X142963210Y-98383396D01*
X142951590Y-98378583D01*
X142977900Y-98246315D01*
X142977900Y-98053685D01*
X142964238Y-97985000D01*
X143822100Y-97985000D01*
X143822100Y-98046315D01*
X143859680Y-98235243D01*
X143933396Y-98413210D01*
X144024796Y-98550000D01*
X143933396Y-98686790D01*
X143859680Y-98864757D01*
X143822100Y-99053685D01*
X143822100Y-99246315D01*
X143859680Y-99435243D01*
X143933396Y-99613210D01*
X144040415Y-99773375D01*
X144176625Y-99909585D01*
X144336790Y-100016604D01*
X144514757Y-100090320D01*
X144703685Y-100127900D01*
X144896315Y-100127900D01*
X145067268Y-100093895D01*
X145105820Y-100114502D01*
X145225518Y-100150812D01*
X145350000Y-100163072D01*
X146550000Y-100163072D01*
X146674482Y-100150812D01*
X146794180Y-100114502D01*
X146900000Y-100057939D01*
X147005820Y-100114502D01*
X147125518Y-100150812D01*
X147250000Y-100163072D01*
X147564250Y-100160000D01*
X147723000Y-100001250D01*
X147723000Y-99277000D01*
X147703000Y-99277000D01*
X147703000Y-99023000D01*
X147723000Y-99023000D01*
X147723000Y-98077000D01*
X147703000Y-98077000D01*
X147703000Y-97823000D01*
X147723000Y-97823000D01*
X147723000Y-97803000D01*
X147977000Y-97803000D01*
X147977000Y-97823000D01*
X147997000Y-97823000D01*
X147997000Y-98077000D01*
X147977000Y-98077000D01*
X147977000Y-99023000D01*
X147997000Y-99023000D01*
X147997000Y-99277000D01*
X147977000Y-99277000D01*
X147977000Y-100001250D01*
X148135750Y-100160000D01*
X148450000Y-100163072D01*
X148572635Y-100150994D01*
X148572100Y-100153685D01*
X148572100Y-100346315D01*
X148609680Y-100535243D01*
X148683396Y-100713210D01*
X148790415Y-100873375D01*
X148926625Y-101009585D01*
X149086790Y-101116604D01*
X149264757Y-101190320D01*
X149453685Y-101227900D01*
X149646315Y-101227900D01*
X149835243Y-101190320D01*
X150013210Y-101116604D01*
X150173375Y-101009585D01*
X150309585Y-100873375D01*
X150416604Y-100713210D01*
X150490320Y-100535243D01*
X150527900Y-100346315D01*
X150527900Y-100153685D01*
X150490320Y-99964757D01*
X150461070Y-99894142D01*
X150514502Y-99794180D01*
X150550812Y-99674482D01*
X150563072Y-99550000D01*
X150563072Y-98350000D01*
X150550812Y-98225518D01*
X150514502Y-98105820D01*
X150457939Y-98000000D01*
X150514502Y-97894180D01*
X150550812Y-97774482D01*
X150563072Y-97650000D01*
X150563072Y-96450000D01*
X150550812Y-96325518D01*
X150514502Y-96205820D01*
X150455537Y-96095506D01*
X150376185Y-95998815D01*
X150279494Y-95919463D01*
X150169180Y-95860498D01*
X150049482Y-95824188D01*
X149925000Y-95811928D01*
X149175000Y-95811928D01*
X149050518Y-95824188D01*
X148930820Y-95860498D01*
X148898578Y-95877732D01*
X148807159Y-95850000D01*
X148924180Y-95814502D01*
X149034494Y-95755537D01*
X149131185Y-95676185D01*
X149210537Y-95579494D01*
X149269502Y-95469180D01*
X149305812Y-95349482D01*
X149318072Y-95225000D01*
X149315000Y-95185750D01*
X149156250Y-95027000D01*
X148277000Y-95027000D01*
X148277000Y-95047000D01*
X148023000Y-95047000D01*
X148023000Y-95027000D01*
X148003000Y-95027000D01*
X148003000Y-94773000D01*
X148023000Y-94773000D01*
X148023000Y-94098750D01*
X148277000Y-94098750D01*
X148277000Y-94773000D01*
X149156250Y-94773000D01*
X149315000Y-94614250D01*
X149318072Y-94575000D01*
X149305812Y-94450518D01*
X149269502Y-94330820D01*
X149210537Y-94220506D01*
X149131185Y-94123815D01*
X149034494Y-94044463D01*
X148924180Y-93985498D01*
X148804482Y-93949188D01*
X148680000Y-93936928D01*
X148435750Y-93940000D01*
X148277000Y-94098750D01*
X148023000Y-94098750D01*
X147864250Y-93940000D01*
X147620000Y-93936928D01*
X147495518Y-93949188D01*
X147375820Y-93985498D01*
X147265506Y-94044463D01*
X147168815Y-94123815D01*
X147089463Y-94220506D01*
X147055347Y-94284332D01*
X147036297Y-94268698D01*
X147010537Y-94220506D01*
X146931185Y-94123815D01*
X146834494Y-94044463D01*
X146724180Y-93985498D01*
X146604482Y-93949188D01*
X146480000Y-93936928D01*
X145420000Y-93936928D01*
X145295518Y-93949188D01*
X145175820Y-93985498D01*
X145065506Y-94044463D01*
X145050231Y-94056999D01*
X145027900Y-94038672D01*
X145027900Y-93853685D01*
X144990320Y-93664757D01*
X144916604Y-93486790D01*
X144809585Y-93326625D01*
X144673375Y-93190415D01*
X144513210Y-93083396D01*
X144335243Y-93009680D01*
X144146315Y-92972100D01*
X143953685Y-92972100D01*
X143764757Y-93009680D01*
X143586790Y-93083396D01*
X143426625Y-93190415D01*
X143290415Y-93326625D01*
X143183396Y-93486790D01*
X143109680Y-93664757D01*
X143072100Y-93853685D01*
X143072100Y-94038672D01*
X142998815Y-94098815D01*
X142950000Y-94158296D01*
X142901185Y-94098815D01*
X142804494Y-94019463D01*
X142694180Y-93960498D01*
X142574482Y-93924188D01*
X142450000Y-93911928D01*
X142099286Y-93911928D01*
X142125812Y-93824482D01*
X142138072Y-93700000D01*
X142138072Y-90700000D01*
X142125812Y-90575518D01*
X142089502Y-90455820D01*
X142030537Y-90345506D01*
X141951185Y-90248815D01*
X141854494Y-90169463D01*
X141744180Y-90110498D01*
X141624482Y-90074188D01*
X141500000Y-90061928D01*
X138500000Y-90061928D01*
X138375518Y-90074188D01*
X138255820Y-90110498D01*
X138145506Y-90169463D01*
X138048815Y-90248815D01*
X137969463Y-90345506D01*
X137910498Y-90455820D01*
X137874188Y-90575518D01*
X137861928Y-90700000D01*
X137861928Y-92731060D01*
X137338072Y-92207205D01*
X137338072Y-90700000D01*
X137325812Y-90575518D01*
X137289502Y-90455820D01*
X137230537Y-90345506D01*
X137151185Y-90248815D01*
X137054494Y-90169463D01*
X136944180Y-90110498D01*
X136824482Y-90074188D01*
X136700000Y-90061928D01*
X136340184Y-90061928D01*
X137351624Y-89883584D01*
X139114963Y-89729312D01*
X140885037Y-89729312D01*
X142648376Y-89883584D01*
G36*
X135677000Y-117873000D02*
G01*
X135697000Y-117873000D01*
X135697000Y-118127000D01*
X135677000Y-118127000D01*
X135677000Y-118926250D01*
X135761607Y-119010857D01*
X135745506Y-119019463D01*
X135648815Y-119098815D01*
X135569463Y-119195506D01*
X135559043Y-119215000D01*
X135538552Y-119215000D01*
X135499999Y-119211203D01*
X135461446Y-119215000D01*
X135461439Y-119215000D01*
X135361718Y-119224822D01*
X135346112Y-119226359D01*
X135229385Y-119261768D01*
X135198140Y-119271246D01*
X135061767Y-119344138D01*
X135009724Y-119386849D01*
X134972187Y-119417655D01*
X134972184Y-119417658D01*
X134942236Y-119442236D01*
X134917657Y-119472185D01*
X134238072Y-120151771D01*
X134238072Y-119550000D01*
X134225812Y-119425518D01*
X134189502Y-119305820D01*
X134130537Y-119195506D01*
X134051185Y-119098815D01*
X134038095Y-119088072D01*
X134550000Y-119088072D01*
X134674482Y-119075812D01*
X134794180Y-119039502D01*
X134850000Y-119009665D01*
X134905820Y-119039502D01*
X135025518Y-119075812D01*
X135150000Y-119088072D01*
X135264250Y-119085000D01*
X135423000Y-118926250D01*
X135423000Y-118127000D01*
X135403000Y-118127000D01*
X135403000Y-117873000D01*
X135423000Y-117873000D01*
X135423000Y-117853000D01*
X135677000Y-117853000D01*
X135677000Y-117873000D01*
G37*
X135677000Y-117873000D02*
X135697000Y-117873000D01*
X135697000Y-118127000D01*
X135677000Y-118127000D01*
X135677000Y-118926250D01*
X135761607Y-119010857D01*
X135745506Y-119019463D01*
X135648815Y-119098815D01*
X135569463Y-119195506D01*
X135559043Y-119215000D01*
X135538552Y-119215000D01*
X135499999Y-119211203D01*
X135461446Y-119215000D01*
X135461439Y-119215000D01*
X135361718Y-119224822D01*
X135346112Y-119226359D01*
X135229385Y-119261768D01*
X135198140Y-119271246D01*
X135061767Y-119344138D01*
X135009724Y-119386849D01*
X134972187Y-119417655D01*
X134972184Y-119417658D01*
X134942236Y-119442236D01*
X134917657Y-119472185D01*
X134238072Y-120151771D01*
X134238072Y-119550000D01*
X134225812Y-119425518D01*
X134189502Y-119305820D01*
X134130537Y-119195506D01*
X134051185Y-119098815D01*
X134038095Y-119088072D01*
X134550000Y-119088072D01*
X134674482Y-119075812D01*
X134794180Y-119039502D01*
X134850000Y-119009665D01*
X134905820Y-119039502D01*
X135025518Y-119075812D01*
X135150000Y-119088072D01*
X135264250Y-119085000D01*
X135423000Y-118926250D01*
X135423000Y-118127000D01*
X135403000Y-118127000D01*
X135403000Y-117873000D01*
X135423000Y-117873000D01*
X135423000Y-117853000D01*
X135677000Y-117853000D01*
X135677000Y-117873000D01*
G36*
X132447000Y-116727000D02*
G01*
X132427000Y-116727000D01*
X132427000Y-117023750D01*
X132377000Y-117073750D01*
X132377000Y-117873000D01*
X132397000Y-117873000D01*
X132397000Y-118127000D01*
X132377000Y-118127000D01*
X132377000Y-118926250D01*
X132461607Y-119010857D01*
X132445506Y-119019463D01*
X132348815Y-119098815D01*
X132269463Y-119195506D01*
X132210498Y-119305820D01*
X132207713Y-119315000D01*
X131938556Y-119315000D01*
X131900000Y-119311203D01*
X131861444Y-119315000D01*
X131861439Y-119315000D01*
X131821026Y-119318980D01*
X131746113Y-119326358D01*
X131639861Y-119358590D01*
X131598140Y-119371246D01*
X131461767Y-119444138D01*
X131342236Y-119542236D01*
X131317650Y-119572194D01*
X131172186Y-119717657D01*
X131142237Y-119742236D01*
X131117659Y-119772184D01*
X131117655Y-119772188D01*
X131091806Y-119803685D01*
X131044139Y-119861767D01*
X131012295Y-119921343D01*
X130971246Y-119998141D01*
X130938072Y-120107501D01*
X130938072Y-119550000D01*
X130925812Y-119425518D01*
X130889502Y-119305820D01*
X130830537Y-119195506D01*
X130751185Y-119098815D01*
X130738095Y-119088072D01*
X131250000Y-119088072D01*
X131374482Y-119075812D01*
X131494180Y-119039502D01*
X131550000Y-119009665D01*
X131605820Y-119039502D01*
X131725518Y-119075812D01*
X131850000Y-119088072D01*
X131964250Y-119085000D01*
X132123000Y-118926250D01*
X132123000Y-118127000D01*
X132103000Y-118127000D01*
X132103000Y-117873000D01*
X132123000Y-117873000D01*
X132123000Y-117576250D01*
X132173000Y-117526250D01*
X132173000Y-116727000D01*
X132153000Y-116727000D01*
X132153000Y-116632599D01*
X132447000Y-116632599D01*
X132447000Y-116727000D01*
G37*
X132447000Y-116727000D02*
X132427000Y-116727000D01*
X132427000Y-117023750D01*
X132377000Y-117073750D01*
X132377000Y-117873000D01*
X132397000Y-117873000D01*
X132397000Y-118127000D01*
X132377000Y-118127000D01*
X132377000Y-118926250D01*
X132461607Y-119010857D01*
X132445506Y-119019463D01*
X132348815Y-119098815D01*
X132269463Y-119195506D01*
X132210498Y-119305820D01*
X132207713Y-119315000D01*
X131938556Y-119315000D01*
X131900000Y-119311203D01*
X131861444Y-119315000D01*
X131861439Y-119315000D01*
X131821026Y-119318980D01*
X131746113Y-119326358D01*
X131639861Y-119358590D01*
X131598140Y-119371246D01*
X131461767Y-119444138D01*
X131342236Y-119542236D01*
X131317650Y-119572194D01*
X131172186Y-119717657D01*
X131142237Y-119742236D01*
X131117659Y-119772184D01*
X131117655Y-119772188D01*
X131091806Y-119803685D01*
X131044139Y-119861767D01*
X131012295Y-119921343D01*
X130971246Y-119998141D01*
X130938072Y-120107501D01*
X130938072Y-119550000D01*
X130925812Y-119425518D01*
X130889502Y-119305820D01*
X130830537Y-119195506D01*
X130751185Y-119098815D01*
X130738095Y-119088072D01*
X131250000Y-119088072D01*
X131374482Y-119075812D01*
X131494180Y-119039502D01*
X131550000Y-119009665D01*
X131605820Y-119039502D01*
X131725518Y-119075812D01*
X131850000Y-119088072D01*
X131964250Y-119085000D01*
X132123000Y-118926250D01*
X132123000Y-118127000D01*
X132103000Y-118127000D01*
X132103000Y-117873000D01*
X132123000Y-117873000D01*
X132123000Y-117576250D01*
X132173000Y-117526250D01*
X132173000Y-116727000D01*
X132153000Y-116727000D01*
X132153000Y-116632599D01*
X132447000Y-116632599D01*
X132447000Y-116727000D01*
G36*
X129919463Y-118804494D02*
G01*
X129998815Y-118901185D01*
X130011905Y-118911928D01*
X129788095Y-118911928D01*
X129801185Y-118901185D01*
X129880537Y-118804494D01*
X129900000Y-118768082D01*
X129919463Y-118804494D01*
G37*
X129919463Y-118804494D02*
X129998815Y-118901185D01*
X130011905Y-118911928D01*
X129788095Y-118911928D01*
X129801185Y-118901185D01*
X129880537Y-118804494D01*
X129900000Y-118768082D01*
X129919463Y-118804494D01*
G36*
X124436790Y-116466604D02*
G01*
X124614757Y-116540320D01*
X124803685Y-116577900D01*
X124953650Y-116577900D01*
X125048750Y-116673000D01*
X125773000Y-116673000D01*
X125773000Y-116653000D01*
X126027000Y-116653000D01*
X126027000Y-116673000D01*
X126751250Y-116673000D01*
X126801250Y-116623000D01*
X126973000Y-116623000D01*
X126973000Y-116603000D01*
X127227000Y-116603000D01*
X127227000Y-116623000D01*
X127247000Y-116623000D01*
X127247000Y-116877000D01*
X127227000Y-116877000D01*
X127227000Y-116897000D01*
X126973000Y-116897000D01*
X126973000Y-116877000D01*
X126248750Y-116877000D01*
X126198750Y-116927000D01*
X126027000Y-116927000D01*
X126027000Y-116947000D01*
X125773000Y-116947000D01*
X125773000Y-116927000D01*
X125048750Y-116927000D01*
X124890000Y-117085750D01*
X124886928Y-117400000D01*
X124899188Y-117524482D01*
X124935498Y-117644180D01*
X124947559Y-117666745D01*
X124653283Y-117246475D01*
X124571840Y-117151538D01*
X124473441Y-117074313D01*
X124361866Y-117017770D01*
X124241405Y-116984080D01*
X124116685Y-116974538D01*
X123992501Y-116989511D01*
X123873623Y-117028423D01*
X123764622Y-117089780D01*
X122781640Y-117778072D01*
X122753694Y-117802046D01*
X122740347Y-117761271D01*
X122678990Y-117652269D01*
X122311193Y-117127000D01*
X123000000Y-117127000D01*
X123025390Y-117124436D01*
X123049178Y-117117092D01*
X123071077Y-117105248D01*
X123090244Y-117089359D01*
X123105943Y-117070036D01*
X123117571Y-117048022D01*
X123124680Y-117024163D01*
X123126998Y-116999374D01*
X123124002Y-116391242D01*
X123236790Y-116466604D01*
X123414757Y-116540320D01*
X123603685Y-116577900D01*
X123796315Y-116577900D01*
X123985243Y-116540320D01*
X124163210Y-116466604D01*
X124300000Y-116375204D01*
X124436790Y-116466604D01*
G37*
X124436790Y-116466604D02*
X124614757Y-116540320D01*
X124803685Y-116577900D01*
X124953650Y-116577900D01*
X125048750Y-116673000D01*
X125773000Y-116673000D01*
X125773000Y-116653000D01*
X126027000Y-116653000D01*
X126027000Y-116673000D01*
X126751250Y-116673000D01*
X126801250Y-116623000D01*
X126973000Y-116623000D01*
X126973000Y-116603000D01*
X127227000Y-116603000D01*
X127227000Y-116623000D01*
X127247000Y-116623000D01*
X127247000Y-116877000D01*
X127227000Y-116877000D01*
X127227000Y-116897000D01*
X126973000Y-116897000D01*
X126973000Y-116877000D01*
X126248750Y-116877000D01*
X126198750Y-116927000D01*
X126027000Y-116927000D01*
X126027000Y-116947000D01*
X125773000Y-116947000D01*
X125773000Y-116927000D01*
X125048750Y-116927000D01*
X124890000Y-117085750D01*
X124886928Y-117400000D01*
X124899188Y-117524482D01*
X124935498Y-117644180D01*
X124947559Y-117666745D01*
X124653283Y-117246475D01*
X124571840Y-117151538D01*
X124473441Y-117074313D01*
X124361866Y-117017770D01*
X124241405Y-116984080D01*
X124116685Y-116974538D01*
X123992501Y-116989511D01*
X123873623Y-117028423D01*
X123764622Y-117089780D01*
X122781640Y-117778072D01*
X122753694Y-117802046D01*
X122740347Y-117761271D01*
X122678990Y-117652269D01*
X122311193Y-117127000D01*
X123000000Y-117127000D01*
X123025390Y-117124436D01*
X123049178Y-117117092D01*
X123071077Y-117105248D01*
X123090244Y-117089359D01*
X123105943Y-117070036D01*
X123117571Y-117048022D01*
X123124680Y-117024163D01*
X123126998Y-116999374D01*
X123124002Y-116391242D01*
X123236790Y-116466604D01*
X123414757Y-116540320D01*
X123603685Y-116577900D01*
X123796315Y-116577900D01*
X123985243Y-116540320D01*
X124163210Y-116466604D01*
X124300000Y-116375204D01*
X124436790Y-116466604D01*
G36*
X128647000Y-116727000D02*
G01*
X128627000Y-116727000D01*
X128627000Y-116747000D01*
X128373000Y-116747000D01*
X128373000Y-116727000D01*
X128353000Y-116727000D01*
X128353000Y-116632599D01*
X128647000Y-116632599D01*
X128647000Y-116727000D01*
G37*
X128647000Y-116727000D02*
X128627000Y-116727000D01*
X128627000Y-116747000D01*
X128373000Y-116747000D01*
X128373000Y-116727000D01*
X128353000Y-116727000D01*
X128353000Y-116632599D01*
X128647000Y-116632599D01*
X128647000Y-116727000D01*
M02*
