G04 #@! TF.GenerationSoftware,KiCad,Pcbnew,(5.1.6)-1*
G04 #@! TF.CreationDate,2020-05-23T09:23:12-05:00*
G04 #@! TF.ProjectId,nrf,6e72662e-6b69-4636-9164-5f7063625858,rev?*
G04 #@! TF.SameCoordinates,Original*
G04 #@! TF.FileFunction,Soldermask,Top*
G04 #@! TF.FilePolarity,Negative*
%FSLAX46Y46*%
G04 Gerber Fmt 4.6, Leading zero omitted, Abs format (unit mm)*
G04 Created by KiCad (PCBNEW (5.1.6)-1) date 2020-05-23 09:23:12*
%MOMM*%
%LPD*%
G01*
G04 APERTURE LIST*
%ADD10C,0.100000*%
G04 APERTURE END LIST*
D10*
G36*
X138900800Y-128050800D02*
G01*
X137899200Y-128050800D01*
X137899200Y-126749200D01*
X138900800Y-126749200D01*
X138900800Y-128050800D01*
G37*
G36*
X136900800Y-128050800D02*
G01*
X135899200Y-128050800D01*
X135899200Y-126749200D01*
X136900800Y-126749200D01*
X136900800Y-128050800D01*
G37*
G36*
X136900800Y-125850800D02*
G01*
X135899200Y-125850800D01*
X135899200Y-124549200D01*
X136900800Y-124549200D01*
X136900800Y-125850800D01*
G37*
G36*
X138900800Y-125850800D02*
G01*
X137899200Y-125850800D01*
X137899200Y-124549200D01*
X138900800Y-124549200D01*
X138900800Y-125850800D01*
G37*
G36*
X143850800Y-125375800D02*
G01*
X142549200Y-125375800D01*
X142549200Y-124524200D01*
X143850800Y-124524200D01*
X143850800Y-125375800D01*
G37*
G36*
X141950800Y-125375800D02*
G01*
X140649200Y-125375800D01*
X140649200Y-124524200D01*
X141950800Y-124524200D01*
X141950800Y-125375800D01*
G37*
G36*
X155365804Y-123912084D02*
G01*
X155365804Y-123912085D01*
X155035997Y-124383098D01*
X154447163Y-125224039D01*
X153299040Y-124420114D01*
X153299040Y-124420113D01*
X153816177Y-123681566D01*
X154123364Y-123896661D01*
X154144713Y-123908678D01*
X154168001Y-123916301D01*
X154192329Y-123919234D01*
X154216762Y-123917365D01*
X154240360Y-123910765D01*
X154262218Y-123899688D01*
X154281494Y-123884560D01*
X154297449Y-123865961D01*
X154627256Y-123394948D01*
X155365804Y-123912084D01*
G37*
G36*
X125702551Y-123865961D02*
G01*
X125718506Y-123884560D01*
X125737782Y-123899688D01*
X125759640Y-123910765D01*
X125783238Y-123917365D01*
X125807671Y-123919234D01*
X125831999Y-123916301D01*
X125855287Y-123908678D01*
X125876636Y-123896661D01*
X126183823Y-123681566D01*
X126700960Y-124420113D01*
X126700960Y-124420114D01*
X125552837Y-125224039D01*
X125012602Y-124452504D01*
X124964003Y-124383098D01*
X124634196Y-123912085D01*
X124634196Y-123912084D01*
X125372744Y-123394948D01*
X125702551Y-123865961D01*
G37*
G36*
X132200800Y-124350800D02*
G01*
X131199200Y-124350800D01*
X131199200Y-123049200D01*
X132200800Y-123049200D01*
X132200800Y-124350800D01*
G37*
G36*
X130800800Y-124350800D02*
G01*
X129799200Y-124350800D01*
X129799200Y-123049200D01*
X130800800Y-123049200D01*
X130800800Y-124350800D01*
G37*
G36*
X133600800Y-124350800D02*
G01*
X132599200Y-124350800D01*
X132599200Y-123049200D01*
X133600800Y-123049200D01*
X133600800Y-124350800D01*
G37*
G36*
X127298669Y-122048354D02*
G01*
X126232460Y-122794921D01*
X125485893Y-121728712D01*
X126552102Y-120982145D01*
X127298669Y-122048354D01*
G37*
G36*
X154514107Y-121728712D02*
G01*
X153767540Y-122794921D01*
X152701331Y-122048354D01*
X153447898Y-120982145D01*
X154514107Y-121728712D01*
G37*
G36*
X124805690Y-121460470D02*
G01*
X124896829Y-121498221D01*
X124896831Y-121498222D01*
X124978854Y-121553028D01*
X125048610Y-121622784D01*
X125103417Y-121704809D01*
X125141168Y-121795948D01*
X125160413Y-121892699D01*
X125160413Y-121991351D01*
X125141168Y-122088102D01*
X125103417Y-122179241D01*
X125103416Y-122179243D01*
X125048610Y-122261266D01*
X124978854Y-122331022D01*
X124896831Y-122385828D01*
X124896830Y-122385829D01*
X124896829Y-122385829D01*
X124805690Y-122423580D01*
X124708939Y-122442825D01*
X124610287Y-122442825D01*
X124513536Y-122423580D01*
X124422397Y-122385829D01*
X124422396Y-122385829D01*
X124422395Y-122385828D01*
X124340372Y-122331022D01*
X124270616Y-122261266D01*
X124215810Y-122179243D01*
X124215809Y-122179241D01*
X124178058Y-122088102D01*
X124158813Y-121991351D01*
X124158813Y-121892699D01*
X124178058Y-121795948D01*
X124215809Y-121704809D01*
X124270616Y-121622784D01*
X124340372Y-121553028D01*
X124422395Y-121498222D01*
X124422397Y-121498221D01*
X124513536Y-121460470D01*
X124610287Y-121441225D01*
X124708939Y-121441225D01*
X124805690Y-121460470D01*
G37*
G36*
X155486464Y-121460470D02*
G01*
X155577603Y-121498221D01*
X155577605Y-121498222D01*
X155659628Y-121553028D01*
X155729384Y-121622784D01*
X155784191Y-121704809D01*
X155821942Y-121795948D01*
X155841187Y-121892699D01*
X155841187Y-121991351D01*
X155821942Y-122088102D01*
X155784191Y-122179241D01*
X155784190Y-122179243D01*
X155729384Y-122261266D01*
X155659628Y-122331022D01*
X155577605Y-122385828D01*
X155577604Y-122385829D01*
X155577603Y-122385829D01*
X155486464Y-122423580D01*
X155389713Y-122442825D01*
X155291061Y-122442825D01*
X155194310Y-122423580D01*
X155103171Y-122385829D01*
X155103170Y-122385829D01*
X155103169Y-122385828D01*
X155021146Y-122331022D01*
X154951390Y-122261266D01*
X154896584Y-122179243D01*
X154896583Y-122179241D01*
X154858832Y-122088102D01*
X154839587Y-121991351D01*
X154839587Y-121892699D01*
X154858832Y-121795948D01*
X154896583Y-121704809D01*
X154951390Y-121622784D01*
X155021146Y-121553028D01*
X155103169Y-121498222D01*
X155103171Y-121498221D01*
X155194310Y-121460470D01*
X155291061Y-121441225D01*
X155389713Y-121441225D01*
X155486464Y-121460470D01*
G37*
G36*
X130800800Y-122150800D02*
G01*
X129799200Y-122150800D01*
X129799200Y-120849200D01*
X130800800Y-120849200D01*
X130800800Y-122150800D01*
G37*
G36*
X132200800Y-122150800D02*
G01*
X131199200Y-122150800D01*
X131199200Y-120849200D01*
X132200800Y-120849200D01*
X132200800Y-122150800D01*
G37*
G36*
X133600800Y-122150800D02*
G01*
X132599200Y-122150800D01*
X132599200Y-120849200D01*
X133600800Y-120849200D01*
X133600800Y-122150800D01*
G37*
G36*
X123486464Y-119576420D02*
G01*
X123577603Y-119614171D01*
X123577605Y-119614172D01*
X123659628Y-119668978D01*
X123729384Y-119738734D01*
X123784191Y-119820759D01*
X123821942Y-119911898D01*
X123841187Y-120008649D01*
X123841187Y-120107301D01*
X123821942Y-120204052D01*
X123784191Y-120295191D01*
X123784190Y-120295193D01*
X123729384Y-120377216D01*
X123659628Y-120446972D01*
X123577605Y-120501778D01*
X123577604Y-120501779D01*
X123577603Y-120501779D01*
X123486464Y-120539530D01*
X123389713Y-120558775D01*
X123291061Y-120558775D01*
X123194310Y-120539530D01*
X123103171Y-120501779D01*
X123103170Y-120501779D01*
X123103169Y-120501778D01*
X123021146Y-120446972D01*
X122951390Y-120377216D01*
X122896584Y-120295193D01*
X122896583Y-120295191D01*
X122858832Y-120204052D01*
X122839587Y-120107301D01*
X122839587Y-120008649D01*
X122858832Y-119911898D01*
X122896583Y-119820759D01*
X122951390Y-119738734D01*
X123021146Y-119668978D01*
X123103169Y-119614172D01*
X123103171Y-119614171D01*
X123194310Y-119576420D01*
X123291061Y-119557175D01*
X123389713Y-119557175D01*
X123486464Y-119576420D01*
G37*
G36*
X156805690Y-119576420D02*
G01*
X156896829Y-119614171D01*
X156896831Y-119614172D01*
X156978854Y-119668978D01*
X157048610Y-119738734D01*
X157103417Y-119820759D01*
X157141168Y-119911898D01*
X157160413Y-120008649D01*
X157160413Y-120107301D01*
X157141168Y-120204052D01*
X157103417Y-120295191D01*
X157103416Y-120295193D01*
X157048610Y-120377216D01*
X156978854Y-120446972D01*
X156896831Y-120501778D01*
X156896830Y-120501779D01*
X156896829Y-120501779D01*
X156805690Y-120539530D01*
X156708939Y-120558775D01*
X156610287Y-120558775D01*
X156513536Y-120539530D01*
X156422397Y-120501779D01*
X156422396Y-120501779D01*
X156422395Y-120501778D01*
X156340372Y-120446972D01*
X156270616Y-120377216D01*
X156215810Y-120295193D01*
X156215809Y-120295191D01*
X156178058Y-120204052D01*
X156158813Y-120107301D01*
X156158813Y-120008649D01*
X156178058Y-119911898D01*
X156215809Y-119820759D01*
X156270616Y-119738734D01*
X156340372Y-119668978D01*
X156422395Y-119614172D01*
X156422397Y-119614171D01*
X156513536Y-119576420D01*
X156610287Y-119557175D01*
X156708939Y-119557175D01*
X156805690Y-119576420D01*
G37*
G36*
X133650800Y-120500800D02*
G01*
X132749200Y-120500800D01*
X132749200Y-119499200D01*
X133650800Y-119499200D01*
X133650800Y-120500800D01*
G37*
G36*
X136950800Y-120500800D02*
G01*
X136049200Y-120500800D01*
X136049200Y-119499200D01*
X136950800Y-119499200D01*
X136950800Y-120500800D01*
G37*
G36*
X130350800Y-120500800D02*
G01*
X129449200Y-120500800D01*
X129449200Y-119499200D01*
X130350800Y-119499200D01*
X130350800Y-120500800D01*
G37*
G36*
X121884647Y-117541707D02*
G01*
X122227063Y-118030727D01*
X122227063Y-118030728D01*
X121919880Y-118245820D01*
X121901281Y-118261775D01*
X121886153Y-118281051D01*
X121875076Y-118302909D01*
X121868476Y-118326507D01*
X121866607Y-118350940D01*
X121869540Y-118375268D01*
X121877163Y-118398556D01*
X121889178Y-118419901D01*
X122218991Y-118890923D01*
X121480443Y-119408059D01*
X121028737Y-118762956D01*
X120561802Y-118096105D01*
X121709926Y-117292179D01*
X121884647Y-117541707D01*
G37*
G36*
X159438197Y-118096104D02*
G01*
X159438197Y-118096105D01*
X158519557Y-119408059D01*
X158519556Y-119408059D01*
X158304120Y-119257209D01*
X157781009Y-118890923D01*
X158110822Y-118419901D01*
X158122837Y-118398556D01*
X158130460Y-118375268D01*
X158133393Y-118350940D01*
X158131524Y-118326507D01*
X158124924Y-118302909D01*
X158113847Y-118281051D01*
X158098719Y-118261775D01*
X158080120Y-118245820D01*
X157772937Y-118030728D01*
X157772937Y-118030727D01*
X158115353Y-117541707D01*
X158290074Y-117292179D01*
X159438197Y-118096104D01*
G37*
G36*
X124889648Y-118607916D02*
G01*
X123823439Y-119354483D01*
X123076872Y-118288274D01*
X124143081Y-117541707D01*
X124889648Y-118607916D01*
G37*
G36*
X156923128Y-118288274D02*
G01*
X156176561Y-119354483D01*
X155110352Y-118607916D01*
X155856919Y-117541707D01*
X156923128Y-118288274D01*
G37*
G36*
X126325800Y-119350800D02*
G01*
X125474200Y-119350800D01*
X125474200Y-118049200D01*
X126325800Y-118049200D01*
X126325800Y-119350800D01*
G37*
G36*
X127525800Y-119300800D02*
G01*
X126674200Y-119300800D01*
X126674200Y-117999200D01*
X127525800Y-117999200D01*
X127525800Y-119300800D01*
G37*
G36*
X147659809Y-117351962D02*
G01*
X147680872Y-117358352D01*
X147700289Y-117368730D01*
X147717305Y-117382695D01*
X147731270Y-117399711D01*
X147741648Y-117419128D01*
X147748038Y-117440191D01*
X147750800Y-117468240D01*
X147750800Y-118531760D01*
X147748038Y-118559809D01*
X147741648Y-118580872D01*
X147731270Y-118600289D01*
X147717305Y-118617305D01*
X147700289Y-118631270D01*
X147680872Y-118641648D01*
X147659809Y-118648038D01*
X147631760Y-118650800D01*
X147168240Y-118650800D01*
X147140191Y-118648038D01*
X147119128Y-118641648D01*
X147099711Y-118631270D01*
X147082695Y-118617305D01*
X147068730Y-118600289D01*
X147058352Y-118580872D01*
X147051962Y-118559809D01*
X147049200Y-118531760D01*
X147049200Y-117468240D01*
X147051962Y-117440191D01*
X147058352Y-117419128D01*
X147068730Y-117399711D01*
X147082695Y-117382695D01*
X147099711Y-117368730D01*
X147119128Y-117358352D01*
X147140191Y-117351962D01*
X147168240Y-117349200D01*
X147631760Y-117349200D01*
X147659809Y-117351962D01*
G37*
G36*
X148859809Y-117351962D02*
G01*
X148880872Y-117358352D01*
X148900289Y-117368730D01*
X148917305Y-117382695D01*
X148931270Y-117399711D01*
X148941648Y-117419128D01*
X148948038Y-117440191D01*
X148950800Y-117468240D01*
X148950800Y-118531760D01*
X148948038Y-118559809D01*
X148941648Y-118580872D01*
X148931270Y-118600289D01*
X148917305Y-118617305D01*
X148900289Y-118631270D01*
X148880872Y-118641648D01*
X148859809Y-118648038D01*
X148831760Y-118650800D01*
X148368240Y-118650800D01*
X148340191Y-118648038D01*
X148319128Y-118641648D01*
X148299711Y-118631270D01*
X148282695Y-118617305D01*
X148268730Y-118600289D01*
X148258352Y-118580872D01*
X148251962Y-118559809D01*
X148249200Y-118531760D01*
X148249200Y-117468240D01*
X148251962Y-117440191D01*
X148258352Y-117419128D01*
X148268730Y-117399711D01*
X148282695Y-117382695D01*
X148299711Y-117368730D01*
X148319128Y-117358352D01*
X148340191Y-117351962D01*
X148368240Y-117349200D01*
X148831760Y-117349200D01*
X148859809Y-117351962D01*
G37*
G36*
X136000800Y-118500800D02*
G01*
X135099200Y-118500800D01*
X135099200Y-117499200D01*
X136000800Y-117499200D01*
X136000800Y-118500800D01*
G37*
G36*
X137900800Y-118500800D02*
G01*
X136999200Y-118500800D01*
X136999200Y-117499200D01*
X137900800Y-117499200D01*
X137900800Y-118500800D01*
G37*
G36*
X134600800Y-118500800D02*
G01*
X133699200Y-118500800D01*
X133699200Y-117499200D01*
X134600800Y-117499200D01*
X134600800Y-118500800D01*
G37*
G36*
X129400800Y-118500800D02*
G01*
X128499200Y-118500800D01*
X128499200Y-117499200D01*
X129400800Y-117499200D01*
X129400800Y-118500800D01*
G37*
G36*
X132700800Y-118500800D02*
G01*
X131799200Y-118500800D01*
X131799200Y-117499200D01*
X132700800Y-117499200D01*
X132700800Y-118500800D01*
G37*
G36*
X131300800Y-118500800D02*
G01*
X130399200Y-118500800D01*
X130399200Y-117499200D01*
X131300800Y-117499200D01*
X131300800Y-118500800D01*
G37*
G36*
X145200800Y-118150800D02*
G01*
X144199200Y-118150800D01*
X144199200Y-116849200D01*
X145200800Y-116849200D01*
X145200800Y-118150800D01*
G37*
G36*
X146500800Y-117500800D02*
G01*
X145499200Y-117500800D01*
X145499200Y-116599200D01*
X146500800Y-116599200D01*
X146500800Y-117500800D01*
G37*
G36*
X126325800Y-117450800D02*
G01*
X125474200Y-117450800D01*
X125474200Y-116149200D01*
X126325800Y-116149200D01*
X126325800Y-117450800D01*
G37*
G36*
X127525800Y-117400800D02*
G01*
X126674200Y-117400800D01*
X126674200Y-116099200D01*
X127525800Y-116099200D01*
X127525800Y-117400800D01*
G37*
G36*
X140325800Y-117200800D02*
G01*
X139474200Y-117200800D01*
X139474200Y-115899200D01*
X140325800Y-115899200D01*
X140325800Y-117200800D01*
G37*
G36*
X132950800Y-117100800D02*
G01*
X131649200Y-117100800D01*
X131649200Y-116099200D01*
X132950800Y-116099200D01*
X132950800Y-117100800D01*
G37*
G36*
X135150800Y-117100800D02*
G01*
X133849200Y-117100800D01*
X133849200Y-116099200D01*
X135150800Y-116099200D01*
X135150800Y-117100800D01*
G37*
G36*
X136750800Y-117100800D02*
G01*
X135449200Y-117100800D01*
X135449200Y-116099200D01*
X136750800Y-116099200D01*
X136750800Y-117100800D01*
G37*
G36*
X129150800Y-117100800D02*
G01*
X127849200Y-117100800D01*
X127849200Y-116099200D01*
X129150800Y-116099200D01*
X129150800Y-117100800D01*
G37*
G36*
X131350800Y-117100800D02*
G01*
X130049200Y-117100800D01*
X130049200Y-116099200D01*
X131350800Y-116099200D01*
X131350800Y-117100800D01*
G37*
G36*
X138950800Y-117100800D02*
G01*
X137649200Y-117100800D01*
X137649200Y-116099200D01*
X138950800Y-116099200D01*
X138950800Y-117100800D01*
G37*
G36*
X142700800Y-116600800D02*
G01*
X140799200Y-116600800D01*
X140799200Y-114749200D01*
X142700800Y-114749200D01*
X142700800Y-116600800D01*
G37*
G36*
X148500800Y-116550800D02*
G01*
X147499200Y-116550800D01*
X147499200Y-115649200D01*
X148500800Y-115649200D01*
X148500800Y-116550800D01*
G37*
G36*
X145200800Y-115950800D02*
G01*
X144199200Y-115950800D01*
X144199200Y-114649200D01*
X145200800Y-114649200D01*
X145200800Y-115950800D01*
G37*
G36*
X146500800Y-115600800D02*
G01*
X145499200Y-115600800D01*
X145499200Y-114699200D01*
X146500800Y-114699200D01*
X146500800Y-115600800D01*
G37*
G36*
X140325800Y-115300800D02*
G01*
X139474200Y-115300800D01*
X139474200Y-113999200D01*
X140325800Y-113999200D01*
X140325800Y-115300800D01*
G37*
G36*
X147500800Y-115175800D02*
G01*
X146799200Y-115175800D01*
X146799200Y-114624200D01*
X147500800Y-114624200D01*
X147500800Y-115175800D01*
G37*
G36*
X149600800Y-115175800D02*
G01*
X148899200Y-115175800D01*
X148899200Y-114624200D01*
X149600800Y-114624200D01*
X149600800Y-115175800D01*
G37*
G36*
X135000800Y-115050800D02*
G01*
X134299200Y-115050800D01*
X134299200Y-114549200D01*
X135000800Y-114549200D01*
X135000800Y-115050800D01*
G37*
G36*
X125900800Y-115000800D02*
G01*
X125399200Y-115000800D01*
X125399200Y-114299200D01*
X125900800Y-114299200D01*
X125900800Y-115000800D01*
G37*
G36*
X125100800Y-115000800D02*
G01*
X124599200Y-115000800D01*
X124599200Y-114299200D01*
X125100800Y-114299200D01*
X125100800Y-115000800D01*
G37*
G36*
X124000800Y-115000800D02*
G01*
X123499200Y-115000800D01*
X123499200Y-114299200D01*
X124000800Y-114299200D01*
X124000800Y-115000800D01*
G37*
G36*
X127900800Y-114174201D02*
G01*
X127903202Y-114198587D01*
X127910315Y-114222036D01*
X127921866Y-114243647D01*
X127937411Y-114262589D01*
X127956353Y-114278134D01*
X127977964Y-114289685D01*
X128001413Y-114296798D01*
X128025799Y-114299200D01*
X128074201Y-114299200D01*
X128098587Y-114296798D01*
X128122036Y-114289685D01*
X128143647Y-114278134D01*
X128162589Y-114262589D01*
X128178134Y-114243647D01*
X128189685Y-114222036D01*
X128196798Y-114198587D01*
X128199200Y-114174201D01*
X128199200Y-113399200D01*
X128700800Y-113399200D01*
X128700800Y-114174201D01*
X128703202Y-114198587D01*
X128710315Y-114222036D01*
X128721866Y-114243647D01*
X128737411Y-114262589D01*
X128756353Y-114278134D01*
X128777964Y-114289685D01*
X128801413Y-114296798D01*
X128825799Y-114299200D01*
X128874201Y-114299200D01*
X128898587Y-114296798D01*
X128922036Y-114289685D01*
X128943647Y-114278134D01*
X128962589Y-114262589D01*
X128978134Y-114243647D01*
X128989685Y-114222036D01*
X128996798Y-114198587D01*
X128999200Y-114174201D01*
X128999200Y-113399200D01*
X129500800Y-113399200D01*
X129500800Y-114174201D01*
X129503202Y-114198587D01*
X129510315Y-114222036D01*
X129521866Y-114243647D01*
X129537411Y-114262589D01*
X129556353Y-114278134D01*
X129577964Y-114289685D01*
X129601413Y-114296798D01*
X129625799Y-114299200D01*
X129674201Y-114299200D01*
X129698587Y-114296798D01*
X129722036Y-114289685D01*
X129743647Y-114278134D01*
X129762589Y-114262589D01*
X129778134Y-114243647D01*
X129789685Y-114222036D01*
X129796798Y-114198587D01*
X129799200Y-114174201D01*
X129799200Y-113399200D01*
X130300800Y-113399200D01*
X130300800Y-114174201D01*
X130303202Y-114198587D01*
X130310315Y-114222036D01*
X130321866Y-114243647D01*
X130337411Y-114262589D01*
X130356353Y-114278134D01*
X130377964Y-114289685D01*
X130401413Y-114296798D01*
X130425799Y-114299200D01*
X130474201Y-114299200D01*
X130498587Y-114296798D01*
X130522036Y-114289685D01*
X130543647Y-114278134D01*
X130562589Y-114262589D01*
X130578134Y-114243647D01*
X130589685Y-114222036D01*
X130596798Y-114198587D01*
X130599200Y-114174201D01*
X130599200Y-113399200D01*
X131100800Y-113399200D01*
X131100800Y-114174201D01*
X131103202Y-114198587D01*
X131110315Y-114222036D01*
X131121866Y-114243647D01*
X131137411Y-114262589D01*
X131156353Y-114278134D01*
X131177964Y-114289685D01*
X131201413Y-114296798D01*
X131225799Y-114299200D01*
X131500800Y-114299200D01*
X131500800Y-115000800D01*
X130999200Y-115000800D01*
X130999200Y-114225799D01*
X130996798Y-114201413D01*
X130989685Y-114177964D01*
X130978134Y-114156353D01*
X130962589Y-114137411D01*
X130943647Y-114121866D01*
X130922036Y-114110315D01*
X130898587Y-114103202D01*
X130874201Y-114100800D01*
X130825799Y-114100800D01*
X130801413Y-114103202D01*
X130777964Y-114110315D01*
X130756353Y-114121866D01*
X130737411Y-114137411D01*
X130721866Y-114156353D01*
X130710315Y-114177964D01*
X130703202Y-114201413D01*
X130700800Y-114225799D01*
X130700800Y-115000800D01*
X130199200Y-115000800D01*
X130199200Y-114225799D01*
X130196798Y-114201413D01*
X130189685Y-114177964D01*
X130178134Y-114156353D01*
X130162589Y-114137411D01*
X130143647Y-114121866D01*
X130122036Y-114110315D01*
X130098587Y-114103202D01*
X130074201Y-114100800D01*
X130025799Y-114100800D01*
X130001413Y-114103202D01*
X129977964Y-114110315D01*
X129956353Y-114121866D01*
X129937411Y-114137411D01*
X129921866Y-114156353D01*
X129910315Y-114177964D01*
X129903202Y-114201413D01*
X129900800Y-114225799D01*
X129900800Y-115000800D01*
X129399200Y-115000800D01*
X129399200Y-114225799D01*
X129396798Y-114201413D01*
X129389685Y-114177964D01*
X129378134Y-114156353D01*
X129362589Y-114137411D01*
X129343647Y-114121866D01*
X129322036Y-114110315D01*
X129298587Y-114103202D01*
X129274201Y-114100800D01*
X129225799Y-114100800D01*
X129201413Y-114103202D01*
X129177964Y-114110315D01*
X129156353Y-114121866D01*
X129137411Y-114137411D01*
X129121866Y-114156353D01*
X129110315Y-114177964D01*
X129103202Y-114201413D01*
X129100800Y-114225799D01*
X129100800Y-115000800D01*
X128599200Y-115000800D01*
X128599200Y-114225799D01*
X128596798Y-114201413D01*
X128589685Y-114177964D01*
X128578134Y-114156353D01*
X128562589Y-114137411D01*
X128543647Y-114121866D01*
X128522036Y-114110315D01*
X128498587Y-114103202D01*
X128474201Y-114100800D01*
X128425799Y-114100800D01*
X128401413Y-114103202D01*
X128377964Y-114110315D01*
X128356353Y-114121866D01*
X128337411Y-114137411D01*
X128321866Y-114156353D01*
X128310315Y-114177964D01*
X128303202Y-114201413D01*
X128300800Y-114225799D01*
X128300800Y-115000800D01*
X127799200Y-115000800D01*
X127799200Y-114225799D01*
X127796798Y-114201413D01*
X127789685Y-114177964D01*
X127778134Y-114156353D01*
X127762589Y-114137411D01*
X127743647Y-114121866D01*
X127722036Y-114110315D01*
X127698587Y-114103202D01*
X127674201Y-114100800D01*
X127625799Y-114100800D01*
X127601413Y-114103202D01*
X127577964Y-114110315D01*
X127556353Y-114121866D01*
X127537411Y-114137411D01*
X127521866Y-114156353D01*
X127510315Y-114177964D01*
X127503202Y-114201413D01*
X127500800Y-114225799D01*
X127500800Y-115000800D01*
X126999200Y-115000800D01*
X126999200Y-114299200D01*
X127274201Y-114299200D01*
X127298587Y-114296798D01*
X127322036Y-114289685D01*
X127343647Y-114278134D01*
X127362589Y-114262589D01*
X127378134Y-114243647D01*
X127389685Y-114222036D01*
X127396798Y-114198587D01*
X127399200Y-114174201D01*
X127399200Y-113399200D01*
X127900800Y-113399200D01*
X127900800Y-114174201D01*
G37*
G36*
X160650800Y-114350800D02*
G01*
X159249200Y-114350800D01*
X159249200Y-113449200D01*
X159624201Y-113449200D01*
X159648587Y-113446798D01*
X159672036Y-113439685D01*
X159693647Y-113428134D01*
X159712589Y-113412589D01*
X159728134Y-113393647D01*
X159739685Y-113372036D01*
X159746798Y-113348587D01*
X159749200Y-113324201D01*
X159749200Y-112749200D01*
X160650800Y-112749200D01*
X160650800Y-114350800D01*
G37*
G36*
X145550800Y-114300800D02*
G01*
X144249200Y-114300800D01*
X144249200Y-113299200D01*
X145550800Y-113299200D01*
X145550800Y-114300800D01*
G37*
G36*
X147750800Y-114300800D02*
G01*
X146449200Y-114300800D01*
X146449200Y-113299200D01*
X147750800Y-113299200D01*
X147750800Y-114300800D01*
G37*
G36*
X135000800Y-114250800D02*
G01*
X134299200Y-114250800D01*
X134299200Y-113749200D01*
X135000800Y-113749200D01*
X135000800Y-114250800D01*
G37*
G36*
X140275800Y-113650800D02*
G01*
X139424200Y-113650800D01*
X139424200Y-112349200D01*
X140275800Y-112349200D01*
X140275800Y-113650800D01*
G37*
G36*
X135000800Y-113450800D02*
G01*
X134299200Y-113450800D01*
X134299200Y-112949200D01*
X135000800Y-112949200D01*
X135000800Y-113450800D01*
G37*
G36*
X142700800Y-113350800D02*
G01*
X140799200Y-113350800D01*
X140799200Y-111499200D01*
X142700800Y-111499200D01*
X142700800Y-113350800D01*
G37*
G36*
X158700800Y-112750800D02*
G01*
X157399200Y-112750800D01*
X157399200Y-111449200D01*
X158700800Y-111449200D01*
X158700800Y-112750800D01*
G37*
G36*
X135000800Y-107850800D02*
G01*
X134225799Y-107850800D01*
X134201413Y-107853202D01*
X134177964Y-107860315D01*
X134156353Y-107871866D01*
X134137411Y-107887411D01*
X134121866Y-107906353D01*
X134110315Y-107927964D01*
X134103202Y-107951413D01*
X134100800Y-107975799D01*
X134100800Y-108024201D01*
X134103202Y-108048587D01*
X134110315Y-108072036D01*
X134121866Y-108093647D01*
X134137411Y-108112589D01*
X134156353Y-108128134D01*
X134177964Y-108139685D01*
X134201413Y-108146798D01*
X134225799Y-108149200D01*
X135000800Y-108149200D01*
X135000800Y-108650800D01*
X134225799Y-108650800D01*
X134201413Y-108653202D01*
X134177964Y-108660315D01*
X134156353Y-108671866D01*
X134137411Y-108687411D01*
X134121866Y-108706353D01*
X134110315Y-108727964D01*
X134103202Y-108751413D01*
X134100800Y-108775799D01*
X134100800Y-108824201D01*
X134103202Y-108848587D01*
X134110315Y-108872036D01*
X134121866Y-108893647D01*
X134137411Y-108912589D01*
X134156353Y-108928134D01*
X134177964Y-108939685D01*
X134201413Y-108946798D01*
X134225799Y-108949200D01*
X135000800Y-108949200D01*
X135000800Y-109450800D01*
X134225799Y-109450800D01*
X134201413Y-109453202D01*
X134177964Y-109460315D01*
X134156353Y-109471866D01*
X134137411Y-109487411D01*
X134121866Y-109506353D01*
X134110315Y-109527964D01*
X134103202Y-109551413D01*
X134100800Y-109575799D01*
X134100800Y-109624201D01*
X134103202Y-109648587D01*
X134110315Y-109672036D01*
X134121866Y-109693647D01*
X134137411Y-109712589D01*
X134156353Y-109728134D01*
X134177964Y-109739685D01*
X134201413Y-109746798D01*
X134225799Y-109749200D01*
X135000800Y-109749200D01*
X135000800Y-110250800D01*
X134225799Y-110250800D01*
X134201413Y-110253202D01*
X134177964Y-110260315D01*
X134156353Y-110271866D01*
X134137411Y-110287411D01*
X134121866Y-110306353D01*
X134110315Y-110327964D01*
X134103202Y-110351413D01*
X134100800Y-110375799D01*
X134100800Y-110424201D01*
X134103202Y-110448587D01*
X134110315Y-110472036D01*
X134121866Y-110493647D01*
X134137411Y-110512589D01*
X134156353Y-110528134D01*
X134177964Y-110539685D01*
X134201413Y-110546798D01*
X134225799Y-110549200D01*
X135000800Y-110549200D01*
X135000800Y-111050800D01*
X134225799Y-111050800D01*
X134201413Y-111053202D01*
X134177964Y-111060315D01*
X134156353Y-111071866D01*
X134137411Y-111087411D01*
X134121866Y-111106353D01*
X134110315Y-111127964D01*
X134103202Y-111151413D01*
X134100800Y-111175799D01*
X134100800Y-111224201D01*
X134103202Y-111248587D01*
X134110315Y-111272036D01*
X134121866Y-111293647D01*
X134137411Y-111312589D01*
X134156353Y-111328134D01*
X134177964Y-111339685D01*
X134201413Y-111346798D01*
X134225799Y-111349200D01*
X135000800Y-111349200D01*
X135000800Y-111850800D01*
X134225799Y-111850800D01*
X134201413Y-111853202D01*
X134177964Y-111860315D01*
X134156353Y-111871866D01*
X134137411Y-111887411D01*
X134121866Y-111906353D01*
X134110315Y-111927964D01*
X134103202Y-111951413D01*
X134100800Y-111975799D01*
X134100800Y-112024201D01*
X134103202Y-112048587D01*
X134110315Y-112072036D01*
X134121866Y-112093647D01*
X134137411Y-112112589D01*
X134156353Y-112128134D01*
X134177964Y-112139685D01*
X134201413Y-112146798D01*
X134225799Y-112149200D01*
X135000800Y-112149200D01*
X135000800Y-112650800D01*
X134299200Y-112650800D01*
X134299200Y-112375799D01*
X134296798Y-112351413D01*
X134289685Y-112327964D01*
X134278134Y-112306353D01*
X134262589Y-112287411D01*
X134243647Y-112271866D01*
X134222036Y-112260315D01*
X134198587Y-112253202D01*
X134174201Y-112250800D01*
X133399200Y-112250800D01*
X133399200Y-111749200D01*
X134174201Y-111749200D01*
X134198587Y-111746798D01*
X134222036Y-111739685D01*
X134243647Y-111728134D01*
X134262589Y-111712589D01*
X134278134Y-111693647D01*
X134289685Y-111672036D01*
X134296798Y-111648587D01*
X134299200Y-111624201D01*
X134299200Y-111575799D01*
X134296798Y-111551413D01*
X134289685Y-111527964D01*
X134278134Y-111506353D01*
X134262589Y-111487411D01*
X134243647Y-111471866D01*
X134222036Y-111460315D01*
X134198587Y-111453202D01*
X134174201Y-111450800D01*
X133399200Y-111450800D01*
X133399200Y-110949200D01*
X134174201Y-110949200D01*
X134198587Y-110946798D01*
X134222036Y-110939685D01*
X134243647Y-110928134D01*
X134262589Y-110912589D01*
X134278134Y-110893647D01*
X134289685Y-110872036D01*
X134296798Y-110848587D01*
X134299200Y-110824201D01*
X134299200Y-110775799D01*
X134296798Y-110751413D01*
X134289685Y-110727964D01*
X134278134Y-110706353D01*
X134262589Y-110687411D01*
X134243647Y-110671866D01*
X134222036Y-110660315D01*
X134198587Y-110653202D01*
X134174201Y-110650800D01*
X133399200Y-110650800D01*
X133399200Y-110149200D01*
X134174201Y-110149200D01*
X134198587Y-110146798D01*
X134222036Y-110139685D01*
X134243647Y-110128134D01*
X134262589Y-110112589D01*
X134278134Y-110093647D01*
X134289685Y-110072036D01*
X134296798Y-110048587D01*
X134299200Y-110024201D01*
X134299200Y-109975799D01*
X134296798Y-109951413D01*
X134289685Y-109927964D01*
X134278134Y-109906353D01*
X134262589Y-109887411D01*
X134243647Y-109871866D01*
X134222036Y-109860315D01*
X134198587Y-109853202D01*
X134174201Y-109850800D01*
X133399200Y-109850800D01*
X133399200Y-109349200D01*
X134174201Y-109349200D01*
X134198587Y-109346798D01*
X134222036Y-109339685D01*
X134243647Y-109328134D01*
X134262589Y-109312589D01*
X134278134Y-109293647D01*
X134289685Y-109272036D01*
X134296798Y-109248587D01*
X134299200Y-109224201D01*
X134299200Y-109175799D01*
X134296798Y-109151413D01*
X134289685Y-109127964D01*
X134278134Y-109106353D01*
X134262589Y-109087411D01*
X134243647Y-109071866D01*
X134222036Y-109060315D01*
X134198587Y-109053202D01*
X134174201Y-109050800D01*
X133399200Y-109050800D01*
X133399200Y-108549200D01*
X134174201Y-108549200D01*
X134198587Y-108546798D01*
X134222036Y-108539685D01*
X134243647Y-108528134D01*
X134262589Y-108512589D01*
X134278134Y-108493647D01*
X134289685Y-108472036D01*
X134296798Y-108448587D01*
X134299200Y-108424201D01*
X134299200Y-108375799D01*
X134296798Y-108351413D01*
X134289685Y-108327964D01*
X134278134Y-108306353D01*
X134262589Y-108287411D01*
X134243647Y-108271866D01*
X134222036Y-108260315D01*
X134198587Y-108253202D01*
X134174201Y-108250800D01*
X133399200Y-108250800D01*
X133399200Y-107749200D01*
X134174201Y-107749200D01*
X134198587Y-107746798D01*
X134222036Y-107739685D01*
X134243647Y-107728134D01*
X134262589Y-107712589D01*
X134278134Y-107693647D01*
X134289685Y-107672036D01*
X134296798Y-107648587D01*
X134299200Y-107624201D01*
X134299200Y-107349200D01*
X135000800Y-107349200D01*
X135000800Y-107850800D01*
G37*
G36*
X128400800Y-112250800D02*
G01*
X127699200Y-112250800D01*
X127699200Y-111749200D01*
X128400800Y-111749200D01*
X128400800Y-112250800D01*
G37*
G36*
X140275800Y-111750800D02*
G01*
X139424200Y-111750800D01*
X139424200Y-110449200D01*
X140275800Y-110449200D01*
X140275800Y-111750800D01*
G37*
G36*
X159646077Y-110668445D02*
G01*
X159737216Y-110706196D01*
X159737218Y-110706197D01*
X159819241Y-110761003D01*
X159888997Y-110830759D01*
X159943804Y-110912784D01*
X159981555Y-111003923D01*
X160000800Y-111100674D01*
X160000800Y-111199326D01*
X159981555Y-111296077D01*
X159943804Y-111387216D01*
X159943803Y-111387218D01*
X159888997Y-111469241D01*
X159819241Y-111538997D01*
X159737218Y-111593803D01*
X159737217Y-111593804D01*
X159737216Y-111593804D01*
X159646077Y-111631555D01*
X159549326Y-111650800D01*
X159450674Y-111650800D01*
X159353923Y-111631555D01*
X159262784Y-111593804D01*
X159262783Y-111593804D01*
X159262782Y-111593803D01*
X159180759Y-111538997D01*
X159111003Y-111469241D01*
X159056197Y-111387218D01*
X159056196Y-111387216D01*
X159018445Y-111296077D01*
X158999200Y-111199326D01*
X158999200Y-111100674D01*
X159018445Y-111003923D01*
X159056196Y-110912784D01*
X159111003Y-110830759D01*
X159180759Y-110761003D01*
X159262782Y-110706197D01*
X159262784Y-110706196D01*
X159353923Y-110668445D01*
X159450674Y-110649200D01*
X159549326Y-110649200D01*
X159646077Y-110668445D01*
G37*
G36*
X128400800Y-111450800D02*
G01*
X127699200Y-111450800D01*
X127699200Y-110949200D01*
X128400800Y-110949200D01*
X128400800Y-111450800D01*
G37*
G36*
X128400800Y-110650800D02*
G01*
X127699200Y-110650800D01*
X127699200Y-110149200D01*
X128400800Y-110149200D01*
X128400800Y-110650800D01*
G37*
G36*
X145450800Y-110550800D02*
G01*
X144149200Y-110550800D01*
X144149200Y-109549200D01*
X145450800Y-109549200D01*
X145450800Y-110550800D01*
G37*
G36*
X143250800Y-110550800D02*
G01*
X141949200Y-110550800D01*
X141949200Y-109549200D01*
X143250800Y-109549200D01*
X143250800Y-110550800D01*
G37*
G36*
X128400800Y-109850800D02*
G01*
X127699200Y-109850800D01*
X127699200Y-109349200D01*
X128400800Y-109349200D01*
X128400800Y-109850800D01*
G37*
G36*
X159646077Y-108368445D02*
G01*
X159737216Y-108406196D01*
X159737218Y-108406197D01*
X159764163Y-108424201D01*
X159819241Y-108461003D01*
X159888997Y-108530759D01*
X159943804Y-108612784D01*
X159981555Y-108703923D01*
X160000800Y-108800674D01*
X160000800Y-108899326D01*
X159981555Y-108996077D01*
X159950162Y-109071866D01*
X159943803Y-109087218D01*
X159888997Y-109169241D01*
X159819241Y-109238997D01*
X159737218Y-109293803D01*
X159737217Y-109293804D01*
X159737216Y-109293804D01*
X159646077Y-109331555D01*
X159549326Y-109350800D01*
X159450674Y-109350800D01*
X159353923Y-109331555D01*
X159262784Y-109293804D01*
X159262783Y-109293804D01*
X159262782Y-109293803D01*
X159180759Y-109238997D01*
X159111003Y-109169241D01*
X159056197Y-109087218D01*
X159049838Y-109071866D01*
X159018445Y-108996077D01*
X158999200Y-108899326D01*
X158999200Y-108800674D01*
X159018445Y-108703923D01*
X159056196Y-108612784D01*
X159111003Y-108530759D01*
X159180759Y-108461003D01*
X159235837Y-108424201D01*
X159262782Y-108406197D01*
X159262784Y-108406196D01*
X159353923Y-108368445D01*
X159450674Y-108349200D01*
X159549326Y-108349200D01*
X159646077Y-108368445D01*
G37*
G36*
X145450800Y-109225800D02*
G01*
X144149200Y-109225800D01*
X144149200Y-108374200D01*
X145450800Y-108374200D01*
X145450800Y-109225800D01*
G37*
G36*
X143550800Y-109225800D02*
G01*
X142249200Y-109225800D01*
X142249200Y-108374200D01*
X143550800Y-108374200D01*
X143550800Y-109225800D01*
G37*
G36*
X128400800Y-109050800D02*
G01*
X127699200Y-109050800D01*
X127699200Y-108549200D01*
X128400800Y-108549200D01*
X128400800Y-109050800D01*
G37*
G36*
X158700800Y-108550800D02*
G01*
X157399200Y-108550800D01*
X157399200Y-107249200D01*
X158700800Y-107249200D01*
X158700800Y-108550800D01*
G37*
G36*
X128400800Y-108250800D02*
G01*
X127699200Y-108250800D01*
X127699200Y-107749200D01*
X128400800Y-107749200D01*
X128400800Y-108250800D01*
G37*
G36*
X139100800Y-108025800D02*
G01*
X137799200Y-108025800D01*
X137799200Y-107174200D01*
X139100800Y-107174200D01*
X139100800Y-108025800D01*
G37*
G36*
X137200800Y-108025800D02*
G01*
X135899200Y-108025800D01*
X135899200Y-107174200D01*
X137200800Y-107174200D01*
X137200800Y-108025800D01*
G37*
G36*
X144800800Y-105524201D02*
G01*
X144803202Y-105548587D01*
X144810315Y-105572036D01*
X144821866Y-105593647D01*
X144837411Y-105612589D01*
X144856353Y-105628134D01*
X144877964Y-105639685D01*
X144901413Y-105646798D01*
X144925799Y-105649200D01*
X145274201Y-105649200D01*
X145298587Y-105646798D01*
X145322036Y-105639685D01*
X145343647Y-105628134D01*
X145362589Y-105612589D01*
X145378134Y-105593647D01*
X145389685Y-105572036D01*
X145396798Y-105548587D01*
X145399200Y-105524201D01*
X145399200Y-104574200D01*
X146700800Y-104574200D01*
X146700800Y-105425800D01*
X145675799Y-105425800D01*
X145651413Y-105428202D01*
X145627964Y-105435315D01*
X145606353Y-105446866D01*
X145587411Y-105462411D01*
X145571866Y-105481353D01*
X145560315Y-105502964D01*
X145553202Y-105526413D01*
X145550800Y-105550799D01*
X145550800Y-106074201D01*
X145553202Y-106098587D01*
X145560315Y-106122036D01*
X145571866Y-106143647D01*
X145587411Y-106162589D01*
X145600800Y-106173577D01*
X145600800Y-107126423D01*
X145587411Y-107137411D01*
X145571866Y-107156353D01*
X145560315Y-107177964D01*
X145553202Y-107201413D01*
X145550800Y-107225799D01*
X145550800Y-107650800D01*
X143649200Y-107650800D01*
X143649200Y-107225799D01*
X143646798Y-107201413D01*
X143639685Y-107177964D01*
X143628134Y-107156353D01*
X143612589Y-107137411D01*
X143599200Y-107126423D01*
X143599200Y-106225799D01*
X144050800Y-106225799D01*
X144050800Y-107074201D01*
X144053202Y-107098587D01*
X144060315Y-107122036D01*
X144071866Y-107143647D01*
X144087411Y-107162589D01*
X144106353Y-107178134D01*
X144127964Y-107189685D01*
X144151413Y-107196798D01*
X144175799Y-107199200D01*
X145024201Y-107199200D01*
X145048587Y-107196798D01*
X145072036Y-107189685D01*
X145093647Y-107178134D01*
X145112589Y-107162589D01*
X145128134Y-107143647D01*
X145139685Y-107122036D01*
X145146798Y-107098587D01*
X145149200Y-107074201D01*
X145149200Y-106225799D01*
X145146798Y-106201413D01*
X145139685Y-106177964D01*
X145128134Y-106156353D01*
X145112589Y-106137411D01*
X145093647Y-106121866D01*
X145072036Y-106110315D01*
X145048587Y-106103202D01*
X145024201Y-106100800D01*
X144175799Y-106100800D01*
X144151413Y-106103202D01*
X144127964Y-106110315D01*
X144106353Y-106121866D01*
X144087411Y-106137411D01*
X144071866Y-106156353D01*
X144060315Y-106177964D01*
X144053202Y-106201413D01*
X144050800Y-106225799D01*
X143599200Y-106225799D01*
X143599200Y-106173577D01*
X143612589Y-106162589D01*
X143628134Y-106143647D01*
X143639685Y-106122036D01*
X143646798Y-106098587D01*
X143649200Y-106074201D01*
X143649200Y-105550799D01*
X143646798Y-105526413D01*
X143639685Y-105502964D01*
X143628134Y-105481353D01*
X143612589Y-105462411D01*
X143593647Y-105446866D01*
X143572036Y-105435315D01*
X143548587Y-105428202D01*
X143524201Y-105425800D01*
X143499200Y-105425800D01*
X143499200Y-104574200D01*
X144800800Y-104574200D01*
X144800800Y-105524201D01*
G37*
G36*
X160650800Y-107250800D02*
G01*
X159749200Y-107250800D01*
X159749200Y-106675799D01*
X159746798Y-106651413D01*
X159739685Y-106627964D01*
X159728134Y-106606353D01*
X159712589Y-106587411D01*
X159693647Y-106571866D01*
X159672036Y-106560315D01*
X159648587Y-106553202D01*
X159624201Y-106550800D01*
X159249200Y-106550800D01*
X159249200Y-105649200D01*
X160650800Y-105649200D01*
X160650800Y-107250800D01*
G37*
G36*
X142250800Y-107250800D02*
G01*
X141249200Y-107250800D01*
X141249200Y-105949200D01*
X142250800Y-105949200D01*
X142250800Y-107250800D01*
G37*
G36*
X135000800Y-107050800D02*
G01*
X134299200Y-107050800D01*
X134299200Y-106549200D01*
X135000800Y-106549200D01*
X135000800Y-107050800D01*
G37*
G36*
X127500800Y-105774201D02*
G01*
X127503202Y-105798587D01*
X127510315Y-105822036D01*
X127521866Y-105843647D01*
X127537411Y-105862589D01*
X127556353Y-105878134D01*
X127577964Y-105889685D01*
X127601413Y-105896798D01*
X127625799Y-105899200D01*
X127674201Y-105899200D01*
X127698587Y-105896798D01*
X127722036Y-105889685D01*
X127743647Y-105878134D01*
X127762589Y-105862589D01*
X127778134Y-105843647D01*
X127789685Y-105822036D01*
X127796798Y-105798587D01*
X127799200Y-105774201D01*
X127799200Y-104999200D01*
X128300800Y-104999200D01*
X128300800Y-105774201D01*
X128303202Y-105798587D01*
X128310315Y-105822036D01*
X128321866Y-105843647D01*
X128337411Y-105862589D01*
X128356353Y-105878134D01*
X128377964Y-105889685D01*
X128401413Y-105896798D01*
X128425799Y-105899200D01*
X128474201Y-105899200D01*
X128498587Y-105896798D01*
X128522036Y-105889685D01*
X128543647Y-105878134D01*
X128562589Y-105862589D01*
X128578134Y-105843647D01*
X128589685Y-105822036D01*
X128596798Y-105798587D01*
X128599200Y-105774201D01*
X128599200Y-104999200D01*
X129100800Y-104999200D01*
X129100800Y-105774201D01*
X129103202Y-105798587D01*
X129110315Y-105822036D01*
X129121866Y-105843647D01*
X129137411Y-105862589D01*
X129156353Y-105878134D01*
X129177964Y-105889685D01*
X129201413Y-105896798D01*
X129225799Y-105899200D01*
X129500800Y-105899200D01*
X129500800Y-106600800D01*
X128999200Y-106600800D01*
X128999200Y-105825799D01*
X128996798Y-105801413D01*
X128989685Y-105777964D01*
X128978134Y-105756353D01*
X128962589Y-105737411D01*
X128943647Y-105721866D01*
X128922036Y-105710315D01*
X128898587Y-105703202D01*
X128874201Y-105700800D01*
X128825799Y-105700800D01*
X128801413Y-105703202D01*
X128777964Y-105710315D01*
X128756353Y-105721866D01*
X128737411Y-105737411D01*
X128721866Y-105756353D01*
X128710315Y-105777964D01*
X128703202Y-105801413D01*
X128700800Y-105825799D01*
X128700800Y-106600800D01*
X128199200Y-106600800D01*
X128199200Y-105825799D01*
X128196798Y-105801413D01*
X128189685Y-105777964D01*
X128178134Y-105756353D01*
X128162589Y-105737411D01*
X128143647Y-105721866D01*
X128122036Y-105710315D01*
X128098587Y-105703202D01*
X128074201Y-105700800D01*
X128025799Y-105700800D01*
X128001413Y-105703202D01*
X127977964Y-105710315D01*
X127956353Y-105721866D01*
X127937411Y-105737411D01*
X127921866Y-105756353D01*
X127910315Y-105777964D01*
X127903202Y-105801413D01*
X127900800Y-105825799D01*
X127900800Y-106600800D01*
X127399200Y-106600800D01*
X127399200Y-105825799D01*
X127396798Y-105801413D01*
X127389685Y-105777964D01*
X127378134Y-105756353D01*
X127362589Y-105737411D01*
X127343647Y-105721866D01*
X127322036Y-105710315D01*
X127298587Y-105703202D01*
X127274201Y-105700800D01*
X127225799Y-105700800D01*
X127201413Y-105703202D01*
X127177964Y-105710315D01*
X127156353Y-105721866D01*
X127137411Y-105737411D01*
X127121866Y-105756353D01*
X127110315Y-105777964D01*
X127103202Y-105801413D01*
X127100800Y-105825799D01*
X127100800Y-106600800D01*
X126599200Y-106600800D01*
X126599200Y-105899200D01*
X126874201Y-105899200D01*
X126898587Y-105896798D01*
X126922036Y-105889685D01*
X126943647Y-105878134D01*
X126962589Y-105862589D01*
X126978134Y-105843647D01*
X126989685Y-105822036D01*
X126996798Y-105798587D01*
X126999200Y-105774201D01*
X126999200Y-104999200D01*
X127500800Y-104999200D01*
X127500800Y-105774201D01*
G37*
G36*
X125100800Y-105774201D02*
G01*
X125103202Y-105798587D01*
X125110315Y-105822036D01*
X125121866Y-105843647D01*
X125137411Y-105862589D01*
X125156353Y-105878134D01*
X125177964Y-105889685D01*
X125201413Y-105896798D01*
X125225799Y-105899200D01*
X125274201Y-105899200D01*
X125298587Y-105896798D01*
X125322036Y-105889685D01*
X125343647Y-105878134D01*
X125362589Y-105862589D01*
X125378134Y-105843647D01*
X125389685Y-105822036D01*
X125396798Y-105798587D01*
X125399200Y-105774201D01*
X125399200Y-104999200D01*
X125900800Y-104999200D01*
X125900800Y-105774201D01*
X125903202Y-105798587D01*
X125910315Y-105822036D01*
X125921866Y-105843647D01*
X125937411Y-105862589D01*
X125956353Y-105878134D01*
X125977964Y-105889685D01*
X126001413Y-105896798D01*
X126025799Y-105899200D01*
X126300800Y-105899200D01*
X126300800Y-106600800D01*
X125799200Y-106600800D01*
X125799200Y-105825799D01*
X125796798Y-105801413D01*
X125789685Y-105777964D01*
X125778134Y-105756353D01*
X125762589Y-105737411D01*
X125743647Y-105721866D01*
X125722036Y-105710315D01*
X125698587Y-105703202D01*
X125674201Y-105700800D01*
X125625799Y-105700800D01*
X125601413Y-105703202D01*
X125577964Y-105710315D01*
X125556353Y-105721866D01*
X125537411Y-105737411D01*
X125521866Y-105756353D01*
X125510315Y-105777964D01*
X125503202Y-105801413D01*
X125500800Y-105825799D01*
X125500800Y-106600800D01*
X124999200Y-106600800D01*
X124999200Y-105825799D01*
X124996798Y-105801413D01*
X124989685Y-105777964D01*
X124978134Y-105756353D01*
X124962589Y-105737411D01*
X124943647Y-105721866D01*
X124922036Y-105710315D01*
X124898587Y-105703202D01*
X124874201Y-105700800D01*
X124825799Y-105700800D01*
X124801413Y-105703202D01*
X124777964Y-105710315D01*
X124756353Y-105721866D01*
X124737411Y-105737411D01*
X124721866Y-105756353D01*
X124710315Y-105777964D01*
X124703202Y-105801413D01*
X124700800Y-105825799D01*
X124700800Y-106600800D01*
X124199200Y-106600800D01*
X124199200Y-105899200D01*
X124474201Y-105899200D01*
X124498587Y-105896798D01*
X124522036Y-105889685D01*
X124543647Y-105878134D01*
X124562589Y-105862589D01*
X124578134Y-105843647D01*
X124589685Y-105822036D01*
X124596798Y-105798587D01*
X124599200Y-105774201D01*
X124599200Y-104999200D01*
X125100800Y-104999200D01*
X125100800Y-105774201D01*
G37*
G36*
X130700800Y-105774201D02*
G01*
X130703202Y-105798587D01*
X130710315Y-105822036D01*
X130721866Y-105843647D01*
X130737411Y-105862589D01*
X130756353Y-105878134D01*
X130777964Y-105889685D01*
X130801413Y-105896798D01*
X130825799Y-105899200D01*
X130874201Y-105899200D01*
X130898587Y-105896798D01*
X130922036Y-105889685D01*
X130943647Y-105878134D01*
X130962589Y-105862589D01*
X130978134Y-105843647D01*
X130989685Y-105822036D01*
X130996798Y-105798587D01*
X130999200Y-105774201D01*
X130999200Y-104999200D01*
X131500800Y-104999200D01*
X131500800Y-105774201D01*
X131503202Y-105798587D01*
X131510315Y-105822036D01*
X131521866Y-105843647D01*
X131537411Y-105862589D01*
X131556353Y-105878134D01*
X131577964Y-105889685D01*
X131601413Y-105896798D01*
X131625799Y-105899200D01*
X131674201Y-105899200D01*
X131698587Y-105896798D01*
X131722036Y-105889685D01*
X131743647Y-105878134D01*
X131762589Y-105862589D01*
X131778134Y-105843647D01*
X131789685Y-105822036D01*
X131796798Y-105798587D01*
X131799200Y-105774201D01*
X131799200Y-104999200D01*
X132300800Y-104999200D01*
X132300800Y-105774201D01*
X132303202Y-105798587D01*
X132310315Y-105822036D01*
X132321866Y-105843647D01*
X132337411Y-105862589D01*
X132356353Y-105878134D01*
X132377964Y-105889685D01*
X132401413Y-105896798D01*
X132425799Y-105899200D01*
X132474201Y-105899200D01*
X132498587Y-105896798D01*
X132522036Y-105889685D01*
X132543647Y-105878134D01*
X132562589Y-105862589D01*
X132578134Y-105843647D01*
X132589685Y-105822036D01*
X132596798Y-105798587D01*
X132599200Y-105774201D01*
X132599200Y-104999200D01*
X133100800Y-104999200D01*
X133100800Y-105700800D01*
X132825799Y-105700800D01*
X132801413Y-105703202D01*
X132777964Y-105710315D01*
X132756353Y-105721866D01*
X132737411Y-105737411D01*
X132721866Y-105756353D01*
X132710315Y-105777964D01*
X132703202Y-105801413D01*
X132700800Y-105825799D01*
X132700800Y-106600800D01*
X132199200Y-106600800D01*
X132199200Y-105825799D01*
X132196798Y-105801413D01*
X132189685Y-105777964D01*
X132178134Y-105756353D01*
X132162589Y-105737411D01*
X132143647Y-105721866D01*
X132122036Y-105710315D01*
X132098587Y-105703202D01*
X132074201Y-105700800D01*
X132025799Y-105700800D01*
X132001413Y-105703202D01*
X131977964Y-105710315D01*
X131956353Y-105721866D01*
X131937411Y-105737411D01*
X131921866Y-105756353D01*
X131910315Y-105777964D01*
X131903202Y-105801413D01*
X131900800Y-105825799D01*
X131900800Y-106600800D01*
X131399200Y-106600800D01*
X131399200Y-105825799D01*
X131396798Y-105801413D01*
X131389685Y-105777964D01*
X131378134Y-105756353D01*
X131362589Y-105737411D01*
X131343647Y-105721866D01*
X131322036Y-105710315D01*
X131298587Y-105703202D01*
X131274201Y-105700800D01*
X131225799Y-105700800D01*
X131201413Y-105703202D01*
X131177964Y-105710315D01*
X131156353Y-105721866D01*
X131137411Y-105737411D01*
X131121866Y-105756353D01*
X131110315Y-105777964D01*
X131103202Y-105801413D01*
X131100800Y-105825799D01*
X131100800Y-106600800D01*
X130599200Y-106600800D01*
X130599200Y-105825799D01*
X130596798Y-105801413D01*
X130589685Y-105777964D01*
X130578134Y-105756353D01*
X130562589Y-105737411D01*
X130543647Y-105721866D01*
X130522036Y-105710315D01*
X130498587Y-105703202D01*
X130474201Y-105700800D01*
X130425799Y-105700800D01*
X130401413Y-105703202D01*
X130377964Y-105710315D01*
X130356353Y-105721866D01*
X130337411Y-105737411D01*
X130321866Y-105756353D01*
X130310315Y-105777964D01*
X130303202Y-105801413D01*
X130300800Y-105825799D01*
X130300800Y-106600800D01*
X129799200Y-106600800D01*
X129799200Y-105899200D01*
X130074201Y-105899200D01*
X130098587Y-105896798D01*
X130122036Y-105889685D01*
X130143647Y-105878134D01*
X130162589Y-105862589D01*
X130178134Y-105843647D01*
X130189685Y-105822036D01*
X130196798Y-105798587D01*
X130199200Y-105774201D01*
X130199200Y-104999200D01*
X130700800Y-104999200D01*
X130700800Y-105774201D01*
G37*
G36*
X135000800Y-106250800D02*
G01*
X134299200Y-106250800D01*
X134299200Y-105749200D01*
X135000800Y-105749200D01*
X135000800Y-106250800D01*
G37*
G36*
X133900800Y-105700800D02*
G01*
X133399200Y-105700800D01*
X133399200Y-104999200D01*
X133900800Y-104999200D01*
X133900800Y-105700800D01*
G37*
G36*
X124000800Y-105700800D02*
G01*
X123499200Y-105700800D01*
X123499200Y-104999200D01*
X124000800Y-104999200D01*
X124000800Y-105700800D01*
G37*
G36*
X135000800Y-105450800D02*
G01*
X134299200Y-105450800D01*
X134299200Y-104949200D01*
X135000800Y-104949200D01*
X135000800Y-105450800D01*
G37*
G36*
X142250800Y-105050800D02*
G01*
X141249200Y-105050800D01*
X141249200Y-103749200D01*
X142250800Y-103749200D01*
X142250800Y-105050800D01*
G37*
G36*
X130999680Y-103684880D02*
G01*
X130298080Y-103684880D01*
X130298080Y-103283280D01*
X130999680Y-103283280D01*
X130999680Y-103684880D01*
G37*
G36*
X128599680Y-103684880D02*
G01*
X127898080Y-103684880D01*
X127898080Y-103283280D01*
X128599680Y-103283280D01*
X128599680Y-103684880D01*
G37*
G36*
X159727341Y-102356710D02*
G01*
X159834758Y-102522117D01*
X159834758Y-102522118D01*
X158659277Y-103285484D01*
X158168230Y-102529339D01*
X158168230Y-102529338D01*
X158482737Y-102325095D01*
X158501877Y-102309802D01*
X158517669Y-102291065D01*
X158529502Y-102269608D01*
X158536921Y-102246254D01*
X158539642Y-102221901D01*
X158537560Y-102197486D01*
X158530754Y-102173946D01*
X158519490Y-102152191D01*
X158206318Y-101669949D01*
X158378778Y-101557952D01*
X158962463Y-101178902D01*
X158962464Y-101178902D01*
X159727341Y-102356710D01*
G37*
G36*
X156953951Y-101666417D02*
G01*
X157327928Y-102242290D01*
X157327928Y-102242291D01*
X156740324Y-102623885D01*
X156236315Y-102951193D01*
X156236314Y-102951193D01*
X155781149Y-102250300D01*
X155527412Y-101859580D01*
X155527412Y-101859579D01*
X156189233Y-101429787D01*
X156619025Y-101150677D01*
X156619026Y-101150677D01*
X156953951Y-101666417D01*
G37*
G36*
X130999680Y-102884880D02*
G01*
X130298080Y-102884880D01*
X130298080Y-102483280D01*
X130999680Y-102483280D01*
X130999680Y-102884880D01*
G37*
G36*
X128599680Y-102884880D02*
G01*
X127898080Y-102884880D01*
X127898080Y-102483280D01*
X128599680Y-102483280D01*
X128599680Y-102884880D01*
G37*
G36*
X128475000Y-98603949D02*
G01*
X127696051Y-99382898D01*
X127537881Y-99224728D01*
X127518945Y-99209188D01*
X127497334Y-99197637D01*
X127473885Y-99190524D01*
X127449499Y-99188122D01*
X127425113Y-99190524D01*
X127401664Y-99197637D01*
X127380053Y-99209188D01*
X127361111Y-99224733D01*
X127345566Y-99243675D01*
X127334015Y-99265286D01*
X127326902Y-99288735D01*
X127324500Y-99313121D01*
X127326902Y-99337506D01*
X127348825Y-99447724D01*
X127348825Y-99556225D01*
X127339959Y-99600800D01*
X127327658Y-99662637D01*
X127286138Y-99762877D01*
X127225859Y-99853089D01*
X127149139Y-99929809D01*
X127058927Y-99990088D01*
X126958687Y-100031608D01*
X126958686Y-100031608D01*
X126958684Y-100031609D01*
X126852275Y-100052775D01*
X126743775Y-100052775D01*
X126637366Y-100031609D01*
X126637364Y-100031608D01*
X126637363Y-100031608D01*
X126561543Y-100000203D01*
X126538101Y-99993092D01*
X126513715Y-99990690D01*
X126489329Y-99993092D01*
X126465880Y-100000205D01*
X126444269Y-100011756D01*
X126425327Y-100027301D01*
X126409782Y-100046243D01*
X126398230Y-100067853D01*
X126391117Y-100091302D01*
X126388715Y-100115688D01*
X126391117Y-100140074D01*
X126398228Y-100163518D01*
X126424627Y-100227253D01*
X126429634Y-100239341D01*
X126450800Y-100345750D01*
X126450800Y-100454250D01*
X126430601Y-100555800D01*
X126429633Y-100560662D01*
X126388113Y-100660902D01*
X126327834Y-100751114D01*
X126251114Y-100827834D01*
X126160902Y-100888113D01*
X126060662Y-100929633D01*
X126060661Y-100929633D01*
X126060659Y-100929634D01*
X125954250Y-100950800D01*
X125845750Y-100950800D01*
X125739341Y-100929634D01*
X125739339Y-100929633D01*
X125739338Y-100929633D01*
X125663514Y-100898226D01*
X125640074Y-100891116D01*
X125615688Y-100888714D01*
X125591302Y-100891116D01*
X125567853Y-100898229D01*
X125546242Y-100909780D01*
X125527300Y-100925325D01*
X125511755Y-100944267D01*
X125500203Y-100965877D01*
X125493090Y-100989326D01*
X125490688Y-101013712D01*
X125493090Y-101038098D01*
X125500200Y-101061540D01*
X125531607Y-101137364D01*
X125531608Y-101137367D01*
X125552774Y-101243776D01*
X125552774Y-101352275D01*
X125531607Y-101458688D01*
X125490087Y-101558928D01*
X125429808Y-101649140D01*
X125353088Y-101725860D01*
X125262876Y-101786139D01*
X125162636Y-101827659D01*
X125162635Y-101827659D01*
X125162633Y-101827660D01*
X125056224Y-101848826D01*
X124947724Y-101848826D01*
X124841315Y-101827660D01*
X124841313Y-101827659D01*
X124841312Y-101827659D01*
X124765492Y-101796254D01*
X124742050Y-101789143D01*
X124717664Y-101786741D01*
X124693278Y-101789143D01*
X124669829Y-101796256D01*
X124648218Y-101807807D01*
X124629276Y-101823352D01*
X124613731Y-101842294D01*
X124602179Y-101863904D01*
X124595066Y-101887353D01*
X124592664Y-101911739D01*
X124595066Y-101936125D01*
X124602177Y-101959569D01*
X124633582Y-102035389D01*
X124633583Y-102035392D01*
X124654749Y-102141801D01*
X124654749Y-102250301D01*
X124642914Y-102309802D01*
X124633582Y-102356713D01*
X124592062Y-102456953D01*
X124531783Y-102547165D01*
X124455063Y-102623885D01*
X124364851Y-102684164D01*
X124264611Y-102725684D01*
X124264610Y-102725684D01*
X124264608Y-102725685D01*
X124158199Y-102746851D01*
X124049699Y-102746851D01*
X123943290Y-102725685D01*
X123943288Y-102725684D01*
X123943287Y-102725684D01*
X123843047Y-102684164D01*
X123752835Y-102623885D01*
X123676115Y-102547165D01*
X123615836Y-102456953D01*
X123574316Y-102356713D01*
X123564985Y-102309802D01*
X123553149Y-102250301D01*
X123553149Y-102141801D01*
X123574315Y-102035392D01*
X123574316Y-102035389D01*
X123615836Y-101935149D01*
X123676115Y-101844937D01*
X123752835Y-101768217D01*
X123843047Y-101707938D01*
X123943287Y-101666418D01*
X123943288Y-101666418D01*
X123943290Y-101666417D01*
X124049699Y-101645251D01*
X124158199Y-101645251D01*
X124264608Y-101666417D01*
X124264610Y-101666418D01*
X124264611Y-101666418D01*
X124340431Y-101697823D01*
X124363873Y-101704934D01*
X124388259Y-101707336D01*
X124412645Y-101704934D01*
X124436094Y-101697821D01*
X124457705Y-101686270D01*
X124476647Y-101670725D01*
X124492192Y-101651783D01*
X124503744Y-101630173D01*
X124510857Y-101606724D01*
X124513259Y-101582338D01*
X124510857Y-101557952D01*
X124503746Y-101534508D01*
X124472341Y-101458688D01*
X124451174Y-101352275D01*
X124451174Y-101243776D01*
X124472340Y-101137367D01*
X124472341Y-101137364D01*
X124513861Y-101037124D01*
X124574140Y-100946912D01*
X124650860Y-100870192D01*
X124741072Y-100809913D01*
X124841312Y-100768393D01*
X124841313Y-100768393D01*
X124841315Y-100768392D01*
X124947724Y-100747226D01*
X125056224Y-100747226D01*
X125162633Y-100768392D01*
X125162635Y-100768393D01*
X125162636Y-100768393D01*
X125238460Y-100799800D01*
X125261900Y-100806910D01*
X125286286Y-100809312D01*
X125310672Y-100806910D01*
X125334121Y-100799797D01*
X125355732Y-100788246D01*
X125374674Y-100772701D01*
X125390219Y-100753759D01*
X125401771Y-100732149D01*
X125408884Y-100708700D01*
X125411286Y-100684314D01*
X125408884Y-100659928D01*
X125401774Y-100636486D01*
X125370367Y-100560662D01*
X125369400Y-100555800D01*
X125349200Y-100454250D01*
X125349200Y-100345750D01*
X125370366Y-100239341D01*
X125375373Y-100227253D01*
X125411887Y-100139098D01*
X125472166Y-100048886D01*
X125548886Y-99972166D01*
X125639098Y-99911887D01*
X125739338Y-99870367D01*
X125739339Y-99870367D01*
X125739341Y-99870366D01*
X125845750Y-99849200D01*
X125954250Y-99849200D01*
X126060659Y-99870366D01*
X126060661Y-99870367D01*
X126060662Y-99870367D01*
X126136482Y-99901772D01*
X126159924Y-99908883D01*
X126184310Y-99911285D01*
X126208696Y-99908883D01*
X126232145Y-99901770D01*
X126253756Y-99890219D01*
X126272698Y-99874674D01*
X126288243Y-99855732D01*
X126299795Y-99834122D01*
X126306908Y-99810673D01*
X126309310Y-99786287D01*
X126306908Y-99761901D01*
X126299797Y-99738457D01*
X126268392Y-99662637D01*
X126256092Y-99600800D01*
X126247225Y-99556225D01*
X126247225Y-99447725D01*
X126268391Y-99341316D01*
X126269969Y-99337506D01*
X126309912Y-99241073D01*
X126370191Y-99150861D01*
X126446911Y-99074141D01*
X126537123Y-99013862D01*
X126637363Y-98972342D01*
X126637364Y-98972342D01*
X126637366Y-98972341D01*
X126743775Y-98951175D01*
X126852276Y-98951175D01*
X126962494Y-98973098D01*
X126986880Y-98975500D01*
X127011266Y-98973098D01*
X127034715Y-98965985D01*
X127056325Y-98954433D01*
X127075267Y-98938888D01*
X127090812Y-98919946D01*
X127102363Y-98898335D01*
X127109476Y-98874886D01*
X127111878Y-98850500D01*
X127109476Y-98826114D01*
X127102363Y-98802665D01*
X127090811Y-98781055D01*
X127075272Y-98762119D01*
X126917102Y-98603949D01*
X127696051Y-97825000D01*
X128475000Y-98603949D01*
G37*
G36*
X142550800Y-102500800D02*
G01*
X141249200Y-102500800D01*
X141249200Y-101499200D01*
X142550800Y-101499200D01*
X142550800Y-102500800D01*
G37*
G36*
X136400800Y-102500800D02*
G01*
X135099200Y-102500800D01*
X135099200Y-101499200D01*
X136400800Y-101499200D01*
X136400800Y-102500800D01*
G37*
G36*
X140350800Y-102500800D02*
G01*
X139049200Y-102500800D01*
X139049200Y-101499200D01*
X140350800Y-101499200D01*
X140350800Y-102500800D01*
G37*
G36*
X138600800Y-102500800D02*
G01*
X137299200Y-102500800D01*
X137299200Y-101499200D01*
X138600800Y-101499200D01*
X138600800Y-102500800D01*
G37*
G36*
X130999680Y-102084880D02*
G01*
X130298080Y-102084880D01*
X130298080Y-101683280D01*
X130999680Y-101683280D01*
X130999680Y-102084880D01*
G37*
G36*
X128599680Y-102084880D02*
G01*
X127898080Y-102084880D01*
X127898080Y-101683280D01*
X128599680Y-101683280D01*
X128599680Y-102084880D01*
G37*
G36*
X130999680Y-101284880D02*
G01*
X130298080Y-101284880D01*
X130298080Y-100883280D01*
X130999680Y-100883280D01*
X130999680Y-101284880D01*
G37*
G36*
X128599680Y-101284880D02*
G01*
X127898080Y-101284880D01*
X127898080Y-100883280D01*
X128599680Y-100883280D01*
X128599680Y-101284880D01*
G37*
G36*
X157272412Y-99982916D02*
G01*
X157363551Y-100020667D01*
X157363553Y-100020668D01*
X157434170Y-100067853D01*
X157445576Y-100075474D01*
X157515332Y-100145230D01*
X157570139Y-100227255D01*
X157607890Y-100318394D01*
X157627135Y-100415145D01*
X157627135Y-100513797D01*
X157607890Y-100610548D01*
X157577335Y-100684314D01*
X157570138Y-100701689D01*
X157515332Y-100783712D01*
X157445576Y-100853468D01*
X157363553Y-100908274D01*
X157363552Y-100908275D01*
X157363551Y-100908275D01*
X157272412Y-100946026D01*
X157175661Y-100965271D01*
X157077009Y-100965271D01*
X156980258Y-100946026D01*
X156889119Y-100908275D01*
X156889118Y-100908275D01*
X156889117Y-100908274D01*
X156807094Y-100853468D01*
X156737338Y-100783712D01*
X156682532Y-100701689D01*
X156675335Y-100684314D01*
X156644780Y-100610548D01*
X156625535Y-100513797D01*
X156625535Y-100415145D01*
X156644780Y-100318394D01*
X156682531Y-100227255D01*
X156737338Y-100145230D01*
X156807094Y-100075474D01*
X156818500Y-100067853D01*
X156889117Y-100020668D01*
X156889119Y-100020667D01*
X156980258Y-99982916D01*
X157077009Y-99963671D01*
X157175661Y-99963671D01*
X157272412Y-99982916D01*
G37*
G36*
X143200800Y-100625800D02*
G01*
X141899200Y-100625800D01*
X141899200Y-99774200D01*
X143200800Y-99774200D01*
X143200800Y-100625800D01*
G37*
G36*
X141300800Y-100625800D02*
G01*
X139999200Y-100625800D01*
X139999200Y-99774200D01*
X141300800Y-99774200D01*
X141300800Y-100625800D01*
G37*
G36*
X139625800Y-96749201D02*
G01*
X139628202Y-96773587D01*
X139635315Y-96797036D01*
X139646866Y-96818647D01*
X139662411Y-96837589D01*
X139681353Y-96853134D01*
X139702964Y-96864685D01*
X139726413Y-96871798D01*
X139728042Y-96871958D01*
X139728202Y-96873587D01*
X139735315Y-96897036D01*
X139746866Y-96918647D01*
X139762411Y-96937589D01*
X139781353Y-96953134D01*
X139802964Y-96964685D01*
X139826413Y-96971798D01*
X139850799Y-96974200D01*
X140805800Y-96974200D01*
X140805800Y-99375800D01*
X139850799Y-99375800D01*
X139826413Y-99378202D01*
X139802964Y-99385315D01*
X139781353Y-99396866D01*
X139762411Y-99412411D01*
X139746866Y-99431353D01*
X139735315Y-99452964D01*
X139728202Y-99476413D01*
X139728042Y-99478042D01*
X139726413Y-99478202D01*
X139702964Y-99485315D01*
X139681353Y-99496866D01*
X139662411Y-99512411D01*
X139646866Y-99531353D01*
X139635315Y-99552964D01*
X139628202Y-99576413D01*
X139625800Y-99600799D01*
X139625800Y-100555800D01*
X137224200Y-100555800D01*
X137224200Y-99600799D01*
X137221798Y-99576413D01*
X137214685Y-99552964D01*
X137203134Y-99531353D01*
X137187589Y-99512411D01*
X137168647Y-99496866D01*
X137147036Y-99485315D01*
X137123587Y-99478202D01*
X137121958Y-99478042D01*
X137121798Y-99476413D01*
X137114685Y-99452964D01*
X137103134Y-99431353D01*
X137087589Y-99412411D01*
X137068647Y-99396866D01*
X137047036Y-99385315D01*
X137023587Y-99378202D01*
X136999201Y-99375800D01*
X136044200Y-99375800D01*
X136044200Y-96974200D01*
X136999201Y-96974200D01*
X137023587Y-96971798D01*
X137047036Y-96964685D01*
X137068647Y-96953134D01*
X137087589Y-96937589D01*
X137103134Y-96918647D01*
X137114685Y-96897036D01*
X137121798Y-96873587D01*
X137121958Y-96871958D01*
X137123587Y-96871798D01*
X137147036Y-96864685D01*
X137168647Y-96853134D01*
X137187589Y-96837589D01*
X137203134Y-96818647D01*
X137214685Y-96797036D01*
X137221798Y-96773587D01*
X137224200Y-96749201D01*
X137224200Y-95794200D01*
X139625800Y-95794200D01*
X139625800Y-96749201D01*
G37*
G36*
X125531957Y-99036329D02*
G01*
X125550060Y-99049005D01*
X124975566Y-99869467D01*
X124975565Y-99869467D01*
X123499781Y-98836112D01*
X123499780Y-98836111D01*
X124074274Y-98015649D01*
X124074275Y-98015649D01*
X125531957Y-99036329D01*
G37*
G36*
X149975800Y-99600800D02*
G01*
X149124200Y-99600800D01*
X149124200Y-98299200D01*
X149975800Y-98299200D01*
X149975800Y-99600800D01*
G37*
G36*
X148500800Y-99575800D02*
G01*
X147199200Y-99575800D01*
X147199200Y-98724200D01*
X148500800Y-98724200D01*
X148500800Y-99575800D01*
G37*
G36*
X146600800Y-99575800D02*
G01*
X145299200Y-99575800D01*
X145299200Y-98724200D01*
X146600800Y-98724200D01*
X146600800Y-99575800D01*
G37*
G36*
X154713412Y-98216288D02*
G01*
X155040444Y-98719873D01*
X155040444Y-98719874D01*
X154533628Y-99049004D01*
X153948831Y-99428776D01*
X153948830Y-99428776D01*
X153413181Y-98603949D01*
X153239928Y-98337163D01*
X153239928Y-98337162D01*
X153901749Y-97907370D01*
X154331541Y-97628260D01*
X154331542Y-97628260D01*
X154713412Y-98216288D01*
G37*
G36*
X156019742Y-98053974D02*
G01*
X156110881Y-98091725D01*
X156110883Y-98091726D01*
X156159484Y-98124200D01*
X156192906Y-98146532D01*
X156262662Y-98216288D01*
X156317469Y-98298313D01*
X156355220Y-98389452D01*
X156374465Y-98486203D01*
X156374465Y-98584855D01*
X156355220Y-98681606D01*
X156337577Y-98724200D01*
X156317468Y-98772747D01*
X156262662Y-98854770D01*
X156192906Y-98924526D01*
X156110883Y-98979332D01*
X156110882Y-98979333D01*
X156110881Y-98979333D01*
X156019742Y-99017084D01*
X155922991Y-99036329D01*
X155824339Y-99036329D01*
X155727588Y-99017084D01*
X155636449Y-98979333D01*
X155636448Y-98979333D01*
X155636447Y-98979332D01*
X155554424Y-98924526D01*
X155484668Y-98854770D01*
X155429862Y-98772747D01*
X155409753Y-98724200D01*
X155392110Y-98681606D01*
X155372865Y-98584855D01*
X155372865Y-98486203D01*
X155392110Y-98389452D01*
X155429861Y-98298313D01*
X155484668Y-98216288D01*
X155554424Y-98146532D01*
X155587846Y-98124200D01*
X155636447Y-98091726D01*
X155636449Y-98091725D01*
X155727588Y-98053974D01*
X155824339Y-98034729D01*
X155922991Y-98034729D01*
X156019742Y-98053974D01*
G37*
G36*
X148500800Y-98375800D02*
G01*
X147199200Y-98375800D01*
X147199200Y-97524200D01*
X148500800Y-97524200D01*
X148500800Y-98375800D01*
G37*
G36*
X146600800Y-98375800D02*
G01*
X145299200Y-98375800D01*
X145299200Y-97524200D01*
X146600800Y-97524200D01*
X146600800Y-98375800D01*
G37*
G36*
X133400800Y-98000800D02*
G01*
X132099200Y-98000800D01*
X132099200Y-96999200D01*
X133400800Y-96999200D01*
X133400800Y-98000800D01*
G37*
G36*
X135600800Y-98000800D02*
G01*
X134299200Y-98000800D01*
X134299200Y-96999200D01*
X135600800Y-96999200D01*
X135600800Y-98000800D01*
G37*
G36*
X149975800Y-97700800D02*
G01*
X149124200Y-97700800D01*
X149124200Y-96399200D01*
X149975800Y-96399200D01*
X149975800Y-97700800D01*
G37*
G36*
X148730800Y-97175800D02*
G01*
X147569200Y-97175800D01*
X147569200Y-96424200D01*
X148730800Y-96424200D01*
X148730800Y-97175800D01*
G37*
G36*
X146530800Y-97175800D02*
G01*
X145369200Y-97175800D01*
X145369200Y-94524200D01*
X146530800Y-94524200D01*
X146530800Y-97175800D01*
G37*
G36*
X127500219Y-96263888D02*
G01*
X127500220Y-96263889D01*
X126925726Y-97084351D01*
X126925725Y-97084351D01*
X125449941Y-96050996D01*
X125449940Y-96050995D01*
X126024434Y-95230533D01*
X126024435Y-95230533D01*
X127500219Y-96263888D01*
G37*
G36*
X155654648Y-96085311D02*
G01*
X155654650Y-96085315D01*
X155936585Y-96519457D01*
X155967821Y-96567556D01*
X155211676Y-97058603D01*
X155211675Y-97058603D01*
X154898505Y-96576364D01*
X154883211Y-96557222D01*
X154864474Y-96541430D01*
X154843017Y-96529597D01*
X154819663Y-96522178D01*
X154795310Y-96519457D01*
X154770895Y-96521539D01*
X154747355Y-96528345D01*
X154725603Y-96539608D01*
X154411093Y-96743853D01*
X153920046Y-95987707D01*
X154234548Y-95783467D01*
X155095527Y-95224341D01*
X155654648Y-96085311D01*
G37*
G36*
X143250800Y-96625800D02*
G01*
X141949200Y-96625800D01*
X141949200Y-95774200D01*
X143250800Y-95774200D01*
X143250800Y-96625800D01*
G37*
G36*
X141350800Y-96625800D02*
G01*
X140049200Y-96625800D01*
X140049200Y-95774200D01*
X141350800Y-95774200D01*
X141350800Y-96625800D01*
G37*
G36*
X136700800Y-96600800D02*
G01*
X135399200Y-96600800D01*
X135399200Y-95599200D01*
X136700800Y-95599200D01*
X136700800Y-96600800D01*
G37*
G36*
X134500800Y-96600800D02*
G01*
X133199200Y-96600800D01*
X133199200Y-95599200D01*
X134500800Y-95599200D01*
X134500800Y-96600800D01*
G37*
G36*
X138700800Y-95500800D02*
G01*
X137399200Y-95500800D01*
X137399200Y-94499200D01*
X138700800Y-94499200D01*
X138700800Y-95500800D01*
G37*
G36*
X144700800Y-95500800D02*
G01*
X143399200Y-95500800D01*
X143399200Y-94499200D01*
X144700800Y-94499200D01*
X144700800Y-95500800D01*
G37*
G36*
X142500800Y-95500800D02*
G01*
X141199200Y-95500800D01*
X141199200Y-94499200D01*
X142500800Y-94499200D01*
X142500800Y-95500800D01*
G37*
G36*
X140900800Y-95500800D02*
G01*
X139599200Y-95500800D01*
X139599200Y-94499200D01*
X140900800Y-94499200D01*
X140900800Y-95500800D01*
G37*
G36*
X148730800Y-95275800D02*
G01*
X147569200Y-95275800D01*
X147569200Y-94524200D01*
X148730800Y-94524200D01*
X148730800Y-95275800D01*
G37*
G36*
X130950800Y-94900800D02*
G01*
X129349200Y-94900800D01*
X129349200Y-93299200D01*
X130950800Y-93299200D01*
X130950800Y-94900800D01*
G37*
G36*
X136750800Y-93750800D02*
G01*
X133649200Y-93750800D01*
X133649200Y-90649200D01*
X136750800Y-90649200D01*
X136750800Y-93750800D01*
G37*
G36*
X141550800Y-93750800D02*
G01*
X138449200Y-93750800D01*
X138449200Y-90649200D01*
X141550800Y-90649200D01*
X141550800Y-93750800D01*
G37*
M02*
