G04 #@! TF.GenerationSoftware,KiCad,Pcbnew,(5.1.6)-1*
G04 #@! TF.CreationDate,2020-05-23T09:11:33-05:00*
G04 #@! TF.ProjectId,nrf,6e72662e-6b69-4636-9164-5f7063625858,rev?*
G04 #@! TF.SameCoordinates,Original*
G04 #@! TF.FileFunction,Copper,L2,Inr*
G04 #@! TF.FilePolarity,Positive*
%FSLAX46Y46*%
G04 Gerber Fmt 4.6, Leading zero omitted, Abs format (unit mm)*
G04 Created by KiCad (PCBNEW (5.1.6)-1) date 2020-05-23 09:11:33*
%MOMM*%
%LPD*%
G01*
G04 APERTURE LIST*
G04 #@! TA.AperFunction,ViaPad*
%ADD10C,0.100000*%
G04 #@! TD*
G04 #@! TA.AperFunction,ViaPad*
%ADD11C,0.685800*%
G04 #@! TD*
G04 APERTURE END LIST*
G04 #@! TA.AperFunction,ViaPad*
D10*
G36*
X126988944Y-98603949D02*
G01*
X127696051Y-97896842D01*
X128403158Y-98603949D01*
X127696051Y-99311056D01*
X126988944Y-98603949D01*
G37*
G04 #@! TD.AperFunction*
G04 #@! TA.AperFunction,ViaPad*
G36*
G01*
X126444472Y-99148422D02*
X126444472Y-99148422D01*
G75*
G02*
X127151578Y-99148422I353553J-353553D01*
G01*
X127151578Y-99148422D01*
G75*
G02*
X127151578Y-99855528I-353553J-353553D01*
G01*
X127151578Y-99855528D01*
G75*
G02*
X126444472Y-99855528I-353553J353553D01*
G01*
X126444472Y-99855528D01*
G75*
G02*
X126444472Y-99148422I353553J353553D01*
G01*
G37*
G04 #@! TD.AperFunction*
G04 #@! TA.AperFunction,ViaPad*
G36*
G01*
X125446846Y-100188691D02*
X125446846Y-100188691D01*
G75*
G02*
X126111309Y-99946846I453154J-211309D01*
G01*
X126111309Y-99946846D01*
G75*
G02*
X126353154Y-100611309I-211309J-453154D01*
G01*
X126353154Y-100611309D01*
G75*
G02*
X125688691Y-100853154I-453154J211309D01*
G01*
X125688691Y-100853154D01*
G75*
G02*
X125446846Y-100188691I211309J453154D01*
G01*
G37*
G04 #@! TD.AperFunction*
G04 #@! TA.AperFunction,ViaPad*
G36*
G01*
X124648421Y-100944473D02*
X124648421Y-100944473D01*
G75*
G02*
X125355527Y-100944473I353553J-353553D01*
G01*
X125355527Y-100944473D01*
G75*
G02*
X125355527Y-101651579I-353553J-353553D01*
G01*
X125355527Y-101651579D01*
G75*
G02*
X124648421Y-101651579I-353553J353553D01*
G01*
X124648421Y-101651579D01*
G75*
G02*
X124648421Y-100944473I353553J353553D01*
G01*
G37*
G04 #@! TD.AperFunction*
G04 #@! TA.AperFunction,ViaPad*
G36*
G01*
X123750396Y-101842498D02*
X123750396Y-101842498D01*
G75*
G02*
X124457502Y-101842498I353553J-353553D01*
G01*
X124457502Y-101842498D01*
G75*
G02*
X124457502Y-102549604I-353553J-353553D01*
G01*
X124457502Y-102549604D01*
G75*
G02*
X123750396Y-102549604I-353553J353553D01*
G01*
X123750396Y-102549604D01*
G75*
G02*
X123750396Y-101842498I353553J353553D01*
G01*
G37*
G04 #@! TD.AperFunction*
D11*
X153000000Y-98900000D03*
X143000000Y-105000000D03*
X157700000Y-109100000D03*
X156600000Y-117200000D03*
X136400000Y-128600000D03*
X138400000Y-128600000D03*
X143200000Y-125900000D03*
X135600000Y-114800000D03*
X138800000Y-113000000D03*
X138900000Y-114500000D03*
X125900000Y-119900000D03*
X127000000Y-119800000D03*
X127300000Y-121200000D03*
X123700000Y-115600000D03*
X124900000Y-115600000D03*
X136500000Y-100100000D03*
X142500000Y-99250000D03*
X143100000Y-102000000D03*
X135800000Y-100950000D03*
X133700000Y-94950000D03*
X143850000Y-96300000D03*
X144050000Y-93950000D03*
X144800000Y-96100000D03*
X144800000Y-97950000D03*
X144800000Y-99150000D03*
X149550000Y-100250000D03*
X142800000Y-107750000D03*
X134700000Y-104350000D03*
X135650000Y-106000000D03*
X135650000Y-105150000D03*
X138450000Y-106600000D03*
X123700000Y-106300000D03*
X123750000Y-104400000D03*
X126350000Y-103750000D03*
X145850000Y-118100000D03*
X136550000Y-94800000D03*
X142000000Y-98150000D03*
X130536000Y-107475840D03*
X127198440Y-102873360D03*
X134950000Y-97500000D03*
X130200000Y-96300000D03*
M02*
