G04 #@! TF.GenerationSoftware,KiCad,Pcbnew,(5.1.6)-1*
G04 #@! TF.CreationDate,2020-05-23T09:23:12-05:00*
G04 #@! TF.ProjectId,nrf,6e72662e-6b69-4636-9164-5f7063625858,rev?*
G04 #@! TF.SameCoordinates,Original*
G04 #@! TF.FileFunction,Copper,L2,Bot*
G04 #@! TF.FilePolarity,Positive*
%FSLAX46Y46*%
G04 Gerber Fmt 4.6, Leading zero omitted, Abs format (unit mm)*
G04 Created by KiCad (PCBNEW (5.1.6)-1) date 2020-05-23 09:23:12*
%MOMM*%
%LPD*%
G01*
G04 APERTURE LIST*
G04 #@! TA.AperFunction,ComponentPad*
%ADD10C,0.100000*%
G04 #@! TD*
G04 #@! TA.AperFunction,SMDPad,CuDef*
%ADD11R,3.000000X3.000000*%
G04 #@! TD*
G04 #@! TA.AperFunction,ViaPad*
%ADD12C,0.685800*%
G04 #@! TD*
G04 #@! TA.AperFunction,Conductor*
%ADD13C,0.400000*%
G04 #@! TD*
G04 #@! TA.AperFunction,Conductor*
%ADD14C,0.200000*%
G04 #@! TD*
G04 #@! TA.AperFunction,Conductor*
%ADD15C,0.254000*%
G04 #@! TD*
G04 APERTURE END LIST*
G04 #@! TA.AperFunction,ComponentPad*
D10*
G36*
X126988944Y-98603949D02*
G01*
X127696051Y-97896842D01*
X128403158Y-98603949D01*
X127696051Y-99311056D01*
X126988944Y-98603949D01*
G37*
G04 #@! TD.AperFunction*
G04 #@! TA.AperFunction,ComponentPad*
G36*
G01*
X126444472Y-99148422D02*
X126444472Y-99148422D01*
G75*
G02*
X127151578Y-99148422I353553J-353553D01*
G01*
X127151578Y-99148422D01*
G75*
G02*
X127151578Y-99855528I-353553J-353553D01*
G01*
X127151578Y-99855528D01*
G75*
G02*
X126444472Y-99855528I-353553J353553D01*
G01*
X126444472Y-99855528D01*
G75*
G02*
X126444472Y-99148422I353553J353553D01*
G01*
G37*
G04 #@! TD.AperFunction*
G04 #@! TA.AperFunction,ComponentPad*
G36*
G01*
X125446846Y-100188691D02*
X125446846Y-100188691D01*
G75*
G02*
X126111309Y-99946846I453154J-211309D01*
G01*
X126111309Y-99946846D01*
G75*
G02*
X126353154Y-100611309I-211309J-453154D01*
G01*
X126353154Y-100611309D01*
G75*
G02*
X125688691Y-100853154I-453154J211309D01*
G01*
X125688691Y-100853154D01*
G75*
G02*
X125446846Y-100188691I211309J453154D01*
G01*
G37*
G04 #@! TD.AperFunction*
G04 #@! TA.AperFunction,ComponentPad*
G36*
G01*
X124648421Y-100944473D02*
X124648421Y-100944473D01*
G75*
G02*
X125355527Y-100944473I353553J-353553D01*
G01*
X125355527Y-100944473D01*
G75*
G02*
X125355527Y-101651579I-353553J-353553D01*
G01*
X125355527Y-101651579D01*
G75*
G02*
X124648421Y-101651579I-353553J353553D01*
G01*
X124648421Y-101651579D01*
G75*
G02*
X124648421Y-100944473I353553J353553D01*
G01*
G37*
G04 #@! TD.AperFunction*
G04 #@! TA.AperFunction,ComponentPad*
G36*
G01*
X123750396Y-101842498D02*
X123750396Y-101842498D01*
G75*
G02*
X124457502Y-101842498I353553J-353553D01*
G01*
X124457502Y-101842498D01*
G75*
G02*
X124457502Y-102549604I-353553J-353553D01*
G01*
X124457502Y-102549604D01*
G75*
G02*
X123750396Y-102549604I-353553J353553D01*
G01*
X123750396Y-102549604D01*
G75*
G02*
X123750396Y-101842498I353553J353553D01*
G01*
G37*
G04 #@! TD.AperFunction*
G04 #@! TA.AperFunction,SMDPad,CuDef*
G36*
G01*
X138975000Y-123912500D02*
X138975000Y-122087500D01*
G75*
G02*
X139062500Y-122000000I87500J0D01*
G01*
X139237500Y-122000000D01*
G75*
G02*
X139325000Y-122087500I0J-87500D01*
G01*
X139325000Y-123912500D01*
G75*
G02*
X139237500Y-124000000I-87500J0D01*
G01*
X139062500Y-124000000D01*
G75*
G02*
X138975000Y-123912500I0J87500D01*
G01*
G37*
G04 #@! TD.AperFunction*
G04 #@! TA.AperFunction,SMDPad,CuDef*
G36*
G01*
X138275000Y-123912500D02*
X138275000Y-122087500D01*
G75*
G02*
X138362500Y-122000000I87500J0D01*
G01*
X138537500Y-122000000D01*
G75*
G02*
X138625000Y-122087500I0J-87500D01*
G01*
X138625000Y-123912500D01*
G75*
G02*
X138537500Y-124000000I-87500J0D01*
G01*
X138362500Y-124000000D01*
G75*
G02*
X138275000Y-123912500I0J87500D01*
G01*
G37*
G04 #@! TD.AperFunction*
G04 #@! TA.AperFunction,SMDPad,CuDef*
G36*
G01*
X139675000Y-123912500D02*
X139675000Y-122087500D01*
G75*
G02*
X139762500Y-122000000I87500J0D01*
G01*
X139937500Y-122000000D01*
G75*
G02*
X140025000Y-122087500I0J-87500D01*
G01*
X140025000Y-123912500D01*
G75*
G02*
X139937500Y-124000000I-87500J0D01*
G01*
X139762500Y-124000000D01*
G75*
G02*
X139675000Y-123912500I0J87500D01*
G01*
G37*
G04 #@! TD.AperFunction*
G04 #@! TA.AperFunction,SMDPad,CuDef*
G36*
G01*
X140375000Y-123912500D02*
X140375000Y-122087500D01*
G75*
G02*
X140462500Y-122000000I87500J0D01*
G01*
X140637500Y-122000000D01*
G75*
G02*
X140725000Y-122087500I0J-87500D01*
G01*
X140725000Y-123912500D01*
G75*
G02*
X140637500Y-124000000I-87500J0D01*
G01*
X140462500Y-124000000D01*
G75*
G02*
X140375000Y-123912500I0J87500D01*
G01*
G37*
G04 #@! TD.AperFunction*
G04 #@! TA.AperFunction,SMDPad,CuDef*
G36*
G01*
X141075000Y-123912500D02*
X141075000Y-122087500D01*
G75*
G02*
X141162500Y-122000000I87500J0D01*
G01*
X141337500Y-122000000D01*
G75*
G02*
X141425000Y-122087500I0J-87500D01*
G01*
X141425000Y-123912500D01*
G75*
G02*
X141337500Y-124000000I-87500J0D01*
G01*
X141162500Y-124000000D01*
G75*
G02*
X141075000Y-123912500I0J87500D01*
G01*
G37*
G04 #@! TD.AperFunction*
G04 #@! TA.AperFunction,SMDPad,CuDef*
G36*
G01*
X141775000Y-123912500D02*
X141775000Y-122087500D01*
G75*
G02*
X141862500Y-122000000I87500J0D01*
G01*
X142037500Y-122000000D01*
G75*
G02*
X142125000Y-122087500I0J-87500D01*
G01*
X142125000Y-123912500D01*
G75*
G02*
X142037500Y-124000000I-87500J0D01*
G01*
X141862500Y-124000000D01*
G75*
G02*
X141775000Y-123912500I0J87500D01*
G01*
G37*
G04 #@! TD.AperFunction*
G04 #@! TA.AperFunction,SMDPad,CuDef*
G36*
G01*
X137575000Y-123912500D02*
X137575000Y-122087500D01*
G75*
G02*
X137662500Y-122000000I87500J0D01*
G01*
X137837500Y-122000000D01*
G75*
G02*
X137925000Y-122087500I0J-87500D01*
G01*
X137925000Y-123912500D01*
G75*
G02*
X137837500Y-124000000I-87500J0D01*
G01*
X137662500Y-124000000D01*
G75*
G02*
X137575000Y-123912500I0J87500D01*
G01*
G37*
G04 #@! TD.AperFunction*
G04 #@! TA.AperFunction,SMDPad,CuDef*
G36*
G01*
X136875000Y-123912500D02*
X136875000Y-122087500D01*
G75*
G02*
X136962500Y-122000000I87500J0D01*
G01*
X137137500Y-122000000D01*
G75*
G02*
X137225000Y-122087500I0J-87500D01*
G01*
X137225000Y-123912500D01*
G75*
G02*
X137137500Y-124000000I-87500J0D01*
G01*
X136962500Y-124000000D01*
G75*
G02*
X136875000Y-123912500I0J87500D01*
G01*
G37*
G04 #@! TD.AperFunction*
G04 #@! TA.AperFunction,SMDPad,CuDef*
G36*
G01*
X136175000Y-123912500D02*
X136175000Y-122087500D01*
G75*
G02*
X136262500Y-122000000I87500J0D01*
G01*
X136437500Y-122000000D01*
G75*
G02*
X136525000Y-122087500I0J-87500D01*
G01*
X136525000Y-123912500D01*
G75*
G02*
X136437500Y-124000000I-87500J0D01*
G01*
X136262500Y-124000000D01*
G75*
G02*
X136175000Y-123912500I0J87500D01*
G01*
G37*
G04 #@! TD.AperFunction*
G04 #@! TA.AperFunction,SMDPad,CuDef*
G36*
G01*
X135475000Y-123912500D02*
X135475000Y-122087500D01*
G75*
G02*
X135562500Y-122000000I87500J0D01*
G01*
X135737500Y-122000000D01*
G75*
G02*
X135825000Y-122087500I0J-87500D01*
G01*
X135825000Y-123912500D01*
G75*
G02*
X135737500Y-124000000I-87500J0D01*
G01*
X135562500Y-124000000D01*
G75*
G02*
X135475000Y-123912500I0J87500D01*
G01*
G37*
G04 #@! TD.AperFunction*
G04 #@! TA.AperFunction,SMDPad,CuDef*
G36*
G01*
X142475000Y-123912500D02*
X142475000Y-122087500D01*
G75*
G02*
X142562500Y-122000000I87500J0D01*
G01*
X142737500Y-122000000D01*
G75*
G02*
X142825000Y-122087500I0J-87500D01*
G01*
X142825000Y-123912500D01*
G75*
G02*
X142737500Y-124000000I-87500J0D01*
G01*
X142562500Y-124000000D01*
G75*
G02*
X142475000Y-123912500I0J87500D01*
G01*
G37*
G04 #@! TD.AperFunction*
G04 #@! TA.AperFunction,SMDPad,CuDef*
G36*
G01*
X143175000Y-123912500D02*
X143175000Y-122087500D01*
G75*
G02*
X143262500Y-122000000I87500J0D01*
G01*
X143437500Y-122000000D01*
G75*
G02*
X143525000Y-122087500I0J-87500D01*
G01*
X143525000Y-123912500D01*
G75*
G02*
X143437500Y-124000000I-87500J0D01*
G01*
X143262500Y-124000000D01*
G75*
G02*
X143175000Y-123912500I0J87500D01*
G01*
G37*
G04 #@! TD.AperFunction*
D11*
X140000000Y-92200000D03*
X151000000Y-95500000D03*
D12*
X153000000Y-98900000D03*
X143000000Y-105000000D03*
X157700000Y-109100000D03*
X156600000Y-117200000D03*
X136400000Y-128600000D03*
X138400000Y-128600000D03*
X143200000Y-125900000D03*
X135600000Y-114800000D03*
X138800000Y-113000000D03*
X138900000Y-114500000D03*
X125900000Y-119900000D03*
X127000000Y-119800000D03*
X127300000Y-121200000D03*
X123700000Y-115600000D03*
X124900000Y-115600000D03*
X136500000Y-100100000D03*
X142500000Y-99250000D03*
X143100000Y-102000000D03*
X135800000Y-100950000D03*
X133700000Y-94950000D03*
X143850000Y-96300000D03*
X144050000Y-93950000D03*
X144800000Y-96100000D03*
X144800000Y-97950000D03*
X144800000Y-99150000D03*
X149550000Y-100250000D03*
X142800000Y-107750000D03*
X134700000Y-104350000D03*
X135650000Y-106000000D03*
X135650000Y-105150000D03*
X138450000Y-106600000D03*
X123700000Y-106300000D03*
X123750000Y-104400000D03*
X126350000Y-103750000D03*
X145850000Y-118100000D03*
X136550000Y-94800000D03*
X142000000Y-98150000D03*
X130536000Y-107475840D03*
X127198440Y-102873360D03*
X134950000Y-97500000D03*
X130200000Y-96300000D03*
D13*
X136550000Y-94800000D02*
X139900000Y-98150000D01*
X139900000Y-98150000D02*
X142000000Y-98150000D01*
D14*
X130536000Y-107475840D02*
X129509840Y-107475840D01*
X129509840Y-107475840D02*
X127198440Y-105164440D01*
X127198440Y-105164440D02*
X127198440Y-102873360D01*
D13*
X130400000Y-96500000D02*
X130200000Y-96300000D01*
X131400000Y-97500000D02*
X130200000Y-96300000D01*
X134950000Y-97500000D02*
X131400000Y-97500000D01*
D15*
G36*
X142648376Y-89883584D02*
G01*
X144391560Y-90190954D01*
X146101321Y-90649083D01*
X147764647Y-91254484D01*
X149368879Y-92002550D01*
X150901809Y-92887588D01*
X151579237Y-93361928D01*
X149500000Y-93361928D01*
X149375518Y-93374188D01*
X149255820Y-93410498D01*
X149145506Y-93469463D01*
X149048815Y-93548815D01*
X148969463Y-93645506D01*
X148910498Y-93755820D01*
X148874188Y-93875518D01*
X148861928Y-94000000D01*
X148861928Y-97000000D01*
X148874188Y-97124482D01*
X148910498Y-97244180D01*
X148969463Y-97354494D01*
X149048815Y-97451185D01*
X149145506Y-97530537D01*
X149255820Y-97589502D01*
X149375518Y-97625812D01*
X149500000Y-97638072D01*
X152500000Y-97638072D01*
X152624482Y-97625812D01*
X152744180Y-97589502D01*
X152854494Y-97530537D01*
X152951185Y-97451185D01*
X153030537Y-97354494D01*
X153089502Y-97244180D01*
X153125812Y-97124482D01*
X153138072Y-97000000D01*
X153138072Y-94562647D01*
X153707725Y-95040643D01*
X154959357Y-96292275D01*
X155931247Y-97450529D01*
X155766802Y-97450529D01*
X155557182Y-97492225D01*
X155359725Y-97574014D01*
X155182018Y-97692754D01*
X155030890Y-97843882D01*
X154912150Y-98021589D01*
X154830361Y-98219046D01*
X154788665Y-98428666D01*
X154788665Y-98642392D01*
X154830361Y-98852012D01*
X154912150Y-99049469D01*
X155030890Y-99227176D01*
X155182018Y-99378304D01*
X155359725Y-99497044D01*
X155557182Y-99578833D01*
X155766802Y-99620529D01*
X155980528Y-99620529D01*
X156190148Y-99578833D01*
X156387605Y-99497044D01*
X156565312Y-99378304D01*
X156716440Y-99227176D01*
X156835180Y-99049469D01*
X156916969Y-98852012D01*
X156922072Y-98826357D01*
X157112412Y-99098191D01*
X157280208Y-99388822D01*
X157233198Y-99379471D01*
X157019472Y-99379471D01*
X156809852Y-99421167D01*
X156612395Y-99502956D01*
X156434688Y-99621696D01*
X156283560Y-99772824D01*
X156164820Y-99950531D01*
X156083031Y-100147988D01*
X156041335Y-100357608D01*
X156041335Y-100571334D01*
X156083031Y-100780954D01*
X156164820Y-100978411D01*
X156283560Y-101156118D01*
X156434688Y-101307246D01*
X156612395Y-101425986D01*
X156809852Y-101507775D01*
X157019472Y-101549471D01*
X157233198Y-101549471D01*
X157442818Y-101507775D01*
X157640275Y-101425986D01*
X157817982Y-101307246D01*
X157969110Y-101156118D01*
X158087850Y-100978411D01*
X158121506Y-100897159D01*
X158745516Y-102235353D01*
X159350917Y-103898679D01*
X159809046Y-105608440D01*
X160116416Y-107351624D01*
X160172664Y-107994541D01*
X160013940Y-107888485D01*
X159816483Y-107806696D01*
X159606863Y-107765000D01*
X159393137Y-107765000D01*
X159183517Y-107806696D01*
X158986060Y-107888485D01*
X158808353Y-108007225D01*
X158657225Y-108158353D01*
X158538485Y-108336060D01*
X158456696Y-108533517D01*
X158415000Y-108743137D01*
X158415000Y-108956863D01*
X158456696Y-109166483D01*
X158538485Y-109363940D01*
X158657225Y-109541647D01*
X158808353Y-109692775D01*
X158986060Y-109811515D01*
X159183517Y-109893304D01*
X159393137Y-109935000D01*
X159606863Y-109935000D01*
X159816483Y-109893304D01*
X160013940Y-109811515D01*
X160191647Y-109692775D01*
X160270688Y-109613734D01*
X160270688Y-110386266D01*
X160191647Y-110307225D01*
X160013940Y-110188485D01*
X159816483Y-110106696D01*
X159606863Y-110065000D01*
X159393137Y-110065000D01*
X159183517Y-110106696D01*
X158986060Y-110188485D01*
X158808353Y-110307225D01*
X158657225Y-110458353D01*
X158538485Y-110636060D01*
X158456696Y-110833517D01*
X158415000Y-111043137D01*
X158415000Y-111256863D01*
X158456696Y-111466483D01*
X158538485Y-111663940D01*
X158657225Y-111841647D01*
X158808353Y-111992775D01*
X158986060Y-112111515D01*
X159183517Y-112193304D01*
X159393137Y-112235000D01*
X159606863Y-112235000D01*
X159816483Y-112193304D01*
X160013940Y-112111515D01*
X160172664Y-112005459D01*
X160116416Y-112648376D01*
X159809046Y-114391560D01*
X159350917Y-116101321D01*
X158745516Y-117764647D01*
X157997450Y-119368879D01*
X157723264Y-119843783D01*
X157702917Y-119741492D01*
X157621128Y-119544035D01*
X157502388Y-119366328D01*
X157351260Y-119215200D01*
X157173553Y-119096460D01*
X156976096Y-119014671D01*
X156766476Y-118972975D01*
X156552750Y-118972975D01*
X156343130Y-119014671D01*
X156145673Y-119096460D01*
X155967966Y-119215200D01*
X155816838Y-119366328D01*
X155698098Y-119544035D01*
X155616309Y-119741492D01*
X155574613Y-119951112D01*
X155574613Y-120164838D01*
X155616309Y-120374458D01*
X155698098Y-120571915D01*
X155816838Y-120749622D01*
X155967966Y-120900750D01*
X156145673Y-121019490D01*
X156343130Y-121101279D01*
X156552750Y-121142975D01*
X156766476Y-121142975D01*
X156972199Y-121102054D01*
X156425387Y-121882982D01*
X156425387Y-121835162D01*
X156383691Y-121625542D01*
X156301902Y-121428085D01*
X156183162Y-121250378D01*
X156032034Y-121099250D01*
X155854327Y-120980510D01*
X155656870Y-120898721D01*
X155447250Y-120857025D01*
X155233524Y-120857025D01*
X155023904Y-120898721D01*
X154826447Y-120980510D01*
X154648740Y-121099250D01*
X154497612Y-121250378D01*
X154378872Y-121428085D01*
X154297083Y-121625542D01*
X154255387Y-121835162D01*
X154255387Y-122048888D01*
X154297083Y-122258508D01*
X154378872Y-122455965D01*
X154497612Y-122633672D01*
X154648740Y-122784800D01*
X154826447Y-122903540D01*
X155023904Y-122985329D01*
X155233524Y-123027025D01*
X155447250Y-123027025D01*
X155547217Y-123007140D01*
X154959357Y-123707725D01*
X153707725Y-124959357D01*
X152351769Y-126097139D01*
X150901809Y-127112412D01*
X149368879Y-127997450D01*
X147764647Y-128745516D01*
X146101321Y-129350917D01*
X144391560Y-129809046D01*
X142648376Y-130116416D01*
X140885037Y-130270688D01*
X139114963Y-130270688D01*
X137351624Y-130116416D01*
X135608440Y-129809046D01*
X133898679Y-129350917D01*
X132235353Y-128745516D01*
X130631121Y-127997450D01*
X129098191Y-127112412D01*
X127648231Y-126097139D01*
X126292275Y-124959357D01*
X125040643Y-123707725D01*
X124452783Y-123007140D01*
X124552750Y-123027025D01*
X124766476Y-123027025D01*
X124976096Y-122985329D01*
X125173553Y-122903540D01*
X125351260Y-122784800D01*
X125502388Y-122633672D01*
X125621128Y-122455965D01*
X125702917Y-122258508D01*
X125744613Y-122048888D01*
X125744613Y-122007688D01*
X134836974Y-122007688D01*
X134840000Y-122714250D01*
X134998750Y-122873000D01*
X135536928Y-122873000D01*
X135536928Y-123127000D01*
X134998750Y-123127000D01*
X134840000Y-123285750D01*
X134836974Y-123992312D01*
X134847734Y-124116933D01*
X134882599Y-124237059D01*
X134940230Y-124348076D01*
X135018412Y-124445716D01*
X135114140Y-124526228D01*
X135223736Y-124586517D01*
X135342987Y-124624266D01*
X135443250Y-124635000D01*
X135602000Y-124476250D01*
X135602000Y-124208575D01*
X135659209Y-124315606D01*
X135698000Y-124362873D01*
X135698000Y-124476250D01*
X135856750Y-124635000D01*
X135957013Y-124624266D01*
X136037454Y-124598802D01*
X136120948Y-124624130D01*
X136262500Y-124638072D01*
X136437500Y-124638072D01*
X136579052Y-124624130D01*
X136700000Y-124587441D01*
X136820948Y-124624130D01*
X136962500Y-124638072D01*
X137137500Y-124638072D01*
X137279052Y-124624130D01*
X137400000Y-124587441D01*
X137520948Y-124624130D01*
X137662500Y-124638072D01*
X137837500Y-124638072D01*
X137979052Y-124624130D01*
X138100000Y-124587441D01*
X138220948Y-124624130D01*
X138362500Y-124638072D01*
X138537500Y-124638072D01*
X138679052Y-124624130D01*
X138800000Y-124587441D01*
X138920948Y-124624130D01*
X139062500Y-124638072D01*
X139237500Y-124638072D01*
X139379052Y-124624130D01*
X139462546Y-124598802D01*
X139542987Y-124624266D01*
X139643250Y-124635000D01*
X139802000Y-124476250D01*
X139802000Y-124362873D01*
X139830123Y-124328606D01*
X139840230Y-124348076D01*
X139898000Y-124420224D01*
X139898000Y-124476250D01*
X140056750Y-124635000D01*
X140157013Y-124624266D01*
X140200000Y-124610658D01*
X140242987Y-124624266D01*
X140343250Y-124635000D01*
X140502000Y-124476250D01*
X140502000Y-124420224D01*
X140559770Y-124348076D01*
X140569877Y-124328606D01*
X140598000Y-124362873D01*
X140598000Y-124476250D01*
X140756750Y-124635000D01*
X140857013Y-124624266D01*
X140937454Y-124598802D01*
X141020948Y-124624130D01*
X141162500Y-124638072D01*
X141337500Y-124638072D01*
X141479052Y-124624130D01*
X141600000Y-124587441D01*
X141720948Y-124624130D01*
X141862500Y-124638072D01*
X142037500Y-124638072D01*
X142179052Y-124624130D01*
X142300000Y-124587441D01*
X142420948Y-124624130D01*
X142562500Y-124638072D01*
X142737500Y-124638072D01*
X142879052Y-124624130D01*
X142962546Y-124598802D01*
X143042987Y-124624266D01*
X143143250Y-124635000D01*
X143302000Y-124476250D01*
X143302000Y-124362873D01*
X143340791Y-124315606D01*
X143398000Y-124208575D01*
X143398000Y-124476250D01*
X143556750Y-124635000D01*
X143657013Y-124624266D01*
X143776264Y-124586517D01*
X143885860Y-124526228D01*
X143981588Y-124445716D01*
X144059770Y-124348076D01*
X144117401Y-124237059D01*
X144152266Y-124116933D01*
X144163026Y-123992312D01*
X144160000Y-123285750D01*
X144001250Y-123127000D01*
X143463072Y-123127000D01*
X143463072Y-122873000D01*
X144001250Y-122873000D01*
X144160000Y-122714250D01*
X144163026Y-122007688D01*
X144152266Y-121883067D01*
X144117401Y-121762941D01*
X144059770Y-121651924D01*
X143981588Y-121554284D01*
X143885860Y-121473772D01*
X143776264Y-121413483D01*
X143657013Y-121375734D01*
X143556750Y-121365000D01*
X143398000Y-121523750D01*
X143398000Y-121791425D01*
X143340791Y-121684394D01*
X143302000Y-121637127D01*
X143302000Y-121523750D01*
X143143250Y-121365000D01*
X143042987Y-121375734D01*
X142962546Y-121401198D01*
X142879052Y-121375870D01*
X142737500Y-121361928D01*
X142562500Y-121361928D01*
X142420948Y-121375870D01*
X142300000Y-121412559D01*
X142179052Y-121375870D01*
X142037500Y-121361928D01*
X141862500Y-121361928D01*
X141720948Y-121375870D01*
X141600000Y-121412559D01*
X141479052Y-121375870D01*
X141337500Y-121361928D01*
X141162500Y-121361928D01*
X141020948Y-121375870D01*
X140937454Y-121401198D01*
X140857013Y-121375734D01*
X140756750Y-121365000D01*
X140598000Y-121523750D01*
X140598000Y-121637127D01*
X140569877Y-121671394D01*
X140559770Y-121651924D01*
X140502000Y-121579776D01*
X140502000Y-121523750D01*
X140343250Y-121365000D01*
X140242987Y-121375734D01*
X140200000Y-121389342D01*
X140157013Y-121375734D01*
X140056750Y-121365000D01*
X139898000Y-121523750D01*
X139898000Y-121579776D01*
X139840230Y-121651924D01*
X139830123Y-121671394D01*
X139802000Y-121637127D01*
X139802000Y-121523750D01*
X139643250Y-121365000D01*
X139542987Y-121375734D01*
X139462546Y-121401198D01*
X139379052Y-121375870D01*
X139237500Y-121361928D01*
X139062500Y-121361928D01*
X138920948Y-121375870D01*
X138800000Y-121412559D01*
X138679052Y-121375870D01*
X138537500Y-121361928D01*
X138362500Y-121361928D01*
X138220948Y-121375870D01*
X138100000Y-121412559D01*
X137979052Y-121375870D01*
X137837500Y-121361928D01*
X137662500Y-121361928D01*
X137520948Y-121375870D01*
X137400000Y-121412559D01*
X137279052Y-121375870D01*
X137137500Y-121361928D01*
X136962500Y-121361928D01*
X136820948Y-121375870D01*
X136700000Y-121412559D01*
X136579052Y-121375870D01*
X136437500Y-121361928D01*
X136262500Y-121361928D01*
X136120948Y-121375870D01*
X136037454Y-121401198D01*
X135957013Y-121375734D01*
X135856750Y-121365000D01*
X135698000Y-121523750D01*
X135698000Y-121637127D01*
X135659209Y-121684394D01*
X135602000Y-121791425D01*
X135602000Y-121523750D01*
X135443250Y-121365000D01*
X135342987Y-121375734D01*
X135223736Y-121413483D01*
X135114140Y-121473772D01*
X135018412Y-121554284D01*
X134940230Y-121651924D01*
X134882599Y-121762941D01*
X134847734Y-121883067D01*
X134836974Y-122007688D01*
X125744613Y-122007688D01*
X125744613Y-121835162D01*
X125702917Y-121625542D01*
X125621128Y-121428085D01*
X125502388Y-121250378D01*
X125351260Y-121099250D01*
X125173553Y-120980510D01*
X124976096Y-120898721D01*
X124766476Y-120857025D01*
X124552750Y-120857025D01*
X124343130Y-120898721D01*
X124145673Y-120980510D01*
X123967966Y-121099250D01*
X123816838Y-121250378D01*
X123698098Y-121428085D01*
X123616309Y-121625542D01*
X123574613Y-121835162D01*
X123574613Y-121882982D01*
X123027801Y-121102054D01*
X123233524Y-121142975D01*
X123447250Y-121142975D01*
X123656870Y-121101279D01*
X123854327Y-121019490D01*
X124032034Y-120900750D01*
X124183162Y-120749622D01*
X124301902Y-120571915D01*
X124383691Y-120374458D01*
X124425387Y-120164838D01*
X124425387Y-119951112D01*
X124383691Y-119741492D01*
X124301902Y-119544035D01*
X124183162Y-119366328D01*
X124032034Y-119215200D01*
X123854327Y-119096460D01*
X123656870Y-119014671D01*
X123447250Y-118972975D01*
X123233524Y-118972975D01*
X123023904Y-119014671D01*
X122826447Y-119096460D01*
X122648740Y-119215200D01*
X122497612Y-119366328D01*
X122378872Y-119544035D01*
X122297083Y-119741492D01*
X122276736Y-119843783D01*
X122002550Y-119368879D01*
X121254484Y-117764647D01*
X121022400Y-117127000D01*
X123000000Y-117127000D01*
X123025390Y-117124436D01*
X123049178Y-117117092D01*
X123071077Y-117105248D01*
X123090244Y-117089359D01*
X123105943Y-117070036D01*
X123117571Y-117048022D01*
X123124680Y-117024163D01*
X123126998Y-116999374D01*
X123057894Y-102971131D01*
X123508474Y-102971131D01*
X123543744Y-103183173D01*
X123747086Y-103273497D01*
X123964142Y-103322415D01*
X124186571Y-103328048D01*
X124405825Y-103290178D01*
X124613477Y-103210261D01*
X124664151Y-103183167D01*
X124698593Y-102970300D01*
X124103949Y-102375656D01*
X123508474Y-102971131D01*
X123057894Y-102971131D01*
X123056162Y-102619684D01*
X123116827Y-102756256D01*
X123328869Y-102791526D01*
X123924344Y-102196051D01*
X123329700Y-101601407D01*
X123116833Y-101635849D01*
X123089739Y-101686523D01*
X123052048Y-101784458D01*
X123050262Y-101421802D01*
X123509305Y-101421802D01*
X124103949Y-102016446D01*
X124111745Y-102008650D01*
X124120362Y-102021546D01*
X124278454Y-102179638D01*
X124291350Y-102188255D01*
X124283554Y-102196051D01*
X124878198Y-102790695D01*
X124962561Y-102777045D01*
X126220540Y-102777045D01*
X126220540Y-102969675D01*
X126258120Y-103158603D01*
X126331836Y-103336570D01*
X126438855Y-103496735D01*
X126463441Y-103521321D01*
X126463440Y-105128335D01*
X126459884Y-105164440D01*
X126463440Y-105200544D01*
X126474075Y-105308524D01*
X126516103Y-105447072D01*
X126584353Y-105574759D01*
X126676202Y-105686677D01*
X126704248Y-105709694D01*
X128964586Y-107970033D01*
X128987602Y-107998078D01*
X129099520Y-108089927D01*
X129227207Y-108158177D01*
X129365755Y-108200205D01*
X129473735Y-108210840D01*
X129473744Y-108210840D01*
X129509839Y-108214395D01*
X129545934Y-108210840D01*
X129888040Y-108210840D01*
X129912625Y-108235425D01*
X130072790Y-108342444D01*
X130250757Y-108416160D01*
X130439685Y-108453740D01*
X130632315Y-108453740D01*
X130821243Y-108416160D01*
X130999210Y-108342444D01*
X131159375Y-108235425D01*
X131295585Y-108099215D01*
X131402604Y-107939050D01*
X131476320Y-107761083D01*
X131513900Y-107572155D01*
X131513900Y-107379525D01*
X131476320Y-107190597D01*
X131402604Y-107012630D01*
X131295585Y-106852465D01*
X131159375Y-106716255D01*
X130999210Y-106609236D01*
X130821243Y-106535520D01*
X130632315Y-106497940D01*
X130439685Y-106497940D01*
X130250757Y-106535520D01*
X130072790Y-106609236D01*
X129912625Y-106716255D01*
X129888040Y-106740840D01*
X129814287Y-106740840D01*
X127933440Y-104859994D01*
X127933440Y-103521320D01*
X127958025Y-103496735D01*
X128065044Y-103336570D01*
X128138760Y-103158603D01*
X128176340Y-102969675D01*
X128176340Y-102777045D01*
X128138760Y-102588117D01*
X128065044Y-102410150D01*
X127958025Y-102249985D01*
X127821815Y-102113775D01*
X127661650Y-102006756D01*
X127483683Y-101933040D01*
X127294755Y-101895460D01*
X127102125Y-101895460D01*
X126913197Y-101933040D01*
X126735230Y-102006756D01*
X126575065Y-102113775D01*
X126438855Y-102249985D01*
X126331836Y-102410150D01*
X126258120Y-102588117D01*
X126220540Y-102777045D01*
X124962561Y-102777045D01*
X125091065Y-102756253D01*
X125118159Y-102705579D01*
X125198076Y-102497927D01*
X125212684Y-102413349D01*
X125333041Y-102389409D01*
X125539598Y-102303850D01*
X125725494Y-102179638D01*
X125883586Y-102021546D01*
X126007798Y-101835650D01*
X126093357Y-101629093D01*
X126116204Y-101514230D01*
X126231067Y-101491383D01*
X126437624Y-101405824D01*
X126623520Y-101281612D01*
X126781612Y-101123520D01*
X126905824Y-100937624D01*
X126991383Y-100731067D01*
X127014230Y-100616205D01*
X127129092Y-100593358D01*
X127335649Y-100507799D01*
X127521545Y-100383587D01*
X127679637Y-100225495D01*
X127803849Y-100039599D01*
X127850119Y-99927893D01*
X127940231Y-99900558D01*
X128050545Y-99841593D01*
X128147236Y-99762241D01*
X128854343Y-99055134D01*
X128933695Y-98958443D01*
X128992660Y-98848129D01*
X129028970Y-98728431D01*
X129041230Y-98603949D01*
X129028970Y-98479467D01*
X128992660Y-98359769D01*
X128933695Y-98249455D01*
X128854343Y-98152764D01*
X128147236Y-97445657D01*
X128050545Y-97366305D01*
X127940231Y-97307340D01*
X127820533Y-97271030D01*
X127696051Y-97258770D01*
X127571569Y-97271030D01*
X127451871Y-97307340D01*
X127341557Y-97366305D01*
X127244866Y-97445657D01*
X126537759Y-98152764D01*
X126458407Y-98249455D01*
X126399442Y-98359769D01*
X126372107Y-98449881D01*
X126260401Y-98496151D01*
X126074505Y-98620363D01*
X125916413Y-98778455D01*
X125792201Y-98964351D01*
X125706642Y-99170908D01*
X125683795Y-99285770D01*
X125568933Y-99308617D01*
X125362376Y-99394176D01*
X125176480Y-99518388D01*
X125018388Y-99676480D01*
X124894176Y-99862376D01*
X124808617Y-100068933D01*
X124785770Y-100183796D01*
X124670907Y-100206643D01*
X124464350Y-100292202D01*
X124278454Y-100416414D01*
X124120362Y-100574506D01*
X123996150Y-100760402D01*
X123910591Y-100966959D01*
X123886651Y-101087316D01*
X123802073Y-101101924D01*
X123594421Y-101181841D01*
X123543747Y-101208935D01*
X123509305Y-101421802D01*
X123050262Y-101421802D01*
X123037758Y-98883726D01*
X123902861Y-97648231D01*
X125040643Y-96292275D01*
X125129233Y-96203685D01*
X129222100Y-96203685D01*
X129222100Y-96396315D01*
X129259680Y-96585243D01*
X129333396Y-96763210D01*
X129440415Y-96923375D01*
X129576625Y-97059585D01*
X129736790Y-97166604D01*
X129914757Y-97240320D01*
X129970551Y-97251418D01*
X130780558Y-98061426D01*
X130806709Y-98093291D01*
X130933854Y-98197636D01*
X131078913Y-98275172D01*
X131236311Y-98322918D01*
X131358981Y-98335000D01*
X131358991Y-98335000D01*
X131399999Y-98339039D01*
X131441007Y-98335000D01*
X134439491Y-98335000D01*
X134486790Y-98366604D01*
X134664757Y-98440320D01*
X134853685Y-98477900D01*
X135046315Y-98477900D01*
X135235243Y-98440320D01*
X135413210Y-98366604D01*
X135573375Y-98259585D01*
X135709585Y-98123375D01*
X135816604Y-97963210D01*
X135890320Y-97785243D01*
X135927900Y-97596315D01*
X135927900Y-97403685D01*
X135890320Y-97214757D01*
X135816604Y-97036790D01*
X135709585Y-96876625D01*
X135573375Y-96740415D01*
X135413210Y-96633396D01*
X135235243Y-96559680D01*
X135046315Y-96522100D01*
X134853685Y-96522100D01*
X134664757Y-96559680D01*
X134486790Y-96633396D01*
X134439491Y-96665000D01*
X131745868Y-96665000D01*
X131151418Y-96070551D01*
X131140320Y-96014757D01*
X131066604Y-95836790D01*
X130959585Y-95676625D01*
X130823375Y-95540415D01*
X130663210Y-95433396D01*
X130485243Y-95359680D01*
X130296315Y-95322100D01*
X130103685Y-95322100D01*
X129914757Y-95359680D01*
X129736790Y-95433396D01*
X129576625Y-95540415D01*
X129440415Y-95676625D01*
X129333396Y-95836790D01*
X129259680Y-96014757D01*
X129222100Y-96203685D01*
X125129233Y-96203685D01*
X126292275Y-95040643D01*
X126693845Y-94703685D01*
X135572100Y-94703685D01*
X135572100Y-94896315D01*
X135609680Y-95085243D01*
X135683396Y-95263210D01*
X135790415Y-95423375D01*
X135926625Y-95559585D01*
X136086790Y-95666604D01*
X136264757Y-95740320D01*
X136320551Y-95751418D01*
X139280559Y-98711427D01*
X139306709Y-98743291D01*
X139433854Y-98847636D01*
X139578913Y-98925172D01*
X139736311Y-98972918D01*
X139858981Y-98985000D01*
X139858991Y-98985000D01*
X139899999Y-98989039D01*
X139941007Y-98985000D01*
X141489491Y-98985000D01*
X141536790Y-99016604D01*
X141714757Y-99090320D01*
X141903685Y-99127900D01*
X142096315Y-99127900D01*
X142285243Y-99090320D01*
X142463210Y-99016604D01*
X142623375Y-98909585D01*
X142759585Y-98773375D01*
X142866604Y-98613210D01*
X142940320Y-98435243D01*
X142977900Y-98246315D01*
X142977900Y-98053685D01*
X142940320Y-97864757D01*
X142866604Y-97686790D01*
X142759585Y-97526625D01*
X142623375Y-97390415D01*
X142463210Y-97283396D01*
X142285243Y-97209680D01*
X142096315Y-97172100D01*
X141903685Y-97172100D01*
X141714757Y-97209680D01*
X141536790Y-97283396D01*
X141489491Y-97315000D01*
X140245868Y-97315000D01*
X137501418Y-94570551D01*
X137490320Y-94514757D01*
X137416604Y-94336790D01*
X137309585Y-94176625D01*
X137173375Y-94040415D01*
X137013210Y-93933396D01*
X136835243Y-93859680D01*
X136646315Y-93822100D01*
X136453685Y-93822100D01*
X136264757Y-93859680D01*
X136086790Y-93933396D01*
X135926625Y-94040415D01*
X135790415Y-94176625D01*
X135683396Y-94336790D01*
X135609680Y-94514757D01*
X135572100Y-94703685D01*
X126693845Y-94703685D01*
X127648231Y-93902861D01*
X127937946Y-93700000D01*
X137861928Y-93700000D01*
X137874188Y-93824482D01*
X137910498Y-93944180D01*
X137969463Y-94054494D01*
X138048815Y-94151185D01*
X138145506Y-94230537D01*
X138255820Y-94289502D01*
X138375518Y-94325812D01*
X138500000Y-94338072D01*
X139714250Y-94335000D01*
X139873000Y-94176250D01*
X139873000Y-92327000D01*
X140127000Y-92327000D01*
X140127000Y-94176250D01*
X140285750Y-94335000D01*
X141500000Y-94338072D01*
X141624482Y-94325812D01*
X141744180Y-94289502D01*
X141854494Y-94230537D01*
X141951185Y-94151185D01*
X142030537Y-94054494D01*
X142089502Y-93944180D01*
X142125812Y-93824482D01*
X142138072Y-93700000D01*
X142135000Y-92485750D01*
X141976250Y-92327000D01*
X140127000Y-92327000D01*
X139873000Y-92327000D01*
X138023750Y-92327000D01*
X137865000Y-92485750D01*
X137861928Y-93700000D01*
X127937946Y-93700000D01*
X129098191Y-92887588D01*
X130631121Y-92002550D01*
X132235353Y-91254484D01*
X133758785Y-90700000D01*
X137861928Y-90700000D01*
X137865000Y-91914250D01*
X138023750Y-92073000D01*
X139873000Y-92073000D01*
X139873000Y-90223750D01*
X140127000Y-90223750D01*
X140127000Y-92073000D01*
X141976250Y-92073000D01*
X142135000Y-91914250D01*
X142138072Y-90700000D01*
X142125812Y-90575518D01*
X142089502Y-90455820D01*
X142030537Y-90345506D01*
X141951185Y-90248815D01*
X141854494Y-90169463D01*
X141744180Y-90110498D01*
X141624482Y-90074188D01*
X141500000Y-90061928D01*
X140285750Y-90065000D01*
X140127000Y-90223750D01*
X139873000Y-90223750D01*
X139714250Y-90065000D01*
X138500000Y-90061928D01*
X138375518Y-90074188D01*
X138255820Y-90110498D01*
X138145506Y-90169463D01*
X138048815Y-90248815D01*
X137969463Y-90345506D01*
X137910498Y-90455820D01*
X137874188Y-90575518D01*
X137861928Y-90700000D01*
X133758785Y-90700000D01*
X133898679Y-90649083D01*
X135608440Y-90190954D01*
X137351624Y-89883584D01*
X139114963Y-89729312D01*
X140885037Y-89729312D01*
X142648376Y-89883584D01*
G37*
X142648376Y-89883584D02*
X144391560Y-90190954D01*
X146101321Y-90649083D01*
X147764647Y-91254484D01*
X149368879Y-92002550D01*
X150901809Y-92887588D01*
X151579237Y-93361928D01*
X149500000Y-93361928D01*
X149375518Y-93374188D01*
X149255820Y-93410498D01*
X149145506Y-93469463D01*
X149048815Y-93548815D01*
X148969463Y-93645506D01*
X148910498Y-93755820D01*
X148874188Y-93875518D01*
X148861928Y-94000000D01*
X148861928Y-97000000D01*
X148874188Y-97124482D01*
X148910498Y-97244180D01*
X148969463Y-97354494D01*
X149048815Y-97451185D01*
X149145506Y-97530537D01*
X149255820Y-97589502D01*
X149375518Y-97625812D01*
X149500000Y-97638072D01*
X152500000Y-97638072D01*
X152624482Y-97625812D01*
X152744180Y-97589502D01*
X152854494Y-97530537D01*
X152951185Y-97451185D01*
X153030537Y-97354494D01*
X153089502Y-97244180D01*
X153125812Y-97124482D01*
X153138072Y-97000000D01*
X153138072Y-94562647D01*
X153707725Y-95040643D01*
X154959357Y-96292275D01*
X155931247Y-97450529D01*
X155766802Y-97450529D01*
X155557182Y-97492225D01*
X155359725Y-97574014D01*
X155182018Y-97692754D01*
X155030890Y-97843882D01*
X154912150Y-98021589D01*
X154830361Y-98219046D01*
X154788665Y-98428666D01*
X154788665Y-98642392D01*
X154830361Y-98852012D01*
X154912150Y-99049469D01*
X155030890Y-99227176D01*
X155182018Y-99378304D01*
X155359725Y-99497044D01*
X155557182Y-99578833D01*
X155766802Y-99620529D01*
X155980528Y-99620529D01*
X156190148Y-99578833D01*
X156387605Y-99497044D01*
X156565312Y-99378304D01*
X156716440Y-99227176D01*
X156835180Y-99049469D01*
X156916969Y-98852012D01*
X156922072Y-98826357D01*
X157112412Y-99098191D01*
X157280208Y-99388822D01*
X157233198Y-99379471D01*
X157019472Y-99379471D01*
X156809852Y-99421167D01*
X156612395Y-99502956D01*
X156434688Y-99621696D01*
X156283560Y-99772824D01*
X156164820Y-99950531D01*
X156083031Y-100147988D01*
X156041335Y-100357608D01*
X156041335Y-100571334D01*
X156083031Y-100780954D01*
X156164820Y-100978411D01*
X156283560Y-101156118D01*
X156434688Y-101307246D01*
X156612395Y-101425986D01*
X156809852Y-101507775D01*
X157019472Y-101549471D01*
X157233198Y-101549471D01*
X157442818Y-101507775D01*
X157640275Y-101425986D01*
X157817982Y-101307246D01*
X157969110Y-101156118D01*
X158087850Y-100978411D01*
X158121506Y-100897159D01*
X158745516Y-102235353D01*
X159350917Y-103898679D01*
X159809046Y-105608440D01*
X160116416Y-107351624D01*
X160172664Y-107994541D01*
X160013940Y-107888485D01*
X159816483Y-107806696D01*
X159606863Y-107765000D01*
X159393137Y-107765000D01*
X159183517Y-107806696D01*
X158986060Y-107888485D01*
X158808353Y-108007225D01*
X158657225Y-108158353D01*
X158538485Y-108336060D01*
X158456696Y-108533517D01*
X158415000Y-108743137D01*
X158415000Y-108956863D01*
X158456696Y-109166483D01*
X158538485Y-109363940D01*
X158657225Y-109541647D01*
X158808353Y-109692775D01*
X158986060Y-109811515D01*
X159183517Y-109893304D01*
X159393137Y-109935000D01*
X159606863Y-109935000D01*
X159816483Y-109893304D01*
X160013940Y-109811515D01*
X160191647Y-109692775D01*
X160270688Y-109613734D01*
X160270688Y-110386266D01*
X160191647Y-110307225D01*
X160013940Y-110188485D01*
X159816483Y-110106696D01*
X159606863Y-110065000D01*
X159393137Y-110065000D01*
X159183517Y-110106696D01*
X158986060Y-110188485D01*
X158808353Y-110307225D01*
X158657225Y-110458353D01*
X158538485Y-110636060D01*
X158456696Y-110833517D01*
X158415000Y-111043137D01*
X158415000Y-111256863D01*
X158456696Y-111466483D01*
X158538485Y-111663940D01*
X158657225Y-111841647D01*
X158808353Y-111992775D01*
X158986060Y-112111515D01*
X159183517Y-112193304D01*
X159393137Y-112235000D01*
X159606863Y-112235000D01*
X159816483Y-112193304D01*
X160013940Y-112111515D01*
X160172664Y-112005459D01*
X160116416Y-112648376D01*
X159809046Y-114391560D01*
X159350917Y-116101321D01*
X158745516Y-117764647D01*
X157997450Y-119368879D01*
X157723264Y-119843783D01*
X157702917Y-119741492D01*
X157621128Y-119544035D01*
X157502388Y-119366328D01*
X157351260Y-119215200D01*
X157173553Y-119096460D01*
X156976096Y-119014671D01*
X156766476Y-118972975D01*
X156552750Y-118972975D01*
X156343130Y-119014671D01*
X156145673Y-119096460D01*
X155967966Y-119215200D01*
X155816838Y-119366328D01*
X155698098Y-119544035D01*
X155616309Y-119741492D01*
X155574613Y-119951112D01*
X155574613Y-120164838D01*
X155616309Y-120374458D01*
X155698098Y-120571915D01*
X155816838Y-120749622D01*
X155967966Y-120900750D01*
X156145673Y-121019490D01*
X156343130Y-121101279D01*
X156552750Y-121142975D01*
X156766476Y-121142975D01*
X156972199Y-121102054D01*
X156425387Y-121882982D01*
X156425387Y-121835162D01*
X156383691Y-121625542D01*
X156301902Y-121428085D01*
X156183162Y-121250378D01*
X156032034Y-121099250D01*
X155854327Y-120980510D01*
X155656870Y-120898721D01*
X155447250Y-120857025D01*
X155233524Y-120857025D01*
X155023904Y-120898721D01*
X154826447Y-120980510D01*
X154648740Y-121099250D01*
X154497612Y-121250378D01*
X154378872Y-121428085D01*
X154297083Y-121625542D01*
X154255387Y-121835162D01*
X154255387Y-122048888D01*
X154297083Y-122258508D01*
X154378872Y-122455965D01*
X154497612Y-122633672D01*
X154648740Y-122784800D01*
X154826447Y-122903540D01*
X155023904Y-122985329D01*
X155233524Y-123027025D01*
X155447250Y-123027025D01*
X155547217Y-123007140D01*
X154959357Y-123707725D01*
X153707725Y-124959357D01*
X152351769Y-126097139D01*
X150901809Y-127112412D01*
X149368879Y-127997450D01*
X147764647Y-128745516D01*
X146101321Y-129350917D01*
X144391560Y-129809046D01*
X142648376Y-130116416D01*
X140885037Y-130270688D01*
X139114963Y-130270688D01*
X137351624Y-130116416D01*
X135608440Y-129809046D01*
X133898679Y-129350917D01*
X132235353Y-128745516D01*
X130631121Y-127997450D01*
X129098191Y-127112412D01*
X127648231Y-126097139D01*
X126292275Y-124959357D01*
X125040643Y-123707725D01*
X124452783Y-123007140D01*
X124552750Y-123027025D01*
X124766476Y-123027025D01*
X124976096Y-122985329D01*
X125173553Y-122903540D01*
X125351260Y-122784800D01*
X125502388Y-122633672D01*
X125621128Y-122455965D01*
X125702917Y-122258508D01*
X125744613Y-122048888D01*
X125744613Y-122007688D01*
X134836974Y-122007688D01*
X134840000Y-122714250D01*
X134998750Y-122873000D01*
X135536928Y-122873000D01*
X135536928Y-123127000D01*
X134998750Y-123127000D01*
X134840000Y-123285750D01*
X134836974Y-123992312D01*
X134847734Y-124116933D01*
X134882599Y-124237059D01*
X134940230Y-124348076D01*
X135018412Y-124445716D01*
X135114140Y-124526228D01*
X135223736Y-124586517D01*
X135342987Y-124624266D01*
X135443250Y-124635000D01*
X135602000Y-124476250D01*
X135602000Y-124208575D01*
X135659209Y-124315606D01*
X135698000Y-124362873D01*
X135698000Y-124476250D01*
X135856750Y-124635000D01*
X135957013Y-124624266D01*
X136037454Y-124598802D01*
X136120948Y-124624130D01*
X136262500Y-124638072D01*
X136437500Y-124638072D01*
X136579052Y-124624130D01*
X136700000Y-124587441D01*
X136820948Y-124624130D01*
X136962500Y-124638072D01*
X137137500Y-124638072D01*
X137279052Y-124624130D01*
X137400000Y-124587441D01*
X137520948Y-124624130D01*
X137662500Y-124638072D01*
X137837500Y-124638072D01*
X137979052Y-124624130D01*
X138100000Y-124587441D01*
X138220948Y-124624130D01*
X138362500Y-124638072D01*
X138537500Y-124638072D01*
X138679052Y-124624130D01*
X138800000Y-124587441D01*
X138920948Y-124624130D01*
X139062500Y-124638072D01*
X139237500Y-124638072D01*
X139379052Y-124624130D01*
X139462546Y-124598802D01*
X139542987Y-124624266D01*
X139643250Y-124635000D01*
X139802000Y-124476250D01*
X139802000Y-124362873D01*
X139830123Y-124328606D01*
X139840230Y-124348076D01*
X139898000Y-124420224D01*
X139898000Y-124476250D01*
X140056750Y-124635000D01*
X140157013Y-124624266D01*
X140200000Y-124610658D01*
X140242987Y-124624266D01*
X140343250Y-124635000D01*
X140502000Y-124476250D01*
X140502000Y-124420224D01*
X140559770Y-124348076D01*
X140569877Y-124328606D01*
X140598000Y-124362873D01*
X140598000Y-124476250D01*
X140756750Y-124635000D01*
X140857013Y-124624266D01*
X140937454Y-124598802D01*
X141020948Y-124624130D01*
X141162500Y-124638072D01*
X141337500Y-124638072D01*
X141479052Y-124624130D01*
X141600000Y-124587441D01*
X141720948Y-124624130D01*
X141862500Y-124638072D01*
X142037500Y-124638072D01*
X142179052Y-124624130D01*
X142300000Y-124587441D01*
X142420948Y-124624130D01*
X142562500Y-124638072D01*
X142737500Y-124638072D01*
X142879052Y-124624130D01*
X142962546Y-124598802D01*
X143042987Y-124624266D01*
X143143250Y-124635000D01*
X143302000Y-124476250D01*
X143302000Y-124362873D01*
X143340791Y-124315606D01*
X143398000Y-124208575D01*
X143398000Y-124476250D01*
X143556750Y-124635000D01*
X143657013Y-124624266D01*
X143776264Y-124586517D01*
X143885860Y-124526228D01*
X143981588Y-124445716D01*
X144059770Y-124348076D01*
X144117401Y-124237059D01*
X144152266Y-124116933D01*
X144163026Y-123992312D01*
X144160000Y-123285750D01*
X144001250Y-123127000D01*
X143463072Y-123127000D01*
X143463072Y-122873000D01*
X144001250Y-122873000D01*
X144160000Y-122714250D01*
X144163026Y-122007688D01*
X144152266Y-121883067D01*
X144117401Y-121762941D01*
X144059770Y-121651924D01*
X143981588Y-121554284D01*
X143885860Y-121473772D01*
X143776264Y-121413483D01*
X143657013Y-121375734D01*
X143556750Y-121365000D01*
X143398000Y-121523750D01*
X143398000Y-121791425D01*
X143340791Y-121684394D01*
X143302000Y-121637127D01*
X143302000Y-121523750D01*
X143143250Y-121365000D01*
X143042987Y-121375734D01*
X142962546Y-121401198D01*
X142879052Y-121375870D01*
X142737500Y-121361928D01*
X142562500Y-121361928D01*
X142420948Y-121375870D01*
X142300000Y-121412559D01*
X142179052Y-121375870D01*
X142037500Y-121361928D01*
X141862500Y-121361928D01*
X141720948Y-121375870D01*
X141600000Y-121412559D01*
X141479052Y-121375870D01*
X141337500Y-121361928D01*
X141162500Y-121361928D01*
X141020948Y-121375870D01*
X140937454Y-121401198D01*
X140857013Y-121375734D01*
X140756750Y-121365000D01*
X140598000Y-121523750D01*
X140598000Y-121637127D01*
X140569877Y-121671394D01*
X140559770Y-121651924D01*
X140502000Y-121579776D01*
X140502000Y-121523750D01*
X140343250Y-121365000D01*
X140242987Y-121375734D01*
X140200000Y-121389342D01*
X140157013Y-121375734D01*
X140056750Y-121365000D01*
X139898000Y-121523750D01*
X139898000Y-121579776D01*
X139840230Y-121651924D01*
X139830123Y-121671394D01*
X139802000Y-121637127D01*
X139802000Y-121523750D01*
X139643250Y-121365000D01*
X139542987Y-121375734D01*
X139462546Y-121401198D01*
X139379052Y-121375870D01*
X139237500Y-121361928D01*
X139062500Y-121361928D01*
X138920948Y-121375870D01*
X138800000Y-121412559D01*
X138679052Y-121375870D01*
X138537500Y-121361928D01*
X138362500Y-121361928D01*
X138220948Y-121375870D01*
X138100000Y-121412559D01*
X137979052Y-121375870D01*
X137837500Y-121361928D01*
X137662500Y-121361928D01*
X137520948Y-121375870D01*
X137400000Y-121412559D01*
X137279052Y-121375870D01*
X137137500Y-121361928D01*
X136962500Y-121361928D01*
X136820948Y-121375870D01*
X136700000Y-121412559D01*
X136579052Y-121375870D01*
X136437500Y-121361928D01*
X136262500Y-121361928D01*
X136120948Y-121375870D01*
X136037454Y-121401198D01*
X135957013Y-121375734D01*
X135856750Y-121365000D01*
X135698000Y-121523750D01*
X135698000Y-121637127D01*
X135659209Y-121684394D01*
X135602000Y-121791425D01*
X135602000Y-121523750D01*
X135443250Y-121365000D01*
X135342987Y-121375734D01*
X135223736Y-121413483D01*
X135114140Y-121473772D01*
X135018412Y-121554284D01*
X134940230Y-121651924D01*
X134882599Y-121762941D01*
X134847734Y-121883067D01*
X134836974Y-122007688D01*
X125744613Y-122007688D01*
X125744613Y-121835162D01*
X125702917Y-121625542D01*
X125621128Y-121428085D01*
X125502388Y-121250378D01*
X125351260Y-121099250D01*
X125173553Y-120980510D01*
X124976096Y-120898721D01*
X124766476Y-120857025D01*
X124552750Y-120857025D01*
X124343130Y-120898721D01*
X124145673Y-120980510D01*
X123967966Y-121099250D01*
X123816838Y-121250378D01*
X123698098Y-121428085D01*
X123616309Y-121625542D01*
X123574613Y-121835162D01*
X123574613Y-121882982D01*
X123027801Y-121102054D01*
X123233524Y-121142975D01*
X123447250Y-121142975D01*
X123656870Y-121101279D01*
X123854327Y-121019490D01*
X124032034Y-120900750D01*
X124183162Y-120749622D01*
X124301902Y-120571915D01*
X124383691Y-120374458D01*
X124425387Y-120164838D01*
X124425387Y-119951112D01*
X124383691Y-119741492D01*
X124301902Y-119544035D01*
X124183162Y-119366328D01*
X124032034Y-119215200D01*
X123854327Y-119096460D01*
X123656870Y-119014671D01*
X123447250Y-118972975D01*
X123233524Y-118972975D01*
X123023904Y-119014671D01*
X122826447Y-119096460D01*
X122648740Y-119215200D01*
X122497612Y-119366328D01*
X122378872Y-119544035D01*
X122297083Y-119741492D01*
X122276736Y-119843783D01*
X122002550Y-119368879D01*
X121254484Y-117764647D01*
X121022400Y-117127000D01*
X123000000Y-117127000D01*
X123025390Y-117124436D01*
X123049178Y-117117092D01*
X123071077Y-117105248D01*
X123090244Y-117089359D01*
X123105943Y-117070036D01*
X123117571Y-117048022D01*
X123124680Y-117024163D01*
X123126998Y-116999374D01*
X123057894Y-102971131D01*
X123508474Y-102971131D01*
X123543744Y-103183173D01*
X123747086Y-103273497D01*
X123964142Y-103322415D01*
X124186571Y-103328048D01*
X124405825Y-103290178D01*
X124613477Y-103210261D01*
X124664151Y-103183167D01*
X124698593Y-102970300D01*
X124103949Y-102375656D01*
X123508474Y-102971131D01*
X123057894Y-102971131D01*
X123056162Y-102619684D01*
X123116827Y-102756256D01*
X123328869Y-102791526D01*
X123924344Y-102196051D01*
X123329700Y-101601407D01*
X123116833Y-101635849D01*
X123089739Y-101686523D01*
X123052048Y-101784458D01*
X123050262Y-101421802D01*
X123509305Y-101421802D01*
X124103949Y-102016446D01*
X124111745Y-102008650D01*
X124120362Y-102021546D01*
X124278454Y-102179638D01*
X124291350Y-102188255D01*
X124283554Y-102196051D01*
X124878198Y-102790695D01*
X124962561Y-102777045D01*
X126220540Y-102777045D01*
X126220540Y-102969675D01*
X126258120Y-103158603D01*
X126331836Y-103336570D01*
X126438855Y-103496735D01*
X126463441Y-103521321D01*
X126463440Y-105128335D01*
X126459884Y-105164440D01*
X126463440Y-105200544D01*
X126474075Y-105308524D01*
X126516103Y-105447072D01*
X126584353Y-105574759D01*
X126676202Y-105686677D01*
X126704248Y-105709694D01*
X128964586Y-107970033D01*
X128987602Y-107998078D01*
X129099520Y-108089927D01*
X129227207Y-108158177D01*
X129365755Y-108200205D01*
X129473735Y-108210840D01*
X129473744Y-108210840D01*
X129509839Y-108214395D01*
X129545934Y-108210840D01*
X129888040Y-108210840D01*
X129912625Y-108235425D01*
X130072790Y-108342444D01*
X130250757Y-108416160D01*
X130439685Y-108453740D01*
X130632315Y-108453740D01*
X130821243Y-108416160D01*
X130999210Y-108342444D01*
X131159375Y-108235425D01*
X131295585Y-108099215D01*
X131402604Y-107939050D01*
X131476320Y-107761083D01*
X131513900Y-107572155D01*
X131513900Y-107379525D01*
X131476320Y-107190597D01*
X131402604Y-107012630D01*
X131295585Y-106852465D01*
X131159375Y-106716255D01*
X130999210Y-106609236D01*
X130821243Y-106535520D01*
X130632315Y-106497940D01*
X130439685Y-106497940D01*
X130250757Y-106535520D01*
X130072790Y-106609236D01*
X129912625Y-106716255D01*
X129888040Y-106740840D01*
X129814287Y-106740840D01*
X127933440Y-104859994D01*
X127933440Y-103521320D01*
X127958025Y-103496735D01*
X128065044Y-103336570D01*
X128138760Y-103158603D01*
X128176340Y-102969675D01*
X128176340Y-102777045D01*
X128138760Y-102588117D01*
X128065044Y-102410150D01*
X127958025Y-102249985D01*
X127821815Y-102113775D01*
X127661650Y-102006756D01*
X127483683Y-101933040D01*
X127294755Y-101895460D01*
X127102125Y-101895460D01*
X126913197Y-101933040D01*
X126735230Y-102006756D01*
X126575065Y-102113775D01*
X126438855Y-102249985D01*
X126331836Y-102410150D01*
X126258120Y-102588117D01*
X126220540Y-102777045D01*
X124962561Y-102777045D01*
X125091065Y-102756253D01*
X125118159Y-102705579D01*
X125198076Y-102497927D01*
X125212684Y-102413349D01*
X125333041Y-102389409D01*
X125539598Y-102303850D01*
X125725494Y-102179638D01*
X125883586Y-102021546D01*
X126007798Y-101835650D01*
X126093357Y-101629093D01*
X126116204Y-101514230D01*
X126231067Y-101491383D01*
X126437624Y-101405824D01*
X126623520Y-101281612D01*
X126781612Y-101123520D01*
X126905824Y-100937624D01*
X126991383Y-100731067D01*
X127014230Y-100616205D01*
X127129092Y-100593358D01*
X127335649Y-100507799D01*
X127521545Y-100383587D01*
X127679637Y-100225495D01*
X127803849Y-100039599D01*
X127850119Y-99927893D01*
X127940231Y-99900558D01*
X128050545Y-99841593D01*
X128147236Y-99762241D01*
X128854343Y-99055134D01*
X128933695Y-98958443D01*
X128992660Y-98848129D01*
X129028970Y-98728431D01*
X129041230Y-98603949D01*
X129028970Y-98479467D01*
X128992660Y-98359769D01*
X128933695Y-98249455D01*
X128854343Y-98152764D01*
X128147236Y-97445657D01*
X128050545Y-97366305D01*
X127940231Y-97307340D01*
X127820533Y-97271030D01*
X127696051Y-97258770D01*
X127571569Y-97271030D01*
X127451871Y-97307340D01*
X127341557Y-97366305D01*
X127244866Y-97445657D01*
X126537759Y-98152764D01*
X126458407Y-98249455D01*
X126399442Y-98359769D01*
X126372107Y-98449881D01*
X126260401Y-98496151D01*
X126074505Y-98620363D01*
X125916413Y-98778455D01*
X125792201Y-98964351D01*
X125706642Y-99170908D01*
X125683795Y-99285770D01*
X125568933Y-99308617D01*
X125362376Y-99394176D01*
X125176480Y-99518388D01*
X125018388Y-99676480D01*
X124894176Y-99862376D01*
X124808617Y-100068933D01*
X124785770Y-100183796D01*
X124670907Y-100206643D01*
X124464350Y-100292202D01*
X124278454Y-100416414D01*
X124120362Y-100574506D01*
X123996150Y-100760402D01*
X123910591Y-100966959D01*
X123886651Y-101087316D01*
X123802073Y-101101924D01*
X123594421Y-101181841D01*
X123543747Y-101208935D01*
X123509305Y-101421802D01*
X123050262Y-101421802D01*
X123037758Y-98883726D01*
X123902861Y-97648231D01*
X125040643Y-96292275D01*
X125129233Y-96203685D01*
X129222100Y-96203685D01*
X129222100Y-96396315D01*
X129259680Y-96585243D01*
X129333396Y-96763210D01*
X129440415Y-96923375D01*
X129576625Y-97059585D01*
X129736790Y-97166604D01*
X129914757Y-97240320D01*
X129970551Y-97251418D01*
X130780558Y-98061426D01*
X130806709Y-98093291D01*
X130933854Y-98197636D01*
X131078913Y-98275172D01*
X131236311Y-98322918D01*
X131358981Y-98335000D01*
X131358991Y-98335000D01*
X131399999Y-98339039D01*
X131441007Y-98335000D01*
X134439491Y-98335000D01*
X134486790Y-98366604D01*
X134664757Y-98440320D01*
X134853685Y-98477900D01*
X135046315Y-98477900D01*
X135235243Y-98440320D01*
X135413210Y-98366604D01*
X135573375Y-98259585D01*
X135709585Y-98123375D01*
X135816604Y-97963210D01*
X135890320Y-97785243D01*
X135927900Y-97596315D01*
X135927900Y-97403685D01*
X135890320Y-97214757D01*
X135816604Y-97036790D01*
X135709585Y-96876625D01*
X135573375Y-96740415D01*
X135413210Y-96633396D01*
X135235243Y-96559680D01*
X135046315Y-96522100D01*
X134853685Y-96522100D01*
X134664757Y-96559680D01*
X134486790Y-96633396D01*
X134439491Y-96665000D01*
X131745868Y-96665000D01*
X131151418Y-96070551D01*
X131140320Y-96014757D01*
X131066604Y-95836790D01*
X130959585Y-95676625D01*
X130823375Y-95540415D01*
X130663210Y-95433396D01*
X130485243Y-95359680D01*
X130296315Y-95322100D01*
X130103685Y-95322100D01*
X129914757Y-95359680D01*
X129736790Y-95433396D01*
X129576625Y-95540415D01*
X129440415Y-95676625D01*
X129333396Y-95836790D01*
X129259680Y-96014757D01*
X129222100Y-96203685D01*
X125129233Y-96203685D01*
X126292275Y-95040643D01*
X126693845Y-94703685D01*
X135572100Y-94703685D01*
X135572100Y-94896315D01*
X135609680Y-95085243D01*
X135683396Y-95263210D01*
X135790415Y-95423375D01*
X135926625Y-95559585D01*
X136086790Y-95666604D01*
X136264757Y-95740320D01*
X136320551Y-95751418D01*
X139280559Y-98711427D01*
X139306709Y-98743291D01*
X139433854Y-98847636D01*
X139578913Y-98925172D01*
X139736311Y-98972918D01*
X139858981Y-98985000D01*
X139858991Y-98985000D01*
X139899999Y-98989039D01*
X139941007Y-98985000D01*
X141489491Y-98985000D01*
X141536790Y-99016604D01*
X141714757Y-99090320D01*
X141903685Y-99127900D01*
X142096315Y-99127900D01*
X142285243Y-99090320D01*
X142463210Y-99016604D01*
X142623375Y-98909585D01*
X142759585Y-98773375D01*
X142866604Y-98613210D01*
X142940320Y-98435243D01*
X142977900Y-98246315D01*
X142977900Y-98053685D01*
X142940320Y-97864757D01*
X142866604Y-97686790D01*
X142759585Y-97526625D01*
X142623375Y-97390415D01*
X142463210Y-97283396D01*
X142285243Y-97209680D01*
X142096315Y-97172100D01*
X141903685Y-97172100D01*
X141714757Y-97209680D01*
X141536790Y-97283396D01*
X141489491Y-97315000D01*
X140245868Y-97315000D01*
X137501418Y-94570551D01*
X137490320Y-94514757D01*
X137416604Y-94336790D01*
X137309585Y-94176625D01*
X137173375Y-94040415D01*
X137013210Y-93933396D01*
X136835243Y-93859680D01*
X136646315Y-93822100D01*
X136453685Y-93822100D01*
X136264757Y-93859680D01*
X136086790Y-93933396D01*
X135926625Y-94040415D01*
X135790415Y-94176625D01*
X135683396Y-94336790D01*
X135609680Y-94514757D01*
X135572100Y-94703685D01*
X126693845Y-94703685D01*
X127648231Y-93902861D01*
X127937946Y-93700000D01*
X137861928Y-93700000D01*
X137874188Y-93824482D01*
X137910498Y-93944180D01*
X137969463Y-94054494D01*
X138048815Y-94151185D01*
X138145506Y-94230537D01*
X138255820Y-94289502D01*
X138375518Y-94325812D01*
X138500000Y-94338072D01*
X139714250Y-94335000D01*
X139873000Y-94176250D01*
X139873000Y-92327000D01*
X140127000Y-92327000D01*
X140127000Y-94176250D01*
X140285750Y-94335000D01*
X141500000Y-94338072D01*
X141624482Y-94325812D01*
X141744180Y-94289502D01*
X141854494Y-94230537D01*
X141951185Y-94151185D01*
X142030537Y-94054494D01*
X142089502Y-93944180D01*
X142125812Y-93824482D01*
X142138072Y-93700000D01*
X142135000Y-92485750D01*
X141976250Y-92327000D01*
X140127000Y-92327000D01*
X139873000Y-92327000D01*
X138023750Y-92327000D01*
X137865000Y-92485750D01*
X137861928Y-93700000D01*
X127937946Y-93700000D01*
X129098191Y-92887588D01*
X130631121Y-92002550D01*
X132235353Y-91254484D01*
X133758785Y-90700000D01*
X137861928Y-90700000D01*
X137865000Y-91914250D01*
X138023750Y-92073000D01*
X139873000Y-92073000D01*
X139873000Y-90223750D01*
X140127000Y-90223750D01*
X140127000Y-92073000D01*
X141976250Y-92073000D01*
X142135000Y-91914250D01*
X142138072Y-90700000D01*
X142125812Y-90575518D01*
X142089502Y-90455820D01*
X142030537Y-90345506D01*
X141951185Y-90248815D01*
X141854494Y-90169463D01*
X141744180Y-90110498D01*
X141624482Y-90074188D01*
X141500000Y-90061928D01*
X140285750Y-90065000D01*
X140127000Y-90223750D01*
X139873000Y-90223750D01*
X139714250Y-90065000D01*
X138500000Y-90061928D01*
X138375518Y-90074188D01*
X138255820Y-90110498D01*
X138145506Y-90169463D01*
X138048815Y-90248815D01*
X137969463Y-90345506D01*
X137910498Y-90455820D01*
X137874188Y-90575518D01*
X137861928Y-90700000D01*
X133758785Y-90700000D01*
X133898679Y-90649083D01*
X135608440Y-90190954D01*
X137351624Y-89883584D01*
X139114963Y-89729312D01*
X140885037Y-89729312D01*
X142648376Y-89883584D01*
M02*
