G04 #@! TF.GenerationSoftware,KiCad,Pcbnew,(5.1.6)-1*
G04 #@! TF.CreationDate,2020-05-24T14:26:43-05:00*
G04 #@! TF.ProjectId,nrf,6e72662e-6b69-4636-9164-5f7063625858,rev?*
G04 #@! TF.SameCoordinates,Original*
G04 #@! TF.FileFunction,Legend,Top*
G04 #@! TF.FilePolarity,Positive*
%FSLAX46Y46*%
G04 Gerber Fmt 4.6, Leading zero omitted, Abs format (unit mm)*
G04 Created by KiCad (PCBNEW (5.1.6)-1) date 2020-05-24 14:26:43*
%MOMM*%
%LPD*%
G01*
G04 APERTURE LIST*
%ADD10C,0.150000*%
%ADD11C,0.120000*%
%ADD12C,0.100000*%
%ADD13C,0.200000*%
%ADD14C,0.254000*%
%ADD15C,0.125000*%
G04 APERTURE END LIST*
D10*
X102500000Y-115000000D02*
G75*
G03*
X102500000Y-115000000I-17500000J0D01*
G01*
D11*
X147300000Y-100400000D02*
X146600000Y-100400000D01*
X146600000Y-99200000D02*
X147300000Y-99200000D01*
D12*
X119750000Y-115250000D02*
X119750000Y-104750000D01*
X119750000Y-104750000D02*
X135250000Y-104750000D01*
X135250000Y-104750000D02*
X135250000Y-115250000D01*
X135250000Y-115250000D02*
X119750000Y-115250000D01*
X123700000Y-115600000D02*
X123700000Y-115600000D01*
X123800000Y-115600000D02*
X123800000Y-115600000D01*
X123800000Y-115600000D02*
G75*
G02*
X123700000Y-115600000I-50000J0D01*
G01*
X123700000Y-115600000D02*
G75*
G02*
X123800000Y-115600000I50000J0D01*
G01*
X127448880Y-100284080D02*
X127448880Y-100784080D01*
X128705035Y-100784080D02*
G75*
G03*
X128705035Y-100784080I-206155J0D01*
G01*
X128610683Y-100784080D02*
G75*
G03*
X128610683Y-100784080I-111803J0D01*
G01*
X128548880Y-100784080D02*
G75*
G03*
X128548880Y-100784080I-50000J0D01*
G01*
X127948880Y-100284080D02*
X128948880Y-100284080D01*
X127948880Y-104284080D02*
X127948880Y-100284080D01*
X130948880Y-104284080D02*
X127948880Y-104284080D01*
X130948880Y-100284080D02*
X130948880Y-104284080D01*
X128948880Y-100284080D02*
X130948880Y-100284080D01*
D11*
X140500000Y-115250000D02*
X140500000Y-115950000D01*
X139300000Y-115950000D02*
X139300000Y-115250000D01*
X125300000Y-118100000D02*
X125300000Y-117400000D01*
X126500000Y-117400000D02*
X126500000Y-118100000D01*
X141900000Y-124350000D02*
X142600000Y-124350000D01*
X142600000Y-125550000D02*
X141900000Y-125550000D01*
X140450000Y-111700000D02*
X140450000Y-112400000D01*
X139250000Y-112400000D02*
X139250000Y-111700000D01*
X126500000Y-118050000D02*
X126500000Y-117350000D01*
X127700000Y-117350000D02*
X127700000Y-118050000D01*
X137850000Y-108200000D02*
X137150000Y-108200000D01*
X137150000Y-107000000D02*
X137850000Y-107000000D01*
X149700000Y-115750000D02*
X149700000Y-114050000D01*
X149700000Y-114050000D02*
X147150000Y-114050000D01*
X149700000Y-115750000D02*
X147150000Y-115750000D01*
X126264160Y-98070083D02*
X122587205Y-101747039D01*
X122587205Y-101747039D02*
X124552961Y-103712795D01*
X124552961Y-103712795D02*
X128229917Y-100035840D01*
X128229917Y-100035840D02*
X126264160Y-98070083D01*
X126713173Y-97621071D02*
X127247038Y-97087205D01*
X127247038Y-97087205D02*
X128229917Y-98070083D01*
D12*
X151500000Y-125000000D02*
G75*
G03*
X151500000Y-125000000I-3500000J0D01*
G01*
X149000000Y-121600000D02*
X149000000Y-117500000D01*
X149000000Y-117500000D02*
X147000000Y-117500000D01*
X147000000Y-117500000D02*
X147000000Y-121600000D01*
X149000000Y-120300000D02*
X147000000Y-120300000D01*
D11*
X131620000Y-119760000D02*
X132550000Y-119760000D01*
X134780000Y-119760000D02*
X133850000Y-119760000D01*
X134780000Y-119760000D02*
X134780000Y-117600000D01*
X131620000Y-119760000D02*
X131620000Y-118300000D01*
X147760000Y-117680000D02*
X146300000Y-117680000D01*
X147760000Y-114520000D02*
X145600000Y-114520000D01*
X147760000Y-114520000D02*
X147760000Y-115450000D01*
X147760000Y-117680000D02*
X147760000Y-116750000D01*
X134920000Y-119760000D02*
X134920000Y-118300000D01*
X138080000Y-119760000D02*
X138080000Y-117600000D01*
X138080000Y-119760000D02*
X137150000Y-119760000D01*
X134920000Y-119760000D02*
X135850000Y-119760000D01*
X128320000Y-119760000D02*
X129250000Y-119760000D01*
X131480000Y-119760000D02*
X130550000Y-119760000D01*
X131480000Y-119760000D02*
X131480000Y-117600000D01*
X128320000Y-119760000D02*
X128320000Y-118300000D01*
X146500000Y-114480000D02*
X145500000Y-114480000D01*
X145500000Y-113120000D02*
X146500000Y-113120000D01*
X133900000Y-117280000D02*
X132900000Y-117280000D01*
X132900000Y-115920000D02*
X133900000Y-115920000D01*
X132380000Y-122100000D02*
X132380000Y-123100000D01*
X131020000Y-123100000D02*
X131020000Y-122100000D01*
X136700000Y-115920000D02*
X137700000Y-115920000D01*
X137700000Y-117280000D02*
X136700000Y-117280000D01*
X130100000Y-117280000D02*
X129100000Y-117280000D01*
X129100000Y-115920000D02*
X130100000Y-115920000D01*
X132420000Y-123100000D02*
X132420000Y-122100000D01*
X133780000Y-122100000D02*
X133780000Y-123100000D01*
X130980000Y-122100000D02*
X130980000Y-123100000D01*
X129620000Y-123100000D02*
X129620000Y-122100000D01*
X144020000Y-116900000D02*
X144020000Y-115900000D01*
X145380000Y-115900000D02*
X145380000Y-116900000D01*
X135720000Y-126800000D02*
X135720000Y-125800000D01*
X137080000Y-125800000D02*
X137080000Y-126800000D01*
X139080000Y-125800000D02*
X139080000Y-126800000D01*
X137720000Y-126800000D02*
X137720000Y-125800000D01*
X148150000Y-108100000D02*
X147450000Y-108100000D01*
X147450000Y-106900000D02*
X148150000Y-106900000D01*
X147900000Y-100900000D02*
X148600000Y-100900000D01*
X148600000Y-102100000D02*
X147900000Y-102100000D01*
D13*
X147350000Y-105650000D02*
X147350000Y-105650000D01*
X147350000Y-105750000D02*
X147350000Y-105750000D01*
X147350000Y-105650000D02*
X147350000Y-105650000D01*
X147350000Y-105750000D02*
G75*
G02*
X147350000Y-105650000I0J50000D01*
G01*
X147350000Y-105650000D02*
G75*
G02*
X147350000Y-105750000I0J-50000D01*
G01*
X147350000Y-105750000D02*
G75*
G02*
X147350000Y-105650000I0J50000D01*
G01*
D11*
X150270000Y-106700000D02*
X150270000Y-105700000D01*
X151630000Y-105700000D02*
X151630000Y-106700000D01*
X144570000Y-103600000D02*
X144570000Y-102600000D01*
X145930000Y-102600000D02*
X145930000Y-103600000D01*
X141250000Y-99600000D02*
X141950000Y-99600000D01*
X141950000Y-100800000D02*
X141250000Y-100800000D01*
X149100000Y-98400000D02*
X149100000Y-97700000D01*
X150300000Y-97700000D02*
X150300000Y-98400000D01*
X146600000Y-97800000D02*
X147300000Y-97800000D01*
X147300000Y-99000000D02*
X146600000Y-99000000D01*
X134350000Y-98180000D02*
X133350000Y-98180000D01*
X133350000Y-96820000D02*
X134350000Y-96820000D01*
X139550000Y-95430000D02*
X138550000Y-95430000D01*
X138550000Y-94070000D02*
X139550000Y-94070000D01*
X143550000Y-95430000D02*
X142550000Y-95430000D01*
X142550000Y-94070000D02*
X143550000Y-94070000D01*
X136350000Y-101320000D02*
X137350000Y-101320000D01*
X137350000Y-102680000D02*
X136350000Y-102680000D01*
X140300000Y-101320000D02*
X141300000Y-101320000D01*
X141300000Y-102680000D02*
X140300000Y-102680000D01*
X134350000Y-96680000D02*
X133350000Y-96680000D01*
X133350000Y-95320000D02*
X134350000Y-95320000D01*
D10*
X140575000Y-100325000D02*
X139800000Y-100325000D01*
X136275000Y-96025000D02*
X137050000Y-96025000D01*
X136275000Y-100325000D02*
X137050000Y-100325000D01*
X140575000Y-96025000D02*
X140575000Y-96800000D01*
X136275000Y-96025000D02*
X136275000Y-96800000D01*
X136275000Y-100325000D02*
X136275000Y-99550000D01*
X140575000Y-100325000D02*
X140575000Y-99550000D01*
D11*
X146150000Y-97460000D02*
X147950000Y-97460000D01*
X147950000Y-94240000D02*
X145500000Y-94240000D01*
X142700000Y-113500000D02*
X142700000Y-114600000D01*
X140800000Y-113500000D02*
X140800000Y-114600000D01*
X142650000Y-111350000D02*
X140850000Y-111350000D01*
X125454666Y-99532535D02*
X125700412Y-99704608D01*
X125700412Y-99704608D02*
X127593214Y-97001406D01*
X127593214Y-97001406D02*
X127347468Y-96829333D01*
X123652532Y-98270667D02*
X123406786Y-98098594D01*
X123406786Y-98098594D02*
X125299588Y-95395392D01*
X125299588Y-95395392D02*
X125545334Y-95567465D01*
X142600000Y-95650000D02*
X143300000Y-95650000D01*
X143300000Y-96850000D02*
X142600000Y-96850000D01*
D10*
X146783333Y-101407142D02*
X146735714Y-101454761D01*
X146592857Y-101502380D01*
X146497619Y-101502380D01*
X146354761Y-101454761D01*
X146259523Y-101359523D01*
X146211904Y-101264285D01*
X146164285Y-101073809D01*
X146164285Y-100930952D01*
X146211904Y-100740476D01*
X146259523Y-100645238D01*
X146354761Y-100550000D01*
X146497619Y-100502380D01*
X146592857Y-100502380D01*
X146735714Y-100550000D01*
X146783333Y-100597619D01*
X147116666Y-100502380D02*
X147783333Y-100502380D01*
X147354761Y-101502380D01*
D14*
X128074523Y-111239761D02*
X126804523Y-111239761D01*
X127953571Y-109909285D02*
X128014047Y-109969761D01*
X128074523Y-110151190D01*
X128074523Y-110272142D01*
X128014047Y-110453571D01*
X127893095Y-110574523D01*
X127772142Y-110635000D01*
X127530238Y-110695476D01*
X127348809Y-110695476D01*
X127106904Y-110635000D01*
X126985952Y-110574523D01*
X126865000Y-110453571D01*
X126804523Y-110272142D01*
X126804523Y-110151190D01*
X126865000Y-109969761D01*
X126925476Y-109909285D01*
X126925476Y-109425476D02*
X126865000Y-109365000D01*
X126804523Y-109244047D01*
X126804523Y-108941666D01*
X126865000Y-108820714D01*
X126925476Y-108760238D01*
X127046428Y-108699761D01*
X127167380Y-108699761D01*
X127348809Y-108760238D01*
X128074523Y-109485952D01*
X128074523Y-108699761D01*
D10*
X128838095Y-99052380D02*
X128838095Y-99861904D01*
X128885714Y-99957142D01*
X128933333Y-100004761D01*
X129028571Y-100052380D01*
X129219047Y-100052380D01*
X129314285Y-100004761D01*
X129361904Y-99957142D01*
X129409523Y-99861904D01*
X129409523Y-99052380D01*
X130409523Y-100052380D02*
X129838095Y-100052380D01*
X130123809Y-100052380D02*
X130123809Y-99052380D01*
X130028571Y-99195238D01*
X129933333Y-99290476D01*
X129838095Y-99338095D01*
X139007142Y-115766666D02*
X139054761Y-115814285D01*
X139102380Y-115957142D01*
X139102380Y-116052380D01*
X139054761Y-116195238D01*
X138959523Y-116290476D01*
X138864285Y-116338095D01*
X138673809Y-116385714D01*
X138530952Y-116385714D01*
X138340476Y-116338095D01*
X138245238Y-116290476D01*
X138150000Y-116195238D01*
X138102380Y-116052380D01*
X138102380Y-115957142D01*
X138150000Y-115814285D01*
X138197619Y-115766666D01*
X139102380Y-114814285D02*
X139102380Y-115385714D01*
X139102380Y-115100000D02*
X138102380Y-115100000D01*
X138245238Y-115195238D01*
X138340476Y-115290476D01*
X138388095Y-115385714D01*
D15*
X124978571Y-116783333D02*
X125002380Y-116807142D01*
X125026190Y-116878571D01*
X125026190Y-116926190D01*
X125002380Y-116997619D01*
X124954761Y-117045238D01*
X124907142Y-117069047D01*
X124811904Y-117092857D01*
X124740476Y-117092857D01*
X124645238Y-117069047D01*
X124597619Y-117045238D01*
X124550000Y-116997619D01*
X124526190Y-116926190D01*
X124526190Y-116878571D01*
X124550000Y-116807142D01*
X124573809Y-116783333D01*
X124573809Y-116592857D02*
X124550000Y-116569047D01*
X124526190Y-116521428D01*
X124526190Y-116402380D01*
X124550000Y-116354761D01*
X124573809Y-116330952D01*
X124621428Y-116307142D01*
X124669047Y-116307142D01*
X124740476Y-116330952D01*
X125026190Y-116616666D01*
X125026190Y-116307142D01*
D10*
X142083333Y-124057142D02*
X142035714Y-124104761D01*
X141892857Y-124152380D01*
X141797619Y-124152380D01*
X141654761Y-124104761D01*
X141559523Y-124009523D01*
X141511904Y-123914285D01*
X141464285Y-123723809D01*
X141464285Y-123580952D01*
X141511904Y-123390476D01*
X141559523Y-123295238D01*
X141654761Y-123200000D01*
X141797619Y-123152380D01*
X141892857Y-123152380D01*
X142035714Y-123200000D01*
X142083333Y-123247619D01*
X142654761Y-123580952D02*
X142559523Y-123533333D01*
X142511904Y-123485714D01*
X142464285Y-123390476D01*
X142464285Y-123342857D01*
X142511904Y-123247619D01*
X142559523Y-123200000D01*
X142654761Y-123152380D01*
X142845238Y-123152380D01*
X142940476Y-123200000D01*
X142988095Y-123247619D01*
X143035714Y-123342857D01*
X143035714Y-123390476D01*
X142988095Y-123485714D01*
X142940476Y-123533333D01*
X142845238Y-123580952D01*
X142654761Y-123580952D01*
X142559523Y-123628571D01*
X142511904Y-123676190D01*
X142464285Y-123771428D01*
X142464285Y-123961904D01*
X142511904Y-124057142D01*
X142559523Y-124104761D01*
X142654761Y-124152380D01*
X142845238Y-124152380D01*
X142940476Y-124104761D01*
X142988095Y-124057142D01*
X143035714Y-123961904D01*
X143035714Y-123771428D01*
X142988095Y-123676190D01*
X142940476Y-123628571D01*
X142845238Y-123580952D01*
X141457142Y-112692857D02*
X141504761Y-112740476D01*
X141552380Y-112883333D01*
X141552380Y-112978571D01*
X141504761Y-113121428D01*
X141409523Y-113216666D01*
X141314285Y-113264285D01*
X141123809Y-113311904D01*
X140980952Y-113311904D01*
X140790476Y-113264285D01*
X140695238Y-113216666D01*
X140600000Y-113121428D01*
X140552380Y-112978571D01*
X140552380Y-112883333D01*
X140600000Y-112740476D01*
X140647619Y-112692857D01*
X141552380Y-111740476D02*
X141552380Y-112311904D01*
X141552380Y-112026190D02*
X140552380Y-112026190D01*
X140695238Y-112121428D01*
X140790476Y-112216666D01*
X140838095Y-112311904D01*
X140552380Y-111121428D02*
X140552380Y-111026190D01*
X140600000Y-110930952D01*
X140647619Y-110883333D01*
X140742857Y-110835714D01*
X140933333Y-110788095D01*
X141171428Y-110788095D01*
X141361904Y-110835714D01*
X141457142Y-110883333D01*
X141504761Y-110930952D01*
X141552380Y-111026190D01*
X141552380Y-111121428D01*
X141504761Y-111216666D01*
X141457142Y-111264285D01*
X141361904Y-111311904D01*
X141171428Y-111359523D01*
X140933333Y-111359523D01*
X140742857Y-111311904D01*
X140647619Y-111264285D01*
X140600000Y-111216666D01*
X140552380Y-111121428D01*
D15*
X126778571Y-120078571D02*
X126754761Y-120102380D01*
X126683333Y-120126190D01*
X126635714Y-120126190D01*
X126564285Y-120102380D01*
X126516666Y-120054761D01*
X126492857Y-120007142D01*
X126469047Y-119911904D01*
X126469047Y-119840476D01*
X126492857Y-119745238D01*
X126516666Y-119697619D01*
X126564285Y-119650000D01*
X126635714Y-119626190D01*
X126683333Y-119626190D01*
X126754761Y-119650000D01*
X126778571Y-119673809D01*
X127254761Y-120126190D02*
X126969047Y-120126190D01*
X127111904Y-120126190D02*
X127111904Y-119626190D01*
X127064285Y-119697619D01*
X127016666Y-119745238D01*
X126969047Y-119769047D01*
X127730952Y-120126190D02*
X127445238Y-120126190D01*
X127588095Y-120126190D02*
X127588095Y-119626190D01*
X127540476Y-119697619D01*
X127492857Y-119745238D01*
X127445238Y-119769047D01*
D10*
X136857142Y-106707142D02*
X136809523Y-106754761D01*
X136666666Y-106802380D01*
X136571428Y-106802380D01*
X136428571Y-106754761D01*
X136333333Y-106659523D01*
X136285714Y-106564285D01*
X136238095Y-106373809D01*
X136238095Y-106230952D01*
X136285714Y-106040476D01*
X136333333Y-105945238D01*
X136428571Y-105850000D01*
X136571428Y-105802380D01*
X136666666Y-105802380D01*
X136809523Y-105850000D01*
X136857142Y-105897619D01*
X137809523Y-106802380D02*
X137238095Y-106802380D01*
X137523809Y-106802380D02*
X137523809Y-105802380D01*
X137428571Y-105945238D01*
X137333333Y-106040476D01*
X137238095Y-106088095D01*
X138190476Y-105897619D02*
X138238095Y-105850000D01*
X138333333Y-105802380D01*
X138571428Y-105802380D01*
X138666666Y-105850000D01*
X138714285Y-105897619D01*
X138761904Y-105992857D01*
X138761904Y-106088095D01*
X138714285Y-106230952D01*
X138142857Y-106802380D01*
X138761904Y-106802380D01*
X147461904Y-117202380D02*
X147461904Y-116202380D01*
X147700000Y-116202380D01*
X147842857Y-116250000D01*
X147938095Y-116345238D01*
X147985714Y-116440476D01*
X148033333Y-116630952D01*
X148033333Y-116773809D01*
X147985714Y-116964285D01*
X147938095Y-117059523D01*
X147842857Y-117154761D01*
X147700000Y-117202380D01*
X147461904Y-117202380D01*
X148890476Y-116535714D02*
X148890476Y-117202380D01*
X148652380Y-116154761D02*
X148414285Y-116869047D01*
X149033333Y-116869047D01*
X129088545Y-96740049D02*
X128583469Y-97245125D01*
X128448782Y-97312469D01*
X128314095Y-97312469D01*
X128179408Y-97245125D01*
X128112065Y-97177782D01*
X129324248Y-97110438D02*
X129391591Y-97110438D01*
X129492606Y-97144110D01*
X129660965Y-97312469D01*
X129694637Y-97413484D01*
X129694637Y-97480828D01*
X129660965Y-97581843D01*
X129593622Y-97649186D01*
X129458935Y-97716530D01*
X128650813Y-97716530D01*
X129088545Y-98154263D01*
X151983272Y-100724142D02*
X152021141Y-100869887D01*
X152150817Y-101069571D01*
X152242624Y-101123509D01*
X152308496Y-101137511D01*
X152414305Y-101125577D01*
X152494178Y-101073707D01*
X152548116Y-100981899D01*
X152562118Y-100916028D01*
X152550184Y-100810219D01*
X152486380Y-100624537D01*
X152474446Y-100518728D01*
X152488448Y-100452857D01*
X152542386Y-100361050D01*
X152622259Y-100309179D01*
X152728068Y-100297245D01*
X152793940Y-100311247D01*
X152885747Y-100365185D01*
X153015423Y-100564869D01*
X153053292Y-100710614D01*
X153274775Y-100964236D02*
X152565780Y-101708558D01*
X153268571Y-101479277D01*
X152773262Y-102028052D01*
X153741608Y-101683096D01*
X153395706Y-102986532D02*
X153084484Y-102507292D01*
X153240095Y-102746912D02*
X154078766Y-102202273D01*
X153907085Y-102200205D01*
X153775341Y-102172202D01*
X153683534Y-102118264D01*
X155854761Y-111233333D02*
X155902380Y-111090476D01*
X155902380Y-110852380D01*
X155854761Y-110757142D01*
X155807142Y-110709523D01*
X155711904Y-110661904D01*
X155616666Y-110661904D01*
X155521428Y-110709523D01*
X155473809Y-110757142D01*
X155426190Y-110852380D01*
X155378571Y-111042857D01*
X155330952Y-111138095D01*
X155283333Y-111185714D01*
X155188095Y-111233333D01*
X155092857Y-111233333D01*
X154997619Y-111185714D01*
X154950000Y-111138095D01*
X154902380Y-111042857D01*
X154902380Y-110804761D01*
X154950000Y-110661904D01*
X154902380Y-110328571D02*
X155902380Y-110090476D01*
X155188095Y-109900000D01*
X155902380Y-109709523D01*
X154902380Y-109471428D01*
X154997619Y-109138095D02*
X154950000Y-109090476D01*
X154902380Y-108995238D01*
X154902380Y-108757142D01*
X154950000Y-108661904D01*
X154997619Y-108614285D01*
X155092857Y-108566666D01*
X155188095Y-108566666D01*
X155330952Y-108614285D01*
X155902380Y-109185714D01*
X155902380Y-108566666D01*
X152306584Y-119919464D02*
X152427531Y-119829756D01*
X152564097Y-119634719D01*
X152579716Y-119529392D01*
X152568022Y-119463071D01*
X152517321Y-119369438D01*
X152439306Y-119314811D01*
X152333979Y-119299192D01*
X152267658Y-119310886D01*
X152174025Y-119361588D01*
X152025765Y-119490304D01*
X151932131Y-119541005D01*
X151865811Y-119552699D01*
X151760483Y-119537080D01*
X151682469Y-119482453D01*
X151631767Y-119388820D01*
X151620073Y-119322500D01*
X151635692Y-119217172D01*
X151772258Y-119022136D01*
X151893205Y-118932427D01*
X152045390Y-118632063D02*
X153001108Y-119010604D01*
X152525252Y-118444877D01*
X153219613Y-118698546D01*
X152537027Y-117929933D01*
X152700906Y-117695890D02*
X153055977Y-117188795D01*
X153176843Y-117680351D01*
X153258782Y-117563330D01*
X153352416Y-117512628D01*
X153418736Y-117500934D01*
X153524064Y-117516553D01*
X153719100Y-117653119D01*
X153769801Y-117746753D01*
X153781495Y-117813073D01*
X153765876Y-117918401D01*
X153601997Y-118152444D01*
X153508364Y-118203146D01*
X153442043Y-118214840D01*
X140852380Y-125361904D02*
X141661904Y-125361904D01*
X141757142Y-125314285D01*
X141804761Y-125266666D01*
X141852380Y-125171428D01*
X141852380Y-124980952D01*
X141804761Y-124885714D01*
X141757142Y-124838095D01*
X141661904Y-124790476D01*
X140852380Y-124790476D01*
X140947619Y-124361904D02*
X140900000Y-124314285D01*
X140852380Y-124219047D01*
X140852380Y-123980952D01*
X140900000Y-123885714D01*
X140947619Y-123838095D01*
X141042857Y-123790476D01*
X141138095Y-123790476D01*
X141280952Y-123838095D01*
X141852380Y-124409523D01*
X141852380Y-123790476D01*
X136247619Y-119095238D02*
X136200000Y-119190476D01*
X136104761Y-119285714D01*
X135961904Y-119428571D01*
X135914285Y-119523809D01*
X135914285Y-119619047D01*
X136152380Y-119571428D02*
X136104761Y-119666666D01*
X136009523Y-119761904D01*
X135819047Y-119809523D01*
X135485714Y-119809523D01*
X135295238Y-119761904D01*
X135200000Y-119666666D01*
X135152380Y-119571428D01*
X135152380Y-119380952D01*
X135200000Y-119285714D01*
X135295238Y-119190476D01*
X135485714Y-119142857D01*
X135819047Y-119142857D01*
X136009523Y-119190476D01*
X136104761Y-119285714D01*
X136152380Y-119380952D01*
X136152380Y-119571428D01*
X136152380Y-118190476D02*
X136152380Y-118761904D01*
X136152380Y-118476190D02*
X135152380Y-118476190D01*
X135295238Y-118571428D01*
X135390476Y-118666666D01*
X135438095Y-118761904D01*
X146904761Y-114147619D02*
X146809523Y-114100000D01*
X146714285Y-114004761D01*
X146571428Y-113861904D01*
X146476190Y-113814285D01*
X146380952Y-113814285D01*
X146428571Y-114052380D02*
X146333333Y-114004761D01*
X146238095Y-113909523D01*
X146190476Y-113719047D01*
X146190476Y-113385714D01*
X146238095Y-113195238D01*
X146333333Y-113100000D01*
X146428571Y-113052380D01*
X146619047Y-113052380D01*
X146714285Y-113100000D01*
X146809523Y-113195238D01*
X146857142Y-113385714D01*
X146857142Y-113719047D01*
X146809523Y-113909523D01*
X146714285Y-114004761D01*
X146619047Y-114052380D01*
X146428571Y-114052380D01*
X147238095Y-113147619D02*
X147285714Y-113100000D01*
X147380952Y-113052380D01*
X147619047Y-113052380D01*
X147714285Y-113100000D01*
X147761904Y-113147619D01*
X147809523Y-113242857D01*
X147809523Y-113338095D01*
X147761904Y-113480952D01*
X147190476Y-114052380D01*
X147809523Y-114052380D01*
X139547619Y-119095238D02*
X139500000Y-119190476D01*
X139404761Y-119285714D01*
X139261904Y-119428571D01*
X139214285Y-119523809D01*
X139214285Y-119619047D01*
X139452380Y-119571428D02*
X139404761Y-119666666D01*
X139309523Y-119761904D01*
X139119047Y-119809523D01*
X138785714Y-119809523D01*
X138595238Y-119761904D01*
X138500000Y-119666666D01*
X138452380Y-119571428D01*
X138452380Y-119380952D01*
X138500000Y-119285714D01*
X138595238Y-119190476D01*
X138785714Y-119142857D01*
X139119047Y-119142857D01*
X139309523Y-119190476D01*
X139404761Y-119285714D01*
X139452380Y-119380952D01*
X139452380Y-119571428D01*
X138452380Y-118809523D02*
X138452380Y-118190476D01*
X138833333Y-118523809D01*
X138833333Y-118380952D01*
X138880952Y-118285714D01*
X138928571Y-118238095D01*
X139023809Y-118190476D01*
X139261904Y-118190476D01*
X139357142Y-118238095D01*
X139404761Y-118285714D01*
X139452380Y-118380952D01*
X139452380Y-118666666D01*
X139404761Y-118761904D01*
X139357142Y-118809523D01*
X132947619Y-119095238D02*
X132900000Y-119190476D01*
X132804761Y-119285714D01*
X132661904Y-119428571D01*
X132614285Y-119523809D01*
X132614285Y-119619047D01*
X132852380Y-119571428D02*
X132804761Y-119666666D01*
X132709523Y-119761904D01*
X132519047Y-119809523D01*
X132185714Y-119809523D01*
X131995238Y-119761904D01*
X131900000Y-119666666D01*
X131852380Y-119571428D01*
X131852380Y-119380952D01*
X131900000Y-119285714D01*
X131995238Y-119190476D01*
X132185714Y-119142857D01*
X132519047Y-119142857D01*
X132709523Y-119190476D01*
X132804761Y-119285714D01*
X132852380Y-119380952D01*
X132852380Y-119571428D01*
X132185714Y-118285714D02*
X132852380Y-118285714D01*
X131804761Y-118523809D02*
X132519047Y-118761904D01*
X132519047Y-118142857D01*
X145833333Y-112802380D02*
X145500000Y-112326190D01*
X145261904Y-112802380D02*
X145261904Y-111802380D01*
X145642857Y-111802380D01*
X145738095Y-111850000D01*
X145785714Y-111897619D01*
X145833333Y-111992857D01*
X145833333Y-112135714D01*
X145785714Y-112230952D01*
X145738095Y-112278571D01*
X145642857Y-112326190D01*
X145261904Y-112326190D01*
X146785714Y-112802380D02*
X146214285Y-112802380D01*
X146500000Y-112802380D02*
X146500000Y-111802380D01*
X146404761Y-111945238D01*
X146309523Y-112040476D01*
X146214285Y-112088095D01*
X133233333Y-115602380D02*
X132900000Y-115126190D01*
X132661904Y-115602380D02*
X132661904Y-114602380D01*
X133042857Y-114602380D01*
X133138095Y-114650000D01*
X133185714Y-114697619D01*
X133233333Y-114792857D01*
X133233333Y-114935714D01*
X133185714Y-115030952D01*
X133138095Y-115078571D01*
X133042857Y-115126190D01*
X132661904Y-115126190D01*
X133614285Y-114697619D02*
X133661904Y-114650000D01*
X133757142Y-114602380D01*
X133995238Y-114602380D01*
X134090476Y-114650000D01*
X134138095Y-114697619D01*
X134185714Y-114792857D01*
X134185714Y-114888095D01*
X134138095Y-115030952D01*
X133566666Y-115602380D01*
X134185714Y-115602380D01*
X130702380Y-122766666D02*
X130226190Y-123100000D01*
X130702380Y-123338095D02*
X129702380Y-123338095D01*
X129702380Y-122957142D01*
X129750000Y-122861904D01*
X129797619Y-122814285D01*
X129892857Y-122766666D01*
X130035714Y-122766666D01*
X130130952Y-122814285D01*
X130178571Y-122861904D01*
X130226190Y-122957142D01*
X130226190Y-123338095D01*
X129702380Y-122433333D02*
X129702380Y-121814285D01*
X130083333Y-122147619D01*
X130083333Y-122004761D01*
X130130952Y-121909523D01*
X130178571Y-121861904D01*
X130273809Y-121814285D01*
X130511904Y-121814285D01*
X130607142Y-121861904D01*
X130654761Y-121909523D01*
X130702380Y-122004761D01*
X130702380Y-122290476D01*
X130654761Y-122385714D01*
X130607142Y-122433333D01*
X137033333Y-115602380D02*
X136700000Y-115126190D01*
X136461904Y-115602380D02*
X136461904Y-114602380D01*
X136842857Y-114602380D01*
X136938095Y-114650000D01*
X136985714Y-114697619D01*
X137033333Y-114792857D01*
X137033333Y-114935714D01*
X136985714Y-115030952D01*
X136938095Y-115078571D01*
X136842857Y-115126190D01*
X136461904Y-115126190D01*
X137604761Y-115030952D02*
X137509523Y-114983333D01*
X137461904Y-114935714D01*
X137414285Y-114840476D01*
X137414285Y-114792857D01*
X137461904Y-114697619D01*
X137509523Y-114650000D01*
X137604761Y-114602380D01*
X137795238Y-114602380D01*
X137890476Y-114650000D01*
X137938095Y-114697619D01*
X137985714Y-114792857D01*
X137985714Y-114840476D01*
X137938095Y-114935714D01*
X137890476Y-114983333D01*
X137795238Y-115030952D01*
X137604761Y-115030952D01*
X137509523Y-115078571D01*
X137461904Y-115126190D01*
X137414285Y-115221428D01*
X137414285Y-115411904D01*
X137461904Y-115507142D01*
X137509523Y-115554761D01*
X137604761Y-115602380D01*
X137795238Y-115602380D01*
X137890476Y-115554761D01*
X137938095Y-115507142D01*
X137985714Y-115411904D01*
X137985714Y-115221428D01*
X137938095Y-115126190D01*
X137890476Y-115078571D01*
X137795238Y-115030952D01*
X129433333Y-115602380D02*
X129100000Y-115126190D01*
X128861904Y-115602380D02*
X128861904Y-114602380D01*
X129242857Y-114602380D01*
X129338095Y-114650000D01*
X129385714Y-114697619D01*
X129433333Y-114792857D01*
X129433333Y-114935714D01*
X129385714Y-115030952D01*
X129338095Y-115078571D01*
X129242857Y-115126190D01*
X128861904Y-115126190D01*
X129909523Y-115602380D02*
X130100000Y-115602380D01*
X130195238Y-115554761D01*
X130242857Y-115507142D01*
X130338095Y-115364285D01*
X130385714Y-115173809D01*
X130385714Y-114792857D01*
X130338095Y-114697619D01*
X130290476Y-114650000D01*
X130195238Y-114602380D01*
X130004761Y-114602380D01*
X129909523Y-114650000D01*
X129861904Y-114697619D01*
X129814285Y-114792857D01*
X129814285Y-115030952D01*
X129861904Y-115126190D01*
X129909523Y-115173809D01*
X130004761Y-115221428D01*
X130195238Y-115221428D01*
X130290476Y-115173809D01*
X130338095Y-115126190D01*
X130385714Y-115030952D01*
X132102380Y-123242857D02*
X131626190Y-123576190D01*
X132102380Y-123814285D02*
X131102380Y-123814285D01*
X131102380Y-123433333D01*
X131150000Y-123338095D01*
X131197619Y-123290476D01*
X131292857Y-123242857D01*
X131435714Y-123242857D01*
X131530952Y-123290476D01*
X131578571Y-123338095D01*
X131626190Y-123433333D01*
X131626190Y-123814285D01*
X132102380Y-122290476D02*
X132102380Y-122861904D01*
X132102380Y-122576190D02*
X131102380Y-122576190D01*
X131245238Y-122671428D01*
X131340476Y-122766666D01*
X131388095Y-122861904D01*
X131102380Y-121671428D02*
X131102380Y-121576190D01*
X131150000Y-121480952D01*
X131197619Y-121433333D01*
X131292857Y-121385714D01*
X131483333Y-121338095D01*
X131721428Y-121338095D01*
X131911904Y-121385714D01*
X132007142Y-121433333D01*
X132054761Y-121480952D01*
X132102380Y-121576190D01*
X132102380Y-121671428D01*
X132054761Y-121766666D01*
X132007142Y-121814285D01*
X131911904Y-121861904D01*
X131721428Y-121909523D01*
X131483333Y-121909523D01*
X131292857Y-121861904D01*
X131197619Y-121814285D01*
X131150000Y-121766666D01*
X131102380Y-121671428D01*
X129302380Y-123242857D02*
X128826190Y-123576190D01*
X129302380Y-123814285D02*
X128302380Y-123814285D01*
X128302380Y-123433333D01*
X128350000Y-123338095D01*
X128397619Y-123290476D01*
X128492857Y-123242857D01*
X128635714Y-123242857D01*
X128730952Y-123290476D01*
X128778571Y-123338095D01*
X128826190Y-123433333D01*
X128826190Y-123814285D01*
X129302380Y-122290476D02*
X129302380Y-122861904D01*
X129302380Y-122576190D02*
X128302380Y-122576190D01*
X128445238Y-122671428D01*
X128540476Y-122766666D01*
X128588095Y-122861904D01*
X128302380Y-121957142D02*
X128302380Y-121338095D01*
X128683333Y-121671428D01*
X128683333Y-121528571D01*
X128730952Y-121433333D01*
X128778571Y-121385714D01*
X128873809Y-121338095D01*
X129111904Y-121338095D01*
X129207142Y-121385714D01*
X129254761Y-121433333D01*
X129302380Y-121528571D01*
X129302380Y-121814285D01*
X129254761Y-121909523D01*
X129207142Y-121957142D01*
X143702380Y-117042857D02*
X143226190Y-117376190D01*
X143702380Y-117614285D02*
X142702380Y-117614285D01*
X142702380Y-117233333D01*
X142750000Y-117138095D01*
X142797619Y-117090476D01*
X142892857Y-117042857D01*
X143035714Y-117042857D01*
X143130952Y-117090476D01*
X143178571Y-117138095D01*
X143226190Y-117233333D01*
X143226190Y-117614285D01*
X143702380Y-116090476D02*
X143702380Y-116661904D01*
X143702380Y-116376190D02*
X142702380Y-116376190D01*
X142845238Y-116471428D01*
X142940476Y-116566666D01*
X142988095Y-116661904D01*
X142702380Y-115757142D02*
X142702380Y-115090476D01*
X143702380Y-115519047D01*
X138302380Y-126942857D02*
X137826190Y-127276190D01*
X138302380Y-127514285D02*
X137302380Y-127514285D01*
X137302380Y-127133333D01*
X137350000Y-127038095D01*
X137397619Y-126990476D01*
X137492857Y-126942857D01*
X137635714Y-126942857D01*
X137730952Y-126990476D01*
X137778571Y-127038095D01*
X137826190Y-127133333D01*
X137826190Y-127514285D01*
X138302380Y-125990476D02*
X138302380Y-126561904D01*
X138302380Y-126276190D02*
X137302380Y-126276190D01*
X137445238Y-126371428D01*
X137540476Y-126466666D01*
X137588095Y-126561904D01*
X137730952Y-125419047D02*
X137683333Y-125514285D01*
X137635714Y-125561904D01*
X137540476Y-125609523D01*
X137492857Y-125609523D01*
X137397619Y-125561904D01*
X137350000Y-125514285D01*
X137302380Y-125419047D01*
X137302380Y-125228571D01*
X137350000Y-125133333D01*
X137397619Y-125085714D01*
X137492857Y-125038095D01*
X137540476Y-125038095D01*
X137635714Y-125085714D01*
X137683333Y-125133333D01*
X137730952Y-125228571D01*
X137730952Y-125419047D01*
X137778571Y-125514285D01*
X137826190Y-125561904D01*
X137921428Y-125609523D01*
X138111904Y-125609523D01*
X138207142Y-125561904D01*
X138254761Y-125514285D01*
X138302380Y-125419047D01*
X138302380Y-125228571D01*
X138254761Y-125133333D01*
X138207142Y-125085714D01*
X138111904Y-125038095D01*
X137921428Y-125038095D01*
X137826190Y-125085714D01*
X137778571Y-125133333D01*
X137730952Y-125228571D01*
X140302380Y-126942857D02*
X139826190Y-127276190D01*
X140302380Y-127514285D02*
X139302380Y-127514285D01*
X139302380Y-127133333D01*
X139350000Y-127038095D01*
X139397619Y-126990476D01*
X139492857Y-126942857D01*
X139635714Y-126942857D01*
X139730952Y-126990476D01*
X139778571Y-127038095D01*
X139826190Y-127133333D01*
X139826190Y-127514285D01*
X140302380Y-125990476D02*
X140302380Y-126561904D01*
X140302380Y-126276190D02*
X139302380Y-126276190D01*
X139445238Y-126371428D01*
X139540476Y-126466666D01*
X139588095Y-126561904D01*
X140302380Y-125514285D02*
X140302380Y-125323809D01*
X140254761Y-125228571D01*
X140207142Y-125180952D01*
X140064285Y-125085714D01*
X139873809Y-125038095D01*
X139492857Y-125038095D01*
X139397619Y-125085714D01*
X139350000Y-125133333D01*
X139302380Y-125228571D01*
X139302380Y-125419047D01*
X139350000Y-125514285D01*
X139397619Y-125561904D01*
X139492857Y-125609523D01*
X139730952Y-125609523D01*
X139826190Y-125561904D01*
X139873809Y-125514285D01*
X139921428Y-125419047D01*
X139921428Y-125228571D01*
X139873809Y-125133333D01*
X139826190Y-125085714D01*
X139730952Y-125038095D01*
X147633333Y-109107142D02*
X147585714Y-109154761D01*
X147442857Y-109202380D01*
X147347619Y-109202380D01*
X147204761Y-109154761D01*
X147109523Y-109059523D01*
X147061904Y-108964285D01*
X147014285Y-108773809D01*
X147014285Y-108630952D01*
X147061904Y-108440476D01*
X147109523Y-108345238D01*
X147204761Y-108250000D01*
X147347619Y-108202380D01*
X147442857Y-108202380D01*
X147585714Y-108250000D01*
X147633333Y-108297619D01*
X148490476Y-108535714D02*
X148490476Y-109202380D01*
X148252380Y-108154761D02*
X148014285Y-108869047D01*
X148633333Y-108869047D01*
X148083333Y-103107142D02*
X148035714Y-103154761D01*
X147892857Y-103202380D01*
X147797619Y-103202380D01*
X147654761Y-103154761D01*
X147559523Y-103059523D01*
X147511904Y-102964285D01*
X147464285Y-102773809D01*
X147464285Y-102630952D01*
X147511904Y-102440476D01*
X147559523Y-102345238D01*
X147654761Y-102250000D01*
X147797619Y-102202380D01*
X147892857Y-102202380D01*
X148035714Y-102250000D01*
X148083333Y-102297619D01*
X148988095Y-102202380D02*
X148511904Y-102202380D01*
X148464285Y-102678571D01*
X148511904Y-102630952D01*
X148607142Y-102583333D01*
X148845238Y-102583333D01*
X148940476Y-102630952D01*
X148988095Y-102678571D01*
X149035714Y-102773809D01*
X149035714Y-103011904D01*
X148988095Y-103107142D01*
X148940476Y-103154761D01*
X148845238Y-103202380D01*
X148607142Y-103202380D01*
X148511904Y-103154761D01*
X148464285Y-103107142D01*
D14*
X146860238Y-108724523D02*
X146860238Y-107454523D01*
X148190714Y-108603571D02*
X148130238Y-108664047D01*
X147948809Y-108724523D01*
X147827857Y-108724523D01*
X147646428Y-108664047D01*
X147525476Y-108543095D01*
X147465000Y-108422142D01*
X147404523Y-108180238D01*
X147404523Y-107998809D01*
X147465000Y-107756904D01*
X147525476Y-107635952D01*
X147646428Y-107515000D01*
X147827857Y-107454523D01*
X147948809Y-107454523D01*
X148130238Y-107515000D01*
X148190714Y-107575476D01*
X149400238Y-108724523D02*
X148674523Y-108724523D01*
X149037380Y-108724523D02*
X149037380Y-107454523D01*
X148916428Y-107635952D01*
X148795476Y-107756904D01*
X148674523Y-107817380D01*
D10*
X149952380Y-106842857D02*
X149476190Y-107176190D01*
X149952380Y-107414285D02*
X148952380Y-107414285D01*
X148952380Y-107033333D01*
X149000000Y-106938095D01*
X149047619Y-106890476D01*
X149142857Y-106842857D01*
X149285714Y-106842857D01*
X149380952Y-106890476D01*
X149428571Y-106938095D01*
X149476190Y-107033333D01*
X149476190Y-107414285D01*
X149952380Y-105890476D02*
X149952380Y-106461904D01*
X149952380Y-106176190D02*
X148952380Y-106176190D01*
X149095238Y-106271428D01*
X149190476Y-106366666D01*
X149238095Y-106461904D01*
X149952380Y-104938095D02*
X149952380Y-105509523D01*
X149952380Y-105223809D02*
X148952380Y-105223809D01*
X149095238Y-105319047D01*
X149190476Y-105414285D01*
X149238095Y-105509523D01*
X147152380Y-103742857D02*
X146676190Y-104076190D01*
X147152380Y-104314285D02*
X146152380Y-104314285D01*
X146152380Y-103933333D01*
X146200000Y-103838095D01*
X146247619Y-103790476D01*
X146342857Y-103742857D01*
X146485714Y-103742857D01*
X146580952Y-103790476D01*
X146628571Y-103838095D01*
X146676190Y-103933333D01*
X146676190Y-104314285D01*
X147152380Y-102790476D02*
X147152380Y-103361904D01*
X147152380Y-103076190D02*
X146152380Y-103076190D01*
X146295238Y-103171428D01*
X146390476Y-103266666D01*
X146438095Y-103361904D01*
X146247619Y-102409523D02*
X146200000Y-102361904D01*
X146152380Y-102266666D01*
X146152380Y-102028571D01*
X146200000Y-101933333D01*
X146247619Y-101885714D01*
X146342857Y-101838095D01*
X146438095Y-101838095D01*
X146580952Y-101885714D01*
X147152380Y-102457142D01*
X147152380Y-101838095D01*
X141433333Y-99307142D02*
X141385714Y-99354761D01*
X141242857Y-99402380D01*
X141147619Y-99402380D01*
X141004761Y-99354761D01*
X140909523Y-99259523D01*
X140861904Y-99164285D01*
X140814285Y-98973809D01*
X140814285Y-98830952D01*
X140861904Y-98640476D01*
X140909523Y-98545238D01*
X141004761Y-98450000D01*
X141147619Y-98402380D01*
X141242857Y-98402380D01*
X141385714Y-98450000D01*
X141433333Y-98497619D01*
X141766666Y-98402380D02*
X142385714Y-98402380D01*
X142052380Y-98783333D01*
X142195238Y-98783333D01*
X142290476Y-98830952D01*
X142338095Y-98878571D01*
X142385714Y-98973809D01*
X142385714Y-99211904D01*
X142338095Y-99307142D01*
X142290476Y-99354761D01*
X142195238Y-99402380D01*
X141909523Y-99402380D01*
X141814285Y-99354761D01*
X141766666Y-99307142D01*
X151307142Y-98216666D02*
X151354761Y-98264285D01*
X151402380Y-98407142D01*
X151402380Y-98502380D01*
X151354761Y-98645238D01*
X151259523Y-98740476D01*
X151164285Y-98788095D01*
X150973809Y-98835714D01*
X150830952Y-98835714D01*
X150640476Y-98788095D01*
X150545238Y-98740476D01*
X150450000Y-98645238D01*
X150402380Y-98502380D01*
X150402380Y-98407142D01*
X150450000Y-98264285D01*
X150497619Y-98216666D01*
X150402380Y-97359523D02*
X150402380Y-97550000D01*
X150450000Y-97645238D01*
X150497619Y-97692857D01*
X150640476Y-97788095D01*
X150830952Y-97835714D01*
X151211904Y-97835714D01*
X151307142Y-97788095D01*
X151354761Y-97740476D01*
X151402380Y-97645238D01*
X151402380Y-97454761D01*
X151354761Y-97359523D01*
X151307142Y-97311904D01*
X151211904Y-97264285D01*
X150973809Y-97264285D01*
X150878571Y-97311904D01*
X150830952Y-97359523D01*
X150783333Y-97454761D01*
X150783333Y-97645238D01*
X150830952Y-97740476D01*
X150878571Y-97788095D01*
X150973809Y-97835714D01*
X146783333Y-100007142D02*
X146735714Y-100054761D01*
X146592857Y-100102380D01*
X146497619Y-100102380D01*
X146354761Y-100054761D01*
X146259523Y-99959523D01*
X146211904Y-99864285D01*
X146164285Y-99673809D01*
X146164285Y-99530952D01*
X146211904Y-99340476D01*
X146259523Y-99245238D01*
X146354761Y-99150000D01*
X146497619Y-99102380D01*
X146592857Y-99102380D01*
X146735714Y-99150000D01*
X146783333Y-99197619D01*
X147259523Y-100102380D02*
X147450000Y-100102380D01*
X147545238Y-100054761D01*
X147592857Y-100007142D01*
X147688095Y-99864285D01*
X147735714Y-99673809D01*
X147735714Y-99292857D01*
X147688095Y-99197619D01*
X147640476Y-99150000D01*
X147545238Y-99102380D01*
X147354761Y-99102380D01*
X147259523Y-99150000D01*
X147211904Y-99197619D01*
X147164285Y-99292857D01*
X147164285Y-99530952D01*
X147211904Y-99626190D01*
X147259523Y-99673809D01*
X147354761Y-99721428D01*
X147545238Y-99721428D01*
X147640476Y-99673809D01*
X147688095Y-99626190D01*
X147735714Y-99530952D01*
X133683333Y-96502380D02*
X133350000Y-96026190D01*
X133111904Y-96502380D02*
X133111904Y-95502380D01*
X133492857Y-95502380D01*
X133588095Y-95550000D01*
X133635714Y-95597619D01*
X133683333Y-95692857D01*
X133683333Y-95835714D01*
X133635714Y-95930952D01*
X133588095Y-95978571D01*
X133492857Y-96026190D01*
X133111904Y-96026190D01*
X134540476Y-95835714D02*
X134540476Y-96502380D01*
X134302380Y-95454761D02*
X134064285Y-96169047D01*
X134683333Y-96169047D01*
X138883333Y-93752380D02*
X138550000Y-93276190D01*
X138311904Y-93752380D02*
X138311904Y-92752380D01*
X138692857Y-92752380D01*
X138788095Y-92800000D01*
X138835714Y-92847619D01*
X138883333Y-92942857D01*
X138883333Y-93085714D01*
X138835714Y-93180952D01*
X138788095Y-93228571D01*
X138692857Y-93276190D01*
X138311904Y-93276190D01*
X139740476Y-92752380D02*
X139550000Y-92752380D01*
X139454761Y-92800000D01*
X139407142Y-92847619D01*
X139311904Y-92990476D01*
X139264285Y-93180952D01*
X139264285Y-93561904D01*
X139311904Y-93657142D01*
X139359523Y-93704761D01*
X139454761Y-93752380D01*
X139645238Y-93752380D01*
X139740476Y-93704761D01*
X139788095Y-93657142D01*
X139835714Y-93561904D01*
X139835714Y-93323809D01*
X139788095Y-93228571D01*
X139740476Y-93180952D01*
X139645238Y-93133333D01*
X139454761Y-93133333D01*
X139359523Y-93180952D01*
X139311904Y-93228571D01*
X139264285Y-93323809D01*
X142883333Y-93752380D02*
X142550000Y-93276190D01*
X142311904Y-93752380D02*
X142311904Y-92752380D01*
X142692857Y-92752380D01*
X142788095Y-92800000D01*
X142835714Y-92847619D01*
X142883333Y-92942857D01*
X142883333Y-93085714D01*
X142835714Y-93180952D01*
X142788095Y-93228571D01*
X142692857Y-93276190D01*
X142311904Y-93276190D01*
X143216666Y-92752380D02*
X143883333Y-92752380D01*
X143454761Y-93752380D01*
X136207142Y-103902380D02*
X135873809Y-103426190D01*
X135635714Y-103902380D02*
X135635714Y-102902380D01*
X136016666Y-102902380D01*
X136111904Y-102950000D01*
X136159523Y-102997619D01*
X136207142Y-103092857D01*
X136207142Y-103235714D01*
X136159523Y-103330952D01*
X136111904Y-103378571D01*
X136016666Y-103426190D01*
X135635714Y-103426190D01*
X137159523Y-103902380D02*
X136588095Y-103902380D01*
X136873809Y-103902380D02*
X136873809Y-102902380D01*
X136778571Y-103045238D01*
X136683333Y-103140476D01*
X136588095Y-103188095D01*
X138016666Y-103235714D02*
X138016666Y-103902380D01*
X137778571Y-102854761D02*
X137540476Y-103569047D01*
X138159523Y-103569047D01*
X140157142Y-101002380D02*
X139823809Y-100526190D01*
X139585714Y-101002380D02*
X139585714Y-100002380D01*
X139966666Y-100002380D01*
X140061904Y-100050000D01*
X140109523Y-100097619D01*
X140157142Y-100192857D01*
X140157142Y-100335714D01*
X140109523Y-100430952D01*
X140061904Y-100478571D01*
X139966666Y-100526190D01*
X139585714Y-100526190D01*
X141109523Y-101002380D02*
X140538095Y-101002380D01*
X140823809Y-101002380D02*
X140823809Y-100002380D01*
X140728571Y-100145238D01*
X140633333Y-100240476D01*
X140538095Y-100288095D01*
X142014285Y-100002380D02*
X141538095Y-100002380D01*
X141490476Y-100478571D01*
X141538095Y-100430952D01*
X141633333Y-100383333D01*
X141871428Y-100383333D01*
X141966666Y-100430952D01*
X142014285Y-100478571D01*
X142061904Y-100573809D01*
X142061904Y-100811904D01*
X142014285Y-100907142D01*
X141966666Y-100954761D01*
X141871428Y-101002380D01*
X141633333Y-101002380D01*
X141538095Y-100954761D01*
X141490476Y-100907142D01*
X133207142Y-97902380D02*
X132873809Y-97426190D01*
X132635714Y-97902380D02*
X132635714Y-96902380D01*
X133016666Y-96902380D01*
X133111904Y-96950000D01*
X133159523Y-96997619D01*
X133207142Y-97092857D01*
X133207142Y-97235714D01*
X133159523Y-97330952D01*
X133111904Y-97378571D01*
X133016666Y-97426190D01*
X132635714Y-97426190D01*
X134159523Y-97902380D02*
X133588095Y-97902380D01*
X133873809Y-97902380D02*
X133873809Y-96902380D01*
X133778571Y-97045238D01*
X133683333Y-97140476D01*
X133588095Y-97188095D01*
X135016666Y-96902380D02*
X134826190Y-96902380D01*
X134730952Y-96950000D01*
X134683333Y-96997619D01*
X134588095Y-97140476D01*
X134540476Y-97330952D01*
X134540476Y-97711904D01*
X134588095Y-97807142D01*
X134635714Y-97854761D01*
X134730952Y-97902380D01*
X134921428Y-97902380D01*
X135016666Y-97854761D01*
X135064285Y-97807142D01*
X135111904Y-97711904D01*
X135111904Y-97473809D01*
X135064285Y-97378571D01*
X135016666Y-97330952D01*
X134921428Y-97283333D01*
X134730952Y-97283333D01*
X134635714Y-97330952D01*
X134588095Y-97378571D01*
X134540476Y-97473809D01*
X141207380Y-98936904D02*
X142016904Y-98936904D01*
X142112142Y-98889285D01*
X142159761Y-98841666D01*
X142207380Y-98746428D01*
X142207380Y-98555952D01*
X142159761Y-98460714D01*
X142112142Y-98413095D01*
X142016904Y-98365476D01*
X141207380Y-98365476D01*
X141207380Y-97984523D02*
X141207380Y-97365476D01*
X141588333Y-97698809D01*
X141588333Y-97555952D01*
X141635952Y-97460714D01*
X141683571Y-97413095D01*
X141778809Y-97365476D01*
X142016904Y-97365476D01*
X142112142Y-97413095D01*
X142159761Y-97460714D01*
X142207380Y-97555952D01*
X142207380Y-97841666D01*
X142159761Y-97936904D01*
X142112142Y-97984523D01*
X146288095Y-92402380D02*
X146288095Y-93211904D01*
X146335714Y-93307142D01*
X146383333Y-93354761D01*
X146478571Y-93402380D01*
X146669047Y-93402380D01*
X146764285Y-93354761D01*
X146811904Y-93307142D01*
X146859523Y-93211904D01*
X146859523Y-92402380D01*
X147764285Y-92735714D02*
X147764285Y-93402380D01*
X147526190Y-92354761D02*
X147288095Y-93069047D01*
X147907142Y-93069047D01*
X143152380Y-114859523D02*
X144152380Y-114192857D01*
X143152380Y-114192857D02*
X144152380Y-114859523D01*
X144152380Y-113288095D02*
X144152380Y-113859523D01*
X144152380Y-113573809D02*
X143152380Y-113573809D01*
X143295238Y-113669047D01*
X143390476Y-113764285D01*
X143438095Y-113859523D01*
X123903669Y-119439959D02*
X123946602Y-119584294D01*
X124083167Y-119779330D01*
X124176801Y-119830031D01*
X124243121Y-119841725D01*
X124348449Y-119826106D01*
X124426464Y-119771480D01*
X124477165Y-119677846D01*
X124488859Y-119611526D01*
X124473240Y-119506198D01*
X124402994Y-119322856D01*
X124387375Y-119217528D01*
X124399069Y-119151208D01*
X124449771Y-119057574D01*
X124527785Y-119002948D01*
X124633113Y-118987329D01*
X124699433Y-118999023D01*
X124793067Y-119049724D01*
X124929633Y-119244761D01*
X124972565Y-119389095D01*
X125202764Y-119634833D02*
X124520178Y-120403446D01*
X125214539Y-120149777D01*
X124738683Y-120715504D01*
X125694401Y-120336963D01*
X126186038Y-121039094D02*
X125912907Y-120649021D01*
X125495521Y-120883146D01*
X125561841Y-120894840D01*
X125655475Y-120945541D01*
X125792041Y-121140577D01*
X125807660Y-121245905D01*
X125795966Y-121312225D01*
X125745264Y-121405859D01*
X125550228Y-121542425D01*
X125444901Y-121558044D01*
X125378580Y-121546350D01*
X125284947Y-121495648D01*
X125148381Y-121300612D01*
X125132762Y-121195284D01*
X125144456Y-121128964D01*
X123018912Y-97440423D02*
X123139859Y-97350715D01*
X123276425Y-97155678D01*
X123292044Y-97050351D01*
X123280350Y-96984030D01*
X123229649Y-96890397D01*
X123151634Y-96835770D01*
X123046307Y-96820151D01*
X122979986Y-96831845D01*
X122886353Y-96882547D01*
X122738093Y-97011263D01*
X122644459Y-97061964D01*
X122578139Y-97073658D01*
X122472811Y-97058039D01*
X122394797Y-97003412D01*
X122344095Y-96909779D01*
X122332401Y-96843459D01*
X122348020Y-96738131D01*
X122484586Y-96543095D01*
X122605533Y-96453386D01*
X122757718Y-96153022D02*
X123713436Y-96531563D01*
X123237580Y-95965836D01*
X123931941Y-96219505D01*
X123249355Y-95450892D01*
X123986729Y-94978961D02*
X124532831Y-95361345D01*
X123538105Y-94955492D02*
X123986648Y-95560226D01*
X124341719Y-95053131D01*
X133938095Y-88652380D02*
X134509523Y-88652380D01*
X134223809Y-89652380D02*
X134223809Y-88652380D01*
X134842857Y-89652380D02*
X134842857Y-88652380D01*
X135223809Y-88652380D01*
X135319047Y-88700000D01*
X135366666Y-88747619D01*
X135414285Y-88842857D01*
X135414285Y-88985714D01*
X135366666Y-89080952D01*
X135319047Y-89128571D01*
X135223809Y-89176190D01*
X134842857Y-89176190D01*
X136366666Y-89652380D02*
X135795238Y-89652380D01*
X136080952Y-89652380D02*
X136080952Y-88652380D01*
X135985714Y-88795238D01*
X135890476Y-88890476D01*
X135795238Y-88938095D01*
X138738095Y-88652380D02*
X139309523Y-88652380D01*
X139023809Y-89652380D02*
X139023809Y-88652380D01*
X139642857Y-89652380D02*
X139642857Y-88652380D01*
X140023809Y-88652380D01*
X140119047Y-88700000D01*
X140166666Y-88747619D01*
X140214285Y-88842857D01*
X140214285Y-88985714D01*
X140166666Y-89080952D01*
X140119047Y-89128571D01*
X140023809Y-89176190D01*
X139642857Y-89176190D01*
X140595238Y-88747619D02*
X140642857Y-88700000D01*
X140738095Y-88652380D01*
X140976190Y-88652380D01*
X141071428Y-88700000D01*
X141119047Y-88747619D01*
X141166666Y-88842857D01*
X141166666Y-88938095D01*
X141119047Y-89080952D01*
X140547619Y-89652380D01*
X141166666Y-89652380D01*
X149738095Y-91952380D02*
X150309523Y-91952380D01*
X150023809Y-92952380D02*
X150023809Y-91952380D01*
X150642857Y-92952380D02*
X150642857Y-91952380D01*
X151023809Y-91952380D01*
X151119047Y-92000000D01*
X151166666Y-92047619D01*
X151214285Y-92142857D01*
X151214285Y-92285714D01*
X151166666Y-92380952D01*
X151119047Y-92428571D01*
X151023809Y-92476190D01*
X150642857Y-92476190D01*
X152071428Y-92285714D02*
X152071428Y-92952380D01*
X151833333Y-91904761D02*
X151595238Y-92619047D01*
X152214285Y-92619047D01*
X142307142Y-95357142D02*
X142259523Y-95404761D01*
X142116666Y-95452380D01*
X142021428Y-95452380D01*
X141878571Y-95404761D01*
X141783333Y-95309523D01*
X141735714Y-95214285D01*
X141688095Y-95023809D01*
X141688095Y-94880952D01*
X141735714Y-94690476D01*
X141783333Y-94595238D01*
X141878571Y-94500000D01*
X142021428Y-94452380D01*
X142116666Y-94452380D01*
X142259523Y-94500000D01*
X142307142Y-94547619D01*
X143259523Y-95452380D02*
X142688095Y-95452380D01*
X142973809Y-95452380D02*
X142973809Y-94452380D01*
X142878571Y-94595238D01*
X142783333Y-94690476D01*
X142688095Y-94738095D01*
X143592857Y-94452380D02*
X144211904Y-94452380D01*
X143878571Y-94833333D01*
X144021428Y-94833333D01*
X144116666Y-94880952D01*
X144164285Y-94928571D01*
X144211904Y-95023809D01*
X144211904Y-95261904D01*
X144164285Y-95357142D01*
X144116666Y-95404761D01*
X144021428Y-95452380D01*
X143735714Y-95452380D01*
X143640476Y-95404761D01*
X143592857Y-95357142D01*
X128888095Y-91552380D02*
X129459523Y-91552380D01*
X129173809Y-92552380D02*
X129173809Y-91552380D01*
X129792857Y-92552380D02*
X129792857Y-91552380D01*
X130173809Y-91552380D01*
X130269047Y-91600000D01*
X130316666Y-91647619D01*
X130364285Y-91742857D01*
X130364285Y-91885714D01*
X130316666Y-91980952D01*
X130269047Y-92028571D01*
X130173809Y-92076190D01*
X129792857Y-92076190D01*
X131269047Y-91552380D02*
X130792857Y-91552380D01*
X130745238Y-92028571D01*
X130792857Y-91980952D01*
X130888095Y-91933333D01*
X131126190Y-91933333D01*
X131221428Y-91980952D01*
X131269047Y-92028571D01*
X131316666Y-92123809D01*
X131316666Y-92361904D01*
X131269047Y-92457142D01*
X131221428Y-92504761D01*
X131126190Y-92552380D01*
X130888095Y-92552380D01*
X130792857Y-92504761D01*
X130745238Y-92457142D01*
M02*
