G04 #@! TF.GenerationSoftware,KiCad,Pcbnew,(5.1.6)-1*
G04 #@! TF.CreationDate,2020-05-24T14:26:44-05:00*
G04 #@! TF.ProjectId,nrf,6e72662e-6b69-4636-9164-5f7063625858,rev?*
G04 #@! TF.SameCoordinates,Original*
G04 #@! TF.FileFunction,Soldermask,Top*
G04 #@! TF.FilePolarity,Negative*
%FSLAX46Y46*%
G04 Gerber Fmt 4.6, Leading zero omitted, Abs format (unit mm)*
G04 Created by KiCad (PCBNEW (5.1.6)-1) date 2020-05-24 14:26:44*
%MOMM*%
%LPD*%
G01*
G04 APERTURE LIST*
%ADD10C,0.100000*%
G04 APERTURE END LIST*
D10*
G36*
X138900800Y-128050800D02*
G01*
X137899200Y-128050800D01*
X137899200Y-126749200D01*
X138900800Y-126749200D01*
X138900800Y-128050800D01*
G37*
G36*
X136900800Y-128050800D02*
G01*
X135899200Y-128050800D01*
X135899200Y-126749200D01*
X136900800Y-126749200D01*
X136900800Y-128050800D01*
G37*
G36*
X136900800Y-125850800D02*
G01*
X135899200Y-125850800D01*
X135899200Y-124549200D01*
X136900800Y-124549200D01*
X136900800Y-125850800D01*
G37*
G36*
X138900800Y-125850800D02*
G01*
X137899200Y-125850800D01*
X137899200Y-124549200D01*
X138900800Y-124549200D01*
X138900800Y-125850800D01*
G37*
G36*
X143850800Y-125375800D02*
G01*
X142549200Y-125375800D01*
X142549200Y-124524200D01*
X143850800Y-124524200D01*
X143850800Y-125375800D01*
G37*
G36*
X141950800Y-125375800D02*
G01*
X140649200Y-125375800D01*
X140649200Y-124524200D01*
X141950800Y-124524200D01*
X141950800Y-125375800D01*
G37*
G36*
X125745283Y-123926988D02*
G01*
X125751728Y-123934502D01*
X125759516Y-123940613D01*
X125768346Y-123945088D01*
X125777880Y-123947755D01*
X125787751Y-123948510D01*
X125797579Y-123947325D01*
X125806987Y-123944245D01*
X125815614Y-123939389D01*
X126183824Y-123681565D01*
X126550110Y-124204677D01*
X126700960Y-124420113D01*
X126700960Y-124420114D01*
X125552836Y-125224039D01*
X124634196Y-123912084D01*
X125372744Y-123394947D01*
X125745283Y-123926988D01*
G37*
G36*
X155365804Y-123912084D02*
G01*
X154447164Y-125224039D01*
X153667250Y-124677937D01*
X153299040Y-124420114D01*
X153299040Y-124420113D01*
X153449890Y-124204677D01*
X153816176Y-123681565D01*
X154184386Y-123939389D01*
X154193013Y-123944245D01*
X154202421Y-123947325D01*
X154212249Y-123948510D01*
X154222120Y-123947755D01*
X154231654Y-123945088D01*
X154240484Y-123940613D01*
X154248272Y-123934502D01*
X154254717Y-123926988D01*
X154627256Y-123394947D01*
X155365804Y-123912084D01*
G37*
G36*
X130800800Y-124350800D02*
G01*
X129799200Y-124350800D01*
X129799200Y-123049200D01*
X130800800Y-123049200D01*
X130800800Y-124350800D01*
G37*
G36*
X133600800Y-124350800D02*
G01*
X132599200Y-124350800D01*
X132599200Y-123049200D01*
X133600800Y-123049200D01*
X133600800Y-124350800D01*
G37*
G36*
X132200800Y-124350800D02*
G01*
X131199200Y-124350800D01*
X131199200Y-123049200D01*
X132200800Y-123049200D01*
X132200800Y-124350800D01*
G37*
G36*
X127298669Y-122048354D02*
G01*
X126232460Y-122794921D01*
X125485893Y-121728712D01*
X126552102Y-120982145D01*
X127298669Y-122048354D01*
G37*
G36*
X154514107Y-121728712D02*
G01*
X153767540Y-122794921D01*
X152701331Y-122048354D01*
X153447898Y-120982145D01*
X154514107Y-121728712D01*
G37*
G36*
X124741188Y-121447640D02*
G01*
X124805693Y-121460471D01*
X124896831Y-121498222D01*
X124978855Y-121553028D01*
X125048610Y-121622783D01*
X125103416Y-121704807D01*
X125141167Y-121795945D01*
X125160413Y-121892702D01*
X125160413Y-121991348D01*
X125141167Y-122088105D01*
X125103416Y-122179243D01*
X125048610Y-122261267D01*
X124978855Y-122331022D01*
X124896831Y-122385828D01*
X124805693Y-122423579D01*
X124741188Y-122436410D01*
X124708937Y-122442825D01*
X124610289Y-122442825D01*
X124578038Y-122436410D01*
X124513533Y-122423579D01*
X124422395Y-122385828D01*
X124340371Y-122331022D01*
X124270616Y-122261267D01*
X124215810Y-122179243D01*
X124178059Y-122088105D01*
X124158813Y-121991348D01*
X124158813Y-121892702D01*
X124178059Y-121795945D01*
X124215810Y-121704807D01*
X124270616Y-121622783D01*
X124340371Y-121553028D01*
X124422395Y-121498222D01*
X124513533Y-121460471D01*
X124578038Y-121447640D01*
X124610289Y-121441225D01*
X124708937Y-121441225D01*
X124741188Y-121447640D01*
G37*
G36*
X155421962Y-121447640D02*
G01*
X155486467Y-121460471D01*
X155577605Y-121498222D01*
X155659629Y-121553028D01*
X155729384Y-121622783D01*
X155784190Y-121704807D01*
X155821941Y-121795945D01*
X155841187Y-121892702D01*
X155841187Y-121991348D01*
X155821941Y-122088105D01*
X155784190Y-122179243D01*
X155729384Y-122261267D01*
X155659629Y-122331022D01*
X155577605Y-122385828D01*
X155486467Y-122423579D01*
X155421962Y-122436410D01*
X155389711Y-122442825D01*
X155291063Y-122442825D01*
X155258812Y-122436410D01*
X155194307Y-122423579D01*
X155103169Y-122385828D01*
X155021145Y-122331022D01*
X154951390Y-122261267D01*
X154896584Y-122179243D01*
X154858833Y-122088105D01*
X154839587Y-121991348D01*
X154839587Y-121892702D01*
X154858833Y-121795945D01*
X154896584Y-121704807D01*
X154951390Y-121622783D01*
X155021145Y-121553028D01*
X155103169Y-121498222D01*
X155194307Y-121460471D01*
X155258812Y-121447640D01*
X155291063Y-121441225D01*
X155389711Y-121441225D01*
X155421962Y-121447640D01*
G37*
G36*
X130800800Y-122150800D02*
G01*
X129799200Y-122150800D01*
X129799200Y-120849200D01*
X130800800Y-120849200D01*
X130800800Y-122150800D01*
G37*
G36*
X132200800Y-122150800D02*
G01*
X131199200Y-122150800D01*
X131199200Y-120849200D01*
X132200800Y-120849200D01*
X132200800Y-122150800D01*
G37*
G36*
X133600800Y-122150800D02*
G01*
X132599200Y-122150800D01*
X132599200Y-120849200D01*
X133600800Y-120849200D01*
X133600800Y-122150800D01*
G37*
G36*
X123421962Y-119563590D02*
G01*
X123486467Y-119576421D01*
X123577605Y-119614172D01*
X123659629Y-119668978D01*
X123729384Y-119738733D01*
X123784190Y-119820757D01*
X123821941Y-119911895D01*
X123841187Y-120008652D01*
X123841187Y-120107298D01*
X123821941Y-120204055D01*
X123784190Y-120295193D01*
X123729384Y-120377217D01*
X123659629Y-120446972D01*
X123577605Y-120501778D01*
X123486467Y-120539529D01*
X123421962Y-120552360D01*
X123389711Y-120558775D01*
X123291063Y-120558775D01*
X123258812Y-120552360D01*
X123194307Y-120539529D01*
X123103169Y-120501778D01*
X123021145Y-120446972D01*
X122951390Y-120377217D01*
X122896584Y-120295193D01*
X122858833Y-120204055D01*
X122839587Y-120107298D01*
X122839587Y-120008652D01*
X122858833Y-119911895D01*
X122896584Y-119820757D01*
X122951390Y-119738733D01*
X123021145Y-119668978D01*
X123103169Y-119614172D01*
X123194307Y-119576421D01*
X123258812Y-119563590D01*
X123291063Y-119557175D01*
X123389711Y-119557175D01*
X123421962Y-119563590D01*
G37*
G36*
X156741188Y-119563590D02*
G01*
X156805693Y-119576421D01*
X156896831Y-119614172D01*
X156978855Y-119668978D01*
X157048610Y-119738733D01*
X157103416Y-119820757D01*
X157141167Y-119911895D01*
X157160413Y-120008652D01*
X157160413Y-120107298D01*
X157141167Y-120204055D01*
X157103416Y-120295193D01*
X157048610Y-120377217D01*
X156978855Y-120446972D01*
X156896831Y-120501778D01*
X156805693Y-120539529D01*
X156741188Y-120552360D01*
X156708937Y-120558775D01*
X156610289Y-120558775D01*
X156578038Y-120552360D01*
X156513533Y-120539529D01*
X156422395Y-120501778D01*
X156340371Y-120446972D01*
X156270616Y-120377217D01*
X156215810Y-120295193D01*
X156178059Y-120204055D01*
X156158813Y-120107298D01*
X156158813Y-120008652D01*
X156178059Y-119911895D01*
X156215810Y-119820757D01*
X156270616Y-119738733D01*
X156340371Y-119668978D01*
X156422395Y-119614172D01*
X156513533Y-119576421D01*
X156578038Y-119563590D01*
X156610289Y-119557175D01*
X156708937Y-119557175D01*
X156741188Y-119563590D01*
G37*
G36*
X130350800Y-120500800D02*
G01*
X129449200Y-120500800D01*
X129449200Y-119499200D01*
X130350800Y-119499200D01*
X130350800Y-120500800D01*
G37*
G36*
X133650800Y-120500800D02*
G01*
X132749200Y-120500800D01*
X132749200Y-119499200D01*
X133650800Y-119499200D01*
X133650800Y-120500800D01*
G37*
G36*
X136950800Y-120500800D02*
G01*
X136049200Y-120500800D01*
X136049200Y-119499200D01*
X136950800Y-119499200D01*
X136950800Y-120500800D01*
G37*
G36*
X159438198Y-118096105D02*
G01*
X159121448Y-118548470D01*
X158901942Y-118861958D01*
X158519557Y-119408060D01*
X157781009Y-118890923D01*
X158153548Y-118358882D01*
X158158404Y-118350255D01*
X158161484Y-118340847D01*
X158162669Y-118331019D01*
X158161914Y-118321148D01*
X158159247Y-118311614D01*
X158154772Y-118302784D01*
X158148661Y-118294996D01*
X158141147Y-118288551D01*
X157772937Y-118030728D01*
X157772937Y-118030727D01*
X157923787Y-117815291D01*
X158290073Y-117292179D01*
X159438198Y-118096105D01*
G37*
G36*
X122076213Y-117815291D02*
G01*
X122227063Y-118030727D01*
X122227063Y-118030728D01*
X121858853Y-118288551D01*
X121851339Y-118294996D01*
X121845228Y-118302784D01*
X121840753Y-118311614D01*
X121838086Y-118321148D01*
X121837331Y-118331019D01*
X121838516Y-118340847D01*
X121841596Y-118350255D01*
X121846452Y-118358882D01*
X122218991Y-118890923D01*
X121480443Y-119408060D01*
X121098059Y-118861958D01*
X120878552Y-118548470D01*
X120561802Y-118096105D01*
X121709927Y-117292179D01*
X122076213Y-117815291D01*
G37*
G36*
X124889648Y-118607916D02*
G01*
X123823439Y-119354483D01*
X123076872Y-118288274D01*
X124143081Y-117541707D01*
X124889648Y-118607916D01*
G37*
G36*
X156923128Y-118288274D02*
G01*
X156176561Y-119354483D01*
X155110352Y-118607916D01*
X155856919Y-117541707D01*
X156923128Y-118288274D01*
G37*
G36*
X126325800Y-119350800D02*
G01*
X125474200Y-119350800D01*
X125474200Y-118049200D01*
X126325800Y-118049200D01*
X126325800Y-119350800D01*
G37*
G36*
X127525800Y-119300800D02*
G01*
X126674200Y-119300800D01*
X126674200Y-117999200D01*
X127525800Y-117999200D01*
X127525800Y-119300800D01*
G37*
G36*
X148829894Y-117352324D02*
G01*
X148858019Y-117360856D01*
X148883935Y-117374708D01*
X148906649Y-117393351D01*
X148925292Y-117416065D01*
X148939144Y-117441981D01*
X148947676Y-117470106D01*
X148950800Y-117501831D01*
X148950800Y-118498169D01*
X148947676Y-118529894D01*
X148939144Y-118558019D01*
X148925292Y-118583935D01*
X148906649Y-118606649D01*
X148883935Y-118625292D01*
X148858019Y-118639144D01*
X148829894Y-118647676D01*
X148798169Y-118650800D01*
X148401831Y-118650800D01*
X148370106Y-118647676D01*
X148341981Y-118639144D01*
X148316065Y-118625292D01*
X148293351Y-118606649D01*
X148274708Y-118583935D01*
X148260856Y-118558019D01*
X148252324Y-118529894D01*
X148249200Y-118498169D01*
X148249200Y-117501831D01*
X148252324Y-117470106D01*
X148260856Y-117441981D01*
X148274708Y-117416065D01*
X148293351Y-117393351D01*
X148316065Y-117374708D01*
X148341981Y-117360856D01*
X148370106Y-117352324D01*
X148401831Y-117349200D01*
X148798169Y-117349200D01*
X148829894Y-117352324D01*
G37*
G36*
X147629894Y-117352324D02*
G01*
X147658019Y-117360856D01*
X147683935Y-117374708D01*
X147706649Y-117393351D01*
X147725292Y-117416065D01*
X147739144Y-117441981D01*
X147747676Y-117470106D01*
X147750800Y-117501831D01*
X147750800Y-118498169D01*
X147747676Y-118529894D01*
X147739144Y-118558019D01*
X147725292Y-118583935D01*
X147706649Y-118606649D01*
X147683935Y-118625292D01*
X147658019Y-118639144D01*
X147629894Y-118647676D01*
X147598169Y-118650800D01*
X147201831Y-118650800D01*
X147170106Y-118647676D01*
X147141981Y-118639144D01*
X147116065Y-118625292D01*
X147093351Y-118606649D01*
X147074708Y-118583935D01*
X147060856Y-118558019D01*
X147052324Y-118529894D01*
X147049200Y-118498169D01*
X147049200Y-117501831D01*
X147052324Y-117470106D01*
X147060856Y-117441981D01*
X147074708Y-117416065D01*
X147093351Y-117393351D01*
X147116065Y-117374708D01*
X147141981Y-117360856D01*
X147170106Y-117352324D01*
X147201831Y-117349200D01*
X147598169Y-117349200D01*
X147629894Y-117352324D01*
G37*
G36*
X134600800Y-118500800D02*
G01*
X133699200Y-118500800D01*
X133699200Y-117499200D01*
X134600800Y-117499200D01*
X134600800Y-118500800D01*
G37*
G36*
X132700800Y-118500800D02*
G01*
X131799200Y-118500800D01*
X131799200Y-117499200D01*
X132700800Y-117499200D01*
X132700800Y-118500800D01*
G37*
G36*
X137900800Y-118500800D02*
G01*
X136999200Y-118500800D01*
X136999200Y-117499200D01*
X137900800Y-117499200D01*
X137900800Y-118500800D01*
G37*
G36*
X136000800Y-118500800D02*
G01*
X135099200Y-118500800D01*
X135099200Y-117499200D01*
X136000800Y-117499200D01*
X136000800Y-118500800D01*
G37*
G36*
X129400800Y-118500800D02*
G01*
X128499200Y-118500800D01*
X128499200Y-117499200D01*
X129400800Y-117499200D01*
X129400800Y-118500800D01*
G37*
G36*
X131300800Y-118500800D02*
G01*
X130399200Y-118500800D01*
X130399200Y-117499200D01*
X131300800Y-117499200D01*
X131300800Y-118500800D01*
G37*
G36*
X145200800Y-118150800D02*
G01*
X144199200Y-118150800D01*
X144199200Y-116849200D01*
X145200800Y-116849200D01*
X145200800Y-118150800D01*
G37*
G36*
X146500800Y-117500800D02*
G01*
X145499200Y-117500800D01*
X145499200Y-116599200D01*
X146500800Y-116599200D01*
X146500800Y-117500800D01*
G37*
G36*
X126325800Y-117450800D02*
G01*
X125474200Y-117450800D01*
X125474200Y-116149200D01*
X126325800Y-116149200D01*
X126325800Y-117450800D01*
G37*
G36*
X127525800Y-117400800D02*
G01*
X126674200Y-117400800D01*
X126674200Y-116099200D01*
X127525800Y-116099200D01*
X127525800Y-117400800D01*
G37*
G36*
X140325800Y-117200800D02*
G01*
X139474200Y-117200800D01*
X139474200Y-115899200D01*
X140325800Y-115899200D01*
X140325800Y-117200800D01*
G37*
G36*
X138950800Y-117100800D02*
G01*
X137649200Y-117100800D01*
X137649200Y-116099200D01*
X138950800Y-116099200D01*
X138950800Y-117100800D01*
G37*
G36*
X129150800Y-117100800D02*
G01*
X127849200Y-117100800D01*
X127849200Y-116099200D01*
X129150800Y-116099200D01*
X129150800Y-117100800D01*
G37*
G36*
X131350800Y-117100800D02*
G01*
X130049200Y-117100800D01*
X130049200Y-116099200D01*
X131350800Y-116099200D01*
X131350800Y-117100800D01*
G37*
G36*
X132950800Y-117100800D02*
G01*
X131649200Y-117100800D01*
X131649200Y-116099200D01*
X132950800Y-116099200D01*
X132950800Y-117100800D01*
G37*
G36*
X135150800Y-117100800D02*
G01*
X133849200Y-117100800D01*
X133849200Y-116099200D01*
X135150800Y-116099200D01*
X135150800Y-117100800D01*
G37*
G36*
X136750800Y-117100800D02*
G01*
X135449200Y-117100800D01*
X135449200Y-116099200D01*
X136750800Y-116099200D01*
X136750800Y-117100800D01*
G37*
G36*
X142700800Y-116600800D02*
G01*
X140799200Y-116600800D01*
X140799200Y-114749200D01*
X142700800Y-114749200D01*
X142700800Y-116600800D01*
G37*
G36*
X148500800Y-116550800D02*
G01*
X147499200Y-116550800D01*
X147499200Y-115649200D01*
X148500800Y-115649200D01*
X148500800Y-116550800D01*
G37*
G36*
X145200800Y-115950800D02*
G01*
X144199200Y-115950800D01*
X144199200Y-114649200D01*
X145200800Y-114649200D01*
X145200800Y-115950800D01*
G37*
G36*
X146500800Y-115600800D02*
G01*
X145499200Y-115600800D01*
X145499200Y-114699200D01*
X146500800Y-114699200D01*
X146500800Y-115600800D01*
G37*
G36*
X140325800Y-115300800D02*
G01*
X139474200Y-115300800D01*
X139474200Y-113999200D01*
X140325800Y-113999200D01*
X140325800Y-115300800D01*
G37*
G36*
X149600800Y-115175800D02*
G01*
X148899200Y-115175800D01*
X148899200Y-114624200D01*
X149600800Y-114624200D01*
X149600800Y-115175800D01*
G37*
G36*
X147500800Y-115175800D02*
G01*
X146799200Y-115175800D01*
X146799200Y-114624200D01*
X147500800Y-114624200D01*
X147500800Y-115175800D01*
G37*
G36*
X135000800Y-115050800D02*
G01*
X134299200Y-115050800D01*
X134299200Y-114549200D01*
X135000800Y-114549200D01*
X135000800Y-115050800D01*
G37*
G36*
X130700800Y-115000800D02*
G01*
X130199200Y-115000800D01*
X130199200Y-114299200D01*
X130700800Y-114299200D01*
X130700800Y-115000800D01*
G37*
G36*
X131500800Y-115000800D02*
G01*
X130999200Y-115000800D01*
X130999200Y-114299200D01*
X131500800Y-114299200D01*
X131500800Y-115000800D01*
G37*
G36*
X129100800Y-115000800D02*
G01*
X128599200Y-115000800D01*
X128599200Y-114299200D01*
X129100800Y-114299200D01*
X129100800Y-115000800D01*
G37*
G36*
X128300800Y-115000800D02*
G01*
X127799200Y-115000800D01*
X127799200Y-114299200D01*
X128300800Y-114299200D01*
X128300800Y-115000800D01*
G37*
G36*
X127500800Y-115000800D02*
G01*
X126999200Y-115000800D01*
X126999200Y-114299200D01*
X127500800Y-114299200D01*
X127500800Y-115000800D01*
G37*
G36*
X125900800Y-115000800D02*
G01*
X125399200Y-115000800D01*
X125399200Y-114299200D01*
X125900800Y-114299200D01*
X125900800Y-115000800D01*
G37*
G36*
X125100800Y-115000800D02*
G01*
X124599200Y-115000800D01*
X124599200Y-114299200D01*
X125100800Y-114299200D01*
X125100800Y-115000800D01*
G37*
G36*
X124000800Y-115000800D02*
G01*
X123499200Y-115000800D01*
X123499200Y-114299200D01*
X124000800Y-114299200D01*
X124000800Y-115000800D01*
G37*
G36*
X129900800Y-115000800D02*
G01*
X129399200Y-115000800D01*
X129399200Y-114299200D01*
X129900800Y-114299200D01*
X129900800Y-115000800D01*
G37*
G36*
X160650800Y-114350800D02*
G01*
X159249200Y-114350800D01*
X159249200Y-113449200D01*
X159698701Y-113449200D01*
X159708553Y-113448230D01*
X159718026Y-113445356D01*
X159726757Y-113440689D01*
X159734409Y-113434409D01*
X159740689Y-113426757D01*
X159745356Y-113418026D01*
X159748230Y-113408553D01*
X159749200Y-113398701D01*
X159749200Y-112749200D01*
X160650800Y-112749200D01*
X160650800Y-114350800D01*
G37*
G36*
X145550800Y-114300800D02*
G01*
X144249200Y-114300800D01*
X144249200Y-113299200D01*
X145550800Y-113299200D01*
X145550800Y-114300800D01*
G37*
G36*
X147750800Y-114300800D02*
G01*
X146449200Y-114300800D01*
X146449200Y-113299200D01*
X147750800Y-113299200D01*
X147750800Y-114300800D01*
G37*
G36*
X135000800Y-114250800D02*
G01*
X134299200Y-114250800D01*
X134299200Y-113749200D01*
X135000800Y-113749200D01*
X135000800Y-114250800D01*
G37*
G36*
X127900800Y-114100800D02*
G01*
X127399200Y-114100800D01*
X127399200Y-113399200D01*
X127900800Y-113399200D01*
X127900800Y-114100800D01*
G37*
G36*
X131100800Y-114100800D02*
G01*
X130599200Y-114100800D01*
X130599200Y-113399200D01*
X131100800Y-113399200D01*
X131100800Y-114100800D01*
G37*
G36*
X130300800Y-114100800D02*
G01*
X129799200Y-114100800D01*
X129799200Y-113399200D01*
X130300800Y-113399200D01*
X130300800Y-114100800D01*
G37*
G36*
X129500800Y-114100800D02*
G01*
X128999200Y-114100800D01*
X128999200Y-113399200D01*
X129500800Y-113399200D01*
X129500800Y-114100800D01*
G37*
G36*
X128700800Y-114100800D02*
G01*
X128199200Y-114100800D01*
X128199200Y-113399200D01*
X128700800Y-113399200D01*
X128700800Y-114100800D01*
G37*
G36*
X140275800Y-113650800D02*
G01*
X139424200Y-113650800D01*
X139424200Y-112349200D01*
X140275800Y-112349200D01*
X140275800Y-113650800D01*
G37*
G36*
X135000800Y-113450800D02*
G01*
X134299200Y-113450800D01*
X134299200Y-112949200D01*
X135000800Y-112949200D01*
X135000800Y-113450800D01*
G37*
G36*
X142700800Y-113350800D02*
G01*
X140799200Y-113350800D01*
X140799200Y-111499200D01*
X142700800Y-111499200D01*
X142700800Y-113350800D01*
G37*
G36*
X158700800Y-112750800D02*
G01*
X157399200Y-112750800D01*
X157399200Y-111449200D01*
X158700800Y-111449200D01*
X158700800Y-112750800D01*
G37*
G36*
X135000800Y-112650800D02*
G01*
X134299200Y-112650800D01*
X134299200Y-112149200D01*
X135000800Y-112149200D01*
X135000800Y-112650800D01*
G37*
G36*
X128400800Y-112250800D02*
G01*
X127699200Y-112250800D01*
X127699200Y-111749200D01*
X128400800Y-111749200D01*
X128400800Y-112250800D01*
G37*
G36*
X134100800Y-112250800D02*
G01*
X133399200Y-112250800D01*
X133399200Y-111749200D01*
X134100800Y-111749200D01*
X134100800Y-112250800D01*
G37*
G36*
X135000800Y-111850800D02*
G01*
X134299200Y-111850800D01*
X134299200Y-111349200D01*
X135000800Y-111349200D01*
X135000800Y-111850800D01*
G37*
G36*
X140275800Y-111750800D02*
G01*
X139424200Y-111750800D01*
X139424200Y-110449200D01*
X140275800Y-110449200D01*
X140275800Y-111750800D01*
G37*
G36*
X159581575Y-110655615D02*
G01*
X159646080Y-110668446D01*
X159737218Y-110706197D01*
X159819242Y-110761003D01*
X159888997Y-110830758D01*
X159943803Y-110912782D01*
X159981554Y-111003920D01*
X160000800Y-111100677D01*
X160000800Y-111199323D01*
X159981554Y-111296080D01*
X159943803Y-111387218D01*
X159888997Y-111469242D01*
X159819242Y-111538997D01*
X159737218Y-111593803D01*
X159646080Y-111631554D01*
X159581575Y-111644385D01*
X159549324Y-111650800D01*
X159450676Y-111650800D01*
X159418425Y-111644385D01*
X159353920Y-111631554D01*
X159262782Y-111593803D01*
X159180758Y-111538997D01*
X159111003Y-111469242D01*
X159056197Y-111387218D01*
X159018446Y-111296080D01*
X158999200Y-111199323D01*
X158999200Y-111100677D01*
X159018446Y-111003920D01*
X159056197Y-110912782D01*
X159111003Y-110830758D01*
X159180758Y-110761003D01*
X159262782Y-110706197D01*
X159353920Y-110668446D01*
X159418425Y-110655615D01*
X159450676Y-110649200D01*
X159549324Y-110649200D01*
X159581575Y-110655615D01*
G37*
G36*
X134100800Y-111450800D02*
G01*
X133399200Y-111450800D01*
X133399200Y-110949200D01*
X134100800Y-110949200D01*
X134100800Y-111450800D01*
G37*
G36*
X128400800Y-111450800D02*
G01*
X127699200Y-111450800D01*
X127699200Y-110949200D01*
X128400800Y-110949200D01*
X128400800Y-111450800D01*
G37*
G36*
X135000800Y-111050800D02*
G01*
X134299200Y-111050800D01*
X134299200Y-110549200D01*
X135000800Y-110549200D01*
X135000800Y-111050800D01*
G37*
G36*
X128400800Y-110650800D02*
G01*
X127699200Y-110650800D01*
X127699200Y-110149200D01*
X128400800Y-110149200D01*
X128400800Y-110650800D01*
G37*
G36*
X134100800Y-110650800D02*
G01*
X133399200Y-110650800D01*
X133399200Y-110149200D01*
X134100800Y-110149200D01*
X134100800Y-110650800D01*
G37*
G36*
X135000800Y-110250800D02*
G01*
X134299200Y-110250800D01*
X134299200Y-109749200D01*
X135000800Y-109749200D01*
X135000800Y-110250800D01*
G37*
G36*
X134100800Y-109850800D02*
G01*
X133399200Y-109850800D01*
X133399200Y-109349200D01*
X134100800Y-109349200D01*
X134100800Y-109850800D01*
G37*
G36*
X128400800Y-109850800D02*
G01*
X127699200Y-109850800D01*
X127699200Y-109349200D01*
X128400800Y-109349200D01*
X128400800Y-109850800D01*
G37*
G36*
X135000800Y-109450800D02*
G01*
X134299200Y-109450800D01*
X134299200Y-108949200D01*
X135000800Y-108949200D01*
X135000800Y-109450800D01*
G37*
G36*
X159581575Y-108355615D02*
G01*
X159646080Y-108368446D01*
X159737218Y-108406197D01*
X159819242Y-108461003D01*
X159888997Y-108530758D01*
X159943803Y-108612782D01*
X159981554Y-108703920D01*
X160000800Y-108800677D01*
X160000800Y-108899323D01*
X159981554Y-108996080D01*
X159943803Y-109087218D01*
X159888997Y-109169242D01*
X159819242Y-109238997D01*
X159737218Y-109293803D01*
X159646080Y-109331554D01*
X159581575Y-109344385D01*
X159549324Y-109350800D01*
X159450676Y-109350800D01*
X159418425Y-109344385D01*
X159353920Y-109331554D01*
X159262782Y-109293803D01*
X159180758Y-109238997D01*
X159111003Y-109169242D01*
X159056197Y-109087218D01*
X159018446Y-108996080D01*
X158999200Y-108899323D01*
X158999200Y-108800677D01*
X159018446Y-108703920D01*
X159056197Y-108612782D01*
X159111003Y-108530758D01*
X159180758Y-108461003D01*
X159262782Y-108406197D01*
X159353920Y-108368446D01*
X159418425Y-108355615D01*
X159450676Y-108349200D01*
X159549324Y-108349200D01*
X159581575Y-108355615D01*
G37*
G36*
X134100800Y-109050800D02*
G01*
X133399200Y-109050800D01*
X133399200Y-108549200D01*
X134100800Y-108549200D01*
X134100800Y-109050800D01*
G37*
G36*
X128400800Y-109050800D02*
G01*
X127699200Y-109050800D01*
X127699200Y-108549200D01*
X128400800Y-108549200D01*
X128400800Y-109050800D01*
G37*
G36*
X135000800Y-108650800D02*
G01*
X134299200Y-108650800D01*
X134299200Y-108149200D01*
X135000800Y-108149200D01*
X135000800Y-108650800D01*
G37*
G36*
X158700800Y-108550800D02*
G01*
X157399200Y-108550800D01*
X157399200Y-107249200D01*
X158700800Y-107249200D01*
X158700800Y-108550800D01*
G37*
G36*
X128400800Y-108250800D02*
G01*
X127699200Y-108250800D01*
X127699200Y-107749200D01*
X128400800Y-107749200D01*
X128400800Y-108250800D01*
G37*
G36*
X134100800Y-108250800D02*
G01*
X133399200Y-108250800D01*
X133399200Y-107749200D01*
X134100800Y-107749200D01*
X134100800Y-108250800D01*
G37*
G36*
X139100800Y-108025800D02*
G01*
X137799200Y-108025800D01*
X137799200Y-107174200D01*
X139100800Y-107174200D01*
X139100800Y-108025800D01*
G37*
G36*
X137200800Y-108025800D02*
G01*
X135899200Y-108025800D01*
X135899200Y-107174200D01*
X137200800Y-107174200D01*
X137200800Y-108025800D01*
G37*
G36*
X151450800Y-107950800D02*
G01*
X150449200Y-107950800D01*
X150449200Y-106649200D01*
X151450800Y-106649200D01*
X151450800Y-107950800D01*
G37*
G36*
X147500800Y-107925800D02*
G01*
X146199200Y-107925800D01*
X146199200Y-107074200D01*
X147500800Y-107074200D01*
X147500800Y-107925800D01*
G37*
G36*
X149400800Y-107925800D02*
G01*
X148099200Y-107925800D01*
X148099200Y-107074200D01*
X149400800Y-107074200D01*
X149400800Y-107925800D01*
G37*
G36*
X135000800Y-107850800D02*
G01*
X134299200Y-107850800D01*
X134299200Y-107349200D01*
X135000800Y-107349200D01*
X135000800Y-107850800D01*
G37*
G36*
X160650800Y-107250800D02*
G01*
X159749200Y-107250800D01*
X159749200Y-106601299D01*
X159748230Y-106591447D01*
X159745356Y-106581974D01*
X159740689Y-106573243D01*
X159734409Y-106565591D01*
X159726757Y-106559311D01*
X159718026Y-106554644D01*
X159708553Y-106551770D01*
X159698701Y-106550800D01*
X159249200Y-106550800D01*
X159249200Y-105649200D01*
X160650800Y-105649200D01*
X160650800Y-107250800D01*
G37*
G36*
X135000800Y-107050800D02*
G01*
X134299200Y-107050800D01*
X134299200Y-106549200D01*
X135000800Y-106549200D01*
X135000800Y-107050800D01*
G37*
G36*
X127900800Y-106600800D02*
G01*
X127399200Y-106600800D01*
X127399200Y-105899200D01*
X127900800Y-105899200D01*
X127900800Y-106600800D01*
G37*
G36*
X130300800Y-106600800D02*
G01*
X129799200Y-106600800D01*
X129799200Y-105899200D01*
X130300800Y-105899200D01*
X130300800Y-106600800D01*
G37*
G36*
X131100800Y-106600800D02*
G01*
X130599200Y-106600800D01*
X130599200Y-105899200D01*
X131100800Y-105899200D01*
X131100800Y-106600800D01*
G37*
G36*
X131900800Y-106600800D02*
G01*
X131399200Y-106600800D01*
X131399200Y-105899200D01*
X131900800Y-105899200D01*
X131900800Y-106600800D01*
G37*
G36*
X132700800Y-106600800D02*
G01*
X132199200Y-106600800D01*
X132199200Y-105899200D01*
X132700800Y-105899200D01*
X132700800Y-106600800D01*
G37*
G36*
X129500800Y-106600800D02*
G01*
X128999200Y-106600800D01*
X128999200Y-105899200D01*
X129500800Y-105899200D01*
X129500800Y-106600800D01*
G37*
G36*
X128700800Y-106600800D02*
G01*
X128199200Y-106600800D01*
X128199200Y-105899200D01*
X128700800Y-105899200D01*
X128700800Y-106600800D01*
G37*
G36*
X127100800Y-106600800D02*
G01*
X126599200Y-106600800D01*
X126599200Y-105899200D01*
X127100800Y-105899200D01*
X127100800Y-106600800D01*
G37*
G36*
X126300800Y-106600800D02*
G01*
X125799200Y-106600800D01*
X125799200Y-105899200D01*
X126300800Y-105899200D01*
X126300800Y-106600800D01*
G37*
G36*
X125500800Y-106600800D02*
G01*
X124999200Y-106600800D01*
X124999200Y-105899200D01*
X125500800Y-105899200D01*
X125500800Y-106600800D01*
G37*
G36*
X124700800Y-106600800D02*
G01*
X124199200Y-106600800D01*
X124199200Y-105899200D01*
X124700800Y-105899200D01*
X124700800Y-106600800D01*
G37*
G36*
X135000800Y-106250800D02*
G01*
X134299200Y-106250800D01*
X134299200Y-105749200D01*
X135000800Y-105749200D01*
X135000800Y-106250800D01*
G37*
G36*
X151450800Y-105750800D02*
G01*
X150449200Y-105750800D01*
X150449200Y-104449200D01*
X151450800Y-104449200D01*
X151450800Y-105750800D01*
G37*
G36*
X125900800Y-105700800D02*
G01*
X125399200Y-105700800D01*
X125399200Y-104999200D01*
X125900800Y-104999200D01*
X125900800Y-105700800D01*
G37*
G36*
X124000800Y-105700800D02*
G01*
X123499200Y-105700800D01*
X123499200Y-104999200D01*
X124000800Y-104999200D01*
X124000800Y-105700800D01*
G37*
G36*
X133900800Y-105700800D02*
G01*
X133399200Y-105700800D01*
X133399200Y-104999200D01*
X133900800Y-104999200D01*
X133900800Y-105700800D01*
G37*
G36*
X133100800Y-105700800D02*
G01*
X132599200Y-105700800D01*
X132599200Y-104999200D01*
X133100800Y-104999200D01*
X133100800Y-105700800D01*
G37*
G36*
X132300800Y-105700800D02*
G01*
X131799200Y-105700800D01*
X131799200Y-104999200D01*
X132300800Y-104999200D01*
X132300800Y-105700800D01*
G37*
G36*
X131500800Y-105700800D02*
G01*
X130999200Y-105700800D01*
X130999200Y-104999200D01*
X131500800Y-104999200D01*
X131500800Y-105700800D01*
G37*
G36*
X129100800Y-105700800D02*
G01*
X128599200Y-105700800D01*
X128599200Y-104999200D01*
X129100800Y-104999200D01*
X129100800Y-105700800D01*
G37*
G36*
X128300800Y-105700800D02*
G01*
X127799200Y-105700800D01*
X127799200Y-104999200D01*
X128300800Y-104999200D01*
X128300800Y-105700800D01*
G37*
G36*
X127500800Y-105700800D02*
G01*
X126999200Y-105700800D01*
X126999200Y-104999200D01*
X127500800Y-104999200D01*
X127500800Y-105700800D01*
G37*
G36*
X125100800Y-105700800D02*
G01*
X124599200Y-105700800D01*
X124599200Y-104999200D01*
X125100800Y-104999200D01*
X125100800Y-105700800D01*
G37*
G36*
X130700800Y-105700800D02*
G01*
X130199200Y-105700800D01*
X130199200Y-104999200D01*
X130700800Y-104999200D01*
X130700800Y-105700800D01*
G37*
G36*
X135000800Y-105450800D02*
G01*
X134299200Y-105450800D01*
X134299200Y-104949200D01*
X135000800Y-104949200D01*
X135000800Y-105450800D01*
G37*
G36*
X149050800Y-103748701D02*
G01*
X149051770Y-103758553D01*
X149054644Y-103768026D01*
X149059311Y-103776757D01*
X149065591Y-103784409D01*
X149073243Y-103790689D01*
X149081974Y-103795356D01*
X149091447Y-103798230D01*
X149100800Y-103799151D01*
X149100800Y-104700849D01*
X149091447Y-104701770D01*
X149081974Y-104704644D01*
X149073243Y-104709311D01*
X149065591Y-104715591D01*
X149059311Y-104723243D01*
X149054644Y-104731974D01*
X149051770Y-104741447D01*
X149050800Y-104751299D01*
X149050800Y-105250800D01*
X147149200Y-105250800D01*
X147149200Y-104751299D01*
X147148230Y-104741447D01*
X147145356Y-104731974D01*
X147140689Y-104723243D01*
X147134409Y-104715591D01*
X147126757Y-104709311D01*
X147118026Y-104704644D01*
X147108553Y-104701770D01*
X147099200Y-104700849D01*
X147099200Y-103799151D01*
X147108553Y-103798230D01*
X147118026Y-103795356D01*
X147126757Y-103790689D01*
X147134409Y-103784409D01*
X147140689Y-103776757D01*
X147145356Y-103768026D01*
X147148230Y-103758553D01*
X147148944Y-103751299D01*
X147550800Y-103751299D01*
X147550800Y-104748701D01*
X147551770Y-104758553D01*
X147554644Y-104768026D01*
X147559311Y-104776757D01*
X147565591Y-104784409D01*
X147573243Y-104790689D01*
X147581974Y-104795356D01*
X147591447Y-104798230D01*
X147601299Y-104799200D01*
X148598701Y-104799200D01*
X148608553Y-104798230D01*
X148618026Y-104795356D01*
X148626757Y-104790689D01*
X148634409Y-104784409D01*
X148640689Y-104776757D01*
X148645356Y-104768026D01*
X148648230Y-104758553D01*
X148649200Y-104748701D01*
X148649200Y-103751299D01*
X148648230Y-103741447D01*
X148645356Y-103731974D01*
X148640689Y-103723243D01*
X148634409Y-103715591D01*
X148626757Y-103709311D01*
X148618026Y-103704644D01*
X148608553Y-103701770D01*
X148598701Y-103700800D01*
X147601299Y-103700800D01*
X147591447Y-103701770D01*
X147581974Y-103704644D01*
X147573243Y-103709311D01*
X147565591Y-103715591D01*
X147559311Y-103723243D01*
X147554644Y-103731974D01*
X147551770Y-103741447D01*
X147550800Y-103751299D01*
X147148944Y-103751299D01*
X147149200Y-103748701D01*
X147149200Y-103249200D01*
X149050800Y-103249200D01*
X149050800Y-103748701D01*
G37*
G36*
X145750800Y-104850800D02*
G01*
X144749200Y-104850800D01*
X144749200Y-103549200D01*
X145750800Y-103549200D01*
X145750800Y-104850800D01*
G37*
G36*
X128599680Y-103684880D02*
G01*
X127898080Y-103684880D01*
X127898080Y-103283280D01*
X128599680Y-103283280D01*
X128599680Y-103684880D01*
G37*
G36*
X130999680Y-103684880D02*
G01*
X130298080Y-103684880D01*
X130298080Y-103283280D01*
X130999680Y-103283280D01*
X130999680Y-103684880D01*
G37*
G36*
X159834758Y-102522117D02*
G01*
X159834758Y-102522118D01*
X158659277Y-103285484D01*
X158168230Y-102529338D01*
X158545215Y-102284521D01*
X158552948Y-102278342D01*
X158559328Y-102270773D01*
X158564108Y-102262104D01*
X158567105Y-102252669D01*
X158568205Y-102242831D01*
X158567363Y-102232967D01*
X158564614Y-102223457D01*
X158560065Y-102214671D01*
X158206318Y-101669949D01*
X158962464Y-101178902D01*
X159834758Y-102522117D01*
G37*
G36*
X157327928Y-102242291D02*
G01*
X156236314Y-102951193D01*
X155527412Y-101859579D01*
X156619026Y-101150677D01*
X157327928Y-102242291D01*
G37*
G36*
X130999680Y-102884880D02*
G01*
X130298080Y-102884880D01*
X130298080Y-102483280D01*
X130999680Y-102483280D01*
X130999680Y-102884880D01*
G37*
G36*
X128599680Y-102884880D02*
G01*
X127898080Y-102884880D01*
X127898080Y-102483280D01*
X128599680Y-102483280D01*
X128599680Y-102884880D01*
G37*
G36*
X124264611Y-101666418D02*
G01*
X124364851Y-101707938D01*
X124455063Y-101768217D01*
X124531783Y-101844937D01*
X124592062Y-101935149D01*
X124633582Y-102035389D01*
X124654749Y-102141802D01*
X124654749Y-102250300D01*
X124633582Y-102356713D01*
X124592062Y-102456953D01*
X124531783Y-102547165D01*
X124455063Y-102623885D01*
X124364851Y-102684164D01*
X124264611Y-102725684D01*
X124158198Y-102746851D01*
X124049700Y-102746851D01*
X123943287Y-102725684D01*
X123843047Y-102684164D01*
X123752835Y-102623885D01*
X123676115Y-102547165D01*
X123615836Y-102456953D01*
X123574316Y-102356713D01*
X123553149Y-102250300D01*
X123553149Y-102141802D01*
X123574316Y-102035389D01*
X123615836Y-101935149D01*
X123676115Y-101844937D01*
X123752835Y-101768217D01*
X123843047Y-101707938D01*
X123943287Y-101666418D01*
X124049700Y-101645251D01*
X124158198Y-101645251D01*
X124264611Y-101666418D01*
G37*
G36*
X145750800Y-102650800D02*
G01*
X144749200Y-102650800D01*
X144749200Y-101349200D01*
X145750800Y-101349200D01*
X145750800Y-102650800D01*
G37*
G36*
X138600800Y-102500800D02*
G01*
X137299200Y-102500800D01*
X137299200Y-101499200D01*
X138600800Y-101499200D01*
X138600800Y-102500800D01*
G37*
G36*
X136400800Y-102500800D02*
G01*
X135099200Y-102500800D01*
X135099200Y-101499200D01*
X136400800Y-101499200D01*
X136400800Y-102500800D01*
G37*
G36*
X142550800Y-102500800D02*
G01*
X141249200Y-102500800D01*
X141249200Y-101499200D01*
X142550800Y-101499200D01*
X142550800Y-102500800D01*
G37*
G36*
X140350800Y-102500800D02*
G01*
X139049200Y-102500800D01*
X139049200Y-101499200D01*
X140350800Y-101499200D01*
X140350800Y-102500800D01*
G37*
G36*
X130999680Y-102084880D02*
G01*
X130298080Y-102084880D01*
X130298080Y-101683280D01*
X130999680Y-101683280D01*
X130999680Y-102084880D01*
G37*
G36*
X128599680Y-102084880D02*
G01*
X127898080Y-102084880D01*
X127898080Y-101683280D01*
X128599680Y-101683280D01*
X128599680Y-102084880D01*
G37*
G36*
X149850800Y-101925800D02*
G01*
X148549200Y-101925800D01*
X148549200Y-101074200D01*
X149850800Y-101074200D01*
X149850800Y-101925800D01*
G37*
G36*
X147950800Y-101925800D02*
G01*
X146649200Y-101925800D01*
X146649200Y-101074200D01*
X147950800Y-101074200D01*
X147950800Y-101925800D01*
G37*
G36*
X125162636Y-100768393D02*
G01*
X125262876Y-100809913D01*
X125353088Y-100870192D01*
X125429808Y-100946912D01*
X125490087Y-101037124D01*
X125531607Y-101137364D01*
X125552774Y-101243777D01*
X125552774Y-101352275D01*
X125531607Y-101458688D01*
X125490087Y-101558928D01*
X125429808Y-101649140D01*
X125353088Y-101725860D01*
X125262876Y-101786139D01*
X125162636Y-101827659D01*
X125056223Y-101848826D01*
X124947725Y-101848826D01*
X124841312Y-101827659D01*
X124741072Y-101786139D01*
X124650860Y-101725860D01*
X124574140Y-101649140D01*
X124513861Y-101558928D01*
X124472341Y-101458688D01*
X124451174Y-101352275D01*
X124451174Y-101243777D01*
X124472341Y-101137364D01*
X124513861Y-101037124D01*
X124574140Y-100946912D01*
X124650860Y-100870192D01*
X124741072Y-100809913D01*
X124841312Y-100768393D01*
X124947725Y-100747226D01*
X125056223Y-100747226D01*
X125162636Y-100768393D01*
G37*
G36*
X130999680Y-101284880D02*
G01*
X130298080Y-101284880D01*
X130298080Y-100883280D01*
X130999680Y-100883280D01*
X130999680Y-101284880D01*
G37*
G36*
X128599680Y-101284880D02*
G01*
X127898080Y-101284880D01*
X127898080Y-100883280D01*
X128599680Y-100883280D01*
X128599680Y-101284880D01*
G37*
G36*
X157207910Y-99970086D02*
G01*
X157272415Y-99982917D01*
X157363553Y-100020668D01*
X157445577Y-100075474D01*
X157515332Y-100145229D01*
X157570138Y-100227253D01*
X157607889Y-100318391D01*
X157627135Y-100415148D01*
X157627135Y-100513794D01*
X157607889Y-100610551D01*
X157570138Y-100701689D01*
X157515332Y-100783713D01*
X157445577Y-100853468D01*
X157363553Y-100908274D01*
X157272415Y-100946025D01*
X157207910Y-100958856D01*
X157175659Y-100965271D01*
X157077011Y-100965271D01*
X157044760Y-100958856D01*
X156980255Y-100946025D01*
X156889117Y-100908274D01*
X156807093Y-100853468D01*
X156737338Y-100783713D01*
X156682532Y-100701689D01*
X156644781Y-100610551D01*
X156625535Y-100513794D01*
X156625535Y-100415148D01*
X156644781Y-100318391D01*
X156682532Y-100227253D01*
X156737338Y-100145229D01*
X156807093Y-100075474D01*
X156889117Y-100020668D01*
X156980255Y-99982917D01*
X157044760Y-99970086D01*
X157077011Y-99963671D01*
X157175659Y-99963671D01*
X157207910Y-99970086D01*
G37*
G36*
X126060662Y-99870367D02*
G01*
X126160902Y-99911887D01*
X126251114Y-99972166D01*
X126327834Y-100048886D01*
X126388113Y-100139098D01*
X126429633Y-100239338D01*
X126450800Y-100345751D01*
X126450800Y-100454249D01*
X126429633Y-100560662D01*
X126388113Y-100660902D01*
X126327834Y-100751114D01*
X126251114Y-100827834D01*
X126160902Y-100888113D01*
X126060662Y-100929633D01*
X125954249Y-100950800D01*
X125845751Y-100950800D01*
X125739338Y-100929633D01*
X125639098Y-100888113D01*
X125548886Y-100827834D01*
X125472166Y-100751114D01*
X125411887Y-100660902D01*
X125370367Y-100560662D01*
X125349200Y-100454249D01*
X125349200Y-100345751D01*
X125370367Y-100239338D01*
X125411887Y-100139098D01*
X125472166Y-100048886D01*
X125548886Y-99972166D01*
X125639098Y-99911887D01*
X125739338Y-99870367D01*
X125845751Y-99849200D01*
X125954249Y-99849200D01*
X126060662Y-99870367D01*
G37*
G36*
X141300800Y-100625800D02*
G01*
X139999200Y-100625800D01*
X139999200Y-99774200D01*
X141300800Y-99774200D01*
X141300800Y-100625800D01*
G37*
G36*
X143200800Y-100625800D02*
G01*
X141899200Y-100625800D01*
X141899200Y-99774200D01*
X143200800Y-99774200D01*
X143200800Y-100625800D01*
G37*
G36*
X139625800Y-100555800D02*
G01*
X137224200Y-100555800D01*
X137224200Y-99724200D01*
X139625800Y-99724200D01*
X139625800Y-100555800D01*
G37*
G36*
X148550800Y-100225800D02*
G01*
X147249200Y-100225800D01*
X147249200Y-99374200D01*
X148550800Y-99374200D01*
X148550800Y-100225800D01*
G37*
G36*
X146650800Y-100225800D02*
G01*
X145349200Y-100225800D01*
X145349200Y-99374200D01*
X146650800Y-99374200D01*
X146650800Y-100225800D01*
G37*
G36*
X126958687Y-98972342D02*
G01*
X127058927Y-99013862D01*
X127149139Y-99074141D01*
X127225859Y-99150861D01*
X127286138Y-99241073D01*
X127327658Y-99341313D01*
X127348825Y-99447726D01*
X127348825Y-99556224D01*
X127327658Y-99662637D01*
X127286138Y-99762877D01*
X127225859Y-99853089D01*
X127149139Y-99929809D01*
X127058927Y-99990088D01*
X126958687Y-100031608D01*
X126852274Y-100052775D01*
X126743776Y-100052775D01*
X126637363Y-100031608D01*
X126537123Y-99990088D01*
X126446911Y-99929809D01*
X126370191Y-99853089D01*
X126309912Y-99762877D01*
X126268392Y-99662637D01*
X126247225Y-99556224D01*
X126247225Y-99447726D01*
X126268392Y-99341313D01*
X126309912Y-99241073D01*
X126370191Y-99150861D01*
X126446911Y-99074141D01*
X126537123Y-99013862D01*
X126637363Y-98972342D01*
X126743776Y-98951175D01*
X126852274Y-98951175D01*
X126958687Y-98972342D01*
G37*
G36*
X125550060Y-99049004D02*
G01*
X124975565Y-99869467D01*
X123499780Y-98836112D01*
X124074275Y-98015649D01*
X125550060Y-99049004D01*
G37*
G36*
X150125800Y-99650800D02*
G01*
X149274200Y-99650800D01*
X149274200Y-98349200D01*
X150125800Y-98349200D01*
X150125800Y-99650800D01*
G37*
G36*
X139725800Y-99475800D02*
G01*
X137124200Y-99475800D01*
X137124200Y-96874200D01*
X139725800Y-96874200D01*
X139725800Y-99475800D01*
G37*
G36*
X155040444Y-98719874D02*
G01*
X153948830Y-99428776D01*
X153239928Y-98337162D01*
X154331542Y-97628260D01*
X155040444Y-98719874D01*
G37*
G36*
X128475000Y-98603949D02*
G01*
X127696051Y-99382898D01*
X126917102Y-98603949D01*
X127696051Y-97825000D01*
X128475000Y-98603949D01*
G37*
G36*
X136875800Y-99375800D02*
G01*
X136044200Y-99375800D01*
X136044200Y-96974200D01*
X136875800Y-96974200D01*
X136875800Y-99375800D01*
G37*
G36*
X140805800Y-99375800D02*
G01*
X139974200Y-99375800D01*
X139974200Y-96974200D01*
X140805800Y-96974200D01*
X140805800Y-99375800D01*
G37*
G36*
X155955240Y-98041144D02*
G01*
X156019745Y-98053975D01*
X156110883Y-98091726D01*
X156192907Y-98146532D01*
X156262662Y-98216287D01*
X156317468Y-98298311D01*
X156355219Y-98389449D01*
X156374465Y-98486206D01*
X156374465Y-98584852D01*
X156355219Y-98681609D01*
X156317468Y-98772747D01*
X156262662Y-98854771D01*
X156192907Y-98924526D01*
X156110883Y-98979332D01*
X156019745Y-99017083D01*
X155955240Y-99029914D01*
X155922989Y-99036329D01*
X155824341Y-99036329D01*
X155792090Y-99029914D01*
X155727585Y-99017083D01*
X155636447Y-98979332D01*
X155554423Y-98924526D01*
X155484668Y-98854771D01*
X155429862Y-98772747D01*
X155392111Y-98681609D01*
X155372865Y-98584852D01*
X155372865Y-98486206D01*
X155392111Y-98389449D01*
X155429862Y-98298311D01*
X155484668Y-98216287D01*
X155554423Y-98146532D01*
X155636447Y-98091726D01*
X155727585Y-98053975D01*
X155792090Y-98041144D01*
X155824341Y-98034729D01*
X155922989Y-98034729D01*
X155955240Y-98041144D01*
G37*
G36*
X148550800Y-98825800D02*
G01*
X147249200Y-98825800D01*
X147249200Y-97974200D01*
X148550800Y-97974200D01*
X148550800Y-98825800D01*
G37*
G36*
X146650800Y-98825800D02*
G01*
X145349200Y-98825800D01*
X145349200Y-97974200D01*
X146650800Y-97974200D01*
X146650800Y-98825800D01*
G37*
G36*
X133400800Y-98000800D02*
G01*
X132099200Y-98000800D01*
X132099200Y-96999200D01*
X133400800Y-96999200D01*
X133400800Y-98000800D01*
G37*
G36*
X135600800Y-98000800D02*
G01*
X134299200Y-98000800D01*
X134299200Y-96999200D01*
X135600800Y-96999200D01*
X135600800Y-98000800D01*
G37*
G36*
X150125800Y-97750800D02*
G01*
X149274200Y-97750800D01*
X149274200Y-96449200D01*
X150125800Y-96449200D01*
X150125800Y-97750800D01*
G37*
G36*
X148730800Y-97175800D02*
G01*
X147569200Y-97175800D01*
X147569200Y-96424200D01*
X148730800Y-96424200D01*
X148730800Y-97175800D01*
G37*
G36*
X146530800Y-97175800D02*
G01*
X145369200Y-97175800D01*
X145369200Y-96424200D01*
X146530800Y-96424200D01*
X146530800Y-97175800D01*
G37*
G36*
X127500220Y-96263888D02*
G01*
X126925725Y-97084351D01*
X125449940Y-96050996D01*
X126024435Y-95230533D01*
X127500220Y-96263888D01*
G37*
G36*
X155967821Y-96567556D02*
G01*
X155211675Y-97058603D01*
X154857927Y-96513878D01*
X154851753Y-96506151D01*
X154844183Y-96499771D01*
X154835514Y-96494991D01*
X154826079Y-96491994D01*
X154816241Y-96490894D01*
X154806377Y-96491736D01*
X154796867Y-96494485D01*
X154788080Y-96499035D01*
X154411093Y-96743853D01*
X153920046Y-95987707D01*
X155095527Y-95224341D01*
X155967821Y-96567556D01*
G37*
G36*
X144550800Y-96675800D02*
G01*
X143249200Y-96675800D01*
X143249200Y-95824200D01*
X144550800Y-95824200D01*
X144550800Y-96675800D01*
G37*
G36*
X142650800Y-96675800D02*
G01*
X141349200Y-96675800D01*
X141349200Y-95824200D01*
X142650800Y-95824200D01*
X142650800Y-96675800D01*
G37*
G36*
X139625800Y-96625800D02*
G01*
X137224200Y-96625800D01*
X137224200Y-95794200D01*
X139625800Y-95794200D01*
X139625800Y-96625800D01*
G37*
G36*
X135600800Y-96500800D02*
G01*
X134299200Y-96500800D01*
X134299200Y-95499200D01*
X135600800Y-95499200D01*
X135600800Y-96500800D01*
G37*
G36*
X133400800Y-96500800D02*
G01*
X132099200Y-96500800D01*
X132099200Y-95499200D01*
X133400800Y-95499200D01*
X133400800Y-96500800D01*
G37*
G36*
X146530800Y-96225800D02*
G01*
X145369200Y-96225800D01*
X145369200Y-95474200D01*
X146530800Y-95474200D01*
X146530800Y-96225800D01*
G37*
G36*
X148730800Y-95275800D02*
G01*
X147569200Y-95275800D01*
X147569200Y-94524200D01*
X148730800Y-94524200D01*
X148730800Y-95275800D01*
G37*
G36*
X146530800Y-95275800D02*
G01*
X145369200Y-95275800D01*
X145369200Y-94524200D01*
X146530800Y-94524200D01*
X146530800Y-95275800D01*
G37*
G36*
X140800800Y-95250800D02*
G01*
X139499200Y-95250800D01*
X139499200Y-94249200D01*
X140800800Y-94249200D01*
X140800800Y-95250800D01*
G37*
G36*
X144800800Y-95250800D02*
G01*
X143499200Y-95250800D01*
X143499200Y-94249200D01*
X144800800Y-94249200D01*
X144800800Y-95250800D01*
G37*
G36*
X138600800Y-95250800D02*
G01*
X137299200Y-95250800D01*
X137299200Y-94249200D01*
X138600800Y-94249200D01*
X138600800Y-95250800D01*
G37*
G36*
X142600800Y-95250800D02*
G01*
X141299200Y-95250800D01*
X141299200Y-94249200D01*
X142600800Y-94249200D01*
X142600800Y-95250800D01*
G37*
G36*
X130950800Y-94900800D02*
G01*
X129349200Y-94900800D01*
X129349200Y-93299200D01*
X130950800Y-93299200D01*
X130950800Y-94900800D01*
G37*
G36*
X141550800Y-93750800D02*
G01*
X138449200Y-93750800D01*
X138449200Y-90649200D01*
X141550800Y-90649200D01*
X141550800Y-93750800D01*
G37*
G36*
X136750800Y-93750800D02*
G01*
X133649200Y-93750800D01*
X133649200Y-90649200D01*
X136750800Y-90649200D01*
X136750800Y-93750800D01*
G37*
M02*
