G04 #@! TF.GenerationSoftware,KiCad,Pcbnew,(5.1.6)-1*
G04 #@! TF.CreationDate,2020-05-24T14:26:43-05:00*
G04 #@! TF.ProjectId,nrf,6e72662e-6b69-4636-9164-5f7063625858,rev?*
G04 #@! TF.SameCoordinates,Original*
G04 #@! TF.FileFunction,Copper,L2,Bot*
G04 #@! TF.FilePolarity,Positive*
%FSLAX46Y46*%
G04 Gerber Fmt 4.6, Leading zero omitted, Abs format (unit mm)*
G04 Created by KiCad (PCBNEW (5.1.6)-1) date 2020-05-24 14:26:43*
%MOMM*%
%LPD*%
G01*
G04 APERTURE LIST*
G04 #@! TA.AperFunction,ComponentPad*
%ADD10C,0.100000*%
G04 #@! TD*
G04 #@! TA.AperFunction,SMDPad,CuDef*
%ADD11R,3.000000X3.000000*%
G04 #@! TD*
G04 #@! TA.AperFunction,ViaPad*
%ADD12C,0.685800*%
G04 #@! TD*
G04 #@! TA.AperFunction,Conductor*
%ADD13C,0.400000*%
G04 #@! TD*
G04 #@! TA.AperFunction,Conductor*
%ADD14C,0.200000*%
G04 #@! TD*
G04 #@! TA.AperFunction,Conductor*
%ADD15C,0.254000*%
G04 #@! TD*
G04 APERTURE END LIST*
G04 #@! TA.AperFunction,ComponentPad*
D10*
G36*
X126988944Y-98603949D02*
G01*
X127696051Y-97896842D01*
X128403158Y-98603949D01*
X127696051Y-99311056D01*
X126988944Y-98603949D01*
G37*
G04 #@! TD.AperFunction*
G04 #@! TA.AperFunction,ComponentPad*
G36*
G01*
X126444472Y-99148422D02*
X126444472Y-99148422D01*
G75*
G02*
X127151578Y-99148422I353553J-353553D01*
G01*
X127151578Y-99148422D01*
G75*
G02*
X127151578Y-99855528I-353553J-353553D01*
G01*
X127151578Y-99855528D01*
G75*
G02*
X126444472Y-99855528I-353553J353553D01*
G01*
X126444472Y-99855528D01*
G75*
G02*
X126444472Y-99148422I353553J353553D01*
G01*
G37*
G04 #@! TD.AperFunction*
G04 #@! TA.AperFunction,ComponentPad*
G36*
G01*
X125446846Y-100188691D02*
X125446846Y-100188691D01*
G75*
G02*
X126111309Y-99946846I453154J-211309D01*
G01*
X126111309Y-99946846D01*
G75*
G02*
X126353154Y-100611309I-211309J-453154D01*
G01*
X126353154Y-100611309D01*
G75*
G02*
X125688691Y-100853154I-453154J211309D01*
G01*
X125688691Y-100853154D01*
G75*
G02*
X125446846Y-100188691I211309J453154D01*
G01*
G37*
G04 #@! TD.AperFunction*
G04 #@! TA.AperFunction,ComponentPad*
G36*
G01*
X124648421Y-100944473D02*
X124648421Y-100944473D01*
G75*
G02*
X125355527Y-100944473I353553J-353553D01*
G01*
X125355527Y-100944473D01*
G75*
G02*
X125355527Y-101651579I-353553J-353553D01*
G01*
X125355527Y-101651579D01*
G75*
G02*
X124648421Y-101651579I-353553J353553D01*
G01*
X124648421Y-101651579D01*
G75*
G02*
X124648421Y-100944473I353553J353553D01*
G01*
G37*
G04 #@! TD.AperFunction*
G04 #@! TA.AperFunction,ComponentPad*
G36*
G01*
X123750396Y-101842498D02*
X123750396Y-101842498D01*
G75*
G02*
X124457502Y-101842498I353553J-353553D01*
G01*
X124457502Y-101842498D01*
G75*
G02*
X124457502Y-102549604I-353553J-353553D01*
G01*
X124457502Y-102549604D01*
G75*
G02*
X123750396Y-102549604I-353553J353553D01*
G01*
X123750396Y-102549604D01*
G75*
G02*
X123750396Y-101842498I353553J353553D01*
G01*
G37*
G04 #@! TD.AperFunction*
G04 #@! TA.AperFunction,SMDPad,CuDef*
G36*
G01*
X138975000Y-123912500D02*
X138975000Y-122087500D01*
G75*
G02*
X139062500Y-122000000I87500J0D01*
G01*
X139237500Y-122000000D01*
G75*
G02*
X139325000Y-122087500I0J-87500D01*
G01*
X139325000Y-123912500D01*
G75*
G02*
X139237500Y-124000000I-87500J0D01*
G01*
X139062500Y-124000000D01*
G75*
G02*
X138975000Y-123912500I0J87500D01*
G01*
G37*
G04 #@! TD.AperFunction*
G04 #@! TA.AperFunction,SMDPad,CuDef*
G36*
G01*
X138275000Y-123912500D02*
X138275000Y-122087500D01*
G75*
G02*
X138362500Y-122000000I87500J0D01*
G01*
X138537500Y-122000000D01*
G75*
G02*
X138625000Y-122087500I0J-87500D01*
G01*
X138625000Y-123912500D01*
G75*
G02*
X138537500Y-124000000I-87500J0D01*
G01*
X138362500Y-124000000D01*
G75*
G02*
X138275000Y-123912500I0J87500D01*
G01*
G37*
G04 #@! TD.AperFunction*
G04 #@! TA.AperFunction,SMDPad,CuDef*
G36*
G01*
X139675000Y-123912500D02*
X139675000Y-122087500D01*
G75*
G02*
X139762500Y-122000000I87500J0D01*
G01*
X139937500Y-122000000D01*
G75*
G02*
X140025000Y-122087500I0J-87500D01*
G01*
X140025000Y-123912500D01*
G75*
G02*
X139937500Y-124000000I-87500J0D01*
G01*
X139762500Y-124000000D01*
G75*
G02*
X139675000Y-123912500I0J87500D01*
G01*
G37*
G04 #@! TD.AperFunction*
G04 #@! TA.AperFunction,SMDPad,CuDef*
G36*
G01*
X140375000Y-123912500D02*
X140375000Y-122087500D01*
G75*
G02*
X140462500Y-122000000I87500J0D01*
G01*
X140637500Y-122000000D01*
G75*
G02*
X140725000Y-122087500I0J-87500D01*
G01*
X140725000Y-123912500D01*
G75*
G02*
X140637500Y-124000000I-87500J0D01*
G01*
X140462500Y-124000000D01*
G75*
G02*
X140375000Y-123912500I0J87500D01*
G01*
G37*
G04 #@! TD.AperFunction*
G04 #@! TA.AperFunction,SMDPad,CuDef*
G36*
G01*
X141075000Y-123912500D02*
X141075000Y-122087500D01*
G75*
G02*
X141162500Y-122000000I87500J0D01*
G01*
X141337500Y-122000000D01*
G75*
G02*
X141425000Y-122087500I0J-87500D01*
G01*
X141425000Y-123912500D01*
G75*
G02*
X141337500Y-124000000I-87500J0D01*
G01*
X141162500Y-124000000D01*
G75*
G02*
X141075000Y-123912500I0J87500D01*
G01*
G37*
G04 #@! TD.AperFunction*
G04 #@! TA.AperFunction,SMDPad,CuDef*
G36*
G01*
X141775000Y-123912500D02*
X141775000Y-122087500D01*
G75*
G02*
X141862500Y-122000000I87500J0D01*
G01*
X142037500Y-122000000D01*
G75*
G02*
X142125000Y-122087500I0J-87500D01*
G01*
X142125000Y-123912500D01*
G75*
G02*
X142037500Y-124000000I-87500J0D01*
G01*
X141862500Y-124000000D01*
G75*
G02*
X141775000Y-123912500I0J87500D01*
G01*
G37*
G04 #@! TD.AperFunction*
G04 #@! TA.AperFunction,SMDPad,CuDef*
G36*
G01*
X137575000Y-123912500D02*
X137575000Y-122087500D01*
G75*
G02*
X137662500Y-122000000I87500J0D01*
G01*
X137837500Y-122000000D01*
G75*
G02*
X137925000Y-122087500I0J-87500D01*
G01*
X137925000Y-123912500D01*
G75*
G02*
X137837500Y-124000000I-87500J0D01*
G01*
X137662500Y-124000000D01*
G75*
G02*
X137575000Y-123912500I0J87500D01*
G01*
G37*
G04 #@! TD.AperFunction*
G04 #@! TA.AperFunction,SMDPad,CuDef*
G36*
G01*
X136875000Y-123912500D02*
X136875000Y-122087500D01*
G75*
G02*
X136962500Y-122000000I87500J0D01*
G01*
X137137500Y-122000000D01*
G75*
G02*
X137225000Y-122087500I0J-87500D01*
G01*
X137225000Y-123912500D01*
G75*
G02*
X137137500Y-124000000I-87500J0D01*
G01*
X136962500Y-124000000D01*
G75*
G02*
X136875000Y-123912500I0J87500D01*
G01*
G37*
G04 #@! TD.AperFunction*
G04 #@! TA.AperFunction,SMDPad,CuDef*
G36*
G01*
X136175000Y-123912500D02*
X136175000Y-122087500D01*
G75*
G02*
X136262500Y-122000000I87500J0D01*
G01*
X136437500Y-122000000D01*
G75*
G02*
X136525000Y-122087500I0J-87500D01*
G01*
X136525000Y-123912500D01*
G75*
G02*
X136437500Y-124000000I-87500J0D01*
G01*
X136262500Y-124000000D01*
G75*
G02*
X136175000Y-123912500I0J87500D01*
G01*
G37*
G04 #@! TD.AperFunction*
G04 #@! TA.AperFunction,SMDPad,CuDef*
G36*
G01*
X135475000Y-123912500D02*
X135475000Y-122087500D01*
G75*
G02*
X135562500Y-122000000I87500J0D01*
G01*
X135737500Y-122000000D01*
G75*
G02*
X135825000Y-122087500I0J-87500D01*
G01*
X135825000Y-123912500D01*
G75*
G02*
X135737500Y-124000000I-87500J0D01*
G01*
X135562500Y-124000000D01*
G75*
G02*
X135475000Y-123912500I0J87500D01*
G01*
G37*
G04 #@! TD.AperFunction*
G04 #@! TA.AperFunction,SMDPad,CuDef*
G36*
G01*
X142475000Y-123912500D02*
X142475000Y-122087500D01*
G75*
G02*
X142562500Y-122000000I87500J0D01*
G01*
X142737500Y-122000000D01*
G75*
G02*
X142825000Y-122087500I0J-87500D01*
G01*
X142825000Y-123912500D01*
G75*
G02*
X142737500Y-124000000I-87500J0D01*
G01*
X142562500Y-124000000D01*
G75*
G02*
X142475000Y-123912500I0J87500D01*
G01*
G37*
G04 #@! TD.AperFunction*
G04 #@! TA.AperFunction,SMDPad,CuDef*
G36*
G01*
X143175000Y-123912500D02*
X143175000Y-122087500D01*
G75*
G02*
X143262500Y-122000000I87500J0D01*
G01*
X143437500Y-122000000D01*
G75*
G02*
X143525000Y-122087500I0J-87500D01*
G01*
X143525000Y-123912500D01*
G75*
G02*
X143437500Y-124000000I-87500J0D01*
G01*
X143262500Y-124000000D01*
G75*
G02*
X143175000Y-123912500I0J87500D01*
G01*
G37*
G04 #@! TD.AperFunction*
D11*
X140000000Y-92200000D03*
X151000000Y-95500000D03*
D12*
X153000000Y-98900000D03*
X146500000Y-102600000D03*
X157700000Y-109100000D03*
X156600000Y-117200000D03*
X136400000Y-128600000D03*
X138400000Y-128600000D03*
X143200000Y-125900000D03*
X135600000Y-114800000D03*
X138800000Y-113000000D03*
X138900000Y-114500000D03*
X125900000Y-119900000D03*
X127000000Y-119800000D03*
X127300000Y-121200000D03*
X123700000Y-115600000D03*
X124900000Y-115600000D03*
X136500000Y-100100000D03*
X142500000Y-99250000D03*
X143100000Y-102000000D03*
X135800000Y-100950000D03*
X132800000Y-96000000D03*
X143900000Y-97100000D03*
X144850000Y-98400000D03*
X144900000Y-99850000D03*
X134700000Y-104350000D03*
X135650000Y-106000000D03*
X135650000Y-105150000D03*
X138450000Y-106600000D03*
X123700000Y-106300000D03*
X123750000Y-104400000D03*
X126350000Y-103750000D03*
X145850000Y-118100000D03*
X144000000Y-93550000D03*
X149750000Y-100350000D03*
X145650000Y-105650000D03*
X141300000Y-126050000D03*
X144800000Y-109949889D03*
X150599889Y-109949889D03*
X145445189Y-110645189D03*
X150095189Y-110645189D03*
X147300000Y-121800000D03*
X153700000Y-121800000D03*
X136550000Y-94800000D03*
X142000000Y-98150000D03*
X138450000Y-125050000D03*
X136350000Y-125250000D03*
X132700000Y-108000000D03*
X136800000Y-106450000D03*
X139354699Y-105904699D03*
X144045301Y-105904699D03*
X132700000Y-108838203D03*
X137750000Y-105150000D03*
X139350000Y-104650000D03*
X145250000Y-104100000D03*
X130536000Y-107475840D03*
X127198440Y-102873360D03*
X134950000Y-97500000D03*
X130200000Y-96300000D03*
D13*
X140550000Y-123000000D02*
X140550000Y-120950000D01*
X139850000Y-123000000D02*
X139850000Y-120900000D01*
X143350000Y-123000000D02*
X143350000Y-120850000D01*
X135650000Y-123000000D02*
X135650000Y-121050000D01*
X135650000Y-121050000D02*
X135650000Y-124550000D01*
X141250000Y-123000000D02*
X141250000Y-124850000D01*
X141250000Y-124850000D02*
X141300000Y-124900000D01*
X141250000Y-126000000D02*
X141300000Y-126050000D01*
X141250000Y-124850000D02*
X141250000Y-126000000D01*
X141250000Y-123000000D02*
X141950000Y-123000000D01*
X144800000Y-109949889D02*
X150599889Y-109949889D01*
X145445189Y-110645189D02*
X150095189Y-110645189D01*
X147300000Y-121800000D02*
X153700000Y-121800000D01*
X136550000Y-94800000D02*
X139900000Y-98150000D01*
X139900000Y-98150000D02*
X142000000Y-98150000D01*
X138450000Y-123000000D02*
X138450000Y-125050000D01*
X136350000Y-123000000D02*
X136350000Y-125250000D01*
X134679046Y-108000000D02*
X136229046Y-106450000D01*
X132700000Y-108000000D02*
X134679046Y-108000000D01*
X136229046Y-106450000D02*
X136800000Y-106450000D01*
X139354699Y-105904699D02*
X144045301Y-105904699D01*
X135440843Y-108838203D02*
X132700000Y-108838203D01*
X137700000Y-106579046D02*
X135440843Y-108838203D01*
X137750000Y-105150000D02*
X137700000Y-106579046D01*
X139350000Y-104650000D02*
X143819648Y-104650000D01*
X144369648Y-104100000D02*
X145250000Y-104100000D01*
X143819648Y-104650000D02*
X144369648Y-104100000D01*
D14*
X128950000Y-102850000D02*
X127198440Y-102873360D01*
X129268807Y-103231193D02*
X128950000Y-102850000D01*
X129249980Y-107150020D02*
X129268807Y-103231193D01*
X130536000Y-107475840D02*
X129724160Y-107475840D01*
X129724160Y-107475840D02*
X129249980Y-107150020D01*
D13*
X130400000Y-96500000D02*
X130200000Y-96300000D01*
X131400000Y-97500000D02*
X130200000Y-96300000D01*
X134950000Y-97500000D02*
X131400000Y-97500000D01*
D15*
G36*
X142694792Y-89531026D02*
G01*
X144468526Y-89843783D01*
X146208252Y-90309941D01*
X147900729Y-90925953D01*
X149533077Y-91687129D01*
X151092873Y-92587678D01*
X152568245Y-93620744D01*
X153947965Y-94778467D01*
X155221533Y-96052035D01*
X156379256Y-97431755D01*
X157412322Y-98907127D01*
X158312871Y-100466923D01*
X159074047Y-102099271D01*
X159690059Y-103791748D01*
X160156217Y-105531474D01*
X160468974Y-107305208D01*
X160625950Y-109099452D01*
X160625950Y-110900548D01*
X160468974Y-112694792D01*
X160156217Y-114468526D01*
X159690059Y-116208252D01*
X159074047Y-117900729D01*
X158312871Y-119533077D01*
X157412322Y-121092873D01*
X156379256Y-122568245D01*
X155221533Y-123947965D01*
X153947965Y-125221533D01*
X152568245Y-126379256D01*
X151092873Y-127412322D01*
X149533077Y-128312871D01*
X147900729Y-129074047D01*
X146208252Y-129690059D01*
X144468526Y-130156217D01*
X142694792Y-130468974D01*
X140900548Y-130625950D01*
X139099452Y-130625950D01*
X137305208Y-130468974D01*
X135531474Y-130156217D01*
X133791748Y-129690059D01*
X132099271Y-129074047D01*
X130466923Y-128312871D01*
X128907127Y-127412322D01*
X127431755Y-126379256D01*
X126052035Y-125221533D01*
X124822814Y-123992312D01*
X134836974Y-123992312D01*
X134847734Y-124116933D01*
X134882599Y-124237059D01*
X134940230Y-124348076D01*
X135018412Y-124445716D01*
X135114140Y-124526228D01*
X135223736Y-124586517D01*
X135342987Y-124624266D01*
X135443250Y-124635000D01*
X135602000Y-124476250D01*
X135602000Y-123127000D01*
X134998750Y-123127000D01*
X134840000Y-123285750D01*
X134836974Y-123992312D01*
X124822814Y-123992312D01*
X124778467Y-123947965D01*
X123620744Y-122568245D01*
X123131958Y-121870185D01*
X123930213Y-121870185D01*
X123930213Y-122013865D01*
X123958244Y-122154783D01*
X124013227Y-122287525D01*
X124093051Y-122406990D01*
X124194648Y-122508587D01*
X124314113Y-122588411D01*
X124446855Y-122643394D01*
X124587773Y-122671425D01*
X124731453Y-122671425D01*
X124872371Y-122643394D01*
X125005113Y-122588411D01*
X125124578Y-122508587D01*
X125226175Y-122406990D01*
X125305999Y-122287525D01*
X125360982Y-122154783D01*
X125389013Y-122013865D01*
X125389013Y-122007688D01*
X134836974Y-122007688D01*
X134840000Y-122714250D01*
X134998750Y-122873000D01*
X135602000Y-122873000D01*
X135602000Y-121523750D01*
X135698000Y-121523750D01*
X135698000Y-122873000D01*
X135797000Y-122873000D01*
X135797000Y-123127000D01*
X135698000Y-123127000D01*
X135698000Y-124476250D01*
X135856750Y-124635000D01*
X135870601Y-124633517D01*
X135870601Y-124849334D01*
X135866628Y-124853307D01*
X135798525Y-124955230D01*
X135751615Y-125068482D01*
X135727700Y-125188709D01*
X135727700Y-125311291D01*
X135751615Y-125431518D01*
X135798525Y-125544770D01*
X135866628Y-125646693D01*
X135953307Y-125733372D01*
X136055230Y-125801475D01*
X136168482Y-125848385D01*
X136288709Y-125872300D01*
X136411291Y-125872300D01*
X136531518Y-125848385D01*
X136644770Y-125801475D01*
X136746693Y-125733372D01*
X136833372Y-125646693D01*
X136901475Y-125544770D01*
X136948385Y-125431518D01*
X136972300Y-125311291D01*
X136972300Y-125188709D01*
X136948385Y-125068482D01*
X136901475Y-124955230D01*
X136833372Y-124853307D01*
X136829400Y-124849335D01*
X136829400Y-124255093D01*
X136890658Y-124273675D01*
X136962500Y-124280751D01*
X137137500Y-124280751D01*
X137209342Y-124273675D01*
X137278424Y-124252720D01*
X137342089Y-124218690D01*
X137397893Y-124172893D01*
X137400000Y-124170326D01*
X137402107Y-124172893D01*
X137457911Y-124218690D01*
X137521576Y-124252720D01*
X137590658Y-124273675D01*
X137662500Y-124280751D01*
X137837500Y-124280751D01*
X137909342Y-124273675D01*
X137970601Y-124255093D01*
X137970601Y-124649334D01*
X137966628Y-124653307D01*
X137898525Y-124755230D01*
X137851615Y-124868482D01*
X137827700Y-124988709D01*
X137827700Y-125111291D01*
X137851615Y-125231518D01*
X137898525Y-125344770D01*
X137966628Y-125446693D01*
X138053307Y-125533372D01*
X138155230Y-125601475D01*
X138268482Y-125648385D01*
X138388709Y-125672300D01*
X138511291Y-125672300D01*
X138631518Y-125648385D01*
X138744770Y-125601475D01*
X138846693Y-125533372D01*
X138933372Y-125446693D01*
X139001475Y-125344770D01*
X139048385Y-125231518D01*
X139072300Y-125111291D01*
X139072300Y-124988709D01*
X139048385Y-124868482D01*
X139001475Y-124755230D01*
X138933372Y-124653307D01*
X138929400Y-124649335D01*
X138929400Y-124255093D01*
X138990658Y-124273675D01*
X139062500Y-124280751D01*
X139105280Y-124280751D01*
X139140230Y-124348076D01*
X139218412Y-124445716D01*
X139314140Y-124526228D01*
X139423736Y-124586517D01*
X139542987Y-124624266D01*
X139643250Y-124635000D01*
X139802000Y-124476250D01*
X139802000Y-124274432D01*
X139840230Y-124348076D01*
X139898000Y-124420224D01*
X139898000Y-124476250D01*
X140056750Y-124635000D01*
X140157013Y-124624266D01*
X140200000Y-124610658D01*
X140242987Y-124624266D01*
X140343250Y-124635000D01*
X140502000Y-124476250D01*
X140502000Y-124420224D01*
X140559770Y-124348076D01*
X140598000Y-124274432D01*
X140598000Y-124476250D01*
X140756750Y-124635000D01*
X140770601Y-124633517D01*
X140770601Y-124826445D01*
X140768281Y-124850000D01*
X140770600Y-124873546D01*
X140770601Y-125722191D01*
X140748525Y-125755230D01*
X140701615Y-125868482D01*
X140677700Y-125988709D01*
X140677700Y-126111291D01*
X140701615Y-126231518D01*
X140748525Y-126344770D01*
X140816628Y-126446693D01*
X140903307Y-126533372D01*
X141005230Y-126601475D01*
X141118482Y-126648385D01*
X141238709Y-126672300D01*
X141361291Y-126672300D01*
X141481518Y-126648385D01*
X141594770Y-126601475D01*
X141696693Y-126533372D01*
X141783372Y-126446693D01*
X141851475Y-126344770D01*
X141898385Y-126231518D01*
X141922300Y-126111291D01*
X141922300Y-125988709D01*
X141898385Y-125868482D01*
X141851475Y-125755230D01*
X141783372Y-125653307D01*
X141729400Y-125599335D01*
X141729400Y-125113625D01*
X141745050Y-125084345D01*
X141772463Y-124993978D01*
X141781719Y-124900000D01*
X141772463Y-124806022D01*
X141745050Y-124715655D01*
X141729400Y-124686375D01*
X141729400Y-124255093D01*
X141790658Y-124273675D01*
X141862500Y-124280751D01*
X142037500Y-124280751D01*
X142109342Y-124273675D01*
X142178424Y-124252720D01*
X142242089Y-124218690D01*
X142297893Y-124172893D01*
X142300000Y-124170326D01*
X142302107Y-124172893D01*
X142357911Y-124218690D01*
X142421576Y-124252720D01*
X142490658Y-124273675D01*
X142562500Y-124280751D01*
X142605280Y-124280751D01*
X142640230Y-124348076D01*
X142718412Y-124445716D01*
X142814140Y-124526228D01*
X142923736Y-124586517D01*
X143042987Y-124624266D01*
X143143250Y-124635000D01*
X143302000Y-124476250D01*
X143302000Y-123127000D01*
X143398000Y-123127000D01*
X143398000Y-124476250D01*
X143556750Y-124635000D01*
X143657013Y-124624266D01*
X143776264Y-124586517D01*
X143885860Y-124526228D01*
X143981588Y-124445716D01*
X144059770Y-124348076D01*
X144117401Y-124237059D01*
X144152266Y-124116933D01*
X144163026Y-123992312D01*
X144160000Y-123285750D01*
X144001250Y-123127000D01*
X143398000Y-123127000D01*
X143302000Y-123127000D01*
X143203000Y-123127000D01*
X143203000Y-122873000D01*
X143302000Y-122873000D01*
X143302000Y-121523750D01*
X143398000Y-121523750D01*
X143398000Y-122873000D01*
X144001250Y-122873000D01*
X144160000Y-122714250D01*
X144163026Y-122007688D01*
X144152266Y-121883067D01*
X144117401Y-121762941D01*
X144104822Y-121738709D01*
X146677700Y-121738709D01*
X146677700Y-121861291D01*
X146701615Y-121981518D01*
X146748525Y-122094770D01*
X146816628Y-122196693D01*
X146903307Y-122283372D01*
X147005230Y-122351475D01*
X147118482Y-122398385D01*
X147238709Y-122422300D01*
X147361291Y-122422300D01*
X147481518Y-122398385D01*
X147594770Y-122351475D01*
X147696693Y-122283372D01*
X147700665Y-122279400D01*
X153299335Y-122279400D01*
X153303307Y-122283372D01*
X153405230Y-122351475D01*
X153518482Y-122398385D01*
X153638709Y-122422300D01*
X153761291Y-122422300D01*
X153881518Y-122398385D01*
X153994770Y-122351475D01*
X154096693Y-122283372D01*
X154183372Y-122196693D01*
X154251475Y-122094770D01*
X154298385Y-121981518D01*
X154320530Y-121870185D01*
X154610987Y-121870185D01*
X154610987Y-122013865D01*
X154639018Y-122154783D01*
X154694001Y-122287525D01*
X154773825Y-122406990D01*
X154875422Y-122508587D01*
X154994887Y-122588411D01*
X155127629Y-122643394D01*
X155268547Y-122671425D01*
X155412227Y-122671425D01*
X155553145Y-122643394D01*
X155685887Y-122588411D01*
X155805352Y-122508587D01*
X155906949Y-122406990D01*
X155986773Y-122287525D01*
X156041756Y-122154783D01*
X156069787Y-122013865D01*
X156069787Y-121870185D01*
X156041756Y-121729267D01*
X155986773Y-121596525D01*
X155906949Y-121477060D01*
X155805352Y-121375463D01*
X155685887Y-121295639D01*
X155553145Y-121240656D01*
X155412227Y-121212625D01*
X155268547Y-121212625D01*
X155127629Y-121240656D01*
X154994887Y-121295639D01*
X154875422Y-121375463D01*
X154773825Y-121477060D01*
X154694001Y-121596525D01*
X154639018Y-121729267D01*
X154610987Y-121870185D01*
X154320530Y-121870185D01*
X154322300Y-121861291D01*
X154322300Y-121738709D01*
X154298385Y-121618482D01*
X154251475Y-121505230D01*
X154183372Y-121403307D01*
X154096693Y-121316628D01*
X153994770Y-121248525D01*
X153881518Y-121201615D01*
X153761291Y-121177700D01*
X153638709Y-121177700D01*
X153518482Y-121201615D01*
X153405230Y-121248525D01*
X153303307Y-121316628D01*
X153299335Y-121320600D01*
X147700665Y-121320600D01*
X147696693Y-121316628D01*
X147594770Y-121248525D01*
X147481518Y-121201615D01*
X147361291Y-121177700D01*
X147238709Y-121177700D01*
X147118482Y-121201615D01*
X147005230Y-121248525D01*
X146903307Y-121316628D01*
X146816628Y-121403307D01*
X146748525Y-121505230D01*
X146701615Y-121618482D01*
X146677700Y-121738709D01*
X144104822Y-121738709D01*
X144059770Y-121651924D01*
X143981588Y-121554284D01*
X143885860Y-121473772D01*
X143776264Y-121413483D01*
X143657013Y-121375734D01*
X143556750Y-121365000D01*
X143398000Y-121523750D01*
X143302000Y-121523750D01*
X143143250Y-121365000D01*
X143042987Y-121375734D01*
X142923736Y-121413483D01*
X142814140Y-121473772D01*
X142718412Y-121554284D01*
X142640230Y-121651924D01*
X142605280Y-121719249D01*
X142562500Y-121719249D01*
X142490658Y-121726325D01*
X142421576Y-121747280D01*
X142357911Y-121781310D01*
X142302107Y-121827107D01*
X142300000Y-121829674D01*
X142297893Y-121827107D01*
X142242089Y-121781310D01*
X142178424Y-121747280D01*
X142109342Y-121726325D01*
X142037500Y-121719249D01*
X141862500Y-121719249D01*
X141790658Y-121726325D01*
X141721576Y-121747280D01*
X141657911Y-121781310D01*
X141602107Y-121827107D01*
X141600000Y-121829674D01*
X141597893Y-121827107D01*
X141542089Y-121781310D01*
X141478424Y-121747280D01*
X141409342Y-121726325D01*
X141337500Y-121719249D01*
X141294720Y-121719249D01*
X141259770Y-121651924D01*
X141181588Y-121554284D01*
X141085860Y-121473772D01*
X140976264Y-121413483D01*
X140857013Y-121375734D01*
X140756750Y-121365000D01*
X140598000Y-121523750D01*
X140598000Y-121725568D01*
X140559770Y-121651924D01*
X140502000Y-121579776D01*
X140502000Y-121523750D01*
X140343250Y-121365000D01*
X140242987Y-121375734D01*
X140200000Y-121389342D01*
X140157013Y-121375734D01*
X140056750Y-121365000D01*
X139898000Y-121523750D01*
X139898000Y-121579776D01*
X139840230Y-121651924D01*
X139802000Y-121725568D01*
X139802000Y-121523750D01*
X139643250Y-121365000D01*
X139542987Y-121375734D01*
X139423736Y-121413483D01*
X139314140Y-121473772D01*
X139218412Y-121554284D01*
X139140230Y-121651924D01*
X139105280Y-121719249D01*
X139062500Y-121719249D01*
X138990658Y-121726325D01*
X138921576Y-121747280D01*
X138857911Y-121781310D01*
X138802107Y-121827107D01*
X138800000Y-121829674D01*
X138797893Y-121827107D01*
X138742089Y-121781310D01*
X138678424Y-121747280D01*
X138609342Y-121726325D01*
X138537500Y-121719249D01*
X138362500Y-121719249D01*
X138290658Y-121726325D01*
X138221576Y-121747280D01*
X138157911Y-121781310D01*
X138102107Y-121827107D01*
X138100000Y-121829674D01*
X138097893Y-121827107D01*
X138042089Y-121781310D01*
X137978424Y-121747280D01*
X137909342Y-121726325D01*
X137837500Y-121719249D01*
X137662500Y-121719249D01*
X137590658Y-121726325D01*
X137521576Y-121747280D01*
X137457911Y-121781310D01*
X137402107Y-121827107D01*
X137400000Y-121829674D01*
X137397893Y-121827107D01*
X137342089Y-121781310D01*
X137278424Y-121747280D01*
X137209342Y-121726325D01*
X137137500Y-121719249D01*
X136962500Y-121719249D01*
X136890658Y-121726325D01*
X136821576Y-121747280D01*
X136757911Y-121781310D01*
X136702107Y-121827107D01*
X136700000Y-121829674D01*
X136697893Y-121827107D01*
X136642089Y-121781310D01*
X136578424Y-121747280D01*
X136509342Y-121726325D01*
X136437500Y-121719249D01*
X136394720Y-121719249D01*
X136359770Y-121651924D01*
X136281588Y-121554284D01*
X136185860Y-121473772D01*
X136076264Y-121413483D01*
X135957013Y-121375734D01*
X135856750Y-121365000D01*
X135698000Y-121523750D01*
X135602000Y-121523750D01*
X135443250Y-121365000D01*
X135342987Y-121375734D01*
X135223736Y-121413483D01*
X135114140Y-121473772D01*
X135018412Y-121554284D01*
X134940230Y-121651924D01*
X134882599Y-121762941D01*
X134847734Y-121883067D01*
X134836974Y-122007688D01*
X125389013Y-122007688D01*
X125389013Y-121870185D01*
X125360982Y-121729267D01*
X125305999Y-121596525D01*
X125226175Y-121477060D01*
X125124578Y-121375463D01*
X125005113Y-121295639D01*
X124872371Y-121240656D01*
X124731453Y-121212625D01*
X124587773Y-121212625D01*
X124446855Y-121240656D01*
X124314113Y-121295639D01*
X124194648Y-121375463D01*
X124093051Y-121477060D01*
X124013227Y-121596525D01*
X123958244Y-121729267D01*
X123930213Y-121870185D01*
X123131958Y-121870185D01*
X122587678Y-121092873D01*
X121948703Y-119986135D01*
X122610987Y-119986135D01*
X122610987Y-120129815D01*
X122639018Y-120270733D01*
X122694001Y-120403475D01*
X122773825Y-120522940D01*
X122875422Y-120624537D01*
X122994887Y-120704361D01*
X123127629Y-120759344D01*
X123268547Y-120787375D01*
X123412227Y-120787375D01*
X123553145Y-120759344D01*
X123685887Y-120704361D01*
X123805352Y-120624537D01*
X123906949Y-120522940D01*
X123986773Y-120403475D01*
X124041756Y-120270733D01*
X124069787Y-120129815D01*
X124069787Y-119986135D01*
X155930213Y-119986135D01*
X155930213Y-120129815D01*
X155958244Y-120270733D01*
X156013227Y-120403475D01*
X156093051Y-120522940D01*
X156194648Y-120624537D01*
X156314113Y-120704361D01*
X156446855Y-120759344D01*
X156587773Y-120787375D01*
X156731453Y-120787375D01*
X156872371Y-120759344D01*
X157005113Y-120704361D01*
X157124578Y-120624537D01*
X157226175Y-120522940D01*
X157305999Y-120403475D01*
X157360982Y-120270733D01*
X157389013Y-120129815D01*
X157389013Y-119986135D01*
X157360982Y-119845217D01*
X157305999Y-119712475D01*
X157226175Y-119593010D01*
X157124578Y-119491413D01*
X157005113Y-119411589D01*
X156872371Y-119356606D01*
X156731453Y-119328575D01*
X156587773Y-119328575D01*
X156446855Y-119356606D01*
X156314113Y-119411589D01*
X156194648Y-119491413D01*
X156093051Y-119593010D01*
X156013227Y-119712475D01*
X155958244Y-119845217D01*
X155930213Y-119986135D01*
X124069787Y-119986135D01*
X124041756Y-119845217D01*
X123986773Y-119712475D01*
X123906949Y-119593010D01*
X123805352Y-119491413D01*
X123685887Y-119411589D01*
X123553145Y-119356606D01*
X123412227Y-119328575D01*
X123268547Y-119328575D01*
X123127629Y-119356606D01*
X122994887Y-119411589D01*
X122875422Y-119491413D01*
X122773825Y-119593010D01*
X122694001Y-119712475D01*
X122639018Y-119845217D01*
X122610987Y-119986135D01*
X121948703Y-119986135D01*
X121687129Y-119533077D01*
X120925953Y-117900729D01*
X120644338Y-117127000D01*
X123000000Y-117127000D01*
X123025390Y-117124436D01*
X123049178Y-117117092D01*
X123071077Y-117105248D01*
X123090244Y-117089359D01*
X123105943Y-117070036D01*
X123117571Y-117048022D01*
X123124680Y-117024163D01*
X123126998Y-116999374D01*
X123091970Y-109888598D01*
X144177700Y-109888598D01*
X144177700Y-110011180D01*
X144201615Y-110131407D01*
X144248525Y-110244659D01*
X144316628Y-110346582D01*
X144403307Y-110433261D01*
X144505230Y-110501364D01*
X144618482Y-110548274D01*
X144738709Y-110572189D01*
X144825218Y-110572189D01*
X144822889Y-110583898D01*
X144822889Y-110706480D01*
X144846804Y-110826707D01*
X144893714Y-110939959D01*
X144961817Y-111041882D01*
X145048496Y-111128561D01*
X145150419Y-111196664D01*
X145263671Y-111243574D01*
X145383898Y-111267489D01*
X145506480Y-111267489D01*
X145626707Y-111243574D01*
X145739959Y-111196664D01*
X145841882Y-111128561D01*
X145845854Y-111124589D01*
X149694524Y-111124589D01*
X149698496Y-111128561D01*
X149800419Y-111196664D01*
X149913671Y-111243574D01*
X150033898Y-111267489D01*
X150156480Y-111267489D01*
X150276707Y-111243574D01*
X150389959Y-111196664D01*
X150491882Y-111128561D01*
X150542283Y-111078160D01*
X158770600Y-111078160D01*
X158770600Y-111221840D01*
X158798631Y-111362758D01*
X158853614Y-111495500D01*
X158933438Y-111614965D01*
X159035035Y-111716562D01*
X159154500Y-111796386D01*
X159287242Y-111851369D01*
X159428160Y-111879400D01*
X159571840Y-111879400D01*
X159712758Y-111851369D01*
X159845500Y-111796386D01*
X159964965Y-111716562D01*
X160066562Y-111614965D01*
X160146386Y-111495500D01*
X160201369Y-111362758D01*
X160229400Y-111221840D01*
X160229400Y-111078160D01*
X160201369Y-110937242D01*
X160146386Y-110804500D01*
X160066562Y-110685035D01*
X159964965Y-110583438D01*
X159845500Y-110503614D01*
X159712758Y-110448631D01*
X159571840Y-110420600D01*
X159428160Y-110420600D01*
X159287242Y-110448631D01*
X159154500Y-110503614D01*
X159035035Y-110583438D01*
X158933438Y-110685035D01*
X158853614Y-110804500D01*
X158798631Y-110937242D01*
X158770600Y-111078160D01*
X150542283Y-111078160D01*
X150578561Y-111041882D01*
X150646664Y-110939959D01*
X150693574Y-110826707D01*
X150717489Y-110706480D01*
X150717489Y-110583898D01*
X150713105Y-110561860D01*
X150781407Y-110548274D01*
X150894659Y-110501364D01*
X150996582Y-110433261D01*
X151083261Y-110346582D01*
X151151364Y-110244659D01*
X151198274Y-110131407D01*
X151222189Y-110011180D01*
X151222189Y-109888598D01*
X151198274Y-109768371D01*
X151151364Y-109655119D01*
X151083261Y-109553196D01*
X150996582Y-109466517D01*
X150894659Y-109398414D01*
X150781407Y-109351504D01*
X150661180Y-109327589D01*
X150538598Y-109327589D01*
X150418371Y-109351504D01*
X150305119Y-109398414D01*
X150203196Y-109466517D01*
X150199224Y-109470489D01*
X145200665Y-109470489D01*
X145196693Y-109466517D01*
X145094770Y-109398414D01*
X144981518Y-109351504D01*
X144861291Y-109327589D01*
X144738709Y-109327589D01*
X144618482Y-109351504D01*
X144505230Y-109398414D01*
X144403307Y-109466517D01*
X144316628Y-109553196D01*
X144248525Y-109655119D01*
X144201615Y-109768371D01*
X144177700Y-109888598D01*
X123091970Y-109888598D01*
X123057894Y-102971131D01*
X123508474Y-102971131D01*
X123543744Y-103183173D01*
X123747086Y-103273497D01*
X123964142Y-103322415D01*
X124186571Y-103328048D01*
X124405825Y-103290178D01*
X124613477Y-103210261D01*
X124664151Y-103183167D01*
X124698593Y-102970300D01*
X124540362Y-102812069D01*
X126576140Y-102812069D01*
X126576140Y-102934651D01*
X126600055Y-103054878D01*
X126646965Y-103168130D01*
X126715068Y-103270053D01*
X126801747Y-103356732D01*
X126903670Y-103424835D01*
X127016922Y-103471745D01*
X127137149Y-103495660D01*
X127259731Y-103495660D01*
X127379958Y-103471745D01*
X127493210Y-103424835D01*
X127595133Y-103356732D01*
X127681812Y-103270053D01*
X127697795Y-103246133D01*
X128774692Y-103231771D01*
X128888745Y-103368143D01*
X128870681Y-107128018D01*
X128868778Y-107145072D01*
X128870503Y-107165266D01*
X128870495Y-107166829D01*
X128872095Y-107183910D01*
X128875137Y-107219534D01*
X128875572Y-107221038D01*
X128875718Y-107222597D01*
X128885941Y-107256890D01*
X128895901Y-107291327D01*
X128896622Y-107292720D01*
X128897069Y-107294218D01*
X128913794Y-107325873D01*
X128930273Y-107357689D01*
X128931250Y-107358911D01*
X128931982Y-107360297D01*
X128954573Y-107388095D01*
X128976930Y-107416071D01*
X128978128Y-107417081D01*
X128979115Y-107418295D01*
X129006669Y-107441130D01*
X129019763Y-107452164D01*
X129021048Y-107453047D01*
X129036657Y-107465983D01*
X129051756Y-107474147D01*
X129495979Y-107779384D01*
X129512357Y-107792825D01*
X129543126Y-107809271D01*
X129573707Y-107826131D01*
X129576076Y-107826883D01*
X129578268Y-107828055D01*
X129611691Y-107838194D01*
X129644936Y-107848752D01*
X129647403Y-107849027D01*
X129649785Y-107849750D01*
X129684589Y-107853178D01*
X129719211Y-107857042D01*
X129740316Y-107855240D01*
X130041073Y-107855240D01*
X130052628Y-107872533D01*
X130139307Y-107959212D01*
X130241230Y-108027315D01*
X130354482Y-108074225D01*
X130474709Y-108098140D01*
X130597291Y-108098140D01*
X130717518Y-108074225D01*
X130830770Y-108027315D01*
X130932693Y-107959212D01*
X130953196Y-107938709D01*
X132077700Y-107938709D01*
X132077700Y-108061291D01*
X132101615Y-108181518D01*
X132148525Y-108294770D01*
X132216628Y-108396693D01*
X132239037Y-108419102D01*
X132216628Y-108441510D01*
X132148525Y-108543433D01*
X132101615Y-108656685D01*
X132077700Y-108776912D01*
X132077700Y-108899494D01*
X132101615Y-109019721D01*
X132148525Y-109132973D01*
X132216628Y-109234896D01*
X132303307Y-109321575D01*
X132405230Y-109389678D01*
X132518482Y-109436588D01*
X132638709Y-109460503D01*
X132761291Y-109460503D01*
X132881518Y-109436588D01*
X132994770Y-109389678D01*
X133096693Y-109321575D01*
X133100665Y-109317603D01*
X135417298Y-109317603D01*
X135440843Y-109319922D01*
X135464388Y-109317603D01*
X135464389Y-109317603D01*
X135534822Y-109310666D01*
X135625189Y-109283253D01*
X135708472Y-109238738D01*
X135781470Y-109178830D01*
X135796486Y-109160533D01*
X136178859Y-108778160D01*
X158770600Y-108778160D01*
X158770600Y-108921840D01*
X158798631Y-109062758D01*
X158853614Y-109195500D01*
X158933438Y-109314965D01*
X159035035Y-109416562D01*
X159154500Y-109496386D01*
X159287242Y-109551369D01*
X159428160Y-109579400D01*
X159571840Y-109579400D01*
X159712758Y-109551369D01*
X159845500Y-109496386D01*
X159964965Y-109416562D01*
X160066562Y-109314965D01*
X160146386Y-109195500D01*
X160201369Y-109062758D01*
X160229400Y-108921840D01*
X160229400Y-108778160D01*
X160201369Y-108637242D01*
X160146386Y-108504500D01*
X160066562Y-108385035D01*
X159964965Y-108283438D01*
X159845500Y-108203614D01*
X159712758Y-108148631D01*
X159571840Y-108120600D01*
X159428160Y-108120600D01*
X159287242Y-108148631D01*
X159154500Y-108203614D01*
X159035035Y-108283438D01*
X158933438Y-108385035D01*
X158853614Y-108504500D01*
X158798631Y-108637242D01*
X158770600Y-108778160D01*
X136178859Y-108778160D01*
X138016392Y-106940628D01*
X138028507Y-106931375D01*
X138049688Y-106907332D01*
X138055636Y-106901384D01*
X138065275Y-106889639D01*
X138090931Y-106860516D01*
X138095171Y-106853210D01*
X138100534Y-106846675D01*
X138118843Y-106812421D01*
X138138331Y-106778841D01*
X138141065Y-106770845D01*
X138145049Y-106763392D01*
X138156322Y-106726232D01*
X138168887Y-106689488D01*
X138170009Y-106681113D01*
X138172462Y-106673026D01*
X138176268Y-106634386D01*
X138178283Y-106619340D01*
X138178577Y-106610939D01*
X138181718Y-106579047D01*
X138180224Y-106563875D01*
X138205432Y-105843408D01*
X138732399Y-105843408D01*
X138732399Y-105965990D01*
X138756314Y-106086217D01*
X138803224Y-106199469D01*
X138871327Y-106301392D01*
X138958006Y-106388071D01*
X139059929Y-106456174D01*
X139173181Y-106503084D01*
X139293408Y-106526999D01*
X139415990Y-106526999D01*
X139536217Y-106503084D01*
X139649469Y-106456174D01*
X139751392Y-106388071D01*
X139755364Y-106384099D01*
X143644636Y-106384099D01*
X143648608Y-106388071D01*
X143750531Y-106456174D01*
X143863783Y-106503084D01*
X143984010Y-106526999D01*
X144106592Y-106526999D01*
X144226819Y-106503084D01*
X144340071Y-106456174D01*
X144441994Y-106388071D01*
X144528673Y-106301392D01*
X144596776Y-106199469D01*
X144643686Y-106086217D01*
X144667601Y-105965990D01*
X144667601Y-105843408D01*
X144643686Y-105723181D01*
X144596776Y-105609929D01*
X144528673Y-105508006D01*
X144441994Y-105421327D01*
X144340071Y-105353224D01*
X144226819Y-105306314D01*
X144106592Y-105282399D01*
X143984010Y-105282399D01*
X143863783Y-105306314D01*
X143750531Y-105353224D01*
X143648608Y-105421327D01*
X143644636Y-105425299D01*
X139755364Y-105425299D01*
X139751392Y-105421327D01*
X139649469Y-105353224D01*
X139536217Y-105306314D01*
X139415990Y-105282399D01*
X139293408Y-105282399D01*
X139173181Y-105306314D01*
X139059929Y-105353224D01*
X138958006Y-105421327D01*
X138871327Y-105508006D01*
X138803224Y-105609929D01*
X138756314Y-105723181D01*
X138732399Y-105843408D01*
X138205432Y-105843408D01*
X138215177Y-105564888D01*
X138233372Y-105546693D01*
X138301475Y-105444770D01*
X138348385Y-105331518D01*
X138372300Y-105211291D01*
X138372300Y-105088709D01*
X138348385Y-104968482D01*
X138301475Y-104855230D01*
X138233372Y-104753307D01*
X138146693Y-104666628D01*
X138044770Y-104598525D01*
X138021072Y-104588709D01*
X138727700Y-104588709D01*
X138727700Y-104711291D01*
X138751615Y-104831518D01*
X138798525Y-104944770D01*
X138866628Y-105046693D01*
X138953307Y-105133372D01*
X139055230Y-105201475D01*
X139168482Y-105248385D01*
X139288709Y-105272300D01*
X139411291Y-105272300D01*
X139531518Y-105248385D01*
X139644770Y-105201475D01*
X139746693Y-105133372D01*
X139750665Y-105129400D01*
X143796103Y-105129400D01*
X143819648Y-105131719D01*
X143843193Y-105129400D01*
X143843194Y-105129400D01*
X143913627Y-105122463D01*
X144003994Y-105095050D01*
X144087277Y-105050535D01*
X144160275Y-104990627D01*
X144175291Y-104972330D01*
X144568222Y-104579400D01*
X144849335Y-104579400D01*
X144853307Y-104583372D01*
X144955230Y-104651475D01*
X145068482Y-104698385D01*
X145188709Y-104722300D01*
X145311291Y-104722300D01*
X145431518Y-104698385D01*
X145544770Y-104651475D01*
X145646693Y-104583372D01*
X145733372Y-104496693D01*
X145801475Y-104394770D01*
X145848385Y-104281518D01*
X145872300Y-104161291D01*
X145872300Y-104038709D01*
X145848385Y-103918482D01*
X145801475Y-103805230D01*
X145733372Y-103703307D01*
X145646693Y-103616628D01*
X145544770Y-103548525D01*
X145431518Y-103501615D01*
X145311291Y-103477700D01*
X145188709Y-103477700D01*
X145068482Y-103501615D01*
X144955230Y-103548525D01*
X144853307Y-103616628D01*
X144849335Y-103620600D01*
X144393182Y-103620600D01*
X144369647Y-103618282D01*
X144346112Y-103620600D01*
X144346102Y-103620600D01*
X144275669Y-103627537D01*
X144185302Y-103654950D01*
X144102019Y-103699465D01*
X144029021Y-103759373D01*
X144014009Y-103777665D01*
X143621075Y-104170600D01*
X139750665Y-104170600D01*
X139746693Y-104166628D01*
X139644770Y-104098525D01*
X139531518Y-104051615D01*
X139411291Y-104027700D01*
X139288709Y-104027700D01*
X139168482Y-104051615D01*
X139055230Y-104098525D01*
X138953307Y-104166628D01*
X138866628Y-104253307D01*
X138798525Y-104355230D01*
X138751615Y-104468482D01*
X138727700Y-104588709D01*
X138021072Y-104588709D01*
X137931518Y-104551615D01*
X137811291Y-104527700D01*
X137688709Y-104527700D01*
X137568482Y-104551615D01*
X137455230Y-104598525D01*
X137353307Y-104666628D01*
X137266628Y-104753307D01*
X137198525Y-104855230D01*
X137151615Y-104968482D01*
X137127700Y-105088709D01*
X137127700Y-105211291D01*
X137151615Y-105331518D01*
X137198525Y-105444770D01*
X137256935Y-105532186D01*
X137240212Y-106010147D01*
X137196693Y-105966628D01*
X137094770Y-105898525D01*
X136981518Y-105851615D01*
X136861291Y-105827700D01*
X136738709Y-105827700D01*
X136618482Y-105851615D01*
X136505230Y-105898525D01*
X136403307Y-105966628D01*
X136399335Y-105970600D01*
X136252591Y-105970600D01*
X136229045Y-105968281D01*
X136205500Y-105970600D01*
X136135067Y-105977537D01*
X136044700Y-106004950D01*
X135961417Y-106049465D01*
X135888419Y-106109373D01*
X135873408Y-106127664D01*
X134480473Y-107520600D01*
X133100665Y-107520600D01*
X133096693Y-107516628D01*
X132994770Y-107448525D01*
X132881518Y-107401615D01*
X132761291Y-107377700D01*
X132638709Y-107377700D01*
X132518482Y-107401615D01*
X132405230Y-107448525D01*
X132303307Y-107516628D01*
X132216628Y-107603307D01*
X132148525Y-107705230D01*
X132101615Y-107818482D01*
X132077700Y-107938709D01*
X130953196Y-107938709D01*
X131019372Y-107872533D01*
X131087475Y-107770610D01*
X131134385Y-107657358D01*
X131158300Y-107537131D01*
X131158300Y-107414549D01*
X131134385Y-107294322D01*
X131087475Y-107181070D01*
X131019372Y-107079147D01*
X130932693Y-106992468D01*
X130830770Y-106924365D01*
X130717518Y-106877455D01*
X130597291Y-106853540D01*
X130474709Y-106853540D01*
X130354482Y-106877455D01*
X130241230Y-106924365D01*
X130139307Y-106992468D01*
X130052628Y-107079147D01*
X130041073Y-107096440D01*
X129841944Y-107096440D01*
X129630340Y-106951042D01*
X129648036Y-103267682D01*
X129648537Y-103265035D01*
X129648215Y-103230412D01*
X129648292Y-103214385D01*
X129648041Y-103211705D01*
X129647842Y-103190304D01*
X129644566Y-103174596D01*
X129643069Y-103158616D01*
X129636954Y-103138104D01*
X129632582Y-103117143D01*
X129626300Y-103102366D01*
X129621718Y-103086996D01*
X129611726Y-103068084D01*
X129603343Y-103048365D01*
X129594295Y-103035093D01*
X129586805Y-103020916D01*
X129573312Y-103004312D01*
X129571792Y-103002083D01*
X129561479Y-102989752D01*
X129539672Y-102962918D01*
X129537602Y-102961202D01*
X129264504Y-102634663D01*
X129264132Y-102633989D01*
X129240698Y-102606199D01*
X129229079Y-102592306D01*
X129228522Y-102591760D01*
X129215955Y-102576856D01*
X129201923Y-102565650D01*
X129189106Y-102553069D01*
X129172795Y-102542389D01*
X129157557Y-102530219D01*
X129141603Y-102521963D01*
X129126582Y-102512127D01*
X129108502Y-102504834D01*
X129091182Y-102495871D01*
X129073928Y-102490887D01*
X129057273Y-102484169D01*
X129038114Y-102480543D01*
X129019382Y-102475132D01*
X129001491Y-102473611D01*
X128983842Y-102470270D01*
X128964340Y-102470451D01*
X128963571Y-102470386D01*
X128945604Y-102470626D01*
X128909112Y-102470965D01*
X128908358Y-102471122D01*
X127688974Y-102487385D01*
X127681812Y-102476667D01*
X127595133Y-102389988D01*
X127493210Y-102321885D01*
X127379958Y-102274975D01*
X127259731Y-102251060D01*
X127137149Y-102251060D01*
X127016922Y-102274975D01*
X126903670Y-102321885D01*
X126801747Y-102389988D01*
X126715068Y-102476667D01*
X126646965Y-102578590D01*
X126600055Y-102691842D01*
X126576140Y-102812069D01*
X124540362Y-102812069D01*
X124103949Y-102375656D01*
X123508474Y-102971131D01*
X123057894Y-102971131D01*
X123056162Y-102619684D01*
X123116827Y-102756256D01*
X123328869Y-102791526D01*
X123924344Y-102196051D01*
X123329700Y-101601407D01*
X123116833Y-101635849D01*
X123089739Y-101686523D01*
X123052048Y-101784458D01*
X123050262Y-101421802D01*
X123509305Y-101421802D01*
X124103949Y-102016446D01*
X124118092Y-102002304D01*
X124297697Y-102181909D01*
X124283554Y-102196051D01*
X124878198Y-102790695D01*
X125091065Y-102756253D01*
X125118159Y-102705579D01*
X125198076Y-102497927D01*
X125235946Y-102278673D01*
X125230313Y-102056244D01*
X125228379Y-102047661D01*
X125229317Y-102047474D01*
X125371158Y-101988721D01*
X125498812Y-101903425D01*
X125607373Y-101794864D01*
X125692669Y-101667210D01*
X125751422Y-101525369D01*
X125781374Y-101374790D01*
X125781374Y-101221262D01*
X125770980Y-101169006D01*
X125823236Y-101179400D01*
X125976764Y-101179400D01*
X126127343Y-101149448D01*
X126269184Y-101090695D01*
X126396838Y-101005399D01*
X126505399Y-100896838D01*
X126590695Y-100769184D01*
X126649448Y-100627343D01*
X126679400Y-100476764D01*
X126679400Y-100392631D01*
X156396935Y-100392631D01*
X156396935Y-100536311D01*
X156424966Y-100677229D01*
X156479949Y-100809971D01*
X156559773Y-100929436D01*
X156661370Y-101031033D01*
X156780835Y-101110857D01*
X156913577Y-101165840D01*
X157054495Y-101193871D01*
X157198175Y-101193871D01*
X157339093Y-101165840D01*
X157471835Y-101110857D01*
X157591300Y-101031033D01*
X157692897Y-100929436D01*
X157772721Y-100809971D01*
X157827704Y-100677229D01*
X157855735Y-100536311D01*
X157855735Y-100392631D01*
X157827704Y-100251713D01*
X157772721Y-100118971D01*
X157692897Y-99999506D01*
X157591300Y-99897909D01*
X157471835Y-99818085D01*
X157339093Y-99763102D01*
X157198175Y-99735071D01*
X157054495Y-99735071D01*
X156913577Y-99763102D01*
X156780835Y-99818085D01*
X156661370Y-99897909D01*
X156559773Y-99999506D01*
X156479949Y-100118971D01*
X156424966Y-100251713D01*
X156396935Y-100392631D01*
X126679400Y-100392631D01*
X126679400Y-100323236D01*
X126669006Y-100270981D01*
X126721261Y-100281375D01*
X126874789Y-100281375D01*
X127025368Y-100251423D01*
X127167209Y-100192670D01*
X127294863Y-100107374D01*
X127403424Y-99998813D01*
X127488720Y-99871159D01*
X127547473Y-99729318D01*
X127577425Y-99578739D01*
X127577425Y-99564456D01*
X127588612Y-99570436D01*
X127641279Y-99586412D01*
X127696051Y-99591807D01*
X127750823Y-99586412D01*
X127803490Y-99570436D01*
X127852028Y-99544492D01*
X127894572Y-99509577D01*
X128601679Y-98802470D01*
X128636594Y-98759926D01*
X128662538Y-98711388D01*
X128678514Y-98658721D01*
X128683909Y-98603949D01*
X128678514Y-98549177D01*
X128662538Y-98496510D01*
X128636594Y-98447972D01*
X128601679Y-98405428D01*
X127894572Y-97698321D01*
X127852028Y-97663406D01*
X127803490Y-97637462D01*
X127750823Y-97621486D01*
X127696051Y-97616091D01*
X127641279Y-97621486D01*
X127588612Y-97637462D01*
X127540074Y-97663406D01*
X127497530Y-97698321D01*
X126790423Y-98405428D01*
X126755508Y-98447972D01*
X126729564Y-98496510D01*
X126713588Y-98549177D01*
X126708193Y-98603949D01*
X126713588Y-98658721D01*
X126729564Y-98711388D01*
X126735544Y-98722575D01*
X126721261Y-98722575D01*
X126570682Y-98752527D01*
X126428841Y-98811280D01*
X126301187Y-98896576D01*
X126192626Y-99005137D01*
X126107330Y-99132791D01*
X126048577Y-99274632D01*
X126018625Y-99425211D01*
X126018625Y-99578739D01*
X126029019Y-99630994D01*
X125976764Y-99620600D01*
X125823236Y-99620600D01*
X125672657Y-99650552D01*
X125530816Y-99709305D01*
X125403162Y-99794601D01*
X125294601Y-99903162D01*
X125209305Y-100030816D01*
X125150552Y-100172657D01*
X125120600Y-100323236D01*
X125120600Y-100476764D01*
X125130994Y-100529020D01*
X125078738Y-100518626D01*
X124925210Y-100518626D01*
X124774631Y-100548578D01*
X124632790Y-100607331D01*
X124505136Y-100692627D01*
X124396575Y-100801188D01*
X124311279Y-100928842D01*
X124252526Y-101070683D01*
X124252339Y-101071621D01*
X124243756Y-101069687D01*
X124021327Y-101064054D01*
X123802073Y-101101924D01*
X123594421Y-101181841D01*
X123543747Y-101208935D01*
X123509305Y-101421802D01*
X123050262Y-101421802D01*
X123034729Y-98268672D01*
X123620744Y-97431755D01*
X124621828Y-96238709D01*
X129577700Y-96238709D01*
X129577700Y-96361291D01*
X129601615Y-96481518D01*
X129648525Y-96594770D01*
X129716628Y-96696693D01*
X129803307Y-96783372D01*
X129905230Y-96851475D01*
X130018482Y-96898385D01*
X130138709Y-96922300D01*
X130144327Y-96922300D01*
X131044362Y-97822336D01*
X131059373Y-97840627D01*
X131132371Y-97900535D01*
X131215654Y-97945050D01*
X131306021Y-97972463D01*
X131399999Y-97981719D01*
X131423545Y-97979400D01*
X134549335Y-97979400D01*
X134553307Y-97983372D01*
X134655230Y-98051475D01*
X134768482Y-98098385D01*
X134888709Y-98122300D01*
X135011291Y-98122300D01*
X135131518Y-98098385D01*
X135244770Y-98051475D01*
X135346693Y-97983372D01*
X135433372Y-97896693D01*
X135501475Y-97794770D01*
X135548385Y-97681518D01*
X135572300Y-97561291D01*
X135572300Y-97438709D01*
X135548385Y-97318482D01*
X135501475Y-97205230D01*
X135433372Y-97103307D01*
X135346693Y-97016628D01*
X135244770Y-96948525D01*
X135131518Y-96901615D01*
X135011291Y-96877700D01*
X134888709Y-96877700D01*
X134768482Y-96901615D01*
X134655230Y-96948525D01*
X134553307Y-97016628D01*
X134549335Y-97020600D01*
X131598574Y-97020600D01*
X130822300Y-96244327D01*
X130822300Y-96238709D01*
X130798385Y-96118482D01*
X130751475Y-96005230D01*
X130683372Y-95903307D01*
X130596693Y-95816628D01*
X130494770Y-95748525D01*
X130381518Y-95701615D01*
X130261291Y-95677700D01*
X130138709Y-95677700D01*
X130018482Y-95701615D01*
X129905230Y-95748525D01*
X129803307Y-95816628D01*
X129716628Y-95903307D01*
X129648525Y-96005230D01*
X129601615Y-96118482D01*
X129577700Y-96238709D01*
X124621828Y-96238709D01*
X124778467Y-96052035D01*
X126052035Y-94778467D01*
X126099416Y-94738709D01*
X135927700Y-94738709D01*
X135927700Y-94861291D01*
X135951615Y-94981518D01*
X135998525Y-95094770D01*
X136066628Y-95196693D01*
X136153307Y-95283372D01*
X136255230Y-95351475D01*
X136368482Y-95398385D01*
X136488709Y-95422300D01*
X136494327Y-95422300D01*
X139544362Y-98472336D01*
X139559373Y-98490627D01*
X139632371Y-98550535D01*
X139715654Y-98595050D01*
X139806021Y-98622463D01*
X139876454Y-98629400D01*
X139876456Y-98629400D01*
X139899999Y-98631719D01*
X139923542Y-98629400D01*
X141599335Y-98629400D01*
X141603307Y-98633372D01*
X141705230Y-98701475D01*
X141818482Y-98748385D01*
X141938709Y-98772300D01*
X142061291Y-98772300D01*
X142181518Y-98748385D01*
X142294770Y-98701475D01*
X142396693Y-98633372D01*
X142483372Y-98546693D01*
X142538833Y-98463689D01*
X155144265Y-98463689D01*
X155144265Y-98607369D01*
X155172296Y-98748287D01*
X155227279Y-98881029D01*
X155307103Y-99000494D01*
X155408700Y-99102091D01*
X155528165Y-99181915D01*
X155660907Y-99236898D01*
X155801825Y-99264929D01*
X155945505Y-99264929D01*
X156086423Y-99236898D01*
X156219165Y-99181915D01*
X156338630Y-99102091D01*
X156440227Y-99000494D01*
X156520051Y-98881029D01*
X156575034Y-98748287D01*
X156603065Y-98607369D01*
X156603065Y-98463689D01*
X156575034Y-98322771D01*
X156520051Y-98190029D01*
X156440227Y-98070564D01*
X156338630Y-97968967D01*
X156219165Y-97889143D01*
X156086423Y-97834160D01*
X155945505Y-97806129D01*
X155801825Y-97806129D01*
X155660907Y-97834160D01*
X155528165Y-97889143D01*
X155408700Y-97968967D01*
X155307103Y-98070564D01*
X155227279Y-98190029D01*
X155172296Y-98322771D01*
X155144265Y-98463689D01*
X142538833Y-98463689D01*
X142551475Y-98444770D01*
X142598385Y-98331518D01*
X142622300Y-98211291D01*
X142622300Y-98088709D01*
X142598385Y-97968482D01*
X142551475Y-97855230D01*
X142483372Y-97753307D01*
X142396693Y-97666628D01*
X142294770Y-97598525D01*
X142181518Y-97551615D01*
X142061291Y-97527700D01*
X141938709Y-97527700D01*
X141818482Y-97551615D01*
X141705230Y-97598525D01*
X141603307Y-97666628D01*
X141599335Y-97670600D01*
X140098574Y-97670600D01*
X137172300Y-94744327D01*
X137172300Y-94738709D01*
X137148385Y-94618482D01*
X137101475Y-94505230D01*
X137033372Y-94403307D01*
X136946693Y-94316628D01*
X136844770Y-94248525D01*
X136731518Y-94201615D01*
X136611291Y-94177700D01*
X136488709Y-94177700D01*
X136368482Y-94201615D01*
X136255230Y-94248525D01*
X136153307Y-94316628D01*
X136066628Y-94403307D01*
X135998525Y-94505230D01*
X135951615Y-94618482D01*
X135927700Y-94738709D01*
X126099416Y-94738709D01*
X127337301Y-93700000D01*
X137861928Y-93700000D01*
X137874188Y-93824482D01*
X137910498Y-93944180D01*
X137969463Y-94054494D01*
X138048815Y-94151185D01*
X138145506Y-94230537D01*
X138255820Y-94289502D01*
X138375518Y-94325812D01*
X138500000Y-94338072D01*
X139714250Y-94335000D01*
X139873000Y-94176250D01*
X139873000Y-92327000D01*
X140127000Y-92327000D01*
X140127000Y-94176250D01*
X140285750Y-94335000D01*
X141500000Y-94338072D01*
X141624482Y-94325812D01*
X141744180Y-94289502D01*
X141854494Y-94230537D01*
X141951185Y-94151185D01*
X142030537Y-94054494D01*
X142059665Y-94000000D01*
X149219249Y-94000000D01*
X149219249Y-97000000D01*
X149224644Y-97054772D01*
X149240620Y-97107439D01*
X149266564Y-97155977D01*
X149301479Y-97198521D01*
X149344023Y-97233436D01*
X149392561Y-97259380D01*
X149445228Y-97275356D01*
X149500000Y-97280751D01*
X152500000Y-97280751D01*
X152554772Y-97275356D01*
X152607439Y-97259380D01*
X152655977Y-97233436D01*
X152698521Y-97198521D01*
X152733436Y-97155977D01*
X152759380Y-97107439D01*
X152775356Y-97054772D01*
X152780751Y-97000000D01*
X152780751Y-94000000D01*
X152775356Y-93945228D01*
X152759380Y-93892561D01*
X152733436Y-93844023D01*
X152698521Y-93801479D01*
X152655977Y-93766564D01*
X152607439Y-93740620D01*
X152554772Y-93724644D01*
X152500000Y-93719249D01*
X149500000Y-93719249D01*
X149445228Y-93724644D01*
X149392561Y-93740620D01*
X149344023Y-93766564D01*
X149301479Y-93801479D01*
X149266564Y-93844023D01*
X149240620Y-93892561D01*
X149224644Y-93945228D01*
X149219249Y-94000000D01*
X142059665Y-94000000D01*
X142089502Y-93944180D01*
X142125812Y-93824482D01*
X142138072Y-93700000D01*
X142135000Y-92485750D01*
X141976250Y-92327000D01*
X140127000Y-92327000D01*
X139873000Y-92327000D01*
X138023750Y-92327000D01*
X137865000Y-92485750D01*
X137861928Y-93700000D01*
X127337301Y-93700000D01*
X127431755Y-93620744D01*
X128907127Y-92587678D01*
X130466923Y-91687129D01*
X132099271Y-90925953D01*
X132720071Y-90700000D01*
X137861928Y-90700000D01*
X137865000Y-91914250D01*
X138023750Y-92073000D01*
X139873000Y-92073000D01*
X139873000Y-90223750D01*
X140127000Y-90223750D01*
X140127000Y-92073000D01*
X141976250Y-92073000D01*
X142135000Y-91914250D01*
X142138072Y-90700000D01*
X142125812Y-90575518D01*
X142089502Y-90455820D01*
X142030537Y-90345506D01*
X141951185Y-90248815D01*
X141854494Y-90169463D01*
X141744180Y-90110498D01*
X141624482Y-90074188D01*
X141500000Y-90061928D01*
X140285750Y-90065000D01*
X140127000Y-90223750D01*
X139873000Y-90223750D01*
X139714250Y-90065000D01*
X138500000Y-90061928D01*
X138375518Y-90074188D01*
X138255820Y-90110498D01*
X138145506Y-90169463D01*
X138048815Y-90248815D01*
X137969463Y-90345506D01*
X137910498Y-90455820D01*
X137874188Y-90575518D01*
X137861928Y-90700000D01*
X132720071Y-90700000D01*
X133791748Y-90309941D01*
X135531474Y-89843783D01*
X137305208Y-89531026D01*
X139099452Y-89374050D01*
X140900548Y-89374050D01*
X142694792Y-89531026D01*
G37*
X142694792Y-89531026D02*
X144468526Y-89843783D01*
X146208252Y-90309941D01*
X147900729Y-90925953D01*
X149533077Y-91687129D01*
X151092873Y-92587678D01*
X152568245Y-93620744D01*
X153947965Y-94778467D01*
X155221533Y-96052035D01*
X156379256Y-97431755D01*
X157412322Y-98907127D01*
X158312871Y-100466923D01*
X159074047Y-102099271D01*
X159690059Y-103791748D01*
X160156217Y-105531474D01*
X160468974Y-107305208D01*
X160625950Y-109099452D01*
X160625950Y-110900548D01*
X160468974Y-112694792D01*
X160156217Y-114468526D01*
X159690059Y-116208252D01*
X159074047Y-117900729D01*
X158312871Y-119533077D01*
X157412322Y-121092873D01*
X156379256Y-122568245D01*
X155221533Y-123947965D01*
X153947965Y-125221533D01*
X152568245Y-126379256D01*
X151092873Y-127412322D01*
X149533077Y-128312871D01*
X147900729Y-129074047D01*
X146208252Y-129690059D01*
X144468526Y-130156217D01*
X142694792Y-130468974D01*
X140900548Y-130625950D01*
X139099452Y-130625950D01*
X137305208Y-130468974D01*
X135531474Y-130156217D01*
X133791748Y-129690059D01*
X132099271Y-129074047D01*
X130466923Y-128312871D01*
X128907127Y-127412322D01*
X127431755Y-126379256D01*
X126052035Y-125221533D01*
X124822814Y-123992312D01*
X134836974Y-123992312D01*
X134847734Y-124116933D01*
X134882599Y-124237059D01*
X134940230Y-124348076D01*
X135018412Y-124445716D01*
X135114140Y-124526228D01*
X135223736Y-124586517D01*
X135342987Y-124624266D01*
X135443250Y-124635000D01*
X135602000Y-124476250D01*
X135602000Y-123127000D01*
X134998750Y-123127000D01*
X134840000Y-123285750D01*
X134836974Y-123992312D01*
X124822814Y-123992312D01*
X124778467Y-123947965D01*
X123620744Y-122568245D01*
X123131958Y-121870185D01*
X123930213Y-121870185D01*
X123930213Y-122013865D01*
X123958244Y-122154783D01*
X124013227Y-122287525D01*
X124093051Y-122406990D01*
X124194648Y-122508587D01*
X124314113Y-122588411D01*
X124446855Y-122643394D01*
X124587773Y-122671425D01*
X124731453Y-122671425D01*
X124872371Y-122643394D01*
X125005113Y-122588411D01*
X125124578Y-122508587D01*
X125226175Y-122406990D01*
X125305999Y-122287525D01*
X125360982Y-122154783D01*
X125389013Y-122013865D01*
X125389013Y-122007688D01*
X134836974Y-122007688D01*
X134840000Y-122714250D01*
X134998750Y-122873000D01*
X135602000Y-122873000D01*
X135602000Y-121523750D01*
X135698000Y-121523750D01*
X135698000Y-122873000D01*
X135797000Y-122873000D01*
X135797000Y-123127000D01*
X135698000Y-123127000D01*
X135698000Y-124476250D01*
X135856750Y-124635000D01*
X135870601Y-124633517D01*
X135870601Y-124849334D01*
X135866628Y-124853307D01*
X135798525Y-124955230D01*
X135751615Y-125068482D01*
X135727700Y-125188709D01*
X135727700Y-125311291D01*
X135751615Y-125431518D01*
X135798525Y-125544770D01*
X135866628Y-125646693D01*
X135953307Y-125733372D01*
X136055230Y-125801475D01*
X136168482Y-125848385D01*
X136288709Y-125872300D01*
X136411291Y-125872300D01*
X136531518Y-125848385D01*
X136644770Y-125801475D01*
X136746693Y-125733372D01*
X136833372Y-125646693D01*
X136901475Y-125544770D01*
X136948385Y-125431518D01*
X136972300Y-125311291D01*
X136972300Y-125188709D01*
X136948385Y-125068482D01*
X136901475Y-124955230D01*
X136833372Y-124853307D01*
X136829400Y-124849335D01*
X136829400Y-124255093D01*
X136890658Y-124273675D01*
X136962500Y-124280751D01*
X137137500Y-124280751D01*
X137209342Y-124273675D01*
X137278424Y-124252720D01*
X137342089Y-124218690D01*
X137397893Y-124172893D01*
X137400000Y-124170326D01*
X137402107Y-124172893D01*
X137457911Y-124218690D01*
X137521576Y-124252720D01*
X137590658Y-124273675D01*
X137662500Y-124280751D01*
X137837500Y-124280751D01*
X137909342Y-124273675D01*
X137970601Y-124255093D01*
X137970601Y-124649334D01*
X137966628Y-124653307D01*
X137898525Y-124755230D01*
X137851615Y-124868482D01*
X137827700Y-124988709D01*
X137827700Y-125111291D01*
X137851615Y-125231518D01*
X137898525Y-125344770D01*
X137966628Y-125446693D01*
X138053307Y-125533372D01*
X138155230Y-125601475D01*
X138268482Y-125648385D01*
X138388709Y-125672300D01*
X138511291Y-125672300D01*
X138631518Y-125648385D01*
X138744770Y-125601475D01*
X138846693Y-125533372D01*
X138933372Y-125446693D01*
X139001475Y-125344770D01*
X139048385Y-125231518D01*
X139072300Y-125111291D01*
X139072300Y-124988709D01*
X139048385Y-124868482D01*
X139001475Y-124755230D01*
X138933372Y-124653307D01*
X138929400Y-124649335D01*
X138929400Y-124255093D01*
X138990658Y-124273675D01*
X139062500Y-124280751D01*
X139105280Y-124280751D01*
X139140230Y-124348076D01*
X139218412Y-124445716D01*
X139314140Y-124526228D01*
X139423736Y-124586517D01*
X139542987Y-124624266D01*
X139643250Y-124635000D01*
X139802000Y-124476250D01*
X139802000Y-124274432D01*
X139840230Y-124348076D01*
X139898000Y-124420224D01*
X139898000Y-124476250D01*
X140056750Y-124635000D01*
X140157013Y-124624266D01*
X140200000Y-124610658D01*
X140242987Y-124624266D01*
X140343250Y-124635000D01*
X140502000Y-124476250D01*
X140502000Y-124420224D01*
X140559770Y-124348076D01*
X140598000Y-124274432D01*
X140598000Y-124476250D01*
X140756750Y-124635000D01*
X140770601Y-124633517D01*
X140770601Y-124826445D01*
X140768281Y-124850000D01*
X140770600Y-124873546D01*
X140770601Y-125722191D01*
X140748525Y-125755230D01*
X140701615Y-125868482D01*
X140677700Y-125988709D01*
X140677700Y-126111291D01*
X140701615Y-126231518D01*
X140748525Y-126344770D01*
X140816628Y-126446693D01*
X140903307Y-126533372D01*
X141005230Y-126601475D01*
X141118482Y-126648385D01*
X141238709Y-126672300D01*
X141361291Y-126672300D01*
X141481518Y-126648385D01*
X141594770Y-126601475D01*
X141696693Y-126533372D01*
X141783372Y-126446693D01*
X141851475Y-126344770D01*
X141898385Y-126231518D01*
X141922300Y-126111291D01*
X141922300Y-125988709D01*
X141898385Y-125868482D01*
X141851475Y-125755230D01*
X141783372Y-125653307D01*
X141729400Y-125599335D01*
X141729400Y-125113625D01*
X141745050Y-125084345D01*
X141772463Y-124993978D01*
X141781719Y-124900000D01*
X141772463Y-124806022D01*
X141745050Y-124715655D01*
X141729400Y-124686375D01*
X141729400Y-124255093D01*
X141790658Y-124273675D01*
X141862500Y-124280751D01*
X142037500Y-124280751D01*
X142109342Y-124273675D01*
X142178424Y-124252720D01*
X142242089Y-124218690D01*
X142297893Y-124172893D01*
X142300000Y-124170326D01*
X142302107Y-124172893D01*
X142357911Y-124218690D01*
X142421576Y-124252720D01*
X142490658Y-124273675D01*
X142562500Y-124280751D01*
X142605280Y-124280751D01*
X142640230Y-124348076D01*
X142718412Y-124445716D01*
X142814140Y-124526228D01*
X142923736Y-124586517D01*
X143042987Y-124624266D01*
X143143250Y-124635000D01*
X143302000Y-124476250D01*
X143302000Y-123127000D01*
X143398000Y-123127000D01*
X143398000Y-124476250D01*
X143556750Y-124635000D01*
X143657013Y-124624266D01*
X143776264Y-124586517D01*
X143885860Y-124526228D01*
X143981588Y-124445716D01*
X144059770Y-124348076D01*
X144117401Y-124237059D01*
X144152266Y-124116933D01*
X144163026Y-123992312D01*
X144160000Y-123285750D01*
X144001250Y-123127000D01*
X143398000Y-123127000D01*
X143302000Y-123127000D01*
X143203000Y-123127000D01*
X143203000Y-122873000D01*
X143302000Y-122873000D01*
X143302000Y-121523750D01*
X143398000Y-121523750D01*
X143398000Y-122873000D01*
X144001250Y-122873000D01*
X144160000Y-122714250D01*
X144163026Y-122007688D01*
X144152266Y-121883067D01*
X144117401Y-121762941D01*
X144104822Y-121738709D01*
X146677700Y-121738709D01*
X146677700Y-121861291D01*
X146701615Y-121981518D01*
X146748525Y-122094770D01*
X146816628Y-122196693D01*
X146903307Y-122283372D01*
X147005230Y-122351475D01*
X147118482Y-122398385D01*
X147238709Y-122422300D01*
X147361291Y-122422300D01*
X147481518Y-122398385D01*
X147594770Y-122351475D01*
X147696693Y-122283372D01*
X147700665Y-122279400D01*
X153299335Y-122279400D01*
X153303307Y-122283372D01*
X153405230Y-122351475D01*
X153518482Y-122398385D01*
X153638709Y-122422300D01*
X153761291Y-122422300D01*
X153881518Y-122398385D01*
X153994770Y-122351475D01*
X154096693Y-122283372D01*
X154183372Y-122196693D01*
X154251475Y-122094770D01*
X154298385Y-121981518D01*
X154320530Y-121870185D01*
X154610987Y-121870185D01*
X154610987Y-122013865D01*
X154639018Y-122154783D01*
X154694001Y-122287525D01*
X154773825Y-122406990D01*
X154875422Y-122508587D01*
X154994887Y-122588411D01*
X155127629Y-122643394D01*
X155268547Y-122671425D01*
X155412227Y-122671425D01*
X155553145Y-122643394D01*
X155685887Y-122588411D01*
X155805352Y-122508587D01*
X155906949Y-122406990D01*
X155986773Y-122287525D01*
X156041756Y-122154783D01*
X156069787Y-122013865D01*
X156069787Y-121870185D01*
X156041756Y-121729267D01*
X155986773Y-121596525D01*
X155906949Y-121477060D01*
X155805352Y-121375463D01*
X155685887Y-121295639D01*
X155553145Y-121240656D01*
X155412227Y-121212625D01*
X155268547Y-121212625D01*
X155127629Y-121240656D01*
X154994887Y-121295639D01*
X154875422Y-121375463D01*
X154773825Y-121477060D01*
X154694001Y-121596525D01*
X154639018Y-121729267D01*
X154610987Y-121870185D01*
X154320530Y-121870185D01*
X154322300Y-121861291D01*
X154322300Y-121738709D01*
X154298385Y-121618482D01*
X154251475Y-121505230D01*
X154183372Y-121403307D01*
X154096693Y-121316628D01*
X153994770Y-121248525D01*
X153881518Y-121201615D01*
X153761291Y-121177700D01*
X153638709Y-121177700D01*
X153518482Y-121201615D01*
X153405230Y-121248525D01*
X153303307Y-121316628D01*
X153299335Y-121320600D01*
X147700665Y-121320600D01*
X147696693Y-121316628D01*
X147594770Y-121248525D01*
X147481518Y-121201615D01*
X147361291Y-121177700D01*
X147238709Y-121177700D01*
X147118482Y-121201615D01*
X147005230Y-121248525D01*
X146903307Y-121316628D01*
X146816628Y-121403307D01*
X146748525Y-121505230D01*
X146701615Y-121618482D01*
X146677700Y-121738709D01*
X144104822Y-121738709D01*
X144059770Y-121651924D01*
X143981588Y-121554284D01*
X143885860Y-121473772D01*
X143776264Y-121413483D01*
X143657013Y-121375734D01*
X143556750Y-121365000D01*
X143398000Y-121523750D01*
X143302000Y-121523750D01*
X143143250Y-121365000D01*
X143042987Y-121375734D01*
X142923736Y-121413483D01*
X142814140Y-121473772D01*
X142718412Y-121554284D01*
X142640230Y-121651924D01*
X142605280Y-121719249D01*
X142562500Y-121719249D01*
X142490658Y-121726325D01*
X142421576Y-121747280D01*
X142357911Y-121781310D01*
X142302107Y-121827107D01*
X142300000Y-121829674D01*
X142297893Y-121827107D01*
X142242089Y-121781310D01*
X142178424Y-121747280D01*
X142109342Y-121726325D01*
X142037500Y-121719249D01*
X141862500Y-121719249D01*
X141790658Y-121726325D01*
X141721576Y-121747280D01*
X141657911Y-121781310D01*
X141602107Y-121827107D01*
X141600000Y-121829674D01*
X141597893Y-121827107D01*
X141542089Y-121781310D01*
X141478424Y-121747280D01*
X141409342Y-121726325D01*
X141337500Y-121719249D01*
X141294720Y-121719249D01*
X141259770Y-121651924D01*
X141181588Y-121554284D01*
X141085860Y-121473772D01*
X140976264Y-121413483D01*
X140857013Y-121375734D01*
X140756750Y-121365000D01*
X140598000Y-121523750D01*
X140598000Y-121725568D01*
X140559770Y-121651924D01*
X140502000Y-121579776D01*
X140502000Y-121523750D01*
X140343250Y-121365000D01*
X140242987Y-121375734D01*
X140200000Y-121389342D01*
X140157013Y-121375734D01*
X140056750Y-121365000D01*
X139898000Y-121523750D01*
X139898000Y-121579776D01*
X139840230Y-121651924D01*
X139802000Y-121725568D01*
X139802000Y-121523750D01*
X139643250Y-121365000D01*
X139542987Y-121375734D01*
X139423736Y-121413483D01*
X139314140Y-121473772D01*
X139218412Y-121554284D01*
X139140230Y-121651924D01*
X139105280Y-121719249D01*
X139062500Y-121719249D01*
X138990658Y-121726325D01*
X138921576Y-121747280D01*
X138857911Y-121781310D01*
X138802107Y-121827107D01*
X138800000Y-121829674D01*
X138797893Y-121827107D01*
X138742089Y-121781310D01*
X138678424Y-121747280D01*
X138609342Y-121726325D01*
X138537500Y-121719249D01*
X138362500Y-121719249D01*
X138290658Y-121726325D01*
X138221576Y-121747280D01*
X138157911Y-121781310D01*
X138102107Y-121827107D01*
X138100000Y-121829674D01*
X138097893Y-121827107D01*
X138042089Y-121781310D01*
X137978424Y-121747280D01*
X137909342Y-121726325D01*
X137837500Y-121719249D01*
X137662500Y-121719249D01*
X137590658Y-121726325D01*
X137521576Y-121747280D01*
X137457911Y-121781310D01*
X137402107Y-121827107D01*
X137400000Y-121829674D01*
X137397893Y-121827107D01*
X137342089Y-121781310D01*
X137278424Y-121747280D01*
X137209342Y-121726325D01*
X137137500Y-121719249D01*
X136962500Y-121719249D01*
X136890658Y-121726325D01*
X136821576Y-121747280D01*
X136757911Y-121781310D01*
X136702107Y-121827107D01*
X136700000Y-121829674D01*
X136697893Y-121827107D01*
X136642089Y-121781310D01*
X136578424Y-121747280D01*
X136509342Y-121726325D01*
X136437500Y-121719249D01*
X136394720Y-121719249D01*
X136359770Y-121651924D01*
X136281588Y-121554284D01*
X136185860Y-121473772D01*
X136076264Y-121413483D01*
X135957013Y-121375734D01*
X135856750Y-121365000D01*
X135698000Y-121523750D01*
X135602000Y-121523750D01*
X135443250Y-121365000D01*
X135342987Y-121375734D01*
X135223736Y-121413483D01*
X135114140Y-121473772D01*
X135018412Y-121554284D01*
X134940230Y-121651924D01*
X134882599Y-121762941D01*
X134847734Y-121883067D01*
X134836974Y-122007688D01*
X125389013Y-122007688D01*
X125389013Y-121870185D01*
X125360982Y-121729267D01*
X125305999Y-121596525D01*
X125226175Y-121477060D01*
X125124578Y-121375463D01*
X125005113Y-121295639D01*
X124872371Y-121240656D01*
X124731453Y-121212625D01*
X124587773Y-121212625D01*
X124446855Y-121240656D01*
X124314113Y-121295639D01*
X124194648Y-121375463D01*
X124093051Y-121477060D01*
X124013227Y-121596525D01*
X123958244Y-121729267D01*
X123930213Y-121870185D01*
X123131958Y-121870185D01*
X122587678Y-121092873D01*
X121948703Y-119986135D01*
X122610987Y-119986135D01*
X122610987Y-120129815D01*
X122639018Y-120270733D01*
X122694001Y-120403475D01*
X122773825Y-120522940D01*
X122875422Y-120624537D01*
X122994887Y-120704361D01*
X123127629Y-120759344D01*
X123268547Y-120787375D01*
X123412227Y-120787375D01*
X123553145Y-120759344D01*
X123685887Y-120704361D01*
X123805352Y-120624537D01*
X123906949Y-120522940D01*
X123986773Y-120403475D01*
X124041756Y-120270733D01*
X124069787Y-120129815D01*
X124069787Y-119986135D01*
X155930213Y-119986135D01*
X155930213Y-120129815D01*
X155958244Y-120270733D01*
X156013227Y-120403475D01*
X156093051Y-120522940D01*
X156194648Y-120624537D01*
X156314113Y-120704361D01*
X156446855Y-120759344D01*
X156587773Y-120787375D01*
X156731453Y-120787375D01*
X156872371Y-120759344D01*
X157005113Y-120704361D01*
X157124578Y-120624537D01*
X157226175Y-120522940D01*
X157305999Y-120403475D01*
X157360982Y-120270733D01*
X157389013Y-120129815D01*
X157389013Y-119986135D01*
X157360982Y-119845217D01*
X157305999Y-119712475D01*
X157226175Y-119593010D01*
X157124578Y-119491413D01*
X157005113Y-119411589D01*
X156872371Y-119356606D01*
X156731453Y-119328575D01*
X156587773Y-119328575D01*
X156446855Y-119356606D01*
X156314113Y-119411589D01*
X156194648Y-119491413D01*
X156093051Y-119593010D01*
X156013227Y-119712475D01*
X155958244Y-119845217D01*
X155930213Y-119986135D01*
X124069787Y-119986135D01*
X124041756Y-119845217D01*
X123986773Y-119712475D01*
X123906949Y-119593010D01*
X123805352Y-119491413D01*
X123685887Y-119411589D01*
X123553145Y-119356606D01*
X123412227Y-119328575D01*
X123268547Y-119328575D01*
X123127629Y-119356606D01*
X122994887Y-119411589D01*
X122875422Y-119491413D01*
X122773825Y-119593010D01*
X122694001Y-119712475D01*
X122639018Y-119845217D01*
X122610987Y-119986135D01*
X121948703Y-119986135D01*
X121687129Y-119533077D01*
X120925953Y-117900729D01*
X120644338Y-117127000D01*
X123000000Y-117127000D01*
X123025390Y-117124436D01*
X123049178Y-117117092D01*
X123071077Y-117105248D01*
X123090244Y-117089359D01*
X123105943Y-117070036D01*
X123117571Y-117048022D01*
X123124680Y-117024163D01*
X123126998Y-116999374D01*
X123091970Y-109888598D01*
X144177700Y-109888598D01*
X144177700Y-110011180D01*
X144201615Y-110131407D01*
X144248525Y-110244659D01*
X144316628Y-110346582D01*
X144403307Y-110433261D01*
X144505230Y-110501364D01*
X144618482Y-110548274D01*
X144738709Y-110572189D01*
X144825218Y-110572189D01*
X144822889Y-110583898D01*
X144822889Y-110706480D01*
X144846804Y-110826707D01*
X144893714Y-110939959D01*
X144961817Y-111041882D01*
X145048496Y-111128561D01*
X145150419Y-111196664D01*
X145263671Y-111243574D01*
X145383898Y-111267489D01*
X145506480Y-111267489D01*
X145626707Y-111243574D01*
X145739959Y-111196664D01*
X145841882Y-111128561D01*
X145845854Y-111124589D01*
X149694524Y-111124589D01*
X149698496Y-111128561D01*
X149800419Y-111196664D01*
X149913671Y-111243574D01*
X150033898Y-111267489D01*
X150156480Y-111267489D01*
X150276707Y-111243574D01*
X150389959Y-111196664D01*
X150491882Y-111128561D01*
X150542283Y-111078160D01*
X158770600Y-111078160D01*
X158770600Y-111221840D01*
X158798631Y-111362758D01*
X158853614Y-111495500D01*
X158933438Y-111614965D01*
X159035035Y-111716562D01*
X159154500Y-111796386D01*
X159287242Y-111851369D01*
X159428160Y-111879400D01*
X159571840Y-111879400D01*
X159712758Y-111851369D01*
X159845500Y-111796386D01*
X159964965Y-111716562D01*
X160066562Y-111614965D01*
X160146386Y-111495500D01*
X160201369Y-111362758D01*
X160229400Y-111221840D01*
X160229400Y-111078160D01*
X160201369Y-110937242D01*
X160146386Y-110804500D01*
X160066562Y-110685035D01*
X159964965Y-110583438D01*
X159845500Y-110503614D01*
X159712758Y-110448631D01*
X159571840Y-110420600D01*
X159428160Y-110420600D01*
X159287242Y-110448631D01*
X159154500Y-110503614D01*
X159035035Y-110583438D01*
X158933438Y-110685035D01*
X158853614Y-110804500D01*
X158798631Y-110937242D01*
X158770600Y-111078160D01*
X150542283Y-111078160D01*
X150578561Y-111041882D01*
X150646664Y-110939959D01*
X150693574Y-110826707D01*
X150717489Y-110706480D01*
X150717489Y-110583898D01*
X150713105Y-110561860D01*
X150781407Y-110548274D01*
X150894659Y-110501364D01*
X150996582Y-110433261D01*
X151083261Y-110346582D01*
X151151364Y-110244659D01*
X151198274Y-110131407D01*
X151222189Y-110011180D01*
X151222189Y-109888598D01*
X151198274Y-109768371D01*
X151151364Y-109655119D01*
X151083261Y-109553196D01*
X150996582Y-109466517D01*
X150894659Y-109398414D01*
X150781407Y-109351504D01*
X150661180Y-109327589D01*
X150538598Y-109327589D01*
X150418371Y-109351504D01*
X150305119Y-109398414D01*
X150203196Y-109466517D01*
X150199224Y-109470489D01*
X145200665Y-109470489D01*
X145196693Y-109466517D01*
X145094770Y-109398414D01*
X144981518Y-109351504D01*
X144861291Y-109327589D01*
X144738709Y-109327589D01*
X144618482Y-109351504D01*
X144505230Y-109398414D01*
X144403307Y-109466517D01*
X144316628Y-109553196D01*
X144248525Y-109655119D01*
X144201615Y-109768371D01*
X144177700Y-109888598D01*
X123091970Y-109888598D01*
X123057894Y-102971131D01*
X123508474Y-102971131D01*
X123543744Y-103183173D01*
X123747086Y-103273497D01*
X123964142Y-103322415D01*
X124186571Y-103328048D01*
X124405825Y-103290178D01*
X124613477Y-103210261D01*
X124664151Y-103183167D01*
X124698593Y-102970300D01*
X124540362Y-102812069D01*
X126576140Y-102812069D01*
X126576140Y-102934651D01*
X126600055Y-103054878D01*
X126646965Y-103168130D01*
X126715068Y-103270053D01*
X126801747Y-103356732D01*
X126903670Y-103424835D01*
X127016922Y-103471745D01*
X127137149Y-103495660D01*
X127259731Y-103495660D01*
X127379958Y-103471745D01*
X127493210Y-103424835D01*
X127595133Y-103356732D01*
X127681812Y-103270053D01*
X127697795Y-103246133D01*
X128774692Y-103231771D01*
X128888745Y-103368143D01*
X128870681Y-107128018D01*
X128868778Y-107145072D01*
X128870503Y-107165266D01*
X128870495Y-107166829D01*
X128872095Y-107183910D01*
X128875137Y-107219534D01*
X128875572Y-107221038D01*
X128875718Y-107222597D01*
X128885941Y-107256890D01*
X128895901Y-107291327D01*
X128896622Y-107292720D01*
X128897069Y-107294218D01*
X128913794Y-107325873D01*
X128930273Y-107357689D01*
X128931250Y-107358911D01*
X128931982Y-107360297D01*
X128954573Y-107388095D01*
X128976930Y-107416071D01*
X128978128Y-107417081D01*
X128979115Y-107418295D01*
X129006669Y-107441130D01*
X129019763Y-107452164D01*
X129021048Y-107453047D01*
X129036657Y-107465983D01*
X129051756Y-107474147D01*
X129495979Y-107779384D01*
X129512357Y-107792825D01*
X129543126Y-107809271D01*
X129573707Y-107826131D01*
X129576076Y-107826883D01*
X129578268Y-107828055D01*
X129611691Y-107838194D01*
X129644936Y-107848752D01*
X129647403Y-107849027D01*
X129649785Y-107849750D01*
X129684589Y-107853178D01*
X129719211Y-107857042D01*
X129740316Y-107855240D01*
X130041073Y-107855240D01*
X130052628Y-107872533D01*
X130139307Y-107959212D01*
X130241230Y-108027315D01*
X130354482Y-108074225D01*
X130474709Y-108098140D01*
X130597291Y-108098140D01*
X130717518Y-108074225D01*
X130830770Y-108027315D01*
X130932693Y-107959212D01*
X130953196Y-107938709D01*
X132077700Y-107938709D01*
X132077700Y-108061291D01*
X132101615Y-108181518D01*
X132148525Y-108294770D01*
X132216628Y-108396693D01*
X132239037Y-108419102D01*
X132216628Y-108441510D01*
X132148525Y-108543433D01*
X132101615Y-108656685D01*
X132077700Y-108776912D01*
X132077700Y-108899494D01*
X132101615Y-109019721D01*
X132148525Y-109132973D01*
X132216628Y-109234896D01*
X132303307Y-109321575D01*
X132405230Y-109389678D01*
X132518482Y-109436588D01*
X132638709Y-109460503D01*
X132761291Y-109460503D01*
X132881518Y-109436588D01*
X132994770Y-109389678D01*
X133096693Y-109321575D01*
X133100665Y-109317603D01*
X135417298Y-109317603D01*
X135440843Y-109319922D01*
X135464388Y-109317603D01*
X135464389Y-109317603D01*
X135534822Y-109310666D01*
X135625189Y-109283253D01*
X135708472Y-109238738D01*
X135781470Y-109178830D01*
X135796486Y-109160533D01*
X136178859Y-108778160D01*
X158770600Y-108778160D01*
X158770600Y-108921840D01*
X158798631Y-109062758D01*
X158853614Y-109195500D01*
X158933438Y-109314965D01*
X159035035Y-109416562D01*
X159154500Y-109496386D01*
X159287242Y-109551369D01*
X159428160Y-109579400D01*
X159571840Y-109579400D01*
X159712758Y-109551369D01*
X159845500Y-109496386D01*
X159964965Y-109416562D01*
X160066562Y-109314965D01*
X160146386Y-109195500D01*
X160201369Y-109062758D01*
X160229400Y-108921840D01*
X160229400Y-108778160D01*
X160201369Y-108637242D01*
X160146386Y-108504500D01*
X160066562Y-108385035D01*
X159964965Y-108283438D01*
X159845500Y-108203614D01*
X159712758Y-108148631D01*
X159571840Y-108120600D01*
X159428160Y-108120600D01*
X159287242Y-108148631D01*
X159154500Y-108203614D01*
X159035035Y-108283438D01*
X158933438Y-108385035D01*
X158853614Y-108504500D01*
X158798631Y-108637242D01*
X158770600Y-108778160D01*
X136178859Y-108778160D01*
X138016392Y-106940628D01*
X138028507Y-106931375D01*
X138049688Y-106907332D01*
X138055636Y-106901384D01*
X138065275Y-106889639D01*
X138090931Y-106860516D01*
X138095171Y-106853210D01*
X138100534Y-106846675D01*
X138118843Y-106812421D01*
X138138331Y-106778841D01*
X138141065Y-106770845D01*
X138145049Y-106763392D01*
X138156322Y-106726232D01*
X138168887Y-106689488D01*
X138170009Y-106681113D01*
X138172462Y-106673026D01*
X138176268Y-106634386D01*
X138178283Y-106619340D01*
X138178577Y-106610939D01*
X138181718Y-106579047D01*
X138180224Y-106563875D01*
X138205432Y-105843408D01*
X138732399Y-105843408D01*
X138732399Y-105965990D01*
X138756314Y-106086217D01*
X138803224Y-106199469D01*
X138871327Y-106301392D01*
X138958006Y-106388071D01*
X139059929Y-106456174D01*
X139173181Y-106503084D01*
X139293408Y-106526999D01*
X139415990Y-106526999D01*
X139536217Y-106503084D01*
X139649469Y-106456174D01*
X139751392Y-106388071D01*
X139755364Y-106384099D01*
X143644636Y-106384099D01*
X143648608Y-106388071D01*
X143750531Y-106456174D01*
X143863783Y-106503084D01*
X143984010Y-106526999D01*
X144106592Y-106526999D01*
X144226819Y-106503084D01*
X144340071Y-106456174D01*
X144441994Y-106388071D01*
X144528673Y-106301392D01*
X144596776Y-106199469D01*
X144643686Y-106086217D01*
X144667601Y-105965990D01*
X144667601Y-105843408D01*
X144643686Y-105723181D01*
X144596776Y-105609929D01*
X144528673Y-105508006D01*
X144441994Y-105421327D01*
X144340071Y-105353224D01*
X144226819Y-105306314D01*
X144106592Y-105282399D01*
X143984010Y-105282399D01*
X143863783Y-105306314D01*
X143750531Y-105353224D01*
X143648608Y-105421327D01*
X143644636Y-105425299D01*
X139755364Y-105425299D01*
X139751392Y-105421327D01*
X139649469Y-105353224D01*
X139536217Y-105306314D01*
X139415990Y-105282399D01*
X139293408Y-105282399D01*
X139173181Y-105306314D01*
X139059929Y-105353224D01*
X138958006Y-105421327D01*
X138871327Y-105508006D01*
X138803224Y-105609929D01*
X138756314Y-105723181D01*
X138732399Y-105843408D01*
X138205432Y-105843408D01*
X138215177Y-105564888D01*
X138233372Y-105546693D01*
X138301475Y-105444770D01*
X138348385Y-105331518D01*
X138372300Y-105211291D01*
X138372300Y-105088709D01*
X138348385Y-104968482D01*
X138301475Y-104855230D01*
X138233372Y-104753307D01*
X138146693Y-104666628D01*
X138044770Y-104598525D01*
X138021072Y-104588709D01*
X138727700Y-104588709D01*
X138727700Y-104711291D01*
X138751615Y-104831518D01*
X138798525Y-104944770D01*
X138866628Y-105046693D01*
X138953307Y-105133372D01*
X139055230Y-105201475D01*
X139168482Y-105248385D01*
X139288709Y-105272300D01*
X139411291Y-105272300D01*
X139531518Y-105248385D01*
X139644770Y-105201475D01*
X139746693Y-105133372D01*
X139750665Y-105129400D01*
X143796103Y-105129400D01*
X143819648Y-105131719D01*
X143843193Y-105129400D01*
X143843194Y-105129400D01*
X143913627Y-105122463D01*
X144003994Y-105095050D01*
X144087277Y-105050535D01*
X144160275Y-104990627D01*
X144175291Y-104972330D01*
X144568222Y-104579400D01*
X144849335Y-104579400D01*
X144853307Y-104583372D01*
X144955230Y-104651475D01*
X145068482Y-104698385D01*
X145188709Y-104722300D01*
X145311291Y-104722300D01*
X145431518Y-104698385D01*
X145544770Y-104651475D01*
X145646693Y-104583372D01*
X145733372Y-104496693D01*
X145801475Y-104394770D01*
X145848385Y-104281518D01*
X145872300Y-104161291D01*
X145872300Y-104038709D01*
X145848385Y-103918482D01*
X145801475Y-103805230D01*
X145733372Y-103703307D01*
X145646693Y-103616628D01*
X145544770Y-103548525D01*
X145431518Y-103501615D01*
X145311291Y-103477700D01*
X145188709Y-103477700D01*
X145068482Y-103501615D01*
X144955230Y-103548525D01*
X144853307Y-103616628D01*
X144849335Y-103620600D01*
X144393182Y-103620600D01*
X144369647Y-103618282D01*
X144346112Y-103620600D01*
X144346102Y-103620600D01*
X144275669Y-103627537D01*
X144185302Y-103654950D01*
X144102019Y-103699465D01*
X144029021Y-103759373D01*
X144014009Y-103777665D01*
X143621075Y-104170600D01*
X139750665Y-104170600D01*
X139746693Y-104166628D01*
X139644770Y-104098525D01*
X139531518Y-104051615D01*
X139411291Y-104027700D01*
X139288709Y-104027700D01*
X139168482Y-104051615D01*
X139055230Y-104098525D01*
X138953307Y-104166628D01*
X138866628Y-104253307D01*
X138798525Y-104355230D01*
X138751615Y-104468482D01*
X138727700Y-104588709D01*
X138021072Y-104588709D01*
X137931518Y-104551615D01*
X137811291Y-104527700D01*
X137688709Y-104527700D01*
X137568482Y-104551615D01*
X137455230Y-104598525D01*
X137353307Y-104666628D01*
X137266628Y-104753307D01*
X137198525Y-104855230D01*
X137151615Y-104968482D01*
X137127700Y-105088709D01*
X137127700Y-105211291D01*
X137151615Y-105331518D01*
X137198525Y-105444770D01*
X137256935Y-105532186D01*
X137240212Y-106010147D01*
X137196693Y-105966628D01*
X137094770Y-105898525D01*
X136981518Y-105851615D01*
X136861291Y-105827700D01*
X136738709Y-105827700D01*
X136618482Y-105851615D01*
X136505230Y-105898525D01*
X136403307Y-105966628D01*
X136399335Y-105970600D01*
X136252591Y-105970600D01*
X136229045Y-105968281D01*
X136205500Y-105970600D01*
X136135067Y-105977537D01*
X136044700Y-106004950D01*
X135961417Y-106049465D01*
X135888419Y-106109373D01*
X135873408Y-106127664D01*
X134480473Y-107520600D01*
X133100665Y-107520600D01*
X133096693Y-107516628D01*
X132994770Y-107448525D01*
X132881518Y-107401615D01*
X132761291Y-107377700D01*
X132638709Y-107377700D01*
X132518482Y-107401615D01*
X132405230Y-107448525D01*
X132303307Y-107516628D01*
X132216628Y-107603307D01*
X132148525Y-107705230D01*
X132101615Y-107818482D01*
X132077700Y-107938709D01*
X130953196Y-107938709D01*
X131019372Y-107872533D01*
X131087475Y-107770610D01*
X131134385Y-107657358D01*
X131158300Y-107537131D01*
X131158300Y-107414549D01*
X131134385Y-107294322D01*
X131087475Y-107181070D01*
X131019372Y-107079147D01*
X130932693Y-106992468D01*
X130830770Y-106924365D01*
X130717518Y-106877455D01*
X130597291Y-106853540D01*
X130474709Y-106853540D01*
X130354482Y-106877455D01*
X130241230Y-106924365D01*
X130139307Y-106992468D01*
X130052628Y-107079147D01*
X130041073Y-107096440D01*
X129841944Y-107096440D01*
X129630340Y-106951042D01*
X129648036Y-103267682D01*
X129648537Y-103265035D01*
X129648215Y-103230412D01*
X129648292Y-103214385D01*
X129648041Y-103211705D01*
X129647842Y-103190304D01*
X129644566Y-103174596D01*
X129643069Y-103158616D01*
X129636954Y-103138104D01*
X129632582Y-103117143D01*
X129626300Y-103102366D01*
X129621718Y-103086996D01*
X129611726Y-103068084D01*
X129603343Y-103048365D01*
X129594295Y-103035093D01*
X129586805Y-103020916D01*
X129573312Y-103004312D01*
X129571792Y-103002083D01*
X129561479Y-102989752D01*
X129539672Y-102962918D01*
X129537602Y-102961202D01*
X129264504Y-102634663D01*
X129264132Y-102633989D01*
X129240698Y-102606199D01*
X129229079Y-102592306D01*
X129228522Y-102591760D01*
X129215955Y-102576856D01*
X129201923Y-102565650D01*
X129189106Y-102553069D01*
X129172795Y-102542389D01*
X129157557Y-102530219D01*
X129141603Y-102521963D01*
X129126582Y-102512127D01*
X129108502Y-102504834D01*
X129091182Y-102495871D01*
X129073928Y-102490887D01*
X129057273Y-102484169D01*
X129038114Y-102480543D01*
X129019382Y-102475132D01*
X129001491Y-102473611D01*
X128983842Y-102470270D01*
X128964340Y-102470451D01*
X128963571Y-102470386D01*
X128945604Y-102470626D01*
X128909112Y-102470965D01*
X128908358Y-102471122D01*
X127688974Y-102487385D01*
X127681812Y-102476667D01*
X127595133Y-102389988D01*
X127493210Y-102321885D01*
X127379958Y-102274975D01*
X127259731Y-102251060D01*
X127137149Y-102251060D01*
X127016922Y-102274975D01*
X126903670Y-102321885D01*
X126801747Y-102389988D01*
X126715068Y-102476667D01*
X126646965Y-102578590D01*
X126600055Y-102691842D01*
X126576140Y-102812069D01*
X124540362Y-102812069D01*
X124103949Y-102375656D01*
X123508474Y-102971131D01*
X123057894Y-102971131D01*
X123056162Y-102619684D01*
X123116827Y-102756256D01*
X123328869Y-102791526D01*
X123924344Y-102196051D01*
X123329700Y-101601407D01*
X123116833Y-101635849D01*
X123089739Y-101686523D01*
X123052048Y-101784458D01*
X123050262Y-101421802D01*
X123509305Y-101421802D01*
X124103949Y-102016446D01*
X124118092Y-102002304D01*
X124297697Y-102181909D01*
X124283554Y-102196051D01*
X124878198Y-102790695D01*
X125091065Y-102756253D01*
X125118159Y-102705579D01*
X125198076Y-102497927D01*
X125235946Y-102278673D01*
X125230313Y-102056244D01*
X125228379Y-102047661D01*
X125229317Y-102047474D01*
X125371158Y-101988721D01*
X125498812Y-101903425D01*
X125607373Y-101794864D01*
X125692669Y-101667210D01*
X125751422Y-101525369D01*
X125781374Y-101374790D01*
X125781374Y-101221262D01*
X125770980Y-101169006D01*
X125823236Y-101179400D01*
X125976764Y-101179400D01*
X126127343Y-101149448D01*
X126269184Y-101090695D01*
X126396838Y-101005399D01*
X126505399Y-100896838D01*
X126590695Y-100769184D01*
X126649448Y-100627343D01*
X126679400Y-100476764D01*
X126679400Y-100392631D01*
X156396935Y-100392631D01*
X156396935Y-100536311D01*
X156424966Y-100677229D01*
X156479949Y-100809971D01*
X156559773Y-100929436D01*
X156661370Y-101031033D01*
X156780835Y-101110857D01*
X156913577Y-101165840D01*
X157054495Y-101193871D01*
X157198175Y-101193871D01*
X157339093Y-101165840D01*
X157471835Y-101110857D01*
X157591300Y-101031033D01*
X157692897Y-100929436D01*
X157772721Y-100809971D01*
X157827704Y-100677229D01*
X157855735Y-100536311D01*
X157855735Y-100392631D01*
X157827704Y-100251713D01*
X157772721Y-100118971D01*
X157692897Y-99999506D01*
X157591300Y-99897909D01*
X157471835Y-99818085D01*
X157339093Y-99763102D01*
X157198175Y-99735071D01*
X157054495Y-99735071D01*
X156913577Y-99763102D01*
X156780835Y-99818085D01*
X156661370Y-99897909D01*
X156559773Y-99999506D01*
X156479949Y-100118971D01*
X156424966Y-100251713D01*
X156396935Y-100392631D01*
X126679400Y-100392631D01*
X126679400Y-100323236D01*
X126669006Y-100270981D01*
X126721261Y-100281375D01*
X126874789Y-100281375D01*
X127025368Y-100251423D01*
X127167209Y-100192670D01*
X127294863Y-100107374D01*
X127403424Y-99998813D01*
X127488720Y-99871159D01*
X127547473Y-99729318D01*
X127577425Y-99578739D01*
X127577425Y-99564456D01*
X127588612Y-99570436D01*
X127641279Y-99586412D01*
X127696051Y-99591807D01*
X127750823Y-99586412D01*
X127803490Y-99570436D01*
X127852028Y-99544492D01*
X127894572Y-99509577D01*
X128601679Y-98802470D01*
X128636594Y-98759926D01*
X128662538Y-98711388D01*
X128678514Y-98658721D01*
X128683909Y-98603949D01*
X128678514Y-98549177D01*
X128662538Y-98496510D01*
X128636594Y-98447972D01*
X128601679Y-98405428D01*
X127894572Y-97698321D01*
X127852028Y-97663406D01*
X127803490Y-97637462D01*
X127750823Y-97621486D01*
X127696051Y-97616091D01*
X127641279Y-97621486D01*
X127588612Y-97637462D01*
X127540074Y-97663406D01*
X127497530Y-97698321D01*
X126790423Y-98405428D01*
X126755508Y-98447972D01*
X126729564Y-98496510D01*
X126713588Y-98549177D01*
X126708193Y-98603949D01*
X126713588Y-98658721D01*
X126729564Y-98711388D01*
X126735544Y-98722575D01*
X126721261Y-98722575D01*
X126570682Y-98752527D01*
X126428841Y-98811280D01*
X126301187Y-98896576D01*
X126192626Y-99005137D01*
X126107330Y-99132791D01*
X126048577Y-99274632D01*
X126018625Y-99425211D01*
X126018625Y-99578739D01*
X126029019Y-99630994D01*
X125976764Y-99620600D01*
X125823236Y-99620600D01*
X125672657Y-99650552D01*
X125530816Y-99709305D01*
X125403162Y-99794601D01*
X125294601Y-99903162D01*
X125209305Y-100030816D01*
X125150552Y-100172657D01*
X125120600Y-100323236D01*
X125120600Y-100476764D01*
X125130994Y-100529020D01*
X125078738Y-100518626D01*
X124925210Y-100518626D01*
X124774631Y-100548578D01*
X124632790Y-100607331D01*
X124505136Y-100692627D01*
X124396575Y-100801188D01*
X124311279Y-100928842D01*
X124252526Y-101070683D01*
X124252339Y-101071621D01*
X124243756Y-101069687D01*
X124021327Y-101064054D01*
X123802073Y-101101924D01*
X123594421Y-101181841D01*
X123543747Y-101208935D01*
X123509305Y-101421802D01*
X123050262Y-101421802D01*
X123034729Y-98268672D01*
X123620744Y-97431755D01*
X124621828Y-96238709D01*
X129577700Y-96238709D01*
X129577700Y-96361291D01*
X129601615Y-96481518D01*
X129648525Y-96594770D01*
X129716628Y-96696693D01*
X129803307Y-96783372D01*
X129905230Y-96851475D01*
X130018482Y-96898385D01*
X130138709Y-96922300D01*
X130144327Y-96922300D01*
X131044362Y-97822336D01*
X131059373Y-97840627D01*
X131132371Y-97900535D01*
X131215654Y-97945050D01*
X131306021Y-97972463D01*
X131399999Y-97981719D01*
X131423545Y-97979400D01*
X134549335Y-97979400D01*
X134553307Y-97983372D01*
X134655230Y-98051475D01*
X134768482Y-98098385D01*
X134888709Y-98122300D01*
X135011291Y-98122300D01*
X135131518Y-98098385D01*
X135244770Y-98051475D01*
X135346693Y-97983372D01*
X135433372Y-97896693D01*
X135501475Y-97794770D01*
X135548385Y-97681518D01*
X135572300Y-97561291D01*
X135572300Y-97438709D01*
X135548385Y-97318482D01*
X135501475Y-97205230D01*
X135433372Y-97103307D01*
X135346693Y-97016628D01*
X135244770Y-96948525D01*
X135131518Y-96901615D01*
X135011291Y-96877700D01*
X134888709Y-96877700D01*
X134768482Y-96901615D01*
X134655230Y-96948525D01*
X134553307Y-97016628D01*
X134549335Y-97020600D01*
X131598574Y-97020600D01*
X130822300Y-96244327D01*
X130822300Y-96238709D01*
X130798385Y-96118482D01*
X130751475Y-96005230D01*
X130683372Y-95903307D01*
X130596693Y-95816628D01*
X130494770Y-95748525D01*
X130381518Y-95701615D01*
X130261291Y-95677700D01*
X130138709Y-95677700D01*
X130018482Y-95701615D01*
X129905230Y-95748525D01*
X129803307Y-95816628D01*
X129716628Y-95903307D01*
X129648525Y-96005230D01*
X129601615Y-96118482D01*
X129577700Y-96238709D01*
X124621828Y-96238709D01*
X124778467Y-96052035D01*
X126052035Y-94778467D01*
X126099416Y-94738709D01*
X135927700Y-94738709D01*
X135927700Y-94861291D01*
X135951615Y-94981518D01*
X135998525Y-95094770D01*
X136066628Y-95196693D01*
X136153307Y-95283372D01*
X136255230Y-95351475D01*
X136368482Y-95398385D01*
X136488709Y-95422300D01*
X136494327Y-95422300D01*
X139544362Y-98472336D01*
X139559373Y-98490627D01*
X139632371Y-98550535D01*
X139715654Y-98595050D01*
X139806021Y-98622463D01*
X139876454Y-98629400D01*
X139876456Y-98629400D01*
X139899999Y-98631719D01*
X139923542Y-98629400D01*
X141599335Y-98629400D01*
X141603307Y-98633372D01*
X141705230Y-98701475D01*
X141818482Y-98748385D01*
X141938709Y-98772300D01*
X142061291Y-98772300D01*
X142181518Y-98748385D01*
X142294770Y-98701475D01*
X142396693Y-98633372D01*
X142483372Y-98546693D01*
X142538833Y-98463689D01*
X155144265Y-98463689D01*
X155144265Y-98607369D01*
X155172296Y-98748287D01*
X155227279Y-98881029D01*
X155307103Y-99000494D01*
X155408700Y-99102091D01*
X155528165Y-99181915D01*
X155660907Y-99236898D01*
X155801825Y-99264929D01*
X155945505Y-99264929D01*
X156086423Y-99236898D01*
X156219165Y-99181915D01*
X156338630Y-99102091D01*
X156440227Y-99000494D01*
X156520051Y-98881029D01*
X156575034Y-98748287D01*
X156603065Y-98607369D01*
X156603065Y-98463689D01*
X156575034Y-98322771D01*
X156520051Y-98190029D01*
X156440227Y-98070564D01*
X156338630Y-97968967D01*
X156219165Y-97889143D01*
X156086423Y-97834160D01*
X155945505Y-97806129D01*
X155801825Y-97806129D01*
X155660907Y-97834160D01*
X155528165Y-97889143D01*
X155408700Y-97968967D01*
X155307103Y-98070564D01*
X155227279Y-98190029D01*
X155172296Y-98322771D01*
X155144265Y-98463689D01*
X142538833Y-98463689D01*
X142551475Y-98444770D01*
X142598385Y-98331518D01*
X142622300Y-98211291D01*
X142622300Y-98088709D01*
X142598385Y-97968482D01*
X142551475Y-97855230D01*
X142483372Y-97753307D01*
X142396693Y-97666628D01*
X142294770Y-97598525D01*
X142181518Y-97551615D01*
X142061291Y-97527700D01*
X141938709Y-97527700D01*
X141818482Y-97551615D01*
X141705230Y-97598525D01*
X141603307Y-97666628D01*
X141599335Y-97670600D01*
X140098574Y-97670600D01*
X137172300Y-94744327D01*
X137172300Y-94738709D01*
X137148385Y-94618482D01*
X137101475Y-94505230D01*
X137033372Y-94403307D01*
X136946693Y-94316628D01*
X136844770Y-94248525D01*
X136731518Y-94201615D01*
X136611291Y-94177700D01*
X136488709Y-94177700D01*
X136368482Y-94201615D01*
X136255230Y-94248525D01*
X136153307Y-94316628D01*
X136066628Y-94403307D01*
X135998525Y-94505230D01*
X135951615Y-94618482D01*
X135927700Y-94738709D01*
X126099416Y-94738709D01*
X127337301Y-93700000D01*
X137861928Y-93700000D01*
X137874188Y-93824482D01*
X137910498Y-93944180D01*
X137969463Y-94054494D01*
X138048815Y-94151185D01*
X138145506Y-94230537D01*
X138255820Y-94289502D01*
X138375518Y-94325812D01*
X138500000Y-94338072D01*
X139714250Y-94335000D01*
X139873000Y-94176250D01*
X139873000Y-92327000D01*
X140127000Y-92327000D01*
X140127000Y-94176250D01*
X140285750Y-94335000D01*
X141500000Y-94338072D01*
X141624482Y-94325812D01*
X141744180Y-94289502D01*
X141854494Y-94230537D01*
X141951185Y-94151185D01*
X142030537Y-94054494D01*
X142059665Y-94000000D01*
X149219249Y-94000000D01*
X149219249Y-97000000D01*
X149224644Y-97054772D01*
X149240620Y-97107439D01*
X149266564Y-97155977D01*
X149301479Y-97198521D01*
X149344023Y-97233436D01*
X149392561Y-97259380D01*
X149445228Y-97275356D01*
X149500000Y-97280751D01*
X152500000Y-97280751D01*
X152554772Y-97275356D01*
X152607439Y-97259380D01*
X152655977Y-97233436D01*
X152698521Y-97198521D01*
X152733436Y-97155977D01*
X152759380Y-97107439D01*
X152775356Y-97054772D01*
X152780751Y-97000000D01*
X152780751Y-94000000D01*
X152775356Y-93945228D01*
X152759380Y-93892561D01*
X152733436Y-93844023D01*
X152698521Y-93801479D01*
X152655977Y-93766564D01*
X152607439Y-93740620D01*
X152554772Y-93724644D01*
X152500000Y-93719249D01*
X149500000Y-93719249D01*
X149445228Y-93724644D01*
X149392561Y-93740620D01*
X149344023Y-93766564D01*
X149301479Y-93801479D01*
X149266564Y-93844023D01*
X149240620Y-93892561D01*
X149224644Y-93945228D01*
X149219249Y-94000000D01*
X142059665Y-94000000D01*
X142089502Y-93944180D01*
X142125812Y-93824482D01*
X142138072Y-93700000D01*
X142135000Y-92485750D01*
X141976250Y-92327000D01*
X140127000Y-92327000D01*
X139873000Y-92327000D01*
X138023750Y-92327000D01*
X137865000Y-92485750D01*
X137861928Y-93700000D01*
X127337301Y-93700000D01*
X127431755Y-93620744D01*
X128907127Y-92587678D01*
X130466923Y-91687129D01*
X132099271Y-90925953D01*
X132720071Y-90700000D01*
X137861928Y-90700000D01*
X137865000Y-91914250D01*
X138023750Y-92073000D01*
X139873000Y-92073000D01*
X139873000Y-90223750D01*
X140127000Y-90223750D01*
X140127000Y-92073000D01*
X141976250Y-92073000D01*
X142135000Y-91914250D01*
X142138072Y-90700000D01*
X142125812Y-90575518D01*
X142089502Y-90455820D01*
X142030537Y-90345506D01*
X141951185Y-90248815D01*
X141854494Y-90169463D01*
X141744180Y-90110498D01*
X141624482Y-90074188D01*
X141500000Y-90061928D01*
X140285750Y-90065000D01*
X140127000Y-90223750D01*
X139873000Y-90223750D01*
X139714250Y-90065000D01*
X138500000Y-90061928D01*
X138375518Y-90074188D01*
X138255820Y-90110498D01*
X138145506Y-90169463D01*
X138048815Y-90248815D01*
X137969463Y-90345506D01*
X137910498Y-90455820D01*
X137874188Y-90575518D01*
X137861928Y-90700000D01*
X132720071Y-90700000D01*
X133791748Y-90309941D01*
X135531474Y-89843783D01*
X137305208Y-89531026D01*
X139099452Y-89374050D01*
X140900548Y-89374050D01*
X142694792Y-89531026D01*
G36*
X140598000Y-122873000D02*
G01*
X140697000Y-122873000D01*
X140697000Y-123127000D01*
X140598000Y-123127000D01*
X140598000Y-123223750D01*
X140502000Y-123127750D01*
X140502000Y-123127000D01*
X139898000Y-123127000D01*
X139898000Y-123127750D01*
X139802000Y-123223750D01*
X139802000Y-123127000D01*
X139703000Y-123127000D01*
X139703000Y-122873000D01*
X139802000Y-122873000D01*
X139802000Y-122776250D01*
X139898000Y-122872250D01*
X139898000Y-122873000D01*
X140502000Y-122873000D01*
X140502000Y-122872250D01*
X140598000Y-122776250D01*
X140598000Y-122873000D01*
G37*
X140598000Y-122873000D02*
X140697000Y-122873000D01*
X140697000Y-123127000D01*
X140598000Y-123127000D01*
X140598000Y-123223750D01*
X140502000Y-123127750D01*
X140502000Y-123127000D01*
X139898000Y-123127000D01*
X139898000Y-123127750D01*
X139802000Y-123223750D01*
X139802000Y-123127000D01*
X139703000Y-123127000D01*
X139703000Y-122873000D01*
X139802000Y-122873000D01*
X139802000Y-122776250D01*
X139898000Y-122872250D01*
X139898000Y-122873000D01*
X140502000Y-122873000D01*
X140502000Y-122872250D01*
X140598000Y-122776250D01*
X140598000Y-122873000D01*
M02*
