G04 #@! TF.GenerationSoftware,KiCad,Pcbnew,(5.1.6)-1*
G04 #@! TF.CreationDate,2020-05-24T14:26:43-05:00*
G04 #@! TF.ProjectId,nrf,6e72662e-6b69-4636-9164-5f7063625858,rev?*
G04 #@! TF.SameCoordinates,Original*
G04 #@! TF.FileFunction,Paste,Top*
G04 #@! TF.FilePolarity,Positive*
%FSLAX46Y46*%
G04 Gerber Fmt 4.6, Leading zero omitted, Abs format (unit mm)*
G04 Created by KiCad (PCBNEW (5.1.6)-1) date 2020-05-24 14:26:43*
%MOMM*%
%LPD*%
G01*
G04 APERTURE LIST*
%ADD10R,1.200000X0.750000*%
%ADD11R,0.400000X0.600000*%
%ADD12R,0.600000X0.400000*%
%ADD13R,0.600000X0.300000*%
%ADD14R,0.750000X1.200000*%
%ADD15R,0.600000X0.450000*%
%ADD16C,0.100000*%
%ADD17R,1.200000X1.200000*%
%ADD18R,0.800000X1.500000*%
%ADD19R,1.300000X0.800000*%
%ADD20R,0.800000X0.900000*%
%ADD21R,0.900000X0.800000*%
%ADD22R,1.200000X0.900000*%
%ADD23R,0.900000X1.200000*%
%ADD24R,0.300000X0.350000*%
%ADD25R,0.350000X0.300000*%
%ADD26R,0.300000X0.730000*%
%ADD27R,0.730000X0.300000*%
%ADD28R,0.750000X0.750000*%
%ADD29R,1.060000X0.650000*%
G04 APERTURE END LIST*
D10*
X147900000Y-99800000D03*
X146000000Y-99800000D03*
D11*
X123750000Y-114650000D03*
X124850000Y-114650000D03*
X125650000Y-114650000D03*
X127250000Y-114650000D03*
X127650000Y-113750000D03*
X128050000Y-114650000D03*
X128450000Y-113750000D03*
X128850000Y-114650000D03*
X129250000Y-113750000D03*
X129650000Y-114650000D03*
X130050000Y-113750000D03*
X130450000Y-114650000D03*
X130850000Y-113750000D03*
X131250000Y-114650000D03*
D12*
X134650000Y-114800000D03*
X134650000Y-114000000D03*
X134650000Y-113200000D03*
X134650000Y-112400000D03*
X133750000Y-112000000D03*
X134650000Y-111600000D03*
X133750000Y-111200000D03*
X134650000Y-110800000D03*
X133750000Y-110400000D03*
X134650000Y-110000000D03*
X133750000Y-109600000D03*
X134650000Y-109200000D03*
X133750000Y-108800000D03*
X134650000Y-108400000D03*
X133750000Y-108000000D03*
X134650000Y-107600000D03*
X134650000Y-106800000D03*
X134650000Y-106000000D03*
X134650000Y-105200000D03*
D11*
X133650000Y-105350000D03*
X132850000Y-105350000D03*
X132450000Y-106250000D03*
X132050000Y-105350000D03*
X131650000Y-106250000D03*
X131250000Y-105350000D03*
X130850000Y-106250000D03*
X130450000Y-105350000D03*
X130050000Y-106250000D03*
X129250000Y-106250000D03*
X128850000Y-105350000D03*
X128450000Y-106250000D03*
X128050000Y-105350000D03*
X127650000Y-106250000D03*
X127250000Y-105350000D03*
X126850000Y-106250000D03*
X126050000Y-106250000D03*
X125650000Y-105350000D03*
X125250000Y-106250000D03*
X124850000Y-105350000D03*
X124450000Y-106250000D03*
X123750000Y-105350000D03*
D12*
X128050000Y-112000000D03*
X128050000Y-111200000D03*
X128050000Y-110400000D03*
X128050000Y-109600000D03*
X128050000Y-108800000D03*
X128050000Y-108000000D03*
D13*
X130648880Y-101084080D03*
X130648880Y-101884080D03*
X130648880Y-102684080D03*
X130648880Y-103484080D03*
X128248880Y-103484080D03*
X128248880Y-101084080D03*
X128248880Y-101884080D03*
X128248880Y-102684080D03*
D14*
X139900000Y-114650000D03*
X139900000Y-116550000D03*
X125900000Y-118700000D03*
X125900000Y-116800000D03*
D10*
X141300000Y-124950000D03*
X143200000Y-124950000D03*
D14*
X139850000Y-111100000D03*
X139850000Y-113000000D03*
X127100000Y-118650000D03*
X127100000Y-116750000D03*
D10*
X138450000Y-107600000D03*
X136550000Y-107600000D03*
D15*
X149250000Y-114900000D03*
X147150000Y-114900000D03*
D16*
G36*
X153990319Y-96002644D02*
G01*
X155080590Y-95294613D01*
X155516301Y-95965550D01*
X154426030Y-96673581D01*
X153990319Y-96002644D01*
G37*
G36*
X158238503Y-102544275D02*
G01*
X159328774Y-101836244D01*
X159764485Y-102507181D01*
X158674214Y-103215212D01*
X158238503Y-102544275D01*
G37*
G36*
X154409653Y-95730325D02*
G01*
X155080590Y-95294613D01*
X155897549Y-96552619D01*
X155226612Y-96988331D01*
X154409653Y-95730325D01*
G37*
G36*
X158276590Y-101684886D02*
G01*
X158947527Y-101249174D01*
X159764486Y-102507180D01*
X159093549Y-102942892D01*
X158276590Y-101684886D01*
G37*
G36*
X153310200Y-98352099D02*
G01*
X154316605Y-97698532D01*
X154970172Y-98704937D01*
X153963767Y-99358504D01*
X153310200Y-98352099D01*
G37*
G36*
X155597684Y-101874516D02*
G01*
X156604089Y-101220949D01*
X157257656Y-102227354D01*
X156251251Y-102880921D01*
X155597684Y-101874516D01*
G37*
D17*
X158050000Y-112100000D03*
X158050000Y-107900000D03*
D18*
X160200000Y-113550000D03*
X160200000Y-106450000D03*
D19*
X159950000Y-113900000D03*
X159950000Y-106100000D03*
D16*
G36*
X158302549Y-117362930D02*
G01*
X159367446Y-118108580D01*
X158908585Y-118763902D01*
X157843688Y-118018252D01*
X158302549Y-117362930D01*
G37*
G36*
X153828652Y-123752316D02*
G01*
X154893549Y-124497966D01*
X154434688Y-125153288D01*
X153369791Y-124407638D01*
X153828652Y-123752316D01*
G37*
G36*
X158712125Y-117649719D02*
G01*
X159367446Y-118108581D01*
X158507081Y-119337309D01*
X157851760Y-118878447D01*
X158712125Y-117649719D01*
G37*
G36*
X154639732Y-123465698D02*
G01*
X155295053Y-123924560D01*
X154434688Y-125153288D01*
X153779367Y-124694426D01*
X154639732Y-123465698D01*
G37*
G36*
X155869395Y-117612458D02*
G01*
X156852377Y-118300750D01*
X156164085Y-119283732D01*
X155181103Y-118595440D01*
X155869395Y-117612458D01*
G37*
G36*
X153460374Y-121052896D02*
G01*
X154443356Y-121741188D01*
X153755064Y-122724170D01*
X152772082Y-122035878D01*
X153460374Y-121052896D01*
G37*
G36*
G01*
X148450000Y-117400000D02*
X148750000Y-117400000D01*
G75*
G02*
X148900000Y-117550000I0J-150000D01*
G01*
X148900000Y-118450000D01*
G75*
G02*
X148750000Y-118600000I-150000J0D01*
G01*
X148450000Y-118600000D01*
G75*
G02*
X148300000Y-118450000I0J150000D01*
G01*
X148300000Y-117550000D01*
G75*
G02*
X148450000Y-117400000I150000J0D01*
G01*
G37*
G36*
G01*
X147250000Y-117400000D02*
X147550000Y-117400000D01*
G75*
G02*
X147700000Y-117550000I0J-150000D01*
G01*
X147700000Y-118450000D01*
G75*
G02*
X147550000Y-118600000I-150000J0D01*
G01*
X147250000Y-118600000D01*
G75*
G02*
X147100000Y-118450000I0J150000D01*
G01*
X147100000Y-117550000D01*
G75*
G02*
X147250000Y-117400000I150000J0D01*
G01*
G37*
D20*
X134150000Y-118000000D03*
X132250000Y-118000000D03*
X133200000Y-120000000D03*
D21*
X148000000Y-116100000D03*
X146000000Y-117050000D03*
X146000000Y-115150000D03*
D20*
X136500000Y-120000000D03*
X135550000Y-118000000D03*
X137450000Y-118000000D03*
X130850000Y-118000000D03*
X128950000Y-118000000D03*
X129900000Y-120000000D03*
D22*
X144900000Y-113800000D03*
X147100000Y-113800000D03*
X132300000Y-116600000D03*
X134500000Y-116600000D03*
D23*
X131700000Y-123700000D03*
X131700000Y-121500000D03*
D22*
X138300000Y-116600000D03*
X136100000Y-116600000D03*
X128500000Y-116600000D03*
X130700000Y-116600000D03*
D23*
X133100000Y-121500000D03*
X133100000Y-123700000D03*
X130300000Y-123700000D03*
X130300000Y-121500000D03*
X144700000Y-115300000D03*
X144700000Y-117500000D03*
X136400000Y-125200000D03*
X136400000Y-127400000D03*
X138400000Y-127400000D03*
X138400000Y-125200000D03*
D10*
X148750000Y-107500000D03*
X146850000Y-107500000D03*
X147300000Y-101500000D03*
X149200000Y-101500000D03*
D24*
X147350000Y-105025000D03*
X147850000Y-105025000D03*
X148350000Y-105025000D03*
X148850000Y-105025000D03*
D25*
X148875000Y-104500000D03*
X148875000Y-104000000D03*
D24*
X148850000Y-103475000D03*
X148350000Y-103475000D03*
X147850000Y-103475000D03*
X147350000Y-103475000D03*
D25*
X147325000Y-104000000D03*
X147325000Y-104500000D03*
D23*
X150950000Y-105100000D03*
X150950000Y-107300000D03*
X145250000Y-102000000D03*
X145250000Y-104200000D03*
D10*
X140650000Y-100200000D03*
X142550000Y-100200000D03*
D14*
X149700000Y-99000000D03*
X149700000Y-97100000D03*
D10*
X146000000Y-98400000D03*
X147900000Y-98400000D03*
D22*
X132750000Y-97500000D03*
X134950000Y-97500000D03*
X137950000Y-94750000D03*
X140150000Y-94750000D03*
X141950000Y-94750000D03*
X144150000Y-94750000D03*
X137950000Y-102000000D03*
X135750000Y-102000000D03*
X141900000Y-102000000D03*
X139700000Y-102000000D03*
X132750000Y-96000000D03*
X134950000Y-96000000D03*
D26*
X139425000Y-96210000D03*
X138925000Y-96210000D03*
X138425000Y-96210000D03*
X137925000Y-96210000D03*
X137425000Y-96210000D03*
D27*
X136460000Y-97175000D03*
X136460000Y-97675000D03*
X136460000Y-98175000D03*
X136460000Y-98675000D03*
X136460000Y-99175000D03*
D26*
X137425000Y-100140000D03*
X137925000Y-100140000D03*
X138425000Y-100140000D03*
X138925000Y-100140000D03*
X139425000Y-100140000D03*
D27*
X140390000Y-99175000D03*
X140390000Y-98675000D03*
X140390000Y-98175000D03*
X140390000Y-97675000D03*
X140390000Y-97175000D03*
D28*
X137800000Y-98800000D03*
X139050000Y-98800000D03*
X137800000Y-97550000D03*
X139050000Y-97550000D03*
D29*
X145950000Y-94900000D03*
X145950000Y-95850000D03*
X145950000Y-96800000D03*
X148150000Y-96800000D03*
X148150000Y-94900000D03*
D16*
G36*
X126630209Y-124407638D02*
G01*
X125565312Y-125153288D01*
X125106451Y-124497966D01*
X126171348Y-123752316D01*
X126630209Y-124407638D01*
G37*
G36*
X122156312Y-118018252D02*
G01*
X121091415Y-118763902D01*
X120632554Y-118108580D01*
X121697451Y-117362930D01*
X122156312Y-118018252D01*
G37*
G36*
X126220633Y-124694426D02*
G01*
X125565312Y-125153288D01*
X124704947Y-123924560D01*
X125360268Y-123465698D01*
X126220633Y-124694426D01*
G37*
G36*
X122148240Y-118878447D02*
G01*
X121492919Y-119337309D01*
X120632554Y-118108581D01*
X121287875Y-117649719D01*
X122148240Y-118878447D01*
G37*
G36*
X127227918Y-122035878D02*
G01*
X126244936Y-122724170D01*
X125556644Y-121741188D01*
X126539626Y-121052896D01*
X127227918Y-122035878D01*
G37*
G36*
X124818897Y-118595440D02*
G01*
X123835915Y-119283732D01*
X123147623Y-118300750D01*
X124130605Y-117612458D01*
X124818897Y-118595440D01*
G37*
G36*
X124963090Y-99798716D02*
G01*
X123570531Y-98823636D01*
X124086750Y-98086400D01*
X125479309Y-99061480D01*
X124963090Y-99798716D01*
G37*
G36*
X126913250Y-97013600D02*
G01*
X125520691Y-96038520D01*
X126036910Y-95301284D01*
X127429469Y-96276364D01*
X126913250Y-97013600D01*
G37*
D10*
X142000000Y-96250000D03*
X143900000Y-96250000D03*
M02*
