M48
; DRILL file {KiCad (5.1.6)-1} date 05/23/20 09:11:39
; FORMAT={-:-/ absolute / metric / decimal}
; #@! TF.CreationDate,2020-05-23T09:11:39-05:00
; #@! TF.GenerationSoftware,Kicad,Pcbnew,(5.1.6)-1
FMAT,2
METRIC
T1C0.330
T2C0.650
T3C0.900
%
G90
G05
T1
X123.7Y-106.3
X123.7Y-115.6
X123.75Y-104.4
X124.9Y-115.6
X125.9Y-119.9
X126.35Y-103.75
X127.0Y-119.8
X127.198Y-102.873
X127.3Y-121.2
X130.2Y-96.3
X130.536Y-107.476
X133.7Y-94.95
X134.7Y-104.35
X134.95Y-97.5
X135.6Y-114.8
X135.65Y-105.15
X135.65Y-106.0
X135.8Y-100.95
X136.4Y-128.6
X136.5Y-100.1
X136.55Y-94.8
X138.4Y-128.6
X138.45Y-106.6
X138.8Y-113.0
X138.9Y-114.5
X142.0Y-98.15
X142.5Y-99.25
X142.8Y-107.75
X143.0Y-105.0
X143.1Y-102.0
X143.2Y-125.9
X143.85Y-96.3
X144.05Y-93.95
X144.8Y-96.1
X144.8Y-97.95
X144.8Y-99.15
X145.85Y-118.1
X149.55Y-100.25
X153.0Y-98.9
X156.6Y-117.2
X157.7Y-109.1
T2
X124.104Y-102.196
X125.002Y-101.298
X125.9Y-100.4
X126.798Y-99.502
X127.696Y-98.604
T3
X155.874Y-98.536
X157.126Y-100.464
X159.5Y-108.85
X159.5Y-111.15
X155.34Y-121.942
X156.66Y-120.058
X123.34Y-120.058
X124.66Y-121.942
T0
M30
