G04 #@! TF.GenerationSoftware,KiCad,Pcbnew,(5.1.2)-2*
G04 #@! TF.CreationDate,2019-07-04T08:41:48-05:00*
G04 #@! TF.ProjectId,vibr,76696272-2e6b-4696-9361-645f70636258,rev?*
G04 #@! TF.SameCoordinates,Original*
G04 #@! TF.FileFunction,Copper,L2,Bot*
G04 #@! TF.FilePolarity,Positive*
%FSLAX46Y46*%
G04 Gerber Fmt 4.6, Leading zero omitted, Abs format (unit mm)*
G04 Created by KiCad (PCBNEW (5.1.2)-2) date 2019-07-04 08:41:48*
%MOMM*%
%LPD*%
G04 APERTURE LIST*
%ADD10R,1.700000X1.700000*%
%ADD11O,1.700000X1.700000*%
%ADD12C,0.800000*%
%ADD13C,0.250000*%
%ADD14C,0.254000*%
G04 APERTURE END LIST*
D10*
X120390000Y-115670000D03*
D11*
X122930000Y-115670000D03*
X125470000Y-115670000D03*
D12*
X123810000Y-110720000D03*
X119611549Y-114450011D03*
X125760000Y-113540000D03*
X122040000Y-111880000D03*
D13*
X125760000Y-113540000D02*
X123680000Y-113540000D01*
X123680000Y-113540000D02*
X122070000Y-111930000D01*
D14*
G36*
X129780027Y-108982431D02*
G01*
X129789577Y-109079395D01*
X129827317Y-109203805D01*
X129888602Y-109318462D01*
X129971079Y-109418961D01*
X130071577Y-109501438D01*
X130186234Y-109562723D01*
X130310644Y-109600463D01*
X130440027Y-109613206D01*
X130441061Y-109613104D01*
X131035698Y-109669799D01*
X131607287Y-109840701D01*
X132134794Y-110119371D01*
X132598131Y-110495195D01*
X132979641Y-110953854D01*
X133264798Y-111477876D01*
X133442742Y-112047312D01*
X133506693Y-112640462D01*
X133454215Y-113234745D01*
X133287310Y-113807505D01*
X133012328Y-114336948D01*
X132639751Y-114802893D01*
X132183767Y-115187597D01*
X131661740Y-115476409D01*
X131093563Y-115658322D01*
X130475541Y-115729323D01*
X130450000Y-115726807D01*
X130320617Y-115739550D01*
X130196207Y-115777290D01*
X130081550Y-115838575D01*
X129981052Y-115921052D01*
X129898575Y-116021551D01*
X129837290Y-116136208D01*
X129799550Y-116260618D01*
X129790000Y-116357582D01*
X129790000Y-116590000D01*
X126636036Y-116590000D01*
X126710706Y-116499014D01*
X126848599Y-116241034D01*
X126933513Y-115961111D01*
X126962185Y-115670000D01*
X126933513Y-115378889D01*
X126848599Y-115098966D01*
X126710706Y-114840986D01*
X126525134Y-114614866D01*
X126299014Y-114429294D01*
X126295133Y-114427219D01*
X126419774Y-114343937D01*
X126563937Y-114199774D01*
X126677205Y-114030256D01*
X126755226Y-113841898D01*
X126795000Y-113641939D01*
X126795000Y-113438061D01*
X126755226Y-113238102D01*
X126677205Y-113049744D01*
X126563937Y-112880226D01*
X126419774Y-112736063D01*
X126250256Y-112622795D01*
X126061898Y-112544774D01*
X125861939Y-112505000D01*
X125658061Y-112505000D01*
X125458102Y-112544774D01*
X125269744Y-112622795D01*
X125100226Y-112736063D01*
X125056289Y-112780000D01*
X123994802Y-112780000D01*
X123075000Y-111860199D01*
X123075000Y-111778061D01*
X123035226Y-111578102D01*
X122957205Y-111389744D01*
X122843937Y-111220226D01*
X122699774Y-111076063D01*
X122530256Y-110962795D01*
X122341898Y-110884774D01*
X122141939Y-110845000D01*
X121938061Y-110845000D01*
X121738102Y-110884774D01*
X121549744Y-110962795D01*
X121380226Y-111076063D01*
X121236063Y-111220226D01*
X121122795Y-111389744D01*
X121044774Y-111578102D01*
X121005000Y-111778061D01*
X121005000Y-111981939D01*
X121044774Y-112181898D01*
X121122795Y-112370256D01*
X121236063Y-112539774D01*
X121380226Y-112683937D01*
X121549744Y-112797205D01*
X121738102Y-112875226D01*
X121938061Y-112915000D01*
X121980199Y-112915000D01*
X123116201Y-114051003D01*
X123139999Y-114080001D01*
X123255724Y-114174974D01*
X123387753Y-114245546D01*
X123531014Y-114289003D01*
X123642667Y-114300000D01*
X123642677Y-114300000D01*
X123680000Y-114303676D01*
X123717323Y-114300000D01*
X124882878Y-114300000D01*
X124640986Y-114429294D01*
X124414866Y-114614866D01*
X124229294Y-114840986D01*
X124200000Y-114895791D01*
X124170706Y-114840986D01*
X123985134Y-114614866D01*
X123759014Y-114429294D01*
X123501034Y-114291401D01*
X123221111Y-114206487D01*
X123002950Y-114185000D01*
X122857050Y-114185000D01*
X122638889Y-114206487D01*
X122358966Y-114291401D01*
X122100986Y-114429294D01*
X121874866Y-114614866D01*
X121850393Y-114644687D01*
X121829502Y-114575820D01*
X121770537Y-114465506D01*
X121691185Y-114368815D01*
X121594494Y-114289463D01*
X121484180Y-114230498D01*
X121364482Y-114194188D01*
X121240000Y-114181928D01*
X120675750Y-114185000D01*
X120517000Y-114343750D01*
X120517000Y-115543000D01*
X120537000Y-115543000D01*
X120537000Y-115797000D01*
X120517000Y-115797000D01*
X120517000Y-115817000D01*
X120263000Y-115817000D01*
X120263000Y-115797000D01*
X120243000Y-115797000D01*
X120243000Y-115543000D01*
X120263000Y-115543000D01*
X120263000Y-114343750D01*
X120104250Y-114185000D01*
X119646576Y-114182508D01*
X119658586Y-108580000D01*
X129780027Y-108580000D01*
X129780027Y-108982431D01*
X129780027Y-108982431D01*
G37*
X129780027Y-108982431D02*
X129789577Y-109079395D01*
X129827317Y-109203805D01*
X129888602Y-109318462D01*
X129971079Y-109418961D01*
X130071577Y-109501438D01*
X130186234Y-109562723D01*
X130310644Y-109600463D01*
X130440027Y-109613206D01*
X130441061Y-109613104D01*
X131035698Y-109669799D01*
X131607287Y-109840701D01*
X132134794Y-110119371D01*
X132598131Y-110495195D01*
X132979641Y-110953854D01*
X133264798Y-111477876D01*
X133442742Y-112047312D01*
X133506693Y-112640462D01*
X133454215Y-113234745D01*
X133287310Y-113807505D01*
X133012328Y-114336948D01*
X132639751Y-114802893D01*
X132183767Y-115187597D01*
X131661740Y-115476409D01*
X131093563Y-115658322D01*
X130475541Y-115729323D01*
X130450000Y-115726807D01*
X130320617Y-115739550D01*
X130196207Y-115777290D01*
X130081550Y-115838575D01*
X129981052Y-115921052D01*
X129898575Y-116021551D01*
X129837290Y-116136208D01*
X129799550Y-116260618D01*
X129790000Y-116357582D01*
X129790000Y-116590000D01*
X126636036Y-116590000D01*
X126710706Y-116499014D01*
X126848599Y-116241034D01*
X126933513Y-115961111D01*
X126962185Y-115670000D01*
X126933513Y-115378889D01*
X126848599Y-115098966D01*
X126710706Y-114840986D01*
X126525134Y-114614866D01*
X126299014Y-114429294D01*
X126295133Y-114427219D01*
X126419774Y-114343937D01*
X126563937Y-114199774D01*
X126677205Y-114030256D01*
X126755226Y-113841898D01*
X126795000Y-113641939D01*
X126795000Y-113438061D01*
X126755226Y-113238102D01*
X126677205Y-113049744D01*
X126563937Y-112880226D01*
X126419774Y-112736063D01*
X126250256Y-112622795D01*
X126061898Y-112544774D01*
X125861939Y-112505000D01*
X125658061Y-112505000D01*
X125458102Y-112544774D01*
X125269744Y-112622795D01*
X125100226Y-112736063D01*
X125056289Y-112780000D01*
X123994802Y-112780000D01*
X123075000Y-111860199D01*
X123075000Y-111778061D01*
X123035226Y-111578102D01*
X122957205Y-111389744D01*
X122843937Y-111220226D01*
X122699774Y-111076063D01*
X122530256Y-110962795D01*
X122341898Y-110884774D01*
X122141939Y-110845000D01*
X121938061Y-110845000D01*
X121738102Y-110884774D01*
X121549744Y-110962795D01*
X121380226Y-111076063D01*
X121236063Y-111220226D01*
X121122795Y-111389744D01*
X121044774Y-111578102D01*
X121005000Y-111778061D01*
X121005000Y-111981939D01*
X121044774Y-112181898D01*
X121122795Y-112370256D01*
X121236063Y-112539774D01*
X121380226Y-112683937D01*
X121549744Y-112797205D01*
X121738102Y-112875226D01*
X121938061Y-112915000D01*
X121980199Y-112915000D01*
X123116201Y-114051003D01*
X123139999Y-114080001D01*
X123255724Y-114174974D01*
X123387753Y-114245546D01*
X123531014Y-114289003D01*
X123642667Y-114300000D01*
X123642677Y-114300000D01*
X123680000Y-114303676D01*
X123717323Y-114300000D01*
X124882878Y-114300000D01*
X124640986Y-114429294D01*
X124414866Y-114614866D01*
X124229294Y-114840986D01*
X124200000Y-114895791D01*
X124170706Y-114840986D01*
X123985134Y-114614866D01*
X123759014Y-114429294D01*
X123501034Y-114291401D01*
X123221111Y-114206487D01*
X123002950Y-114185000D01*
X122857050Y-114185000D01*
X122638889Y-114206487D01*
X122358966Y-114291401D01*
X122100986Y-114429294D01*
X121874866Y-114614866D01*
X121850393Y-114644687D01*
X121829502Y-114575820D01*
X121770537Y-114465506D01*
X121691185Y-114368815D01*
X121594494Y-114289463D01*
X121484180Y-114230498D01*
X121364482Y-114194188D01*
X121240000Y-114181928D01*
X120675750Y-114185000D01*
X120517000Y-114343750D01*
X120517000Y-115543000D01*
X120537000Y-115543000D01*
X120537000Y-115797000D01*
X120517000Y-115797000D01*
X120517000Y-115817000D01*
X120263000Y-115817000D01*
X120263000Y-115797000D01*
X120243000Y-115797000D01*
X120243000Y-115543000D01*
X120263000Y-115543000D01*
X120263000Y-114343750D01*
X120104250Y-114185000D01*
X119646576Y-114182508D01*
X119658586Y-108580000D01*
X129780027Y-108580000D01*
X129780027Y-108982431D01*
M02*
