G04 #@! TF.GenerationSoftware,KiCad,Pcbnew,(5.1.2)-2*
G04 #@! TF.CreationDate,2019-07-04T08:41:49-05:00*
G04 #@! TF.ProjectId,vibr,76696272-2e6b-4696-9361-645f70636258,rev?*
G04 #@! TF.SameCoordinates,Original*
G04 #@! TF.FileFunction,Paste,Top*
G04 #@! TF.FilePolarity,Positive*
%FSLAX46Y46*%
G04 Gerber Fmt 4.6, Leading zero omitted, Abs format (unit mm)*
G04 Created by KiCad (PCBNEW (5.1.2)-2) date 2019-07-04 08:41:49*
%MOMM*%
%LPD*%
G04 APERTURE LIST*
%ADD10R,1.300000X0.700000*%
%ADD11R,0.400000X0.600000*%
%ADD12C,0.100000*%
%ADD13C,0.600000*%
G04 APERTURE END LIST*
D10*
X123830000Y-108820000D03*
X123830000Y-110720000D03*
X125930000Y-108770000D03*
X125930000Y-110670000D03*
D11*
X121940000Y-113100000D03*
X121940000Y-110300000D03*
X121290000Y-113100000D03*
X120640000Y-113100000D03*
X119990000Y-113100000D03*
X121290000Y-110300000D03*
X120640000Y-110300000D03*
X119990000Y-110300000D03*
D12*
G36*
X123874703Y-111770722D02*
G01*
X123889264Y-111772882D01*
X123903543Y-111776459D01*
X123917403Y-111781418D01*
X123930710Y-111787712D01*
X123943336Y-111795280D01*
X123955159Y-111804048D01*
X123966066Y-111813934D01*
X123975952Y-111824841D01*
X123984720Y-111836664D01*
X123992288Y-111849290D01*
X123998582Y-111862597D01*
X124003541Y-111876457D01*
X124007118Y-111890736D01*
X124009278Y-111905297D01*
X124010000Y-111920000D01*
X124010000Y-112220000D01*
X124009278Y-112234703D01*
X124007118Y-112249264D01*
X124003541Y-112263543D01*
X123998582Y-112277403D01*
X123992288Y-112290710D01*
X123984720Y-112303336D01*
X123975952Y-112315159D01*
X123966066Y-112326066D01*
X123955159Y-112335952D01*
X123943336Y-112344720D01*
X123930710Y-112352288D01*
X123917403Y-112358582D01*
X123903543Y-112363541D01*
X123889264Y-112367118D01*
X123874703Y-112369278D01*
X123860000Y-112370000D01*
X122960000Y-112370000D01*
X122945297Y-112369278D01*
X122930736Y-112367118D01*
X122916457Y-112363541D01*
X122902597Y-112358582D01*
X122889290Y-112352288D01*
X122876664Y-112344720D01*
X122864841Y-112335952D01*
X122853934Y-112326066D01*
X122844048Y-112315159D01*
X122835280Y-112303336D01*
X122827712Y-112290710D01*
X122821418Y-112277403D01*
X122816459Y-112263543D01*
X122812882Y-112249264D01*
X122810722Y-112234703D01*
X122810000Y-112220000D01*
X122810000Y-111920000D01*
X122810722Y-111905297D01*
X122812882Y-111890736D01*
X122816459Y-111876457D01*
X122821418Y-111862597D01*
X122827712Y-111849290D01*
X122835280Y-111836664D01*
X122844048Y-111824841D01*
X122853934Y-111813934D01*
X122864841Y-111804048D01*
X122876664Y-111795280D01*
X122889290Y-111787712D01*
X122902597Y-111781418D01*
X122916457Y-111776459D01*
X122930736Y-111772882D01*
X122945297Y-111770722D01*
X122960000Y-111770000D01*
X123860000Y-111770000D01*
X123874703Y-111770722D01*
X123874703Y-111770722D01*
G37*
D13*
X123410000Y-112070000D03*
D12*
G36*
X123874703Y-112970722D02*
G01*
X123889264Y-112972882D01*
X123903543Y-112976459D01*
X123917403Y-112981418D01*
X123930710Y-112987712D01*
X123943336Y-112995280D01*
X123955159Y-113004048D01*
X123966066Y-113013934D01*
X123975952Y-113024841D01*
X123984720Y-113036664D01*
X123992288Y-113049290D01*
X123998582Y-113062597D01*
X124003541Y-113076457D01*
X124007118Y-113090736D01*
X124009278Y-113105297D01*
X124010000Y-113120000D01*
X124010000Y-113420000D01*
X124009278Y-113434703D01*
X124007118Y-113449264D01*
X124003541Y-113463543D01*
X123998582Y-113477403D01*
X123992288Y-113490710D01*
X123984720Y-113503336D01*
X123975952Y-113515159D01*
X123966066Y-113526066D01*
X123955159Y-113535952D01*
X123943336Y-113544720D01*
X123930710Y-113552288D01*
X123917403Y-113558582D01*
X123903543Y-113563541D01*
X123889264Y-113567118D01*
X123874703Y-113569278D01*
X123860000Y-113570000D01*
X122960000Y-113570000D01*
X122945297Y-113569278D01*
X122930736Y-113567118D01*
X122916457Y-113563541D01*
X122902597Y-113558582D01*
X122889290Y-113552288D01*
X122876664Y-113544720D01*
X122864841Y-113535952D01*
X122853934Y-113526066D01*
X122844048Y-113515159D01*
X122835280Y-113503336D01*
X122827712Y-113490710D01*
X122821418Y-113477403D01*
X122816459Y-113463543D01*
X122812882Y-113449264D01*
X122810722Y-113434703D01*
X122810000Y-113420000D01*
X122810000Y-113120000D01*
X122810722Y-113105297D01*
X122812882Y-113090736D01*
X122816459Y-113076457D01*
X122821418Y-113062597D01*
X122827712Y-113049290D01*
X122835280Y-113036664D01*
X122844048Y-113024841D01*
X122853934Y-113013934D01*
X122864841Y-113004048D01*
X122876664Y-112995280D01*
X122889290Y-112987712D01*
X122902597Y-112981418D01*
X122916457Y-112976459D01*
X122930736Y-112972882D01*
X122945297Y-112970722D01*
X122960000Y-112970000D01*
X123860000Y-112970000D01*
X123874703Y-112970722D01*
X123874703Y-112970722D01*
G37*
D13*
X123410000Y-113270000D03*
M02*
