G04 #@! TF.GenerationSoftware,KiCad,Pcbnew,(5.1.2)-2*
G04 #@! TF.CreationDate,2019-07-04T08:41:49-05:00*
G04 #@! TF.ProjectId,vibr,76696272-2e6b-4696-9361-645f70636258,rev?*
G04 #@! TF.SameCoordinates,Original*
G04 #@! TF.FileFunction,Soldermask,Top*
G04 #@! TF.FilePolarity,Negative*
%FSLAX46Y46*%
G04 Gerber Fmt 4.6, Leading zero omitted, Abs format (unit mm)*
G04 Created by KiCad (PCBNEW (5.1.2)-2) date 2019-07-04 08:41:49*
%MOMM*%
%LPD*%
G04 APERTURE LIST*
%ADD10C,0.100000*%
G04 APERTURE END LIST*
D10*
G36*
X123040443Y-114775519D02*
G01*
X123106627Y-114782037D01*
X123276466Y-114833557D01*
X123432991Y-114917222D01*
X123468729Y-114946552D01*
X123570186Y-115029814D01*
X123653448Y-115131271D01*
X123682778Y-115167009D01*
X123766443Y-115323534D01*
X123817963Y-115493373D01*
X123835359Y-115670000D01*
X123817963Y-115846627D01*
X123766443Y-116016466D01*
X123682778Y-116172991D01*
X123653448Y-116208729D01*
X123570186Y-116310186D01*
X123468729Y-116393448D01*
X123432991Y-116422778D01*
X123276466Y-116506443D01*
X123106627Y-116557963D01*
X123040443Y-116564481D01*
X122974260Y-116571000D01*
X122885740Y-116571000D01*
X122819557Y-116564481D01*
X122753373Y-116557963D01*
X122583534Y-116506443D01*
X122427009Y-116422778D01*
X122391271Y-116393448D01*
X122289814Y-116310186D01*
X122206552Y-116208729D01*
X122177222Y-116172991D01*
X122093557Y-116016466D01*
X122042037Y-115846627D01*
X122024641Y-115670000D01*
X122042037Y-115493373D01*
X122093557Y-115323534D01*
X122177222Y-115167009D01*
X122206552Y-115131271D01*
X122289814Y-115029814D01*
X122391271Y-114946552D01*
X122427009Y-114917222D01*
X122583534Y-114833557D01*
X122753373Y-114782037D01*
X122819557Y-114775519D01*
X122885740Y-114769000D01*
X122974260Y-114769000D01*
X123040443Y-114775519D01*
X123040443Y-114775519D01*
G37*
G36*
X125580443Y-114775519D02*
G01*
X125646627Y-114782037D01*
X125816466Y-114833557D01*
X125972991Y-114917222D01*
X126008729Y-114946552D01*
X126110186Y-115029814D01*
X126193448Y-115131271D01*
X126222778Y-115167009D01*
X126306443Y-115323534D01*
X126357963Y-115493373D01*
X126375359Y-115670000D01*
X126357963Y-115846627D01*
X126306443Y-116016466D01*
X126222778Y-116172991D01*
X126193448Y-116208729D01*
X126110186Y-116310186D01*
X126008729Y-116393448D01*
X125972991Y-116422778D01*
X125816466Y-116506443D01*
X125646627Y-116557963D01*
X125580443Y-116564481D01*
X125514260Y-116571000D01*
X125425740Y-116571000D01*
X125359557Y-116564481D01*
X125293373Y-116557963D01*
X125123534Y-116506443D01*
X124967009Y-116422778D01*
X124931271Y-116393448D01*
X124829814Y-116310186D01*
X124746552Y-116208729D01*
X124717222Y-116172991D01*
X124633557Y-116016466D01*
X124582037Y-115846627D01*
X124564641Y-115670000D01*
X124582037Y-115493373D01*
X124633557Y-115323534D01*
X124717222Y-115167009D01*
X124746552Y-115131271D01*
X124829814Y-115029814D01*
X124931271Y-114946552D01*
X124967009Y-114917222D01*
X125123534Y-114833557D01*
X125293373Y-114782037D01*
X125359557Y-114775519D01*
X125425740Y-114769000D01*
X125514260Y-114769000D01*
X125580443Y-114775519D01*
X125580443Y-114775519D01*
G37*
G36*
X121291000Y-116571000D02*
G01*
X119489000Y-116571000D01*
X119489000Y-114769000D01*
X121291000Y-114769000D01*
X121291000Y-116571000D01*
X121291000Y-116571000D01*
G37*
G36*
X123969928Y-112921764D02*
G01*
X123991009Y-112928160D01*
X124010445Y-112938548D01*
X124027476Y-112952524D01*
X124041452Y-112969555D01*
X124051840Y-112988991D01*
X124058236Y-113010072D01*
X124061000Y-113038140D01*
X124061000Y-113501860D01*
X124058236Y-113529928D01*
X124051840Y-113551009D01*
X124041452Y-113570445D01*
X124027476Y-113587476D01*
X124010445Y-113601452D01*
X123991009Y-113611840D01*
X123969928Y-113618236D01*
X123941860Y-113621000D01*
X122878140Y-113621000D01*
X122850072Y-113618236D01*
X122828991Y-113611840D01*
X122809555Y-113601452D01*
X122792524Y-113587476D01*
X122778548Y-113570445D01*
X122768160Y-113551009D01*
X122761764Y-113529928D01*
X122759000Y-113501860D01*
X122759000Y-113038140D01*
X122761764Y-113010072D01*
X122768160Y-112988991D01*
X122778548Y-112969555D01*
X122792524Y-112952524D01*
X122809555Y-112938548D01*
X122828991Y-112928160D01*
X122850072Y-112921764D01*
X122878140Y-112919000D01*
X123941860Y-112919000D01*
X123969928Y-112921764D01*
X123969928Y-112921764D01*
G37*
G36*
X122191000Y-113451000D02*
G01*
X119739000Y-113451000D01*
X119739000Y-112749000D01*
X122191000Y-112749000D01*
X122191000Y-113451000D01*
X122191000Y-113451000D01*
G37*
G36*
X123969928Y-111721764D02*
G01*
X123991009Y-111728160D01*
X124010445Y-111738548D01*
X124027476Y-111752524D01*
X124041452Y-111769555D01*
X124051840Y-111788991D01*
X124058236Y-111810072D01*
X124061000Y-111838140D01*
X124061000Y-112301860D01*
X124058236Y-112329928D01*
X124051840Y-112351009D01*
X124041452Y-112370445D01*
X124027476Y-112387476D01*
X124010445Y-112401452D01*
X123991009Y-112411840D01*
X123969928Y-112418236D01*
X123941860Y-112421000D01*
X122878140Y-112421000D01*
X122850072Y-112418236D01*
X122828991Y-112411840D01*
X122809555Y-112401452D01*
X122792524Y-112387476D01*
X122778548Y-112370445D01*
X122768160Y-112351009D01*
X122761764Y-112329928D01*
X122759000Y-112301860D01*
X122759000Y-111838140D01*
X122761764Y-111810072D01*
X122768160Y-111788991D01*
X122778548Y-111769555D01*
X122792524Y-111752524D01*
X122809555Y-111738548D01*
X122828991Y-111728160D01*
X122850072Y-111721764D01*
X122878140Y-111719000D01*
X123941860Y-111719000D01*
X123969928Y-111721764D01*
X123969928Y-111721764D01*
G37*
G36*
X124531000Y-111121000D02*
G01*
X123129000Y-111121000D01*
X123129000Y-110319000D01*
X124531000Y-110319000D01*
X124531000Y-111121000D01*
X124531000Y-111121000D01*
G37*
G36*
X126631000Y-111071000D02*
G01*
X125229000Y-111071000D01*
X125229000Y-110269000D01*
X126631000Y-110269000D01*
X126631000Y-111071000D01*
X126631000Y-111071000D01*
G37*
G36*
X122191000Y-110651000D02*
G01*
X119739000Y-110651000D01*
X119739000Y-109949000D01*
X122191000Y-109949000D01*
X122191000Y-110651000D01*
X122191000Y-110651000D01*
G37*
G36*
X124531000Y-109221000D02*
G01*
X123129000Y-109221000D01*
X123129000Y-108419000D01*
X124531000Y-108419000D01*
X124531000Y-109221000D01*
X124531000Y-109221000D01*
G37*
G36*
X126631000Y-109171000D02*
G01*
X125229000Y-109171000D01*
X125229000Y-108369000D01*
X126631000Y-108369000D01*
X126631000Y-109171000D01*
X126631000Y-109171000D01*
G37*
M02*
